<svg width="55" height="55" viewBox="0 0 55 55" fill="none" xmlns="http://www.w3.org/2000/svg">
<path d="M46.7678 39.4148C49.2362 36.445 50.9529 32.9244 51.7728 29.1508C52.5928 25.3771 52.4918 21.4615 51.4784 17.7352C50.465 14.0089 48.569 10.5815 45.9508 7.74285C43.3326 4.90425 40.0693 2.73799 36.4369 1.42732C32.8044 0.116654 28.9097 -0.29986 25.0823 0.213015C21.2548 0.72589 17.6072 2.15307 14.448 4.37381C11.2887 6.59455 8.71082 9.54353 6.93233 12.9713C5.15385 16.399 4.2271 20.2047 4.23048 24.0664C4.23178 29.6801 6.21004 35.1141 9.81813 39.4148L9.78376 39.444C9.90407 39.5884 10.0416 39.7122 10.1653 39.8548C10.32 40.0318 10.4867 40.1986 10.6466 40.3704C11.1278 40.8929 11.6228 41.3948 12.1419 41.8658C12.3 42.0101 12.4633 42.1442 12.6231 42.2817C13.1731 42.7561 13.7386 43.2064 14.3247 43.6258C14.4003 43.6773 14.4691 43.7443 14.5447 43.7976V43.777C18.5702 46.6098 23.3724 48.1301 28.2947 48.1301C33.217 48.1301 38.0192 46.6098 42.0447 43.777V43.7976C42.1203 43.7443 42.1874 43.6773 42.2647 43.6258C42.8491 43.2047 43.4163 42.7561 43.9663 42.2817C44.1261 42.1442 44.2894 42.0084 44.4475 41.8658C44.9666 41.3931 45.4616 40.8929 45.9428 40.3704C46.1027 40.1986 46.2677 40.0318 46.4241 39.8548C46.5461 39.7122 46.6853 39.5884 46.8056 39.4423L46.7678 39.4148ZM28.293 10.3164C29.8227 10.3164 31.3181 10.77 32.59 11.6199C33.8619 12.4697 34.8532 13.6777 35.4386 15.0909C36.024 16.5042 36.1772 18.0593 35.8787 19.5597C35.5803 21.06 34.8437 22.4381 33.762 23.5198C32.6803 24.6015 31.3022 25.3381 29.8019 25.6365C28.3016 25.9349 26.7464 25.7818 25.3332 25.1964C23.9199 24.611 22.7119 23.6197 21.8621 22.3477C21.0122 21.0758 20.5586 19.5805 20.5586 18.0508C20.5586 15.9995 21.3735 14.0322 22.824 12.5817C24.2744 11.1312 26.2417 10.3164 28.293 10.3164ZM14.555 39.4148C14.5848 37.158 15.502 35.0037 17.108 33.418C18.714 31.8322 20.8798 30.9425 23.1367 30.9414H33.4492C35.7062 30.9425 37.872 31.8322 39.478 33.418C41.084 35.0037 42.0011 37.158 42.0309 39.4148C38.2615 42.8116 33.3672 44.6915 28.293 44.6915C23.2188 44.6915 18.3245 42.8116 14.555 39.4148Z" fill="url(#paint0_linear_724_1164)"/>
<defs>
<linearGradient id="paint0_linear_724_1164" x1="28.2758" y1="0" x2="28.2758" y2="48.1301" gradientUnits="userSpaceOnUse">
<stop stop-color="#3AFFF3"/>
<stop offset="1" stop-color="#FF3AF7" stop-opacity="0.76"/>
</linearGradient>
</defs>
</svg>
