<svg width="174" height="48" viewBox="0 0 174 48" fill="none" xmlns="http://www.w3.org/2000/svg">
<g clip-path="url(#clip0_1311_277)">
<path d="M25.5987 42.0718C23.8245 42.0718 22.0451 42.1513 20.2768 42.0487C18.6837 41.9518 18.0782 41.1153 18.0597 39.3908C18.0868 28.5632 16.812 17.7712 14.2622 7.24454C13.7753 5.32254 13.2152 3.41901 12.7041 1.50282C12.6758 1.39729 12.7615 1.26175 12.7235 1.40602L22.8329 0.213074C22.0189 7.201 21.1877 14.3226 20.3619 21.4441C19.9075 25.3817 19.4568 29.3225 19.0101 33.2665C18.9031 34.2212 18.7659 35.1769 18.7396 36.1355C18.6712 36.7771 18.7386 37.4259 18.9384 38.0397C19.1381 38.6536 19.4654 39.2189 19.8988 39.6991C20.3322 40.1792 20.8618 40.5637 21.454 40.8272C22.0463 41.0909 22.6876 41.2279 23.3364 41.2295C24.0813 41.2924 24.8243 41.3622 25.5683 41.428L25.5987 42.0718Z" fill="#399C2E"/>
<path d="M15.9548 38.5474C11.8765 28.729 6.58443 19.4537 0.201172 10.9355L6.25337 8.64078C9.49113 13.0328 16.4495 34.1302 15.9548 38.5474Z" fill="#399C2E"/>
<path d="M6.99805 5.95705L12.5016 4.90652C14.9984 14.0641 16.4523 23.4716 16.8359 32.9522C13.6148 24.112 10.2971 15.0103 6.99805 5.95705Z" fill="#399C2E"/>
<path d="M26.0804 44.856C22.8329 47.2969 19.5727 47.6087 19.042 45.7273L26.0804 44.856Z" fill="#399C2E"/>
<path d="M24.0852 43.5557C22.2652 44.2721 20.4288 44.8741 18.7676 43.2319L24.0852 43.5557Z" fill="#399C2E"/>
<path d="M46.1098 1.94581C44.7183 1.72021 43.318 1.54689 41.9138 1.41134C36.9243 0.927201 31.9359 0.412116 26.9376 0.0335266C26.519 -0.021875 26.0934 0.0119437 25.689 0.132811C25.2846 0.253678 24.9107 0.458842 24.5922 0.734546C24.2736 1.01025 24.0176 1.35023 23.8414 1.73188C23.6652 2.11353 23.5729 2.52808 23.5704 2.948C22.2824 13.9365 21.0104 24.9268 19.7543 35.9192C19.6697 36.3964 19.6862 36.886 19.8032 37.3565C19.9203 37.8269 20.1351 38.2677 20.4337 38.6506C20.7323 39.0337 21.1082 39.3504 21.5373 39.5803C21.9663 39.8102 22.4388 39.9483 22.9246 39.9858C28.8558 40.7178 34.8045 41.352 40.0267 41.9436C44.0015 42.1014 44.8869 41.3859 45.3738 38.2206C45.442 37.7782 45.4709 37.3298 45.5236 36.8845C46.6401 26.5073 47.7598 16.1302 48.8823 5.75302C49.1209 3.57928 48.2609 2.29245 46.1098 1.94581ZM42.0793 38.5655C35.9846 37.9012 30.1745 37.2544 24.3572 36.6463C23.1742 36.5224 23.07 35.8358 23.181 34.8976C23.8359 29.4327 24.4822 23.9673 25.1203 18.5011C25.6189 14.2466 26.1003 9.9901 26.6086 5.73753C26.6894 5.05976 26.8692 4.38682 27.0279 3.58898L45.7708 5.75007C44.5312 16.7834 43.3121 27.6145 42.0793 38.5655Z" fill="#2A9DB5"/>
<path d="M29.5821 20.6925L29.6792 19.73C29.7056 18.9352 30.0293 18.1789 30.5868 17.6087C30.8639 17.3741 31.1889 17.2025 31.5397 17.106C31.8903 17.0094 32.2582 16.9904 32.6171 17.0499C32.9773 17.0622 33.3305 17.1551 33.6498 17.3215C33.9691 17.488 34.2463 17.7239 34.4614 18.0114C34.8733 18.6931 35.0259 19.499 34.8916 20.283L34.362 25.4244L32.6951 25.255L33.2304 20.0582C33.3002 19.658 33.2611 19.2464 33.1168 18.8663C33.0535 18.7386 32.9566 18.6302 32.8367 18.5523C32.7168 18.4745 32.578 18.4301 32.4349 18.4239C32.2966 18.4022 32.1551 18.419 32.0256 18.472C31.8961 18.5252 31.7837 18.6126 31.7009 18.725C31.4852 19.0725 31.3651 19.4702 31.3523 19.8783L30.8179 25.0632L29.1514 24.8928L29.4553 21.9455L28.7677 21.8748C28.6747 22.1333 28.4918 22.35 28.2518 22.4857C27.9894 22.6272 27.6888 22.6817 27.3931 22.6417L27.124 22.6144L27.7359 20.5047L29.5821 20.6925Z" fill="#399C2E"/>
<path d="M38.8813 25.8838C38.2995 25.85 37.731 25.6981 37.2105 25.4374C36.8333 25.2265 36.5477 24.8845 36.4089 24.4769C36.2523 23.9328 36.2146 23.3617 36.2982 22.8018L36.3642 22.1512C36.4271 21.2456 36.636 20.3559 36.9833 19.5164C37.2226 18.9412 37.6608 18.47 38.219 18.1881C38.9024 17.9201 39.6456 17.8396 40.3709 17.9548L41.8844 18.1086L42.0527 20.2979L41.7831 20.2699C41.4873 20.248 41.2061 20.1329 40.9805 19.9415C40.77 19.7625 40.6318 19.514 40.5911 19.2415C40.1228 19.1642 39.6424 19.2147 39.2008 19.3877C38.8463 19.5776 38.5755 19.8921 38.442 20.2699C38.2136 20.9282 38.0749 21.614 38.0293 22.309L37.9503 23.069C37.8736 23.4572 37.9319 23.8598 38.1158 24.2106C38.2279 24.3426 38.3676 24.4487 38.5252 24.5214C38.6828 24.5942 38.8545 24.6319 39.0282 24.6318L40.1133 24.7422C40.2168 24.5349 40.3924 24.3722 40.6078 24.2842C40.8473 24.1669 41.1153 24.1191 41.3808 24.1467L41.6495 24.1738L41.2087 25.4828L41.3723 26.8597L41.1031 26.8317C40.8356 26.8065 40.5809 26.7057 40.3691 26.5412C40.1768 26.4113 40.0386 26.2166 39.9797 25.9931L38.8813 25.8838Z" fill="#399C2E"/>
<path d="M57.7552 15.0132H62.7965L72.8379 40.9752H67.6767L65.6323 35.6275H54.9794L52.8546 40.9752H47.6934L57.7552 15.0132ZM60.3065 21.8966L56.801 30.8104H63.786L60.3065 21.8966Z" fill="#399C2E"/>
<path d="M75.0098 21.7723H79.1639V24.1929C79.548 23.3183 80.1684 22.5669 80.9564 22.0222C81.6791 21.5346 82.5333 21.2761 83.4065 21.2805C84.0922 21.2949 84.7657 21.4637 85.3764 21.7743L83.8667 25.9223C83.437 25.6796 82.9584 25.5351 82.4656 25.4991C82.0527 25.5303 81.6571 25.6757 81.323 25.9191C80.989 26.1624 80.7299 26.4938 80.5756 26.876C80.0601 27.7932 79.8028 29.5932 79.8034 32.276L79.822 33.2113V40.9767H75.0117L75.0098 21.7723Z" fill="#399C2E"/>
<path d="M89.6635 13.8663C90.0719 13.8613 90.4768 13.9402 90.853 14.0981C91.2291 14.2561 91.5686 14.4897 91.8496 14.7843C92.1455 15.0745 92.3794 15.4216 92.5356 15.8045C92.6927 16.1874 92.7695 16.5979 92.7616 17.0112C92.7686 17.4191 92.6927 17.8243 92.5374 18.202C92.382 18.5797 92.1507 18.922 91.8584 19.2082C91.5808 19.4998 91.2466 19.7311 90.8748 19.8875C90.503 20.044 90.1024 20.1223 89.6992 20.1173C89.2873 20.1233 88.8789 20.0439 88.5001 19.8844C88.1205 19.7249 87.7784 19.4887 87.4956 19.1908C87.1992 18.8959 86.9661 18.5447 86.8095 18.1581C86.6529 17.7714 86.5765 17.3572 86.5846 16.9405C86.5782 16.5366 86.6544 16.1359 86.8095 15.7625C86.9646 15.3892 87.195 15.0513 87.486 14.7697C87.7679 14.479 88.1057 14.2489 88.4801 14.0935C88.8544 13.9382 89.2576 13.8608 89.6635 13.8663ZM87.2407 21.7732H92.0862V40.9756H87.2407V21.7732Z" fill="#399C2E"/>
<path d="M94.1776 21.7725H95.9004C95.9117 19.2551 95.9536 17.7665 96.0243 17.3069C96.068 16.8198 96.2085 16.3464 96.4389 15.9142C96.6684 15.4819 96.9826 15.0995 97.3631 14.7894C98.303 14.1177 99.448 13.7902 100.603 13.8627C101.77 13.8945 102.923 14.1274 104.011 14.5512V18.2229C103.453 18.0463 102.874 17.9454 102.29 17.9227C101.845 17.8848 101.403 18.0106 101.047 18.276C100.816 18.5914 100.713 18.9828 100.762 19.3702L100.745 21.7705H103.815V25.8489H100.745V40.974H95.8995V25.8489H94.1768L94.1776 21.7725Z" fill="#399C2E"/>
<path d="M111.468 21.7723V23.8899C112.28 23.0625 113.245 22.3977 114.309 21.9311C115.34 21.493 116.451 21.2708 117.573 21.2784C118.787 21.264 119.99 21.5105 121.099 22.0009C122.208 22.4915 123.197 23.2144 124 24.1203C125.801 26.1157 126.75 28.7302 126.645 31.4094C126.722 34.0658 125.74 36.6448 123.911 38.5833C123.1 39.4945 122.102 40.2231 120.985 40.7207C119.868 41.2182 118.657 41.4732 117.433 41.4686C116.368 41.4777 115.313 41.2765 114.327 40.877C113.263 40.4116 112.293 39.7552 111.469 38.9404V47.9947H106.658V21.7683L111.468 21.7723ZM116.562 25.7256C115.855 25.706 115.152 25.8337 114.498 26.1005C113.843 26.3673 113.253 26.7673 112.764 27.2748C112.254 27.818 111.858 28.4568 111.599 29.1536C111.34 29.8504 111.223 30.5916 111.256 31.3338C111.187 32.8577 111.73 34.3464 112.764 35.4731C113.249 35.9886 113.838 36.396 114.493 36.6683C115.147 36.9407 115.852 37.0719 116.562 37.0533C117.264 37.0659 117.96 36.9292 118.604 36.6522C119.248 36.3751 119.826 35.9642 120.298 35.447C121.326 34.3345 121.872 32.8633 121.816 31.3532C121.873 29.8606 121.337 28.4054 120.324 27.303C119.847 26.7891 119.264 26.3825 118.616 26.1105C117.968 25.8385 117.269 25.7072 116.565 25.7256H116.562Z" fill="#2A9DB5"/>
<path d="M144.906 21.7721H149.752V40.9747H144.906V38.9414C144.085 39.7541 143.12 40.4105 142.06 40.8779C141.079 41.2779 140.028 41.479 138.967 41.4695C137.744 41.474 136.534 41.2188 135.418 40.7213C134.303 40.2238 133.306 39.4951 132.496 38.5841C130.671 36.644 129.691 34.0654 129.77 31.4102C129.664 28.7315 130.612 26.1173 132.411 24.1211C133.212 23.2157 134.2 22.493 135.308 22.0025C136.415 21.512 137.616 21.2652 138.829 21.2793C139.949 21.2718 141.059 21.494 142.09 21.9319C143.15 22.3961 144.109 23.0614 144.914 23.8907L144.906 21.7721ZM139.813 25.7256C139.113 25.7084 138.418 25.8405 137.773 26.1131C137.13 26.3857 136.553 26.7924 136.08 27.3057C135.07 28.4096 134.536 29.8643 134.593 31.3561C134.537 32.8651 135.08 34.3353 136.106 35.4498C136.574 35.9666 137.149 36.3775 137.793 36.6546C138.435 36.9316 139.13 37.0686 139.83 37.0562C140.537 37.0746 141.241 36.9433 141.894 36.6709C142.546 36.3984 143.133 35.991 143.615 35.4759C144.646 34.3478 145.187 32.8599 145.119 31.3367C145.151 30.5948 145.035 29.8539 144.776 29.1571C144.518 28.4603 144.123 27.8215 143.615 27.2777C143.126 26.7686 142.534 26.3673 141.88 26.0999C141.224 25.8325 140.521 25.705 139.813 25.7256Z" fill="#2A9DB5"/>
<path d="M152.509 21.7743H157.46L162.475 33.8233L168.01 21.7743H172.977L160.883 48.0005H155.878L159.848 39.5437L152.509 21.7743Z" fill="#2A9DB5"/>
</g>
<defs>
<clipPath id="clip0_1311_277">
<rect width="173.673" height="48" fill="white"/>
</clipPath>
</defs>
</svg>
