<svg width="74" height="72" viewBox="0 0 74 72" fill="none" xmlns="http://www.w3.org/2000/svg">
<path d="M71.1207 46.4515C70.9524 46.0728 70.7 45.7783 70.4896 45.4416C70.2371 45.105 69.9847 44.8105 69.6902 44.5581C69.3956 44.3056 69.059 44.1373 68.6383 43.969C68.3017 43.8849 67.8809 43.8428 67.4601 43.8849C66.6607 43.969 65.8613 44.2635 65.146 44.6001C63.6733 45.3154 62.2849 46.2411 60.9384 47.2088C59.592 48.1766 58.2877 49.1864 56.9833 50.1962L53.449 52.9311C52.2709 53.8568 51.0507 54.6983 49.8726 55.5819C48.6524 56.4234 47.4322 57.307 46.1699 58.0643L44.2765 59.2424L42.2989 60.2943C40.9946 61.0517 39.564 61.5987 38.1755 62.2298L35.0198 63.3658L33.8838 63.6604L31.6538 64.2074C30.8964 64.3757 30.1391 64.4598 29.3817 64.6281C27.867 64.9226 26.3523 65.0068 24.8375 65.133C23.3228 65.1751 21.8081 65.2592 20.2934 65.2172L18.0213 65.1751L15.7492 65.0068C15.5388 65.0068 15.3705 64.9647 15.1602 64.9647C23.9119 71.2761 35.3985 73.7585 46.6748 70.687C58.7925 67.4051 67.8388 58.5272 71.7097 47.6296L71.1207 46.4515Z" fill="#21205F"/>
<path d="M72.594 28.9063C72.3416 28.9063 71.9208 28.9484 71.5422 29.0746C70.7848 29.285 69.9854 29.6637 69.1859 30.0845C67.5871 30.926 66.0723 32.0199 64.5576 33.0718L59.9714 36.3537C58.4146 37.4477 56.8578 38.4996 55.301 39.5515C54.5015 40.0564 53.7021 40.5192 52.9027 41.0241C52.1032 41.529 51.2617 41.9498 50.4202 42.4127C49.6208 42.8756 48.7372 43.2963 47.8957 43.7171C47.0542 44.1378 46.2127 44.5586 45.3291 44.8531C44.4455 45.1897 43.604 45.6105 42.6783 45.8629L39.9434 46.7044L37.1664 47.3356C36.2407 47.5459 35.315 47.6301 34.3894 47.7563C33.4637 47.9246 32.496 47.9667 31.5703 48.0088C30.6026 48.0929 29.6769 48.135 28.7513 48.0929C27.7835 48.0929 26.8579 48.135 25.9322 48.0929C24.9645 48.0509 24.0388 48.0509 23.1131 47.9667C21.2197 47.8405 19.3684 47.7143 17.475 47.5039L11.8789 46.9148C10.0276 46.7465 8.13422 46.5782 6.2829 46.6203C5.35723 46.6203 4.43157 46.7044 3.59006 46.9148C3.1693 46.999 2.8327 47.1252 2.49609 47.3356C4.01081 51.8377 6.36705 55.8348 9.31234 59.243C9.48064 59.285 9.60687 59.285 9.77517 59.285C11.7948 59.5796 13.8144 59.832 15.8341 60.0424C17.8537 60.2528 19.8733 60.4211 21.8929 60.4632C22.9027 60.4632 23.9126 60.5052 24.9224 60.4632C25.9322 60.4211 26.942 60.379 27.9097 60.2949C28.8775 60.1686 29.8873 60.0424 30.855 59.9162L33.8003 59.285L36.6615 58.4015C37.5871 58.0648 38.5128 57.6441 39.4384 57.2654C40.3641 56.8447 41.2477 56.3818 42.1313 55.9611C43.0149 55.4982 43.8985 54.9513 44.7821 54.4884C46.5072 53.4365 48.1902 52.3426 49.8312 51.1645C51.4721 49.9863 53.1131 48.7661 54.7119 47.5459C56.3529 46.3258 57.9938 45.1056 59.7189 43.9275C61.444 42.7914 63.2533 41.6973 65.315 41.1083C66.3248 40.8558 67.4608 40.7296 68.5548 40.94C69.6067 41.1503 70.6586 41.6552 71.4159 42.4127C71.7946 42.7914 72.1733 43.1701 72.5099 43.5908C73.5618 38.9205 73.6459 33.9555 72.6361 28.9906L72.594 28.9063Z" fill="#21205F"/>
<path d="M14.5691 43.3378C16.6308 43.5903 18.6925 43.8007 20.7121 44.011C22.7738 44.1793 24.7934 44.3056 26.8551 44.3477C27.8649 44.3477 28.9168 44.3477 29.9266 44.3056C30.9365 44.2214 31.9463 44.1794 32.9561 44.0952C33.9659 43.9269 34.9757 43.8427 35.9435 43.6324L38.8467 42.9592L41.792 41.9913C42.7177 41.6126 43.6013 41.1919 44.5269 40.8132C45.4526 40.3924 46.3362 39.8875 47.2197 39.4247C48.1033 38.9619 48.9869 38.3728 49.8284 37.8679C51.5535 36.7739 53.1945 35.6379 54.8354 34.4177C56.0977 33.492 57.3179 32.5243 58.5802 31.5566C56.8551 32.1035 55.172 32.5664 53.5732 33.0292L53.3628 33.0713C52.942 33.1554 52.5634 33.2396 52.1426 33.3658C51.3011 33.5762 50.4596 33.7866 49.5339 33.9549L49.3656 33.9969C48.9869 34.039 48.5662 34.1232 48.1875 34.2073C47.346 34.3756 46.5045 34.5018 45.5788 34.6701L45.3263 34.7122L44.0641 34.8384C43.2646 34.9226 42.4652 35.0067 41.6237 35.0909L41.2029 35.133L37.1216 35.2171L32.8719 34.9226C32.0304 34.8384 31.1889 34.7122 30.3474 34.586C29.9266 34.5439 29.548 34.4598 29.1272 34.4177L28.8748 34.3756C27.9912 34.2073 27.1917 34.039 26.3923 33.8707L25.13 33.6183L24.9617 33.5762C24.0781 33.3658 23.2366 33.1133 22.4372 32.903C22.0164 32.7767 21.6378 32.6505 21.217 32.5664L21.0066 32.5243C18.6504 31.809 16.21 30.9675 13.6434 29.9998C11.1189 29.032 8.67848 28.0222 6.5747 27.1807C5.98564 26.9282 4.97583 26.5075 3.71356 25.9605C3.08243 25.708 2.40922 25.4135 1.65186 25.119C-0.19947 30.9254 -0.536075 37.2788 0.852419 43.5902C1.18902 43.4639 1.52563 43.3377 1.86223 43.2536C4.05016 42.7066 6.19602 42.7487 8.2998 42.8749C10.4457 42.8749 12.5074 43.0854 14.5691 43.3378Z" fill="#F7923A"/>
<path d="M27.4852 6.85877C31.6507 11.0242 40.4445 17.9246 63.7123 11.5712C57.0223 4.41838 47.4291 -0.0416279 36.784 0.000447695C32.4922 0.000447695 28.3688 0.757808 24.582 2.1463C25.0869 3.7031 25.9705 5.34405 27.4852 6.85877Z" fill="#F7923A"/>
<path d="M69.7734 20.365C69.2264 19.271 68.6374 18.2191 68.0062 17.1673C60.8534 18.4295 54.4158 19.1027 48.7356 19.1027C36.8703 19.1448 28.2448 16.4941 22.9854 11.1084C20.9657 9.04667 19.7035 6.81667 18.904 4.71289C12.5927 8.24724 7.45946 13.6329 4.26172 20.1125C11.2883 24.4884 36.9544 37.4477 69.7734 20.365Z" fill="#F7923A"/>
</svg>
