<svg width="24" height="24" viewBox="0 0 24 24" fill="none" xmlns="http://www.w3.org/2000/svg">
<path d="M5.29515 0C2.51628 0 0.261719 2.01562 0.261719 4.5V19.5C0.261719 21.9844 2.51628 24 5.29515 24H22.0733C23.0013 24 23.7511 23.3297 23.7511 22.5C23.7511 21.6703 23.0013 21 22.0733 21V18C23.0013 18 23.7511 17.3297 23.7511 16.5V1.5C23.7511 0.670312 23.0013 0 22.0733 0H20.3955H5.29515ZM5.29515 18H18.7176V21H5.29515C4.36711 21 3.61734 20.3297 3.61734 19.5C3.61734 18.6703 4.36711 18 5.29515 18ZM6.97296 6.75C6.97296 6.3375 7.35047 6 7.81187 6H17.8787C18.3401 6 18.7176 6.3375 18.7176 6.75C18.7176 7.1625 18.3401 7.5 17.8787 7.5H7.81187C7.35047 7.5 6.97296 7.1625 6.97296 6.75ZM7.81187 9H17.8787C18.3401 9 18.7176 9.3375 18.7176 9.75C18.7176 10.1625 18.3401 10.5 17.8787 10.5H7.81187C7.35047 10.5 6.97296 10.1625 6.97296 9.75C6.97296 9.3375 7.35047 9 7.81187 9Z" fill="#966DED"/>
</svg>
