<svg width="22" height="22" viewBox="0 0 22 22" fill="none" xmlns="http://www.w3.org/2000/svg">
<path d="M5.05386 2.88533C5.05394 2.37268 5.25762 1.88105 5.62012 1.51855C5.98262 1.15605 6.47425 0.952369 6.9869 0.952291L19.2906 0.952292C19.8032 0.952369 20.2948 1.15605 20.6573 1.51855C21.0198 1.88105 21.2235 2.37268 21.2236 2.88533V15.189C21.2148 15.6958 21.0073 16.179 20.6457 16.5343C20.2841 16.8896 19.7975 17.0887 19.2906 17.0887C18.7836 17.0887 18.297 16.8896 17.9354 16.5343C17.5739 16.179 17.3663 15.6958 17.3575 15.189L17.2399 7.67009L4.25276 20.6573C3.89019 21.0199 3.39843 21.2235 2.88568 21.2235C2.37293 21.2235 1.88118 21.0199 1.51861 20.6573C1.15604 20.2947 0.95235 19.803 0.95235 19.2902C0.95235 18.7775 1.15604 18.2857 1.51861 17.9231L14.5058 4.93594L6.9869 4.81837C6.47425 4.8183 5.98262 4.61461 5.62012 4.25211C5.25762 3.88961 5.05394 3.39798 5.05386 2.88533Z" fill="white"/>
</svg>
