<svg width="10" height="10" viewBox="0 0 10 10" fill="none" xmlns="http://www.w3.org/2000/svg">
<g clip-path="url(#clip0_458_1285)">
<path d="M9.59721 3.72125C9.59741 3.59255 9.56353 3.46609 9.499 3.35474C9.43448 3.24338 9.34162 3.1511 9.22986 3.08727L5.23642 0.717278C5.12133 0.650129 4.99047 0.614746 4.85722 0.614746C4.72397 0.614746 4.59311 0.650129 4.47802 0.717278L0.478655 3.08727C0.368137 3.15285 0.276584 3.24606 0.212994 3.35773C0.149405 3.4694 0.115967 3.5957 0.115967 3.72421C0.115967 3.85272 0.149405 3.97902 0.212994 4.09069C0.276584 4.20236 0.368137 4.29557 0.478655 4.36115L1.61625 5.02474V6.68967C1.61694 6.81979 1.65109 6.94754 1.71542 7.06064C1.77976 7.17375 1.87211 7.2684 1.9836 7.33549L4.50172 8.78711C4.61415 8.84936 4.74056 8.88202 4.86907 8.88202C4.99758 8.88202 5.12399 8.84936 5.23642 8.78711L7.75454 7.33549C7.86603 7.2684 7.95838 7.17375 8.02272 7.06064C8.08705 6.94754 8.1212 6.81979 8.12189 6.68967V5.00697L8.85659 4.57444V6.18604H9.59721V3.72125ZM7.38719 6.68374L4.85722 8.14129L2.35688 6.68967V5.46319L4.47802 6.72522C4.59351 6.7912 4.72421 6.82591 4.85722 6.82591C4.99023 6.82591 5.12093 6.7912 5.23642 6.72522L7.38126 5.44542L7.38719 6.68374ZM4.85722 6.08532L0.857854 3.71532L4.85722 1.3394L8.85659 3.7094L4.85722 6.08532Z" fill="#966DED"/>
</g>
<defs>
<clipPath id="clip0_458_1285">
<rect width="9.47998" height="9.47998" fill="white" transform="translate(0.117188 0.000244141)"/>
</clipPath>
</defs>
</svg>
