<svg width="17" height="17" viewBox="0 0 17 17" fill="none" xmlns="http://www.w3.org/2000/svg">
<g clip-path="url(#clip0_487_369)">
<path d="M11.9562 6.44877C12.3382 6.84677 12.3262 7.48011 11.9275 7.86277L8.85753 10.8121C8.4122 11.2514 7.82286 11.4714 7.2322 11.4714C6.64153 11.4714 6.04953 11.2514 5.5982 10.8108L4.56686 9.88544C4.1562 9.51611 4.1222 8.88411 4.49153 8.47344C4.86086 8.06344 5.49153 8.02811 5.9042 8.39811L6.96553 9.35144C7.12353 9.50477 7.33553 9.50611 7.46286 9.37944L10.5429 6.42077C10.9409 6.03811 11.5722 6.04944 11.9562 6.44877ZM16.2349 8.80811C16.2349 13.2194 12.6462 16.8081 8.23486 16.8081C3.82353 16.8081 0.234863 13.2194 0.234863 8.80811C0.234863 4.39677 3.82353 0.808105 8.23486 0.808105C12.6462 0.808105 16.2349 4.39677 16.2349 8.80811ZM14.2349 8.80811C14.2349 5.50011 11.5435 2.80811 8.23486 2.80811C4.9262 2.80811 2.23486 5.50011 2.23486 8.80811C2.23486 12.1161 4.9262 14.8081 8.23486 14.8081C11.5435 14.8081 14.2349 12.1161 14.2349 8.80811Z" fill="#031621"/>
</g>
<defs>
<clipPath id="clip0_487_369">
<rect width="16" height="16" fill="white" transform="translate(0.234863 0.808105)"/>
</clipPath>
</defs>
</svg>
