<svg width="14" height="14" viewBox="0 0 14 14" fill="none" xmlns="http://www.w3.org/2000/svg">
<g clip-path="url(#clip0_1387_231)">
<path d="M10.2562 4.93558C10.5904 5.28383 10.5799 5.838 10.2311 6.17283L7.54483 8.7535C7.15517 9.13792 6.6395 9.33042 6.12267 9.33042C5.60583 9.33042 5.08783 9.13792 4.69292 8.75233L3.7905 7.94267C3.43117 7.6195 3.40142 7.0665 3.72458 6.70717C4.04775 6.34842 4.59958 6.3175 4.96067 6.64125L5.88933 7.47542C6.02758 7.60958 6.21308 7.61075 6.3245 7.49992L9.0195 4.91108C9.36775 4.57625 9.92017 4.58617 10.2562 4.93558ZM14 7C14 10.8599 10.8599 14 7 14C3.14008 14 0 10.8599 0 7C0 3.14008 3.14008 0 7 0C10.8599 0 14 3.14008 14 7ZM12.25 7C12.25 4.1055 9.89508 1.75 7 1.75C4.10492 1.75 1.75 4.1055 1.75 7C1.75 9.8945 4.10492 12.25 7 12.25C9.89508 12.25 12.25 9.8945 12.25 7Z" fill="#0FA958"/>
</g>
<defs>
<clipPath id="clip0_1387_231">
<rect width="14" height="14" fill="white"/>
</clipPath>
</defs>
</svg>
