<svg width="19" height="19" viewBox="0 0 19 19" fill="none" xmlns="http://www.w3.org/2000/svg">
<g clip-path="url(#clip0_628_686)">
<path d="M14.0311 6.98979C14.4734 7.45064 14.4595 8.18397 13.9979 8.62706L10.4431 12.0421C9.92747 12.5508 9.24509 12.8055 8.56116 12.8055C7.87723 12.8055 7.19176 12.5508 6.66916 12.0405L5.47498 10.9691C4.99948 10.5414 4.96011 9.80965 5.38776 9.33414C5.81541 8.85941 6.54565 8.8185 7.02348 9.24692L8.25239 10.3508C8.43533 10.5283 8.68081 10.5299 8.82825 10.3832L12.3946 6.95737C12.8554 6.51429 13.5864 6.52741 14.0311 6.98979ZM18.9853 9.72165C18.9853 14.8295 14.83 18.9848 9.72214 18.9848C4.61428 18.9848 0.458984 14.8295 0.458984 9.72165C0.458984 4.61379 4.61428 0.458496 9.72214 0.458496C14.83 0.458496 18.9853 4.61379 18.9853 9.72165ZM16.6695 9.72165C16.6695 5.89134 13.5532 2.77429 9.72214 2.77429C5.89105 2.77429 2.77477 5.89134 2.77477 9.72165C2.77477 13.552 5.89105 16.669 9.72214 16.669C13.5532 16.669 16.6695 13.552 16.6695 9.72165Z" fill="#ECF7F8"/>
</g>
<defs>
<clipPath id="clip0_628_686">
<rect width="18.5263" height="18.5263" fill="white" transform="translate(0.458496 0.458496)"/>
</clipPath>
</defs>
</svg>
