<svg width="260" height="104" viewBox="0 0 260 104" fill="none" xmlns="http://www.w3.org/2000/svg">
<path d="M50.9567 47.5205H45.9794C45.8885 46.8766 45.7029 46.3046 45.4226 45.8046C45.1423 45.297 44.7825 44.8652 44.3431 44.5091C43.9037 44.1531 43.3961 43.8804 42.8204 43.691C42.2522 43.5016 41.6348 43.4069 40.9681 43.4069C39.7635 43.4069 38.7143 43.7061 37.8204 44.3046C36.9264 44.8955 36.2332 45.7591 35.7408 46.8955C35.2484 48.0243 35.0022 49.3955 35.0022 51.0091C35.0022 52.6682 35.2484 54.0622 35.7408 55.191C36.2408 56.3197 36.9378 57.172 37.8317 57.7478C38.7257 58.3235 39.7598 58.6114 40.934 58.6114C41.5931 58.6114 42.2029 58.5243 42.7635 58.3501C43.3317 58.1758 43.8355 57.922 44.2749 57.5887C44.7143 57.2478 45.0779 56.8349 45.3658 56.3501C45.6613 55.8652 45.8658 55.3122 45.9794 54.691L50.9567 54.7137C50.8279 55.7819 50.506 56.8122 49.9908 57.8046C49.4832 58.7894 48.7976 59.672 47.934 60.4523C47.0779 61.2251 46.0552 61.8387 44.8658 62.2932C43.684 62.7402 42.3469 62.9637 40.8544 62.9637C38.7787 62.9637 36.9226 62.494 35.2863 61.5546C33.6575 60.6152 32.3696 59.2554 31.4226 57.4751C30.4832 55.6947 30.0135 53.5394 30.0135 51.0091C30.0135 48.4713 30.4908 46.3122 31.4454 44.5319C32.3999 42.7516 33.6954 41.3955 35.3317 40.4637C36.9681 39.5243 38.809 39.0546 40.8544 39.0546C42.2029 39.0546 43.4529 39.244 44.6044 39.6228C45.7635 40.0016 46.7901 40.5546 47.684 41.2819C48.5779 42.0016 49.3052 42.8841 49.8658 43.9296C50.434 44.9751 50.7976 46.172 50.9567 47.5205ZM75.8715 51.0091C75.8715 53.547 75.3904 55.7061 74.4283 57.4864C73.4738 59.2667 72.1707 60.6266 70.5192 61.566C68.8753 62.4978 67.0268 62.9637 64.9738 62.9637C62.9056 62.9637 61.0495 62.494 59.4056 61.5546C57.7616 60.6152 56.4624 59.2554 55.5079 57.4751C54.5533 55.6947 54.076 53.5394 54.076 51.0091C54.076 48.4713 54.5533 46.3122 55.5079 44.5319C56.4624 42.7516 57.7616 41.3955 59.4056 40.4637C61.0495 39.5243 62.9056 39.0546 64.9738 39.0546C67.0268 39.0546 68.8753 39.5243 70.5192 40.4637C72.1707 41.3955 73.4738 42.7516 74.4283 44.5319C75.3904 46.3122 75.8715 48.4713 75.8715 51.0091ZM70.8829 51.0091C70.8829 49.3652 70.6366 47.9788 70.1442 46.8501C69.6594 45.7213 68.9738 44.8652 68.0874 44.2819C67.201 43.6985 66.1632 43.4069 64.9738 43.4069C63.7844 43.4069 62.7465 43.6985 61.8601 44.2819C60.9738 44.8652 60.2844 45.7213 59.7919 46.8501C59.3071 47.9788 59.0647 49.3652 59.0647 51.0091C59.0647 52.6531 59.3071 54.0394 59.7919 55.1682C60.2844 56.297 60.9738 57.1531 61.8601 57.7364C62.7465 58.3198 63.7844 58.6114 64.9738 58.6114C66.1632 58.6114 67.201 58.3198 68.0874 57.7364C68.9738 57.1531 69.6594 56.297 70.1442 55.1682C70.6366 54.0394 70.8829 52.6531 70.8829 51.0091ZM79.5164 39.3728H85.5846L91.9937 55.0091H92.2664L98.6755 39.3728H104.744V62.6455H99.9709V47.4978H99.7777L93.755 62.5319H90.505L84.4823 47.441H84.2891V62.6455H79.5164V39.3728ZM108.798 62.6455V39.3728H117.979C119.745 39.3728 121.248 39.7099 122.491 40.3841C123.733 41.0508 124.68 41.9788 125.332 43.1682C125.991 44.3501 126.32 45.7137 126.32 47.2591C126.32 48.8046 125.987 50.1682 125.32 51.3501C124.654 52.5319 123.688 53.4523 122.423 54.1114C121.165 54.7705 119.642 55.1001 117.854 55.1001H112.002V51.1569H117.059C118.006 51.1569 118.786 50.994 119.4 50.6682C120.021 50.3349 120.483 49.8766 120.786 49.2932C121.097 48.7023 121.252 48.0243 121.252 47.2591C121.252 46.4864 121.097 45.8122 120.786 45.2364C120.483 44.6531 120.021 44.2023 119.4 43.8841C118.779 43.5584 117.991 43.3955 117.036 43.3955H113.718V62.6455H108.798ZM129.516 62.6455V39.3728H134.437V58.5887H144.414V62.6455H129.516ZM147.673 62.6455V39.3728H163.354V43.4296H152.593V48.9751H162.548V53.0319H152.593V58.5887H163.4V62.6455H147.673ZM166.38 43.4296V39.3728H185.494V43.4296H178.369V62.6455H173.505V43.4296H166.38ZM188.641 62.6455V39.3728H204.323V43.4296H193.562V48.9751H203.516V53.0319H193.562V58.5887H204.369V62.6455H188.641ZM216.485 62.6455H208.235V39.3728H216.553C218.894 39.3728 220.909 39.8387 222.599 40.7705C224.288 41.6947 225.587 43.0243 226.496 44.7591C227.413 46.494 227.871 48.5698 227.871 50.9864C227.871 53.4107 227.413 55.494 226.496 57.2364C225.587 58.9788 224.281 60.316 222.576 61.2478C220.879 62.1796 218.849 62.6455 216.485 62.6455ZM213.156 58.4296H216.281C217.735 58.4296 218.959 58.172 219.951 57.6569C220.951 57.1341 221.701 56.3273 222.201 55.2364C222.709 54.1379 222.962 52.7213 222.962 50.9864C222.962 49.2667 222.709 47.8614 222.201 46.7705C221.701 45.6796 220.955 44.8766 219.962 44.3614C218.97 43.8463 217.746 43.5887 216.292 43.5887H213.156V58.4296Z" fill="#B1B1B1"/>
<path d="M256.403 61.9557C256.969 61.571 257.411 61.0309 257.675 60.4023C257.938 59.7737 258.011 59.0843 257.884 58.4198C256.826 57.2226 255.978 56.5931 255.026 55.6837C254.227 54.9211 253.356 53.9617 252.231 52.3094C249.094 47.7003 250.249 46.914 247.111 42.3043C243.974 37.6946 242.819 38.4815 239.681 33.8718C236.544 29.2621 237.699 28.4763 234.562 23.8666C233.017 21.598 231.955 20.6385 230.895 19.6929C229.887 18.7948 228.885 17.9141 227.478 15.9325C226.653 15.9324 225.851 16.2244 225.215 16.7562C224.579 17.288 224.151 18.0251 224.008 18.8356C225.573 20.9644 226.634 21.7237 227.823 22.8254C228.68 23.6227 229.603 24.6001 230.828 26.401C233.966 31.0107 232.811 31.797 235.948 36.4061C239.085 41.0152 240.241 40.2295 243.378 44.8387C246.515 49.4478 245.361 50.2346 248.498 54.8438C249.558 56.4014 250.392 57.343 251.153 58.0847C252.496 59.3954 253.61 60.0805 255.34 62.442C255.719 62.3402 256.078 62.1758 256.403 61.9557Z" fill="#FF3AF7" fill-opacity="0.4"/>
<path d="M23.452 84.7374C23.7102 84.4573 23.8816 84.1086 23.9448 83.7346C24.0081 83.3605 23.9605 82.9776 23.8079 82.6334C23.0829 82.1182 22.5433 81.8841 21.9122 81.5115C21.3827 81.1991 20.7892 80.7891 19.9707 80.0356C17.6873 77.9336 18.2141 77.3613 15.9304 75.2591C13.6467 73.1568 13.1202 73.7294 10.8365 71.6271C8.55277 69.5248 9.07988 68.9528 6.79618 66.8505C5.67225 65.8159 4.97518 65.4301 4.28081 65.0515C3.62099 64.692 2.96613 64.3413 1.95328 63.4449C1.50584 63.5492 1.10785 63.8089 0.830452 64.1776C0.553053 64.5463 0.414319 64.9999 0.439044 65.4574C1.55644 66.4136 2.22764 66.6911 3.01127 67.1381C3.57666 67.4619 4.20062 67.8751 5.09282 68.6964C7.37652 70.7986 6.8497 71.3709 9.13311 73.4729C11.4165 75.5749 11.9436 75.0029 14.227 77.1049C16.5105 79.2069 15.9839 79.7795 18.2673 81.8815C19.039 82.5918 19.61 82.9969 20.1163 83.3028C21.0102 83.8434 21.7006 84.074 22.9369 85.1355C23.1294 85.0324 23.3035 84.8978 23.452 84.7374Z" fill="#FF3AF7" fill-opacity="0.4"/>
<path d="M183.565 101.052L182.435 97.195C180.963 97.6263 179.38 97.4553 178.035 96.7195C176.689 95.9838 175.691 94.7436 175.26 93.2718L171.4 94.4028C172.132 96.8977 173.824 98.9998 176.106 100.247C178.387 101.494 181.07 101.784 183.565 101.052Z" fill="#3AFFF3" fill-opacity="0.4"/>
<path d="M169.724 10.629C169.84 10.992 170.058 11.3136 170.351 11.5538C170.645 11.7941 171.001 11.9424 171.376 11.9803C172.182 11.6057 172.653 11.2528 173.289 10.8892C173.823 10.584 174.473 10.2715 175.533 9.93365C178.49 8.99119 178.726 9.73231 181.684 8.78974C184.641 7.84717 184.405 7.10617 187.362 6.1636C190.319 5.22103 190.555 5.96226 193.513 5.01969C194.968 4.5558 195.649 4.14137 196.321 3.72569C196.961 3.33055 197.59 2.93536 198.87 2.49952C199.001 2.05916 198.973 1.5848 198.79 1.1612C198.607 0.737603 198.281 0.392382 197.872 0.187234C196.488 0.684298 195.914 1.12995 195.138 1.58928C194.576 1.92005 193.908 2.25744 192.753 2.62568C189.795 3.56825 189.559 2.82713 186.602 3.76959C183.645 4.71204 183.881 5.45328 180.924 6.39573C177.967 7.33819 177.73 6.59719 174.773 7.53964C173.774 7.85814 173.139 8.15349 172.623 8.44179C171.71 8.9506 171.168 9.4361 169.633 9.98436C169.628 10.2026 169.658 10.4205 169.724 10.629Z" fill="#FF3AF7" fill-opacity="0.4"/>
<path d="M66.4874 21.704L62.1781 17.3946C60.9263 18.6464 59.2285 19.3496 57.4582 19.3496C55.688 19.3496 53.9902 18.6464 52.7384 17.3946C51.4866 16.1429 50.7834 14.4451 50.7834 12.6748C50.7834 10.9045 51.4866 9.20676 52.7384 7.95499L48.4291 3.64564C46.0344 6.04032 44.6891 9.28821 44.6891 12.6748C44.6891 16.0614 46.0344 19.3093 48.4291 21.704C50.8238 24.0987 54.0716 25.444 57.4582 25.444C60.8448 25.444 64.0927 24.0987 66.4874 21.704Z" fill="#F5F95A" fill-opacity="0.4"/>
</svg>
