<svg width="77" height="77" viewBox="0 0 77 77" fill="none" xmlns="http://www.w3.org/2000/svg">
<path d="M38.6149 30.3311C29.5631 30.3311 20.4769 30.3017 11.4297 30.523C9.75495 30.564 8.07431 30.5245 6.39898 30.5245C5.67021 30.5245 4.78664 30.3895 4.07711 30.565C3.05626 30.8174 1.15862 32.1305 0.431586 32.8945C-0.0995426 33.4525 0.207331 35.1093 0.207331 35.841C0.207331 38.5796 0.304076 41.315 0.304076 44.0574V76.9229H76.9258V2.00878C69.7469 2.00878 62.5184 1.7881 55.3517 2.10167C53.5209 2.18171 51.6699 2.10546 49.8373 2.10546C49.0918 2.10546 48.1379 1.9479 47.4187 2.15476C46.5374 2.4083 45.68 3.24802 44.9033 3.73017C42.7473 5.06857 40.6306 6.4988 38.5182 7.90526C36.2701 9.40199 33.9936 10.8546 31.7461 12.3518C31.2569 12.6776 29.6072 13.3848 29.5231 14.004C29.4702 14.3923 29.9346 14.929 30.1149 15.2517C30.692 16.2846 31.2707 17.3174 31.8573 18.3449C34.1309 22.327 36.3006 26.3731 38.6149 30.3311ZM21.4911 2.20211V22.5014H21.3944C20.3833 20.5944 17.4199 20.5051 15.7832 21.53C13.7364 22.8119 13.1978 25.8402 14.7508 27.7212C15.2182 28.2873 15.7753 28.7449 16.4604 29.015C17.2473 29.3252 18.0511 29.3809 18.879 29.2549C19.956 29.0908 20.7408 28.4689 21.4911 27.7212C21.4911 28.106 21.3751 29.9973 22.3035 29.2651C22.6247 29.0118 22.4586 28.0866 22.4586 27.7212V23.178V7.90524C22.4586 6.14655 22.9897 3.4856 21.4911 2.20211ZM20.7172 4.71535C20.0893 6.90971 18.8806 9.10928 17.9412 11.1918C17.5574 12.0424 17.2887 13.2528 16.683 13.9682C16.0718 14.6901 14.7515 14.4844 14.1177 15.1819C13.2756 16.1087 12.6931 17.4653 12.0489 18.5382C10.7684 20.6705 9.4594 22.7858 8.17908 24.918C7.37968 26.2491 5.97253 27.8508 5.62503 29.3645H15.5897C14.6128 28.1654 13.5712 27.4445 13.3103 25.788C12.8818 23.0678 15.1084 20.4752 17.8148 20.2867C18.9349 20.2087 19.8026 20.6842 20.8139 21.0515V9.54852C20.8139 8.19156 21.2402 5.96067 20.7172 4.71535ZM23.3293 5.48866V29.3645H24.2V27.8179C25.0506 28.4159 25.6466 29.0419 26.7153 29.2426C27.3762 29.3667 27.9924 29.3539 28.6502 29.2022C33.1847 28.1566 32.5461 21.5894 28.1665 20.9006C27.5257 20.7997 26.8484 20.8778 26.2316 21.0727C25.4363 21.3239 24.787 21.8304 24.2 22.4047V10.3218C24.2 8.72524 24.5779 6.72286 23.3293 5.48866ZM24.8772 8.29189V21.0515C26.2814 20.4673 27.5149 20.0254 29.0372 20.5217C33.2283 21.8882 33.2284 26.952 30.0047 29.2678V29.3645H36.3898L33.9043 24.628L28.7769 15.2517L26.0791 10.3218L24.8772 8.29189ZM17.9116 21.7572C21.9588 21.3593 22.7595 27.8861 18.6855 28.3801C14.1449 28.9305 13.3385 22.2067 17.9116 21.7572ZM27.3925 21.7572C31.4307 21.3602 32.2214 27.8884 28.1665 28.3801C23.6214 28.9311 22.8182 22.2069 27.3925 21.7572ZM14.6223 47.1505V47.2472C15.271 47.2472 16.0256 47.142 16.6539 47.3235C19.0613 48.0188 17.5257 51.7583 17.5246 53.4337L16.1702 53.627C15.9376 52.2188 17.0014 50.5174 16.4988 49.181C16.1822 48.3391 14.9386 48.6085 14.2353 48.6001C13.6244 48.5929 12.8329 48.1335 12.2728 48.258C10.8993 48.5633 9.83012 49.8012 8.43062 50.0504L7.85015 48.8905L11.333 47.1505C10.9699 46.2102 10.7407 45.3612 10.7529 44.3473C10.7617 43.6116 11.0017 42.946 11.3768 42.3174C11.7334 41.7197 12.1858 41.2235 12.7841 40.8604C16.4005 38.6653 19.8464 43.2774 16.5557 46.0423C15.9934 46.5149 15.3315 46.9464 14.6223 47.1505ZM32.133 40.3841V41.8341H27.973V43.1874C33.108 43.8499 31.7461 49.8024 31.7461 53.5303L30.3916 53.4337V48.6005C30.3916 47.8366 30.5418 46.8928 30.2059 46.1839C29.218 44.0984 25.8568 44.0323 24.7188 45.9906C24.2484 46.8003 24.3935 47.7978 24.3935 48.6972C24.3935 50.2812 24.2967 51.8496 24.2967 53.4337H22.9423C22.9423 51.0493 22.3536 47.7332 23.3177 45.5073C23.6792 44.6725 24.3546 44.0403 25.1674 43.65C25.5322 43.4747 26.2912 43.4073 26.5191 43.0603C26.7224 42.7511 26.6186 42.1882 26.6186 41.8341H22.4586V40.3841H32.133ZM38.8084 44.0573V44.154C39.8791 44.2385 41.7693 43.829 42.5134 44.8408C42.9438 45.426 42.7918 46.3216 42.5738 46.9572C42.0241 48.561 41.0901 50.083 40.3324 51.5971C40.0904 52.0809 39.7515 53.2629 39.2544 53.5175C38.9088 53.6945 38.3504 53.2751 38.0344 53.1437C38.5598 51.3216 39.7736 49.5238 40.6227 47.8272C40.8412 47.3905 41.5921 46.3281 41.3121 45.828C41.1227 45.4899 40.4814 45.6044 40.1628 45.6039C39.3544 45.6029 37.7639 45.6207 37.496 44.6369C37.1718 43.4458 38.8521 42.1126 39.8726 41.9307V41.8341L34.1647 41.7374V40.3841C36.0427 40.3841 38.5745 39.944 40.3562 40.5876C42.5239 41.3706 39.8339 43.6151 38.8084 44.0573ZM12.5906 46.4739C13.2807 46.3102 13.9918 45.9995 14.6223 45.6756C15.0348 45.4636 15.4211 45.2087 15.7552 44.8849C16.7038 43.9653 16.9648 42.1835 15.3962 41.7315C14.2173 41.3918 13.0083 42.1546 12.4766 43.1874C12.2251 43.6758 12.0974 44.1855 12.1084 44.734C12.1206 45.3411 12.3091 45.9401 12.5906 46.4739ZM53.9006 53.627H53.0298V48.6972C53.0298 47.7994 53.1226 47.0129 52.2558 46.4734C51.3167 45.8888 49.9184 46.1832 49.4724 47.2472C49.2738 47.7208 49.4697 48.316 49.2071 48.763C49.0616 49.0107 48.6761 49.0171 48.5412 48.7519C48.4041 48.4824 48.4766 48.0241 48.4843 47.7305C48.5446 45.4234 51.4694 44.5954 53.1251 45.9316C53.9636 46.6085 53.9005 47.5296 53.9005 48.5038L53.9006 53.627ZM58.7378 47.8272V47.9239C59.3771 47.9239 60.401 47.7356 60.9248 48.1851C61.382 48.5776 61.2597 49.2678 61.0667 49.7605C60.53 51.1312 59.7703 52.5496 59.028 53.8203L58.2541 53.4337C58.866 51.9651 60.2193 50.3868 60.3824 48.7938C59.7107 48.7938 58.7568 48.9272 58.1794 48.5031C57.2354 47.8096 58.8185 46.6955 59.415 46.4739V46.3772H55.8354V45.5073C56.9616 45.5073 58.2098 45.3573 59.3182 45.5671C60.5146 45.7934 60.2529 46.6681 59.5113 47.326C59.274 47.5365 59.0223 47.692 58.7378 47.8272ZM69.2829 53.627H68.4122V49.9538C68.4122 49.4128 68.5303 48.7087 68.26 48.2177C67.5277 46.8868 65.2901 47.2571 64.8327 48.6005C65.0252 48.6023 65.2239 48.5938 65.4135 48.6337C67.1974 49.009 64.8294 50.9125 64.5085 51.5004C64.1405 52.1745 64.1555 52.8837 64.1555 53.627H63.2848C63.2848 52.0329 63.5495 50.3827 65.1229 49.5671V49.4705C64.9585 49.4634 64.7996 49.4554 64.6369 49.4279C63.312 49.2046 64.2586 48.3207 64.1746 47.5372C64.1155 46.9853 63.624 46.291 63.4783 45.7006C64.6692 45.3495 64.1996 46.5999 65.1233 46.7659C66.0668 46.9356 66.9055 46.3434 67.9285 46.7572C70.115 47.6416 69.2829 51.7263 69.2829 53.627ZM28.1665 58.1702V61.8434C29.2759 60.745 31.3541 60.356 31.9783 62.23C32.4442 63.6283 32.133 65.5049 32.133 66.9665H31.0688C31.0688 65.665 31.603 62.8251 30.2934 62.023C29.5614 61.5746 28.6936 62.1223 28.3648 62.8101C27.8298 63.9292 28.1665 65.7483 28.1665 66.9665H27.0056V58.1702H28.1665ZM7.7534 66.9665V58.7502C9.39796 58.7502 11.3378 58.5787 12.7841 59.5202C14.856 60.8688 14.8699 64.6866 12.8808 66.117C11.3938 67.1862 9.48068 66.9665 7.7534 66.9665ZM8.91434 59.7168V65.9999C9.94399 65.9999 11.0273 66.0888 11.9133 65.4549C13.4459 64.3584 13.5885 61.4012 12.0098 60.2618C11.1134 59.6148 9.95802 59.7168 8.91434 59.7168ZM66.2839 60.1034V64.1633C67.1026 63.3451 67.761 62.3277 68.9927 62.3267C68.6277 63.1087 67.7691 63.7899 67.0578 64.26V64.3566C67.8256 65.0202 68.8542 66.0465 69.2829 66.9665C67.7539 66.9665 67.2599 65.6657 66.2839 64.6466V66.9665H65.4131V60.1034H66.2839ZM52.7396 63.5833V63.68C54.0412 63.9155 54.4966 65.6981 53.4126 66.5182C52.4906 67.2157 51.0162 66.9665 49.934 66.9665V62.6167C49.934 62.119 49.7694 61.2636 49.9924 60.8108C50.1428 60.5055 50.6232 60.5868 50.9015 60.5868C51.6801 60.5864 52.6563 60.5348 53.3022 61.0507C54.2525 61.81 53.8174 63.2633 52.7396 63.5833ZM20.2334 66.9665H19.266V66.0966C18.4438 66.7858 17.578 67.3275 16.4604 66.9425C15.119 66.4804 14.9607 64.6408 16.0749 63.8394C16.9257 63.2275 18.176 63.2933 19.1693 63.2933C18.9186 61.444 17.3872 61.6844 16.0734 62.23C16.0734 61.9651 16.0028 61.5568 16.1729 61.3314C16.8648 60.4143 19.2005 60.8743 19.7847 61.6539C20.7246 62.9082 20.2334 65.4799 20.2334 66.9665ZM38.8084 64.26H34.5516C35.1338 66.5017 36.4876 66.2191 38.3247 65.9032C38.3236 67.3307 36.548 67.3157 35.4223 66.9869C34.1096 66.6037 33.44 65.1676 33.4975 63.8733C33.5911 61.7676 36.0266 59.7296 37.9287 61.4774C38.6903 62.1772 38.8077 63.2856 38.8084 64.26ZM44.0326 66.9665C44.0326 65.7318 44.5114 63.2184 43.6075 62.2518C42.9286 61.5256 41.8668 61.9546 41.4291 62.7134C40.7824 63.8346 41.1303 65.717 41.1303 66.9665H40.0661V61.0701H41.0335V62.0367C41.3175 61.6893 41.5925 61.3575 42.001 61.1512C42.2696 61.0155 42.5736 60.9407 42.8717 60.9051C45.2012 60.6267 45.1935 63.2354 45.1935 64.8399C45.1935 65.3133 45.399 66.4269 45.0941 66.8116C44.8891 67.0702 44.3231 66.9665 44.0326 66.9665ZM25.3609 61.1667V62.0367C24.749 61.9468 23.149 61.3134 22.9183 62.3308C22.8104 62.8063 23.477 63.1737 23.813 63.3598C24.6642 63.8314 25.8024 64.326 25.6044 65.5166C25.3128 67.2697 21.6848 67.8667 21.6846 65.8066C22.2634 66.0425 24.8836 66.6601 24.3201 65.1338C23.9863 64.2294 22.4778 64.1232 21.9499 63.2919C20.542 61.0749 24.1776 60.944 25.3609 61.1667ZM50.8047 63.2933C51.1863 63.2933 51.5871 63.3274 51.9657 63.2751C52.1731 63.2464 52.3693 63.1813 52.5356 63.0503C53.8566 62.0104 51.5383 60.6189 50.9042 61.4184C50.6091 61.7904 50.8047 62.8344 50.8047 63.2933ZM34.6484 63.5833C35.294 63.5833 37.0849 63.8982 37.5877 63.484C38.0189 63.1287 37.3542 62.2065 37.0628 61.982C35.8634 61.058 34.6731 62.4239 34.6484 63.5833ZM58.641 66.9666H57.8671V66.2899C57.2082 66.914 56.3283 67.3141 55.4526 66.8272C54.554 66.3273 54.7304 64.9354 55.5456 64.4619C56.2064 64.078 57.0387 64.1633 57.7703 64.1633C57.636 62.6838 56.3812 62.8965 55.3517 63.2933C55.3676 61.9587 57.5794 61.9218 58.2682 62.8279C59.0171 63.8132 58.641 65.7997 58.641 66.9666ZM64.0587 66.9666H63.188C63.188 65.9602 63.571 63.9537 62.6938 63.2386C62.1063 62.7597 61.4026 63.1885 61.1038 63.7768C60.6487 64.6726 60.8662 65.9941 60.8662 66.9666H60.0922V62.3267C60.7018 62.3339 60.8589 62.4909 60.8662 63.1C61.6189 62.1361 63.317 61.8153 63.8661 63.1971C64.3043 64.2994 64.0587 65.802 64.0587 66.9666ZM19.1693 64.0666C18.7216 64.0666 18.2603 64.035 17.8148 64.0835C17.5851 64.1084 17.3491 64.1611 17.138 64.2571C15.4813 65.0102 17.2174 67.1241 18.5786 65.8812C18.7757 65.7013 18.9234 65.4773 19.0132 65.2266C19.146 64.8552 19.1661 64.4565 19.1693 64.0666ZM50.8047 64.0666C50.8047 64.5626 50.5872 65.735 50.9042 66.1349C51.0895 66.3688 51.5202 66.2849 51.7722 66.2485C52.997 66.0717 53.7714 64.3418 52.1591 64.0873C51.7216 64.0182 51.247 64.0666 50.8047 64.0666ZM57.7703 64.7433C57.4187 64.7433 57.0563 64.7186 56.7062 64.7535C54.4502 64.9786 56.8081 67.7347 57.6727 65.6132C57.7851 65.3373 57.7695 65.0352 57.7703 64.7433Z" fill="#172169"/>
</svg>
