<svg width="223" height="304" viewBox="0 0 223 304" fill="none" xmlns="http://www.w3.org/2000/svg">
<path d="M212.48 3.30729C216.175 5.81869 219.062 9.34537 220.781 13.4495C222.5 17.5536 222.976 22.0543 222.15 26.393C215.241 34.2093 209.7 38.3199 203.485 44.2571C198.269 49.2364 192.582 55.5004 185.239 66.2877C164.756 96.3808 172.298 101.514 151.812 131.611C131.327 161.708 123.787 156.571 103.302 186.667C82.8158 216.764 90.3605 221.894 69.8748 251.991C59.7927 266.803 52.8582 273.067 45.9352 279.241C39.3559 285.105 32.8098 290.855 23.6284 303.793C18.2396 303.794 13.0018 301.887 8.85106 298.415C4.70032 294.943 1.90717 290.13 0.970794 284.838C11.1872 270.939 18.115 265.982 25.8753 258.789C31.471 253.584 37.4976 247.202 45.501 235.444C65.9866 205.347 58.4445 200.214 78.9277 170.121C99.4108 140.028 106.955 145.157 127.439 115.064C147.922 84.9714 140.382 79.834 160.865 49.7409C167.788 39.5711 173.23 33.4235 178.199 28.5807C186.97 20.0232 194.241 15.5505 205.536 0.132165C208.009 0.796894 210.356 1.8703 212.48 3.30729Z" fill="#FF3AF7" fill-opacity="0.76"/>
</svg>
