<svg width="50" height="50" viewBox="0 0 50 50" fill="none" xmlns="http://www.w3.org/2000/svg">
<g clip-path="url(#clip0_1943_148)">
<path d="M0 18.0555H50V31.9444H0V18.0555Z" fill="#FCDD0A"/>
<path d="M44.4444 6.94446H5.55556C4.08213 6.94446 2.66905 7.52977 1.62718 8.57164C0.585316 9.61351 0 11.0266 0 12.5L0 18.0556H50V12.5C50 11.0266 49.4147 9.61351 48.3728 8.57164C47.3309 7.52977 45.9179 6.94446 44.4444 6.94446Z" fill="#088930"/>
<path d="M5.55556 43.0556H44.4444C45.9179 43.0556 47.3309 42.4703 48.3728 41.4284C49.4147 40.3865 50 38.9734 50 37.5V31.9445H0V37.5C0 38.9734 0.585316 40.3865 1.62718 41.4284C2.66905 42.4703 4.08213 43.0556 5.55556 43.0556Z" fill="#DA1219"/>
<path d="M25 37.5C31.9036 37.5 37.5 31.9036 37.5 25C37.5 18.0964 31.9036 12.5 25 12.5C18.0964 12.5 12.5 18.0964 12.5 25C12.5 31.9036 18.0964 37.5 25 37.5Z" fill="#0F47AF"/>
<path d="M18.4026 33.9847L20.7901 26.3028L16.9971 23.5458H18.6026L23.8498 27.5639L23.0248 28.0625L21.7443 26.9097L19.7054 33.0292L18.4026 33.9847Z" fill="#FCDD0A"/>
<path d="M31.4017 33.9847L24.8322 29.3389L21.0503 32.075L21.5461 30.5472L27.0517 26.625L27.2711 27.5639L25.7045 28.6181L30.8975 32.45L31.4017 33.9847Z" fill="#FCDD0A"/>
<path d="M35.2527 21.7222L28.9763 26.4056L30.3818 30.8806L29.0832 29.9403L27.0513 23.5056L28.0138 23.5861L28.5624 25.3528L33.7013 21.6764L35.2527 21.7222Z" fill="#FCDD0A"/>
<path d="M24.8223 13.9861L27.4056 21.6069L32.0501 21.6764L30.7542 22.6208L24.4362 22.5681L24.8126 21.6764L26.1723 21.5931L24.3292 15.5236L24.8223 13.9861ZM14.1709 21.5931H22.3737L23.8501 17.0736L24.3473 18.5986L22.239 25L21.5084 24.3667L22.1695 22.4611L15.5265 22.5014L14.1709 21.5931ZM24.6237 30.9889H25.2028V36.0542H24.6237V30.9889ZM35.5223 28.0903L35.3445 28.6403L30.5556 27.0361L30.7334 26.4861L35.5223 28.0903Z" fill="#FCDD0A"/>
<path d="M31.2123 15.907L31.6804 16.2472L28.6568 20.4431L28.1887 20.1042L31.2123 15.907ZM18.2137 16.2472L18.6818 15.907L21.7012 20.1028L21.2346 20.4431L18.2137 16.2472ZM14.5512 28.6403L14.3721 28.0903L19.1693 26.4861L19.3485 27.0375L14.5512 28.6403Z" fill="#FCDD0A"/>
</g>
<defs>
<clipPath id="clip0_1943_148">
<rect width="50" height="50" fill="white"/>
</clipPath>
</defs>
</svg>
