<svg width="48" height="49" viewBox="0 0 48 49" fill="none" xmlns="http://www.w3.org/2000/svg">
<path d="M0 0.411621H41.93C45.2824 0.411621 48 3.12925 48 6.48162V48.4116C21.4903 48.4116 0 26.9213 0 0.411621Z" fill="#966DED"/>
<path d="M13.576 22.4116V16.7716H17.496V17.7396H14.768V19.0596H17.304V20.0356H14.768V21.4436H17.496V22.4116H13.576ZM17.6131 22.4116L19.5331 20.0516V20.5876L17.7171 18.3556H19.1411L20.2211 19.7716H19.7891L20.8771 18.3556H22.2931L20.4851 20.5956V20.0436L22.4051 22.4116H20.9731L19.7891 20.8916H20.2211L19.0291 22.4116H17.6131ZM22.7382 24.1396V19.4116C22.7382 19.241 22.7329 19.0676 22.7222 18.8916C22.7115 18.7103 22.6955 18.5316 22.6742 18.3556H23.8342L23.9302 19.1476H23.8422C23.9222 18.881 24.0902 18.6703 24.3462 18.5156C24.6022 18.3556 24.8955 18.2756 25.2262 18.2756C25.5782 18.2756 25.8875 18.361 26.1542 18.5316C26.4209 18.697 26.6289 18.937 26.7782 19.2516C26.9329 19.5663 27.0102 19.9423 27.0102 20.3796C27.0102 20.8223 26.9329 21.201 26.7782 21.5156C26.6289 21.8303 26.4209 22.073 26.1542 22.2436C25.8875 22.4143 25.5782 22.4996 25.2262 22.4996C24.9009 22.4996 24.6102 22.4223 24.3542 22.2676C24.1035 22.113 23.9355 21.9076 23.8502 21.6516H23.9462V24.1396H22.7382ZM24.8582 21.5876C25.1409 21.5876 25.3675 21.489 25.5382 21.2916C25.7089 21.0943 25.7942 20.7903 25.7942 20.3796C25.7942 19.969 25.7089 19.6676 25.5382 19.4756C25.3675 19.2836 25.1409 19.1876 24.8582 19.1876C24.5809 19.1876 24.3542 19.2836 24.1782 19.4756C24.0075 19.6676 23.9222 19.969 23.9222 20.3796C23.9222 20.7903 24.0075 21.0943 24.1782 21.2916C24.3542 21.489 24.5809 21.5876 24.8582 21.5876ZM27.7929 22.4116V16.5236H29.0009V22.4116H27.7929ZM31.5642 22.4996C31.2122 22.4996 30.9029 22.4143 30.6362 22.2436C30.3695 22.073 30.1615 21.8303 30.0122 21.5156C29.8629 21.201 29.7882 20.8223 29.7882 20.3796C29.7882 19.9423 29.8629 19.5663 30.0122 19.2516C30.1615 18.937 30.3695 18.697 30.6362 18.5316C30.9029 18.361 31.2122 18.2756 31.5642 18.2756C31.8895 18.2756 32.1802 18.3556 32.4362 18.5156C32.6975 18.6703 32.8682 18.881 32.9482 19.1476H32.8602L32.9562 18.3556H34.1162C34.1002 18.5316 34.0842 18.7103 34.0682 18.8916C34.0575 19.0676 34.0522 19.241 34.0522 19.4116V22.4116H32.8522L32.8442 21.6516H32.9402C32.8549 21.9076 32.6842 22.113 32.4282 22.2676C32.1722 22.4223 31.8842 22.4996 31.5642 22.4996ZM31.9322 21.5876C32.2095 21.5876 32.4335 21.489 32.6042 21.2916C32.7749 21.0943 32.8602 20.7903 32.8602 20.3796C32.8602 19.969 32.7749 19.6676 32.6042 19.4756C32.4335 19.2836 32.2095 19.1876 31.9322 19.1876C31.6549 19.1876 31.4309 19.2836 31.2602 19.4756C31.0895 19.6676 31.0042 19.969 31.0042 20.3796C31.0042 20.7903 31.0869 21.0943 31.2522 21.2916C31.4229 21.489 31.6495 21.5876 31.9322 21.5876ZM35.0429 22.4116V18.3556H36.2509V22.4116H35.0429ZM34.9949 17.6916V16.5636H36.2909V17.6916H34.9949ZM37.2382 22.4116V19.4116C37.2382 19.241 37.2329 19.0676 37.2222 18.8916C37.2115 18.7103 37.1955 18.5316 37.1742 18.3556H38.3342L38.4222 19.1076H38.3262C38.4595 18.841 38.6489 18.6356 38.8942 18.4916C39.1395 18.3476 39.4249 18.2756 39.7502 18.2756C40.2249 18.2756 40.5795 18.4143 40.8142 18.6916C41.0542 18.9636 41.1742 19.3876 41.1742 19.9636V22.4116H39.9662V20.0196C39.9662 19.7263 39.9129 19.5183 39.8062 19.3956C39.6995 19.273 39.5395 19.2116 39.3262 19.2116C39.0595 19.2116 38.8462 19.297 38.6862 19.4676C38.5262 19.633 38.4462 19.857 38.4462 20.1396V22.4116H37.2382Z" fill="white"/>
</svg>
