<svg width="16" height="16" viewBox="0 0 16 16" fill="none" xmlns="http://www.w3.org/2000/svg">
<path d="M1.22863 4.95896L0.614315 5.57327L0 4.95896L0.614315 4.34464L1.22863 4.95896ZM5.57315 15.3858C5.3427 15.3858 5.12169 15.2943 4.95874 15.1313C4.79579 14.9684 4.70425 14.7474 4.70425 14.5169C4.70425 14.2865 4.79579 14.0654 4.95874 13.9025C5.12169 13.7395 5.3427 13.648 5.57315 13.648V15.3858ZM4.95884 9.91779L0.614315 5.57327L1.84295 4.34464L6.18747 8.68916L4.95884 9.91779ZM0.614315 4.34464L4.95884 0.00012207L6.18747 1.22875L1.84295 5.57327L0.614315 4.34464ZM1.22863 4.09005H10.3521V5.82786H1.22863V4.09005ZM10.3521 15.3858H5.57315V13.648H10.3521V15.3858ZM16 9.73793C16 11.2358 15.405 12.6724 14.3458 13.7316C13.2866 14.7908 11.85 15.3858 10.3521 15.3858V13.648C10.8656 13.648 11.374 13.5469 11.8484 13.3504C12.3228 13.1539 12.7539 12.8658 13.117 12.5028C13.48 12.1397 13.7681 11.7086 13.9646 11.2342C14.1611 10.7599 14.2622 10.2514 14.2622 9.73793H16ZM10.3521 4.09005C11.85 4.09005 13.2866 4.6851 14.3458 5.74428C15.405 6.80346 16 8.24002 16 9.73793H14.2622C14.2622 9.22445 14.1611 8.716 13.9646 8.24161C13.7681 7.76722 13.48 7.33618 13.117 6.97309C12.7539 6.61001 12.3228 6.322 11.8484 6.1255C11.374 5.929 10.8656 5.82786 10.3521 5.82786V4.09005Z" fill="#3AFFF3"/>
</svg>
