<svg width="11" height="10" viewBox="0 0 11 10" fill="none" xmlns="http://www.w3.org/2000/svg">
<path d="M5.65424 0.000244141L10.7328 2.03167V2.70881H10.0557C10.0557 2.80051 10.0195 2.87986 9.94722 2.94687C9.87492 3.01388 9.78939 3.04738 9.69064 3.04738H1.61785C1.5191 3.04738 1.43357 3.01388 1.36127 2.94687C1.28897 2.87986 1.25283 2.80051 1.25283 2.70881H0.575684V2.03167L5.65424 0.000244141ZM1.92997 3.38595H3.28425V7.4488H3.96139V3.38595H5.31567V7.4488H5.99282V3.38595H7.3471V7.4488H8.02424V3.38595H9.37852V7.4488H9.69064C9.78939 7.4488 9.87492 7.4823 9.94722 7.54931C10.0195 7.61632 10.0557 7.69567 10.0557 7.78737V8.12594H1.25283V7.78737C1.25283 7.69567 1.28897 7.61632 1.36127 7.54931C1.43357 7.4823 1.5191 7.4488 1.61785 7.4488H1.92997V3.38595ZM10.3678 8.46451C10.4665 8.46451 10.5521 8.49802 10.6244 8.56502C10.6967 8.63203 10.7328 8.71139 10.7328 8.80308V9.48022H0.575684V8.80308C0.575684 8.71139 0.611833 8.63203 0.684132 8.56502C0.756431 8.49802 0.841955 8.46451 0.940705 8.46451H10.3678Z" fill="#E5A809"/>
</svg>
