<svg width="95" height="36" viewBox="0 0 95 36" fill="none" xmlns="http://www.w3.org/2000/svg">
<path d="M83.9151 28.0197C81.5674 28.0197 79.8183 27.3737 78.6677 26.0816C77.5171 24.7895 76.9427 22.8139 76.9443 20.1546V8.7865H82.5428V20.1171C82.5428 21.3357 82.796 22.2305 83.3024 22.8014C83.8088 23.3723 84.5559 23.6586 85.5438 23.6602C86.0608 23.6735 86.5746 23.5757 87.051 23.3731C87.5273 23.1706 87.9551 22.8681 88.3057 22.4859C89.0346 21.703 89.399 20.6655 89.399 19.3734V8.7865H94.9975V27.6491H89.5185V24.0333H90.1113C89.5906 25.2391 88.7344 26.2678 87.6457 26.9956C86.5291 27.6977 85.2316 28.0539 83.9151 28.0197Z" fill="#025C57"/>
<path d="M74.2768 3.97388V9.32743L71.9707 7.99029V5.31352L74.2768 3.97388Z" fill="#025C57"/>
<path d="M71.9906 2.67427L69.6844 1.33713L67.3783 0L65.0746 1.33713L62.771 2.67427L60.4648 4.01141L62.771 5.35105L65.0746 6.68819L67.3783 8.02782L69.6844 6.68819L71.9906 5.35105L74.2967 4.01141L71.9906 2.67427ZM67.3783 5.35105L65.0721 4.01141L67.3783 2.67427L69.6844 4.01141L67.3783 5.35105Z" fill="#025C57"/>
<path d="M71.7665 8.10797V28.483L71.6843 28.5306L67.3784 31.0296L63.0724 28.5306L62.9902 28.483V23.3899H62.9927L67.3784 25.9339V15.7477L62.9902 13.2011V8.10547H62.9927L67.3784 10.652L71.7665 8.10547V8.10797Z" fill="#025C57"/>
<path d="M0 27.6491V23.9958L11.2069 11.6561L11.2443 12.9231H0V8.7865H16.2028V12.4023L4.8937 24.9223L4.85634 23.4674H16.6087V27.6441L0 27.6491Z" fill="#025C57"/>
<path d="M29.3644 28.0198C26.102 28.0198 23.5559 27.1442 21.7263 25.393C19.8967 23.6419 18.9835 21.2372 18.9868 18.179C18.949 16.4061 19.3504 14.6515 20.1548 13.0734C20.901 11.6405 22.0311 10.4461 23.4173 9.62537C24.911 8.76549 26.6102 8.33256 28.3309 8.37337C30.2087 8.37337 31.7594 8.77067 32.983 9.56527C34.2209 10.3784 35.1943 11.539 35.7823 12.9031C36.4529 14.4735 36.7816 16.1699 36.7461 17.8786V19.1831H23.5792V16.4287H32.7016L32.0691 16.9496C32.0691 15.3587 31.7478 14.1593 31.1053 13.3513C30.4627 12.5434 29.5496 12.1402 28.3658 12.1419C27.0376 12.1419 26.0181 12.626 25.3075 13.5942C24.5969 14.5624 24.2441 15.9546 24.2491 17.7709V18.3293C24.2491 20.1922 24.7065 21.5711 25.6213 22.4659C26.5361 23.3606 27.8337 23.808 29.5139 23.808C30.4977 23.8153 31.4777 23.6839 32.4252 23.4174C33.3475 23.1467 34.2186 22.7236 35.0028 22.1654L36.5219 25.8938C35.5596 26.6006 34.4803 27.1305 33.3342 27.4588C32.0453 27.8398 30.7078 28.0288 29.3644 28.0198Z" fill="#025C57"/>
<path d="M49.3104 35.995C47.6873 36.0131 46.0682 35.8314 44.4889 35.4541C43.1465 35.1336 41.8681 34.5857 40.7085 33.8341L41.8217 29.8076C42.5027 30.2633 43.2371 30.6325 44.0083 30.9069C44.7981 31.1924 45.6104 31.411 46.4365 31.5604C47.2378 31.7062 48.0503 31.7808 48.8646 31.7833C50.5249 31.7833 51.761 31.386 52.5729 30.5914C53.3848 29.7968 53.7924 28.6533 53.7957 27.1609V23.2496H54.1294C53.7355 24.4665 52.9019 25.4905 51.7934 26.1192C50.5789 26.8297 49.1936 27.1909 47.7888 27.1634C46.248 27.2007 44.7271 26.8072 43.3956 26.0266C42.1305 25.2506 41.1193 24.1189 40.4868 22.7714C39.8018 21.1965 39.4482 19.4961 39.4482 17.7772C39.4482 16.0582 39.8018 14.3579 40.4868 12.7829C41.1193 11.4354 42.1305 10.3037 43.3956 9.52773C44.7271 8.74712 46.248 8.35357 47.7888 8.39092C49.1874 8.36253 50.5665 8.72392 51.7735 9.43508C52.8648 10.0615 53.6891 11.0694 54.0896 12.2671L53.7932 12.1194L54.1643 8.80158H59.576C59.4797 9.59785 59.4058 10.405 59.3543 11.2229C59.3045 12.0443 59.2796 12.8631 59.2796 13.6844V26.5073C59.2796 29.5906 58.4271 31.9452 56.7219 33.5711C55.0168 35.1971 52.5463 36.005 49.3104 35.995ZM49.42 22.9492C50.73 22.9492 51.7743 22.5018 52.553 21.607C53.3316 20.7123 53.721 19.4327 53.721 17.7684C53.721 16.0991 53.3316 14.8187 52.553 13.9273C51.7743 13.0358 50.73 12.5885 49.42 12.5851C48.0918 12.5851 47.0358 13.0325 46.2522 13.9273C45.4685 14.822 45.0792 16.1024 45.0842 17.7684C45.0842 19.4377 45.4735 20.7173 46.2522 21.607C47.0308 22.4968 48.0868 22.945 49.42 22.9517V22.9492Z" fill="#025C57"/>
</svg>
