<svg width="1440" height="2412" viewBox="0 0 1440 2412" fill="none" xmlns="http://www.w3.org/2000/svg">
<g clip-path="url(#clip0_2470_13)">
<rect width="1440" height="2412" fill="url(#paint0_linear_2470_13)"/>
<rect width="1440" height="2412" fill="black" fill-opacity="0.2"/>
<rect width="1440" height="2412" fill="black" fill-opacity="0.2"/>
<path d="M145.5 873.5C1181 652.5 176 2075 1334 1016C2492 -43.0003 1285.72 1989.61 1285.72 1989.61L77.2223 3299.61C77.2223 3299.61 -890 1094.5 145.5 873.5Z" fill="#1DE39E" fill-opacity="0.28"/>
<path d="M0.144958 1038.65C1217.72 530.982 -78 2413 1439.64 1038.65C2957.29 -335.695 1439.64 2012.5 1439.64 2012.5C877.485 2012.5 562.304 4062 0.144958 4062C0.144958 4062 -1217.43 1546.32 0.144958 1038.65Z" fill="url(#paint1_linear_2470_13)"/>
<rect x="174" y="1879" width="66" height="195" rx="33" stroke="#1DE39E" stroke-width="4"/>
<circle cx="1313.77" cy="1403.77" r="33.7672" fill="#13FFD5"/>
<path d="M1009.77 129.198C1004.41 129.198 999.173 130.426 994.715 132.725C990.258 135.025 986.784 138.293 984.732 142.117C982.681 145.941 982.144 150.149 983.19 154.208C984.237 158.268 986.818 161.996 990.609 164.923C994.4 167.849 999.23 169.842 1004.49 170.649C1009.75 171.456 1015.2 171.042 1020.15 169.457C1025.1 167.873 1029.33 165.191 1032.31 161.749C1035.29 158.307 1036.88 154.261 1036.88 150.122C1036.88 144.573 1034.02 139.25 1028.94 135.327C1023.86 131.403 1016.96 129.198 1009.77 129.198ZM1009.77 161.061C1006.97 161.061 1004.23 160.419 1001.9 159.218C999.573 158.016 997.757 156.307 996.684 154.308C995.612 152.309 995.331 150.11 995.878 147.988C996.425 145.866 997.774 143.917 999.756 142.387C1001.74 140.857 1004.26 139.816 1007.01 139.393C1009.76 138.971 1012.61 139.188 1015.2 140.016C1017.79 140.844 1020 142.246 1021.55 144.045C1023.11 145.844 1023.94 147.959 1023.94 150.122C1023.94 153.023 1022.45 155.806 1019.79 157.857C1017.14 159.909 1013.53 161.061 1009.77 161.061Z" fill="#F5F95A"/>
<path d="M1058.75 418.995C1060.52 420.102 1061.99 421.527 1063 423.09C1064 424.654 1064.49 426.288 1064.4 427.79C1061.87 430.186 1059.71 431.337 1057.37 433.102C1055.41 434.581 1053.32 436.493 1050.79 439.925C1043.73 449.499 1047.33 451.763 1040.27 461.338C1033.21 470.913 1029.61 468.648 1022.55 478.223C1015.49 487.798 1019.09 490.061 1012.03 499.636C1008.56 504.348 1005.92 506.189 1003.29 507.997C1000.79 509.715 998.292 511.394 995.093 515.488C992.746 515.181 990.346 514.201 988.323 512.724C986.3 511.246 984.785 509.369 984.049 507.425C987.639 503.047 990.35 501.673 993.285 499.548C995.401 498.009 997.631 496.075 1000.39 492.335C1007.45 482.759 1003.85 480.495 1010.91 470.921C1017.96 461.348 1021.57 463.61 1028.63 454.037C1035.69 444.463 1032.09 442.197 1039.14 432.623C1041.53 429.388 1043.52 427.504 1045.38 426.059C1048.68 423.505 1051.57 422.323 1055.53 417.464C1056.65 417.843 1057.74 418.36 1058.75 418.995Z" fill="#FF3AF7" fill-opacity="0.76"/>
<path d="M1337.69 175.156C1339.45 176.264 1340.93 177.688 1341.93 179.251C1342.93 180.815 1343.42 182.449 1343.33 183.951C1340.8 186.347 1338.64 187.498 1336.3 189.263C1334.34 190.742 1332.25 192.654 1329.72 196.086C1322.66 205.66 1326.26 207.924 1319.2 217.499C1312.14 227.074 1308.54 224.809 1301.48 234.384C1294.42 243.959 1298.02 246.222 1290.96 255.797C1287.49 260.51 1284.86 262.35 1282.22 264.159C1279.72 265.876 1277.22 267.555 1274.03 271.65C1271.68 271.342 1269.28 270.362 1267.26 268.885C1265.23 267.408 1263.72 265.53 1262.98 263.587C1266.57 259.208 1269.28 257.834 1272.22 255.709C1274.33 254.171 1276.56 252.237 1279.32 248.496C1286.38 238.921 1282.78 236.657 1289.84 227.083C1296.9 217.509 1300.5 219.772 1307.56 210.198C1314.62 200.624 1311.02 198.358 1318.08 188.784C1320.46 185.549 1322.45 183.665 1324.32 182.22C1327.61 179.666 1330.5 178.485 1334.46 173.625C1335.58 174.004 1336.67 174.521 1337.69 175.156Z" fill="#FF3AF7" fill-opacity="0.76"/>
<path d="M1346.79 454.014L1339.51 476.929C1330.04 474.367 1319.86 475.383 1311.2 479.753C1302.54 484.124 1296.11 491.491 1293.34 500.234L1268.5 493.516C1273.21 478.695 1284.1 466.208 1298.78 458.8C1313.46 451.393 1330.73 449.671 1346.79 454.014Z" fill="#3AFFF3"/>
<path d="M728.927 222.723L754.351 240.301C748.709 247.254 746.233 255.95 747.465 264.477C748.698 273.004 753.54 280.663 760.924 285.769C768.309 290.875 777.633 293.01 786.844 291.704C796.055 290.398 804.399 285.758 810.041 278.805L835.464 296.383C824.672 309.684 808.709 318.561 791.088 321.059C773.467 323.557 755.631 319.473 741.503 309.705C727.375 299.937 718.114 285.286 715.755 268.973C713.397 252.661 718.135 236.024 728.927 222.723Z" fill="#F5F95A"/>
</g>
<defs>
<linearGradient id="paint0_linear_2470_13" x1="720" y1="0" x2="720" y2="2412" gradientUnits="userSpaceOnUse">
<stop stop-color="#025C57"/>
<stop offset="1" stop-color="#04C2B7"/>
</linearGradient>
<linearGradient id="paint1_linear_2470_13" x1="576.5" y1="859" x2="576.5" y2="4062" gradientUnits="userSpaceOnUse">
<stop stop-color="#026E68"/>
<stop offset="1" stop-color="#4D219A"/>
</linearGradient>
<clipPath id="clip0_2470_13">
<rect width="1440" height="2412" fill="white"/>
</clipPath>
</defs>
</svg>
