<svg width="14" height="32" viewBox="0 0 14 32" fill="none" xmlns="http://www.w3.org/2000/svg">
<path d="M11.5257 2.67427L9.21957 1.33713L6.91343 0L4.60978 1.33713L2.30613 2.67427L0 4.01141L2.30613 5.35105L4.60978 6.68819L6.91343 8.02782L9.21957 6.68819L11.5257 5.35105L13.8319 4.01141L11.5257 2.67427ZM6.91343 5.35105L4.6073 4.01141L6.91343 2.67427L9.21957 4.01141L6.91343 5.35105Z" fill="#025C57"/>
<path d="M11.3012 8.10797V28.483L11.219 28.5306L6.91304 31.0296L2.60709 28.5306L2.5249 28.483V23.3899H2.5274L6.91304 25.9339V15.7477L2.5249 13.2011V8.10547H2.5274L6.91304 10.652L11.3012 8.10547V8.10797Z" fill="#025C57"/>
</svg>
