<svg width="10" height="11" viewBox="0 0 10 11" fill="none" xmlns="http://www.w3.org/2000/svg">
<path d="M8.85165 4.21128C8.97138 4.21128 9.08621 4.16371 9.17087 4.07905C9.25553 3.99439 9.30309 3.87956 9.30309 3.75983V2.40549C9.30309 2.31076 9.27326 2.21844 9.21783 2.14162C9.16241 2.06481 9.0842 2.00739 8.99431 1.97752L4.93129 0.623181C4.83867 0.592403 4.73859 0.592403 4.64598 0.623181L0.582959 1.97752C0.493064 2.00739 0.414857 2.06481 0.359431 2.14162C0.304004 2.21844 0.274174 2.31076 0.27417 2.40549V3.75983C0.27417 3.87956 0.321733 3.99439 0.406395 4.07905C0.491058 4.16371 0.605885 4.21128 0.725616 4.21128H1.17706V7.45447C0.913728 7.54722 0.685564 7.71921 0.523899 7.94684C0.362235 8.17446 0.274999 8.44655 0.27417 8.72574V9.62863C0.27417 9.74836 0.321733 9.86319 0.406395 9.94785C0.491058 10.0325 0.605885 10.0801 0.725616 10.0801H8.85165C8.97138 10.0801 9.08621 10.0325 9.17087 9.94785C9.25553 9.86319 9.30309 9.74836 9.30309 9.62863V8.72574C9.30227 8.44655 9.21503 8.17446 9.05336 7.94684C8.8917 7.71921 8.66354 7.54722 8.4002 7.45447V4.21128H8.85165ZM8.4002 9.17719H1.17706V8.72574C1.17718 8.60604 1.22478 8.49129 1.30942 8.40665C1.39406 8.32201 1.50881 8.27441 1.62851 8.27429H7.94876C8.06845 8.27441 8.18321 8.32201 8.26784 8.40665C8.35248 8.49129 8.40008 8.60604 8.4002 8.72574V9.17719ZM2.07995 7.3714V4.21128H2.98285V7.3714H2.07995ZM3.88574 7.3714V4.21128H5.69152V7.3714H3.88574ZM6.59442 7.3714V4.21128H7.49731V7.3714H6.59442ZM1.17706 3.30838V2.73053L4.78863 1.52698L8.4002 2.73098V3.30838H1.17706Z" fill="#0FA958"/>
</svg>
