<svg width="11" height="10" viewBox="0 0 11 10" fill="none" xmlns="http://www.w3.org/2000/svg">
<rect x="1.05387" y="0.359774" width="8.73851" height="8.73851" rx="4.36925" stroke="#A7A7A7" stroke-width="0.529606"/>
<g clip-path="url(#clip0_1504_1070)">
<path d="M4.6784 4.7293C4.6784 4.48415 4.74047 4.29874 4.86459 4.17306C4.98872 4.04738 5.17491 3.98454 5.42316 3.98454C5.66831 3.98454 5.85373 4.04661 5.97941 4.17073C6.10508 4.29486 6.16792 4.48105 6.16792 4.7293C6.16792 4.97445 6.10586 5.15987 5.98173 5.28554C5.85761 5.41122 5.67142 5.47406 5.42316 5.47406C5.17801 5.47406 4.9926 5.412 4.86692 5.28787C4.74124 5.16374 4.6784 4.97755 4.6784 4.7293ZM4.68771 3.99385C4.62255 4.05902 4.56902 4.12729 4.52713 4.19866C4.48523 4.27003 4.45187 4.34761 4.42705 4.4314H3.63574V3.38874C3.63574 3.32978 3.64583 3.27314 3.666 3.21884C3.68617 3.16453 3.71953 3.11566 3.76608 3.07221C3.81262 3.03187 3.86305 3.00006 3.91735 2.97679C3.97166 2.95352 4.02984 2.94188 4.09191 2.94188H6.77304C6.832 2.94188 6.88708 2.95274 6.93828 2.97446C6.98949 2.99619 7.03681 3.02877 7.08025 3.07221C7.12059 3.11255 7.1524 3.15988 7.17568 3.21418C7.19895 3.26849 7.21059 3.32667 7.21059 3.38874V4.4314H6.42859C6.40687 4.34761 6.37428 4.27003 6.33084 4.19866C6.28739 4.12729 6.23309 4.05902 6.16792 3.99385C6.06552 3.89145 5.95225 3.81464 5.82813 3.76344C5.704 3.71224 5.56901 3.68664 5.42316 3.68664C5.28042 3.68664 5.14776 3.71224 5.02518 3.76344C4.90261 3.81464 4.79012 3.89145 4.68771 3.99385ZM6.91268 3.72388V3.36081C6.91268 3.34219 6.9088 3.3259 6.90105 3.31193C6.89329 3.29797 6.88475 3.28633 6.87544 3.27702C6.86613 3.26771 6.8545 3.25918 6.84053 3.25142C6.82657 3.24366 6.81028 3.23978 6.79166 3.23978H6.4379C6.41928 3.23978 6.40299 3.24366 6.38902 3.25142C6.37506 3.25918 6.36342 3.26771 6.35411 3.27702C6.3448 3.28633 6.33627 3.29797 6.32851 3.31193C6.32075 3.3259 6.31687 3.34219 6.31687 3.36081V3.72388C6.31687 3.7425 6.32075 3.75879 6.32851 3.77275C6.33627 3.78672 6.3448 3.79835 6.35411 3.80766C6.36342 3.81697 6.37506 3.82395 6.38902 3.82861C6.40299 3.83326 6.41928 3.83559 6.4379 3.83559H6.79166C6.81028 3.83559 6.82657 3.83326 6.84053 3.82861C6.8545 3.82395 6.86613 3.81697 6.87544 3.80766C6.88475 3.79835 6.89329 3.78672 6.90105 3.77275C6.9088 3.75879 6.91268 3.7425 6.91268 3.72388ZM6.16792 5.46475C6.27033 5.36235 6.34558 5.25063 6.39368 5.12961C6.44178 5.00859 6.46583 4.87515 6.46583 4.7293H7.21059V6.06987C7.21059 6.12883 7.19972 6.18469 7.178 6.23744C7.15628 6.29019 7.1237 6.33984 7.08025 6.38639C7.03991 6.43294 6.99414 6.4663 6.94294 6.48647C6.89174 6.50664 6.8351 6.51672 6.77304 6.51672H4.09191C4.03295 6.51672 3.97709 6.50664 3.92434 6.48647C3.87158 6.4663 3.82193 6.43294 3.77538 6.38639C3.72884 6.33984 3.69393 6.29097 3.67065 6.23977C3.64738 6.18856 3.63574 6.13193 3.63574 6.06987V4.7293H4.38981C4.38981 4.87205 4.41386 5.00471 4.46196 5.12728C4.51006 5.24986 4.58531 5.36235 4.68771 5.46475C4.79012 5.56716 4.90183 5.64396 5.02286 5.69516C5.14388 5.74636 5.27732 5.77196 5.42316 5.77196C5.56591 5.77196 5.70012 5.74636 5.8258 5.69516C5.95148 5.64396 6.06552 5.56716 6.16792 5.46475Z" fill="#A7A7A7"/>
</g>
<defs>
<clipPath id="clip0_1504_1070">
<rect width="3.57484" height="4.76646" fill="white" transform="matrix(1 0 0 -1 3.63574 7.1123)"/>
</clipPath>
</defs>
</svg>
