<svg width="56" height="28" viewBox="0 0 56 28" fill="none" xmlns="http://www.w3.org/2000/svg">
<path d="M42 0C35.0653 0 30.4663 5.19633 28 9.058C25.5337 5.19633 20.9347 0 14 0C10.287 0 6.72601 1.475 4.1005 4.10051C1.475 6.72601 0 10.287 0 14C0 17.713 1.475 21.274 4.1005 23.8995C6.72601 26.525 10.287 28 14 28C20.9347 28 25.5337 22.8037 28 18.942C30.4663 22.8037 35.0653 28 42 28C45.713 28 49.274 26.525 51.8995 23.8995C54.525 21.274 56 17.713 56 14C56 10.287 54.525 6.72601 51.8995 4.10051C49.274 1.475 45.713 0 42 0ZM14 23.3333C11.5246 23.3333 9.15068 22.35 7.40034 20.5997C5.65 18.8493 4.66667 16.4754 4.66667 14C4.66667 11.5246 5.65 9.15068 7.40034 7.40034C9.15068 5.65 11.5246 4.66667 14 4.66667C20.2837 4.66667 24.2247 11.5383 25.4333 14C24.234 16.4733 20.3187 23.3333 14 23.3333ZM42 23.3333C35.7163 23.3333 31.7753 16.4617 30.5667 14C31.7683 11.5313 35.6837 4.66667 42 4.66667C44.4754 4.66667 46.8493 5.65 48.5997 7.40034C50.35 9.15068 51.3333 11.5246 51.3333 14C51.3333 16.4754 50.35 18.8493 48.5997 20.5997C46.8493 22.35 44.4754 23.3333 42 23.3333Z" fill="url(#paint0_linear_624_540)" fill-opacity="0.8"/>
<defs>
<linearGradient id="paint0_linear_624_540" x1="28" y1="0" x2="28" y2="28" gradientUnits="userSpaceOnUse">
<stop stop-color="#4F0056"/>
<stop offset="1" stop-color="#612067"/>
</linearGradient>
</defs>
</svg>
