<svg width="162" height="162" viewBox="0 0 162 162" fill="none" xmlns="http://www.w3.org/2000/svg">
<g clip-path="url(#clip0_928_113)">
<path d="M150.559 19.3725L135.162 50.571C124.099 38.7518 109.242 30.591 92.5088 27.9788L98.8876 15.0525C103.471 5.7645 112.745 0 123.1 0H138.51C143.181 0 147.447 2.36925 149.911 6.33825C152.381 10.3073 152.624 15.1807 150.559 19.3725ZM69.4913 27.9788L63.1126 15.0525C58.5293 5.7645 49.2548 0 38.9003 0H23.6453C18.9743 0 14.7083 2.36925 12.2446 6.3315C9.77406 10.3073 9.53781 15.1807 11.6033 19.3725L26.9393 50.4698C37.9891 38.7045 52.8121 30.5842 69.4913 27.9788ZM141.757 101.25C141.757 134.75 114.5 162 81.0068 162C47.5133 162 20.2501 134.75 20.2501 101.25C20.2501 67.7497 47.5066 40.5 81.0001 40.5C114.494 40.5 141.757 67.7497 141.757 101.25ZM109.067 97.2675C109.067 95.202 107.271 92.9205 104.369 92.9205H89.9236L86.0963 78.2393C85.4888 75.9105 83.4031 74.2905 81.0001 74.25C78.6038 74.2972 76.5113 75.9105 75.9038 78.2393L72.0766 92.9205H57.6316C54.7291 92.9205 52.9336 95.1953 52.9336 97.2675C52.9336 99.7042 54.6278 101.756 56.5718 102.836L66.6293 108.425L62.1676 120.595C61.3036 122.951 62.0866 125.597 64.0913 127.109C66.1433 128.655 68.9716 128.635 70.9966 127.062L81.0001 119.326L91.0036 127.062C93.0353 128.628 95.8636 128.648 97.9088 127.109C99.9136 125.597 100.697 122.958 99.8326 120.595L95.3708 108.425L105.428 102.836C107.372 101.756 109.067 99.7042 109.067 97.2675Z" fill="url(#paint0_linear_928_113)"/>
</g>
<defs>
<linearGradient id="paint0_linear_928_113" x1="81.0777" y1="0" x2="81.0777" y2="162" gradientUnits="userSpaceOnUse">
<stop stop-color="#966DED"/>
<stop offset="1" stop-color="#C23FCD"/>
</linearGradient>
<clipPath id="clip0_928_113">
<rect width="162" height="162" fill="white"/>
</clipPath>
</defs>
</svg>
