<svg width="48" height="48" viewBox="0 0 48 48" fill="none" xmlns="http://www.w3.org/2000/svg">
<path d="M48 0H6.07C2.71763 0 0 2.71763 0 6.07V48C26.5097 48 48 26.5097 48 0Z" fill="#966DED"/>
<path d="M6.576 22V16.36H10.496V17.328H7.768V18.648H10.304V19.624H7.768V21.032H10.496V22H6.576ZM10.6131 22L12.5331 19.64V20.176L10.7171 17.944H12.1411L13.2211 19.36H12.7891L13.8771 17.944H15.2931L13.4851 20.184V19.632L15.4051 22H13.9731L12.7891 20.48H13.2211L12.0291 22H10.6131ZM15.7382 23.728V19C15.7382 18.8293 15.7329 18.656 15.7222 18.48C15.7115 18.2987 15.6955 18.12 15.6742 17.944H16.8342L16.9302 18.736H16.8422C16.9222 18.4693 17.0902 18.2587 17.3462 18.104C17.6022 17.944 17.8955 17.864 18.2262 17.864C18.5782 17.864 18.8875 17.9493 19.1542 18.12C19.4209 18.2853 19.6289 18.5253 19.7782 18.84C19.9329 19.1547 20.0102 19.5307 20.0102 19.968C20.0102 20.4107 19.9329 20.7893 19.7782 21.104C19.6289 21.4187 19.4209 21.6613 19.1542 21.832C18.8875 22.0027 18.5782 22.088 18.2262 22.088C17.9009 22.088 17.6102 22.0107 17.3542 21.856C17.1035 21.7013 16.9355 21.496 16.8502 21.24H16.9462V23.728H15.7382ZM17.8582 21.176C18.1409 21.176 18.3675 21.0773 18.5382 20.88C18.7089 20.6827 18.7942 20.3787 18.7942 19.968C18.7942 19.5573 18.7089 19.256 18.5382 19.064C18.3675 18.872 18.1409 18.776 17.8582 18.776C17.5809 18.776 17.3542 18.872 17.1782 19.064C17.0075 19.256 16.9222 19.5573 16.9222 19.968C16.9222 20.3787 17.0075 20.6827 17.1782 20.88C17.3542 21.0773 17.5809 21.176 17.8582 21.176ZM20.7929 22V16.112H22.0009V22H20.7929ZM24.5642 22.088C24.2122 22.088 23.9029 22.0027 23.6362 21.832C23.3695 21.6613 23.1615 21.4187 23.0122 21.104C22.8629 20.7893 22.7882 20.4107 22.7882 19.968C22.7882 19.5307 22.8629 19.1547 23.0122 18.84C23.1615 18.5253 23.3695 18.2853 23.6362 18.12C23.9029 17.9493 24.2122 17.864 24.5642 17.864C24.8895 17.864 25.1802 17.944 25.4362 18.104C25.6975 18.2587 25.8682 18.4693 25.9482 18.736H25.8602L25.9562 17.944H27.1162C27.1002 18.12 27.0842 18.2987 27.0682 18.48C27.0575 18.656 27.0522 18.8293 27.0522 19V22H25.8522L25.8442 21.24H25.9402C25.8549 21.496 25.6842 21.7013 25.4282 21.856C25.1722 22.0107 24.8842 22.088 24.5642 22.088ZM24.9322 21.176C25.2095 21.176 25.4335 21.0773 25.6042 20.88C25.7749 20.6827 25.8602 20.3787 25.8602 19.968C25.8602 19.5573 25.7749 19.256 25.6042 19.064C25.4335 18.872 25.2095 18.776 24.9322 18.776C24.6549 18.776 24.4309 18.872 24.2602 19.064C24.0895 19.256 24.0042 19.5573 24.0042 19.968C24.0042 20.3787 24.0869 20.6827 24.2522 20.88C24.4229 21.0773 24.6495 21.176 24.9322 21.176ZM28.0429 22V17.944H29.2509V22H28.0429ZM27.9949 17.28V16.152H29.2909V17.28H27.9949ZM30.2382 22V19C30.2382 18.8293 30.2329 18.656 30.2222 18.48C30.2115 18.2987 30.1955 18.12 30.1742 17.944H31.3342L31.4222 18.696H31.3262C31.4595 18.4293 31.6489 18.224 31.8942 18.08C32.1395 17.936 32.4249 17.864 32.7502 17.864C33.2249 17.864 33.5795 18.0027 33.8142 18.28C34.0542 18.552 34.1742 18.976 34.1742 19.552V22H32.9662V19.608C32.9662 19.3147 32.9129 19.1067 32.8062 18.984C32.6995 18.8613 32.5395 18.8 32.3262 18.8C32.0595 18.8 31.8462 18.8853 31.6862 19.056C31.5262 19.2213 31.4462 19.4453 31.4462 19.728V22H30.2382Z" fill="white"/>
</svg>
