<svg width="8" height="17" viewBox="0 0 8 17" fill="none" xmlns="http://www.w3.org/2000/svg">
<path d="M0.210175 1.65362L6.35788 7.89999C6.49272 8.03628 6.56834 8.22025 6.56834 8.41196C6.56834 8.60368 6.49272 8.78765 6.35788 8.92394L0.211508 15.1703C0.0767468 15.3074 0.0012353 15.492 0.00123529 15.6843C0.00123529 15.8766 0.0767467 16.0611 0.211508 16.1983C0.277341 16.2658 0.356025 16.3195 0.442923 16.3561C0.529821 16.3927 0.623176 16.4116 0.717484 16.4116C0.811793 16.4116 0.905146 16.3927 0.992044 16.3561C1.07894 16.3195 1.15763 16.2658 1.22346 16.1983L7.36984 9.95322C7.77372 9.54188 8 8.98844 8 8.41196C8 7.83549 7.77372 7.28205 7.36984 6.8707L1.22346 0.625665C1.15761 0.557933 1.07884 0.504092 0.991819 0.467328C0.904797 0.430563 0.811286 0.411621 0.716817 0.411621C0.622348 0.411621 0.528839 0.430563 0.441818 0.467328C0.354796 0.504092 0.276029 0.557933 0.210175 0.625665C0.0754137 0.762799 -9.82519e-05 0.947375 -9.82603e-05 1.13964C-9.82687e-05 1.33191 0.0754137 1.51648 0.210175 1.65362Z" fill="white"/>
</svg>
