<svg width="82" height="82" viewBox="0 0 82 82" fill="none" xmlns="http://www.w3.org/2000/svg">
<path d="M82 0H10C4.47715 0 0 4.47715 0 10V82C45.2873 82 82 45.2873 82 0Z" fill="#966DED"/>
<path d="M8.152 41V29.72H15.992V31.656H10.536V34.296H15.608V36.248H10.536V39.064H15.992V41H8.152ZM16.2261 41L20.0661 36.28V37.352L16.4341 32.888H19.2821L21.4421 35.72H20.5781L22.7541 32.888H25.5861L21.9701 37.368V36.264L25.8101 41H22.9461L20.5781 37.96H21.4421L19.0581 41H16.2261ZM26.4764 44.456V35C26.4764 34.6587 26.4657 34.312 26.4444 33.96C26.423 33.5973 26.391 33.24 26.3484 32.888H28.6684L28.8604 34.472H28.6844C28.8444 33.9387 29.1804 33.5173 29.6924 33.208C30.2044 32.888 30.791 32.728 31.4524 32.728C32.1564 32.728 32.775 32.8987 33.3084 33.24C33.8417 33.5707 34.2577 34.0507 34.5564 34.68C34.8657 35.3093 35.0204 36.0613 35.0204 36.936C35.0204 37.8213 34.8657 38.5787 34.5564 39.208C34.2577 39.8373 33.8417 40.3227 33.3084 40.664C32.775 41.0053 32.1564 41.176 31.4524 41.176C30.8017 41.176 30.2204 41.0213 29.7084 40.712C29.207 40.4027 28.871 39.992 28.7004 39.48H28.8924V44.456H26.4764ZM30.7164 39.352C31.2817 39.352 31.735 39.1547 32.0764 38.76C32.4177 38.3653 32.5884 37.7573 32.5884 36.936C32.5884 36.1147 32.4177 35.512 32.0764 35.128C31.735 34.744 31.2817 34.552 30.7164 34.552C30.1617 34.552 29.7084 34.744 29.3564 35.128C29.015 35.512 28.8444 36.1147 28.8444 36.936C28.8444 37.7573 29.015 38.3653 29.3564 38.76C29.7084 39.1547 30.1617 39.352 30.7164 39.352ZM36.5858 41V29.224H39.0018V41H36.5858ZM44.1284 41.176C43.4244 41.176 42.8057 41.0053 42.2724 40.664C41.739 40.3227 41.323 39.8373 41.0244 39.208C40.7257 38.5787 40.5764 37.8213 40.5764 36.936C40.5764 36.0613 40.7257 35.3093 41.0244 34.68C41.323 34.0507 41.739 33.5707 42.2724 33.24C42.8057 32.8987 43.4244 32.728 44.1284 32.728C44.779 32.728 45.3604 32.888 45.8724 33.208C46.395 33.5173 46.7364 33.9387 46.8964 34.472H46.7204L46.9124 32.888H49.2324C49.2004 33.24 49.1684 33.5973 49.1364 33.96C49.115 34.312 49.1044 34.6587 49.1044 35V41H46.7044L46.6884 39.48H46.8804C46.7097 39.992 46.3684 40.4027 45.8564 40.712C45.3444 41.0213 44.7684 41.176 44.1284 41.176ZM44.8644 39.352C45.419 39.352 45.867 39.1547 46.2084 38.76C46.5497 38.3653 46.7204 37.7573 46.7204 36.936C46.7204 36.1147 46.5497 35.512 46.2084 35.128C45.867 34.744 45.419 34.552 44.8644 34.552C44.3097 34.552 43.8617 34.744 43.5204 35.128C43.179 35.512 43.0084 36.1147 43.0084 36.936C43.0084 37.7573 43.1737 38.3653 43.5044 38.76C43.8457 39.1547 44.299 39.352 44.8644 39.352ZM51.0858 41V32.888H53.5018V41H51.0858ZM50.9898 31.56V29.304H53.5818V31.56H50.9898ZM55.4764 41V35C55.4764 34.6587 55.4657 34.312 55.4444 33.96C55.423 33.5973 55.391 33.24 55.3484 32.888H57.6684L57.8444 34.392H57.6524C57.919 33.8587 58.2977 33.448 58.7884 33.16C59.279 32.872 59.8497 32.728 60.5004 32.728C61.4497 32.728 62.159 33.0053 62.6284 33.56C63.1084 34.104 63.3484 34.952 63.3484 36.104V41H60.9324V36.216C60.9324 35.6293 60.8257 35.2133 60.6124 34.968C60.399 34.7227 60.079 34.6 59.6524 34.6C59.119 34.6 58.6924 34.7707 58.3724 35.112C58.0524 35.4427 57.8924 35.8907 57.8924 36.456V41H55.4764Z" fill="white"/>
</svg>
