<svg width="39" height="38" viewBox="0 0 39 38" fill="none" xmlns="http://www.w3.org/2000/svg">
<g filter="url(#filter0_d_462_1494)">
<circle cx="19.4998" cy="16.8696" r="16.8692" fill="#F5F1FB"/>
</g>
<path d="M25.7183 18.8772L22.614 17.4862L22.6054 17.4822C22.4442 17.4133 22.2684 17.3856 22.0939 17.4017C21.9194 17.4178 21.7516 17.4772 21.6058 17.5745C21.5886 17.5858 21.5721 17.5981 21.5564 17.6114L19.9525 18.9787C18.9364 18.4851 17.8873 17.444 17.3938 16.4411L18.7631 14.8128C18.7762 14.7963 18.7888 14.7799 18.8006 14.7621C18.8958 14.6166 18.9535 14.4499 18.9687 14.2768C18.9839 14.1037 18.956 13.9295 18.8876 13.7697V13.7618L17.4926 10.6522C17.4022 10.4435 17.2466 10.2696 17.0493 10.1565C16.8519 10.0435 16.6232 9.99729 16.3974 10.0249C15.5045 10.1424 14.6849 10.5809 14.0917 11.2585C13.4985 11.9361 13.1722 12.8065 13.1738 13.7071C13.1738 18.9392 17.4307 23.196 22.6627 23.196C23.5633 23.1976 24.4337 22.8713 25.1113 22.2781C25.789 21.6849 26.2275 20.8653 26.345 19.9724C26.3726 19.7467 26.3265 19.5181 26.2135 19.3207C26.1006 19.1233 25.9269 18.9678 25.7183 18.8772ZM22.6627 22.1417C20.4265 22.1392 18.2825 21.2498 16.7013 19.6685C15.12 18.0873 14.2306 15.9433 14.2282 13.7071C14.2257 13.0636 14.4575 12.4412 14.8803 11.9562C15.3032 11.4711 15.8881 11.1566 16.5259 11.0713C16.5257 11.0739 16.5257 11.0766 16.5259 11.0792L17.9097 14.1763L16.5477 15.8065C16.5338 15.8224 16.5213 15.8394 16.5101 15.8572C16.4109 16.0094 16.3528 16.1846 16.3412 16.3659C16.3297 16.5471 16.3652 16.7283 16.4442 16.8918C17.0412 18.1128 18.2715 19.3339 19.5057 19.9302C19.6704 20.0085 19.8526 20.0428 20.0345 20.0296C20.2164 20.0165 20.3918 19.9563 20.5435 19.8551C20.5605 19.8438 20.5768 19.8314 20.5923 19.8182L22.1942 18.4515L25.2913 19.8386H25.2985C25.2143 20.4773 24.9002 21.0634 24.4151 21.4873C23.9299 21.9112 23.307 22.1438 22.6627 22.1417Z" fill="#966DED"/>
<defs>
<filter id="filter0_d_462_1494" x="0.943699" y="0.000488281" width="37.1121" height="37.1121" filterUnits="userSpaceOnUse" color-interpolation-filters="sRGB">
<feFlood flood-opacity="0" result="BackgroundImageFix"/>
<feColorMatrix in="SourceAlpha" type="matrix" values="0 0 0 0 0 0 0 0 0 0 0 0 0 0 0 0 0 0 127 0" result="hardAlpha"/>
<feOffset dy="1.68692"/>
<feGaussianBlur stdDeviation="0.843458"/>
<feComposite in2="hardAlpha" operator="out"/>
<feColorMatrix type="matrix" values="0 0 0 0 0 0 0 0 0 0 0 0 0 0 0 0 0 0 0.25 0"/>
<feBlend mode="normal" in2="BackgroundImageFix" result="effect1_dropShadow_462_1494"/>
<feBlend mode="normal" in="SourceGraphic" in2="effect1_dropShadow_462_1494" result="shape"/>
</filter>
</defs>
</svg>
