<svg width="24" height="32" viewBox="0 0 24 32" fill="none" xmlns="http://www.w3.org/2000/svg">
<path d="M15.7898 22.758L9.64212 16.5116C9.50729 16.3753 9.43166 16.1914 9.43166 15.9997C9.43166 15.8079 9.50729 15.624 9.64212 15.4877L15.7885 9.24131C15.9233 9.10418 15.9988 8.9196 15.9988 8.72734C15.9988 8.53507 15.9233 8.35049 15.7885 8.21336C15.7227 8.14583 15.644 8.09217 15.5571 8.05552C15.4702 8.01888 15.3768 8 15.2825 8C15.1882 8 15.0949 8.01888 15.008 8.05552C14.9211 8.09217 14.8424 8.14583 14.7765 8.21336L8.63017 14.4584C8.22628 14.8697 8 15.4232 8 15.9997C8 16.5761 8.22628 17.1296 8.63016 17.5409L14.7765 23.786C14.8424 23.8537 14.9212 23.9075 15.0082 23.9443C15.0952 23.9811 15.1887 24 15.2832 24C15.3777 24 15.4712 23.9811 15.5582 23.9443C15.6452 23.9075 15.724 23.8537 15.7898 23.786C15.9246 23.6488 16.0001 23.4642 16.0001 23.272C16.0001 23.0797 15.9246 22.8951 15.7898 22.758Z" fill="white"/>
</svg>
