<svg width="13" height="13" viewBox="0 0 13 13" fill="none" xmlns="http://www.w3.org/2000/svg">
<path d="M6.5 13C4.68542 13 3.14844 12.3703 1.88906 11.1109C0.629687 9.85156 0 8.31458 0 6.5C0 4.68542 0.629687 3.14844 1.88906 1.88906C3.14844 0.629687 4.68542 0 6.5 0C7.43437 0 8.32812 0.192833 9.18125 0.5785C10.0344 0.964167 10.7656 1.51612 11.375 2.23438V0H13V5.6875H7.3125V4.0625H10.725C10.2917 3.30417 9.69935 2.70833 8.94806 2.275C8.19677 1.84167 7.38075 1.625 6.5 1.625C5.14583 1.625 3.99479 2.09896 3.04688 3.04688C2.09896 3.99479 1.625 5.14583 1.625 6.5C1.625 7.85417 2.09896 9.00521 3.04688 9.95312C3.99479 10.901 5.14583 11.375 6.5 11.375C7.54271 11.375 8.48385 11.0771 9.32344 10.4812C10.163 9.88542 10.7521 9.1 11.0906 8.125H12.7969C12.4177 9.56042 11.6458 10.7318 10.4812 11.6391C9.31667 12.5464 7.98958 13 6.5 13Z" fill="#966DED"/>
</svg>
