<svg width="40" height="96" viewBox="0 0 40 96" fill="none" xmlns="http://www.w3.org/2000/svg">
<g id="Group 1">
<path id="Vector" d="M39.2234 12.9036V29.2983L32.752 25.2009V17.0023L39.2234 12.9036Z" fill="#0B8F87" fill-opacity="0.53"/>
<path id="Vector_2" d="M32.8086 8.92234L26.3371 4.82367L19.8656 0.726257L13.3941 4.82367L6.92266 8.92234L0.451172 13.0198L6.92266 17.1184L13.3941 21.2171L19.8656 25.3157L26.3371 21.2171L32.8086 17.1184L39.2801 13.0198L32.8086 8.92234ZM19.8656 17.1184L13.3941 13.0198L19.8656 8.92109L26.3371 13.0198L19.8656 17.1184Z" fill="#0B8F87" fill-opacity="0.53"/>
<path id="Vector_3" d="M32.1825 25.5596V87.9562L31.9531 88.1019L19.8662 95.7562H19.8639L7.77817 88.1019L7.54883 87.9562V72.3586H7.54996L19.8639 80.1561V48.9585L7.54883 41.1572V25.5571H7.54996L19.8639 33.3572H19.8662L32.1802 25.5571L32.1825 25.5596Z" fill="#0B8F87" fill-opacity="0.53"/>
</g>
</svg>
