<svg width="342" height="259" viewBox="0 0 342 259" fill="none" xmlns="http://www.w3.org/2000/svg">
<circle cx="224.5" cy="116.5" r="116.5" fill="#090A16"/>
<circle cx="96.5" cy="96.5" r="95.5" transform="matrix(1 0 0 -1 128.999 213)" fill="black" stroke="black" stroke-width="2"/>
<path d="M299.999 116.5C299.999 158.204 266.414 192 224.999 192C183.584 192 149.999 158.204 149.999 116.5C149.999 74.7963 183.584 41 224.999 41C266.414 41 299.999 74.7963 299.999 116.5Z" fill="#090A16" stroke="#38B7EE" stroke-width="2"/>
<path d="M277.999 116.5C277.999 146.056 254.261 170 224.999 170C195.737 170 171.999 146.056 171.999 116.5C171.999 86.9441 195.737 63 224.999 63C254.261 63 277.999 86.9441 277.999 116.5Z" stroke="#FB0A0A" stroke-width="2"/>
<circle cx="225.499" cy="116.5" r="32.5" fill="url(#paint0_linear_886_88)" stroke="#F5F95A" stroke-width="2"/>
<circle cx="116.5" cy="116.5" r="115.5" transform="matrix(1 0 0 -1 108.999 233)" stroke="white" stroke-width="2"/>
<path d="M141.655 155.39C138.209 160.815 135.109 165.495 134.788 165.778C134.495 166.044 133.798 166.349 133.277 166.456C132.428 166.597 131.687 166.423 124.791 164.428C116.232 161.938 115.86 161.764 115.374 159.814C115.126 158.812 115.164 158.576 117.114 151.299C119.292 143.173 119.477 142.755 120.9 142.128C121.812 141.757 144.705 140.338 145.715 140.608C146.518 140.824 147.538 141.884 147.941 142.952C148.544 144.466 148.329 144.901 141.655 155.39Z" fill="white"/>
<path d="M113.313 173.015C112.461 173.992 111.1 174.39 109.86 174.058C108.597 173.719 108.177 173.361 107.156 171.66L106.366 170.292L55.7852 199.476C10.0586 225.876 5.13503 228.641 4.31148 228.593C2.36595 228.416 0.719409 226.572 0.871653 224.719C1.00874 222.738 -1.37351 224.191 52.3345 193.163L102.724 164.051L101.886 162.498C100.913 160.712 100.796 159.401 101.467 158.277C102.576 156.433 105.31 155.96 106.832 157.352C107.638 158.11 114.138 169.57 114.217 170.378C114.309 171.412 114.019 172.22 113.313 173.015Z" fill="white"/>
<path d="M44.0949 223.728C43.7669 224.034 39.5739 226.552 34.8066 229.285C27.3737 233.518 26.0012 234.232 25.2297 234.173C23.9975 234.089 23.0842 233.549 22.3812 232.5C21.7517 231.544 21.6624 230.683 22.0295 228.395L22.2608 226.981L34.3339 220.03C45.1034 213.812 46.3947 213.125 46.3742 213.661C46.3101 214.726 45.3061 220.952 45.0047 222.077C44.8263 222.743 44.4811 223.388 44.0949 223.728Z" fill="white"/>
<path d="M23.7219 201.514L11.5553 208.538L9.71149 207.798C7.24952 206.794 6.30186 205.556 6.49551 203.639C6.64446 201.981 7.53161 201.333 16.7232 196.046C24.2786 191.723 25.5056 191.092 26.323 191.163C27.0715 191.216 35.7037 194.169 35.861 194.408C35.8717 194.46 30.4164 197.648 23.7219 201.514Z" fill="white"/>
<defs>
<linearGradient id="paint0_linear_886_88" x1="225.499" y1="83" x2="226.559" y2="171.637" gradientUnits="userSpaceOnUse">
<stop stop-color="#1E2247"/>
<stop offset="1"/>
</linearGradient>
</defs>
</svg>
