<svg width="9" height="9" viewBox="0 0 9 9" fill="none" xmlns="http://www.w3.org/2000/svg">
<g clip-path="url(#clip0_462_1577)">
<path d="M4.10779 5.9774L5.18845 7.20607C5.58845 7.66107 5.78879 7.88874 5.99845 7.83307C6.20779 7.77774 6.27979 7.4784 6.42345 6.8794L7.22012 3.55674C7.44179 2.63407 7.55245 2.17307 7.30645 1.9454C7.06045 1.71774 6.63412 1.88707 5.78145 2.2254L1.82612 3.7964C1.14412 4.0674 0.803121 4.20274 0.781455 4.4354C0.778903 4.45911 0.778903 4.48303 0.781455 4.50674C0.802455 4.73974 1.14279 4.87607 1.82412 5.14907C2.13245 5.27274 2.28679 5.33474 2.39745 5.45307C2.4099 5.4664 2.4219 5.48018 2.43345 5.4944C2.53545 5.62107 2.57879 5.78774 2.66579 6.11974L2.82879 6.74207C2.91312 7.0654 2.95545 7.2274 3.06645 7.2494C3.17745 7.2714 3.27379 7.1374 3.46679 6.86907L4.10779 5.9774ZM4.10779 5.9774L4.00212 5.8674C3.88145 5.7414 3.82112 5.67874 3.82112 5.60074C3.82112 5.52274 3.88112 5.45974 4.00212 5.33407L5.19312 4.09274" stroke="#031621" stroke-width="0.604167" stroke-linecap="round" stroke-linejoin="round"/>
</g>
<defs>
<clipPath id="clip0_462_1577">
<rect width="8" height="8" fill="white" transform="translate(0.112793 0.841309)"/>
</clipPath>
</defs>
</svg>
