<svg width="297" height="246" viewBox="0 0 297 246" fill="none" xmlns="http://www.w3.org/2000/svg">
<circle cx="179.5" cy="116.5" r="116.5" fill="#090A16"/>
<path d="M232.999 116.5C232.999 146.056 209.261 170 179.999 170C150.737 170 126.999 146.056 126.999 116.5C126.999 86.9441 150.737 63 179.999 63C209.261 63 232.999 86.9441 232.999 116.5Z" fill="#FF3A3A" stroke="#FB0A0A" stroke-width="2"/>
<circle cx="180.499" cy="116.5" r="32.5" fill="url(#paint0_linear_886_86)" stroke="#F5F95A" stroke-width="2"/>
<path d="M254.999 116.5C254.999 158.204 221.414 192 179.999 192C138.584 192 104.999 158.204 104.999 116.5C104.999 74.7963 138.584 41 179.999 41C221.414 41 254.999 74.7963 254.999 116.5Z" stroke="#38B7EE" stroke-width="2"/>
<circle cx="96.5" cy="96.5" r="95.5" transform="matrix(1 0 0 -1 83.999 213)" stroke="black" stroke-width="2"/>
<circle cx="116.5" cy="116.5" r="115.5" transform="matrix(1 0 0 -1 63.999 233)" stroke="white" stroke-width="2"/>
<path d="M141.655 142.39C138.209 147.814 135.109 152.495 134.788 152.778C134.495 153.044 133.798 153.349 133.277 153.456C132.428 153.597 131.687 153.423 124.791 151.428C116.232 148.938 115.86 148.764 115.374 146.813C115.126 145.812 115.164 145.576 117.114 138.299C119.292 130.173 119.477 129.755 120.9 129.128C121.812 128.757 144.705 127.338 145.715 127.608C146.518 127.823 147.538 128.884 147.941 129.952C148.544 131.466 148.329 131.901 141.655 142.39Z" fill="white"/>
<path d="M113.313 160.015C112.461 160.992 111.1 161.39 109.86 161.058C108.597 160.72 108.177 160.361 107.156 158.66L106.366 157.292L55.7852 186.476C10.0586 212.876 5.13503 215.641 4.31148 215.593C2.36595 215.416 0.719409 213.572 0.871653 211.719C1.00874 209.738 -1.37351 211.191 52.3345 180.163L102.724 151.051L101.886 149.498C100.913 147.712 100.796 146.401 101.467 145.277C102.576 143.433 105.31 142.961 106.832 144.352C107.638 145.11 114.138 156.57 114.217 157.378C114.309 158.412 114.019 159.22 113.313 160.015Z" fill="white"/>
<path d="M44.0949 210.728C43.7669 211.034 39.5739 213.552 34.8066 216.285C27.3737 220.518 26.0012 221.232 25.2297 221.173C23.9975 221.089 23.0842 220.549 22.3812 219.5C21.7517 218.544 21.6624 217.683 22.0295 215.395L22.2608 213.981L34.3339 207.03C45.1034 200.812 46.3947 200.125 46.3742 200.661C46.3101 201.726 45.3061 207.952 45.0047 209.077C44.8263 209.743 44.4811 210.388 44.0949 210.728Z" fill="white"/>
<path d="M23.7219 188.513L11.5553 195.538L9.71149 194.798C7.24952 193.794 6.30186 192.556 6.49551 190.639C6.64446 188.981 7.53161 188.333 16.7232 183.046C24.2786 178.723 25.5056 178.092 26.323 178.163C27.0715 178.216 35.7037 181.169 35.861 181.408C35.8717 181.46 30.4164 184.648 23.7219 188.513Z" fill="white"/>
<defs>
<linearGradient id="paint0_linear_886_86" x1="180.499" y1="83" x2="181.559" y2="171.637" gradientUnits="userSpaceOnUse">
<stop stop-color="#1E2247"/>
<stop offset="1"/>
</linearGradient>
</defs>
</svg>
