<svg width="8" height="10" viewBox="0 0 8 10" fill="none" xmlns="http://www.w3.org/2000/svg">
<g clip-path="url(#clip0_1504_1186)">
<path fill-rule="evenodd" clip-rule="evenodd" d="M1.19251 5.28769C1.2103 6.91927 2.53679 8.23983 4.14287 8.23983C5.77059 8.23983 7.09322 6.91719 7.09322 5.28947C7.09322 3.66175 5.77059 2.33912 4.14316 2.33912C2.51574 2.33912 1.1934 3.66086 1.19251 5.28769ZM0.482422 5.28947C0.482422 3.26979 2.12319 1.62903 4.14287 1.62903C6.16254 1.62903 7.80331 3.26979 7.80331 5.28947C7.80331 7.30915 6.16254 8.94992 4.14287 8.94992C2.14009 8.94992 0.503473 7.30796 0.482422 5.29303V5.28947Z" fill="#0D333F"/>
<path fill-rule="evenodd" clip-rule="evenodd" d="M3.86873 2.93404H4.34193V5.16393L6.00493 6.29058L5.73928 6.68224L3.86843 5.41505V2.93433L3.86873 2.93404ZM4.49818 0.920288V1.98409H3.78809V0.920288H4.49818Z" fill="#0D333F"/>
<path fill-rule="evenodd" clip-rule="evenodd" d="M2.79883 0.920204C2.79883 0.724522 2.95804 0.565308 3.15402 0.565308H4.97742C5.07159 0.565308 5.1619 0.602714 5.22848 0.669298C5.29506 0.735882 5.33247 0.826189 5.33247 0.920352C5.33247 1.01452 5.29506 1.10482 5.22848 1.17141C5.1619 1.23799 5.07159 1.2754 4.97742 1.2754H3.15402C3.10737 1.27544 3.06116 1.26628 3.01805 1.24844C2.97494 1.2306 2.93577 1.20444 2.90277 1.17145C2.86978 1.13846 2.84362 1.09929 2.82579 1.05618C2.80795 1.01307 2.79879 0.96686 2.79883 0.920204Z" fill="#0D333F"/>
</g>
<defs>
<clipPath id="clip0_1504_1186">
<rect width="7.41221" height="8.59816" fill="white" transform="translate(0.482422 0.56543)"/>
</clipPath>
</defs>
</svg>
