<svg width="9" height="11" viewBox="0 0 9 11" fill="none" xmlns="http://www.w3.org/2000/svg">
<path d="M8.47882 7.26571V1.04447C8.47882 0.798214 8.2807 0.600098 8.03445 0.600098H1.96133C0.980008 0.600098 0.183838 1.39627 0.183838 2.37759V8.30258C0.183838 9.28391 0.980008 10.0801 1.96133 10.0801H8.03445C8.2807 10.0801 8.47882 9.88196 8.47882 9.6357V9.33945C8.47882 9.20059 8.41402 9.07468 8.31403 8.99321C8.23627 8.70807 8.23627 7.89524 8.31403 7.6101C8.41402 7.53048 8.47882 7.40458 8.47882 7.26571ZM2.55383 3.08119C2.55383 3.02008 2.60383 2.97009 2.66493 2.97009H6.59023C6.65133 2.97009 6.70132 3.02008 6.70132 3.08119V3.4515C6.70132 3.5126 6.65133 3.56259 6.59023 3.56259H2.66493C2.60383 3.56259 2.55383 3.5126 2.55383 3.4515V3.08119ZM2.55383 4.26618C2.55383 4.20508 2.60383 4.15509 2.66493 4.15509H6.59023C6.65133 4.15509 6.70132 4.20508 6.70132 4.26618V4.6365C6.70132 4.6976 6.65133 4.74759 6.59023 4.74759H2.66493C2.60383 4.74759 2.55383 4.6976 2.55383 4.6365V4.26618ZM7.24568 8.89508H1.96133C1.63361 8.89508 1.36884 8.63031 1.36884 8.30258C1.36884 7.97671 1.63546 7.71008 1.96133 7.71008H7.24568C7.2105 8.0267 7.2105 8.57846 7.24568 8.89508Z" fill="#966DED"/>
</svg>
