<svg width="10" height="10" viewBox="0 0 10 10" fill="none" xmlns="http://www.w3.org/2000/svg">
<path d="M8.64999 3.61142C8.76972 3.61142 8.88455 3.56386 8.96921 3.4792C9.05387 3.39453 9.10143 3.27971 9.10143 3.15998V1.80564C9.10143 1.71091 9.0716 1.61859 9.01617 1.54177C8.96075 1.46495 8.88254 1.40754 8.79265 1.37767L4.72963 0.023328C4.63701 -0.00745046 4.53693 -0.00745046 4.44431 0.023328L0.381299 1.37767C0.291404 1.40754 0.213197 1.46495 0.15777 1.54177C0.102344 1.61859 0.0725134 1.71091 0.0725098 1.80564V3.15998C0.0725098 3.27971 0.120073 3.39453 0.204735 3.4792C0.289398 3.56386 0.404225 3.61142 0.523956 3.61142H0.975402V6.85461C0.712068 6.94736 0.483904 7.11936 0.322239 7.34698C0.160575 7.57461 0.0733389 7.84669 0.0725098 8.12589V9.02878C0.0725098 9.14851 0.120073 9.26334 0.204735 9.348C0.289398 9.43266 0.404225 9.48022 0.523956 9.48022H8.64999C8.76972 9.48022 8.88455 9.43266 8.96921 9.348C9.05387 9.26334 9.10143 9.14851 9.10143 9.02878V8.12589C9.10061 7.84669 9.01337 7.57461 8.8517 7.34698C8.69004 7.11936 8.46188 6.94736 8.19854 6.85461V3.61142H8.64999ZM8.19854 8.57733H0.975402V8.12589C0.975522 8.00619 1.02312 7.89143 1.10776 7.8068C1.1924 7.72216 1.30715 7.67456 1.42685 7.67444H7.7471C7.86679 7.67456 7.98155 7.72216 8.06618 7.8068C8.15082 7.89143 8.19842 8.00619 8.19854 8.12589V8.57733ZM1.87829 6.77155V3.61142H2.78119V6.77155H1.87829ZM3.68408 6.77155V3.61142H5.48986V6.77155H3.68408ZM6.39276 6.77155V3.61142H7.29565V6.77155H6.39276ZM0.975402 2.70853V2.13068L4.58697 0.927123L8.19854 2.13113V2.70853H0.975402Z" fill="#0FA958"/>
</svg>
