<svg width="9" height="9" viewBox="0 0 9 9" fill="none" xmlns="http://www.w3.org/2000/svg">
<g clip-path="url(#clip0_462_1581)">
<path d="M4.11287 2.1748C4.39787 2.1748 4.69021 2.18214 4.97354 2.19414L5.30821 2.21014L5.62854 2.22914L5.92854 2.24947L6.20254 2.2708C6.49994 2.29344 6.77981 2.42028 6.99286 2.62901C7.20591 2.83773 7.33848 3.11494 7.36721 3.4118L7.38054 3.55347L7.40554 3.8568C7.42887 4.17114 7.44621 4.5138 7.44621 4.84147C7.44621 5.16914 7.42887 5.5118 7.40554 5.82614L7.38054 6.12947L7.36721 6.27114C7.33847 6.56806 7.20585 6.84531 6.99273 7.05404C6.77961 7.26277 6.49966 7.38958 6.20221 7.41214L5.92887 7.43314L5.62887 7.4538L5.30821 7.4728L4.97354 7.4888C4.68682 7.50122 4.39987 7.50767 4.11287 7.50814C3.82588 7.50767 3.53893 7.50122 3.25221 7.4888L2.91754 7.4728L2.59721 7.4538L2.29721 7.43314L2.02321 7.41214C1.72581 7.38951 1.44594 7.26266 1.23289 7.05394C1.01984 6.84521 0.887271 6.56801 0.858541 6.27114L0.845208 6.12947L0.820208 5.82614C0.794819 5.49851 0.781254 5.17008 0.779541 4.84147C0.779541 4.5138 0.796874 4.17114 0.820208 3.8568L0.845208 3.55347L0.858541 3.4118C0.88726 3.11499 1.01978 2.83782 1.23276 2.62911C1.44575 2.42039 1.72554 2.29351 2.02287 2.2708L2.29654 2.24947L2.59654 2.22914L2.91721 2.21014L3.25187 2.19414C3.53871 2.18171 3.82577 2.17527 4.11287 2.1748ZM4.11287 2.84147C3.83787 2.84147 3.55487 2.8488 3.27954 2.86014L2.95354 2.8758L2.64054 2.89414L2.34654 2.91414L2.07721 2.93514C1.93561 2.94505 1.8021 3.00485 1.70043 3.1039C1.59875 3.20295 1.53549 3.33484 1.52187 3.47614C1.48287 3.87914 1.44621 4.3808 1.44621 4.84147C1.44621 5.30214 1.48287 5.8038 1.52187 6.2068C1.55021 6.49747 1.78087 6.72347 2.07721 6.7478L2.34654 6.76847L2.64054 6.78847L2.95354 6.80714L3.27954 6.8228C3.55487 6.83414 3.83787 6.84147 4.11287 6.84147C4.38787 6.84147 4.67087 6.83414 4.94621 6.8228L5.27221 6.80714L5.58521 6.7888L5.87921 6.7688L6.14854 6.7478C6.29014 6.73789 6.42364 6.6781 6.52532 6.57904C6.627 6.47999 6.69026 6.3481 6.70387 6.2068C6.74287 5.8038 6.77954 5.30214 6.77954 4.84147C6.77954 4.3808 6.74287 3.87914 6.70387 3.47614C6.69026 3.33484 6.627 3.20295 6.52532 3.1039C6.42364 3.00485 6.29014 2.94505 6.14854 2.93514L5.87921 2.91447L5.58521 2.89447L5.27221 2.8758L4.94621 2.86014C4.66859 2.84822 4.39075 2.842 4.11287 2.84147ZM3.44621 4.03314C3.44619 4.00056 3.45412 3.96847 3.46933 3.93966C3.48454 3.91084 3.50655 3.88618 3.53346 3.86782C3.56037 3.84945 3.59136 3.83794 3.62373 3.83427C3.6561 3.83061 3.68888 3.83491 3.71921 3.8468L3.74621 3.86014L5.14621 4.66814C5.17409 4.68422 5.19767 4.7068 5.21496 4.73395C5.23224 4.7611 5.24272 4.79202 5.24551 4.82409C5.24829 4.85615 5.24329 4.88842 5.23093 4.91814C5.21858 4.94786 5.19923 4.97416 5.17454 4.9948L5.14621 5.0148L3.74621 5.82314C3.71799 5.83947 3.68622 5.84867 3.65364 5.84992C3.62106 5.85116 3.58867 5.84443 3.55929 5.8303C3.52991 5.81617 3.50443 5.79507 3.48507 5.76884C3.46571 5.74261 3.45306 5.71204 3.44821 5.6798L3.44621 5.6498V4.03314Z" fill="#031621"/>
</g>
<defs>
<clipPath id="clip0_462_1581">
<rect width="8" height="8" fill="white" transform="translate(0.112793 0.841309)"/>
</clipPath>
</defs>
</svg>
