<svg width="58" height="22" viewBox="0 0 58 22" fill="none" xmlns="http://www.w3.org/2000/svg">
<path d="M51.0955 17.0297C49.6687 17.0297 48.6056 16.637 47.9063 15.8517C47.207 15.0664 46.8579 13.8657 46.8589 12.2495V5.34021H50.2615V12.2267C50.2615 12.9673 50.4154 13.5111 50.7232 13.8581C51.0309 14.2051 51.485 14.3791 52.0854 14.3801C52.3996 14.3882 52.7119 14.3287 53.0014 14.2056C53.2909 14.0825 53.5509 13.8986 53.764 13.6663C54.207 13.1905 54.4285 12.5599 54.4285 11.7747V5.34021H57.8311V16.8044H54.5012V14.6068H54.8614C54.5449 15.3396 54.0246 15.9649 53.3629 16.4072C52.6842 16.834 51.8957 17.0504 51.0955 17.0297Z" fill="#025C57"/>
<path d="M45.2376 2.41516V5.66891L43.8359 4.85623V3.22936L45.2376 2.41516Z" fill="#025C57"/>
<path d="M43.8483 1.62523L42.4467 0.812553L41.0451 -0.00012207L39.645 0.812553L38.2449 1.62523L36.8433 2.43791L38.2449 3.2521L39.645 4.06478L41.0451 4.87898L42.4467 4.06478L43.8483 3.2521L45.2499 2.43791L43.8483 1.62523ZM41.0451 3.2521L39.6435 2.43791L41.0451 1.62523L42.4467 2.43791L41.0451 3.2521Z" fill="#025C57"/>
<path d="M43.7119 4.92779V17.3112L43.662 17.3401L41.0449 18.8589L38.4279 17.3401L38.3779 17.3112V14.2157H38.3794L41.0449 15.7619V9.571L38.3779 8.02327V4.92627H38.3794L41.0449 6.47401L43.7119 4.92627V4.92779Z" fill="#025C57"/>
<path d="M0.09375 16.8044V14.584L6.90504 7.08426L6.92774 7.85433H0.09375V5.34021H9.94136V7.53778L3.06802 15.1471L3.04531 14.2629H10.1881V16.8014L0.09375 16.8044Z" fill="#025C57"/>
<path d="M17.9411 17.0296C15.9582 17.0296 14.4108 16.4974 13.2988 15.4331C12.1868 14.3688 11.6318 12.9073 11.6338 11.0486C11.6108 9.97108 11.8548 8.90472 12.3437 7.94555C12.7972 7.07466 13.484 6.34875 14.3265 5.84994C15.2344 5.32733 16.2671 5.0642 17.3129 5.08901C18.4542 5.08901 19.3967 5.33048 20.1403 5.81342C20.8927 6.30762 21.4843 7.013 21.8417 7.84207C22.2493 8.79648 22.449 9.82755 22.4274 10.866V11.6589H14.4249V9.98485H19.9693L19.5848 10.3014C19.5848 9.3345 19.3896 8.60553 18.9991 8.11448C18.6086 7.62342 18.0536 7.3784 17.3341 7.37941C16.5268 7.37941 15.9073 7.67364 15.4754 8.26209C15.0435 8.85055 14.8291 9.6967 14.8321 10.8006V11.1399C14.8321 12.2722 15.1101 13.1102 15.6661 13.6541C16.2221 14.1979 17.0107 14.4698 18.0319 14.4698C18.6298 14.4742 19.2254 14.3943 19.8013 14.2324C20.3619 14.0678 20.8913 13.8107 21.3679 13.4714L22.2912 15.7375C21.7063 16.1671 21.0504 16.4891 20.3538 16.6887C19.5704 16.9202 18.7575 17.0351 17.9411 17.0296Z" fill="#025C57"/>
<path d="M30.0633 21.8767C29.0768 21.8876 28.0927 21.7773 27.1329 21.5479C26.3171 21.3531 25.5401 21.0201 24.8353 20.5633L25.5119 18.1161C25.9258 18.3931 26.3721 18.6175 26.8408 18.7842C27.3209 18.9578 27.8145 19.0907 28.3166 19.1814C28.8036 19.2701 29.2974 19.3154 29.7924 19.3169C30.8015 19.3169 31.5527 19.0754 32.0462 18.5925C32.5396 18.1095 32.7873 17.4146 32.7893 16.5075V14.1304H32.9922C32.7528 14.8699 32.2461 15.4923 31.5724 15.8744C30.8343 16.3062 29.9923 16.5258 29.1385 16.509C28.202 16.5317 27.2777 16.2926 26.4685 15.8181C25.6996 15.3465 25.0849 14.6587 24.7006 13.8397C24.2842 12.8825 24.0693 11.8491 24.0693 10.8043C24.0693 9.75961 24.2842 8.72617 24.7006 7.76897C25.0849 6.94998 25.6996 6.26217 26.4685 5.79055C27.2777 5.31611 28.202 5.07692 29.1385 5.09962C29.9885 5.08237 30.8267 5.30201 31.5603 5.73424C32.2236 6.11496 32.7246 6.72754 32.9679 7.45547L32.7878 7.36568L33.0134 5.34921H36.3025C36.2439 5.83316 36.199 6.32371 36.1677 6.82085C36.1375 7.32002 36.1223 7.81768 36.1223 8.31685V16.1103C36.1223 17.9842 35.6042 19.4153 34.5678 20.4035C33.5315 21.3917 32.03 21.8828 30.0633 21.8767ZM30.1299 13.9477C30.9261 13.9477 31.5608 13.6758 32.034 13.132C32.5073 12.5882 32.7439 11.8105 32.7439 10.799C32.7439 9.78443 32.5073 9.00625 32.034 8.46446C31.5608 7.92268 30.9261 7.65078 30.1299 7.64875C29.3226 7.64875 28.6809 7.92065 28.2046 8.46446C27.7283 9.00828 27.4917 9.78646 27.4947 10.799C27.4947 11.8136 27.7313 12.5913 28.2046 13.132C28.6778 13.6728 29.3196 13.9452 30.1299 13.9493V13.9477Z" fill="#025C57"/>
</svg>
