<svg width="10" height="10" viewBox="0 0 10 10" fill="none" xmlns="http://www.w3.org/2000/svg">
<g clip-path="url(#clip0_458_1281)">
<path d="M7.39382 4.5834C8.33787 4.00828 9.06822 3.58405 9.35539 2.86318C9.96527 1.21603 9.49877 0.546511 8.91931 1.0604C8.1779 1.78009 4.69598 5.43305 0.239202 8.00173C0.171262 8.04044 0.160202 8.12892 0.459612 8.03767C2.22921 7.41673 6.08045 5.3892 7.39382 4.5834ZM8.11391 4.45187C8.486 4.2204 8.89442 4.35825 8.23873 5.42594C7.79396 6.08242 7.48625 6.46478 6.29533 6.82581C5.47571 7.13589 2.43698 8.02029 0.308327 8.27744C0.149932 8.29047 0.101347 8.23241 0.257767 8.18027C2.28609 7.6644 7.36143 4.93732 8.11391 4.45147V4.45187ZM4.568 8.58751C5.43858 8.55907 6.09348 8.6831 6.82937 7.90416C7.59962 7.10626 7.50877 6.69151 7.04425 6.82068C6.35497 7.02766 3.84041 7.88323 0.873571 8.296C0.740061 8.31417 0.772451 8.38527 0.928871 8.39475C2.91098 8.58198 3.65871 8.5962 4.568 8.58751Z" fill="#0FA958"/>
</g>
<defs>
<clipPath id="clip0_458_1281">
<rect width="9.47998" height="9.47998" fill="white" transform="translate(0.162109)"/>
</clipPath>
</defs>
</svg>
