<svg width="136" height="136" viewBox="0 0 136 136" fill="none" xmlns="http://www.w3.org/2000/svg">
<g clip-path="url(#clip0_1379_25)">
<path d="M136 62.5884C136 53.839 131.75 45.4637 124.633 39.712C123.981 29.444 116.541 20.8874 106.522 18.02C105.117 13.5093 102.448 9.38968 98.7534 6.15968C93.3757 1.45635 86.3491 -0.719655 79.5264 0.215345C75.1687 0.804679 71.2191 2.66901 68.0061 5.42868C64.7874 2.66901 60.8434 0.804679 56.4857 0.215345C49.6347 -0.713988 42.6421 1.46201 37.2587 6.16535C33.5641 9.39535 30.8951 13.515 29.4897 18.0257C19.4654 20.893 12.0307 29.4497 11.3791 39.7177C4.26172 45.4637 0.0117188 53.839 0.0117188 62.594C0.0117188 67.3427 1.12805 71.927 3.28139 76.1147C1.12805 80.3024 0.0117188 84.8867 0.0117188 89.641C0.0117188 99.4387 4.81705 108.528 12.7617 114.138C17.3517 127.177 29.5804 136 43.6677 136C53.3124 136 61.9994 131.824 68.0117 125.182C74.024 131.824 82.711 136 92.3557 136C106.443 136 118.677 127.177 123.262 114.138C131.206 108.522 136.012 99.4387 136.012 89.641C136.012 84.8924 134.895 80.3024 132.742 76.1147C134.895 71.927 136.012 67.3427 136.012 62.594L136 62.5884ZM43.6564 119C36.2671 119 29.9431 113.951 28.2714 106.72C27.7161 104.335 26.1634 102.3 23.9987 101.144C19.6807 98.8324 17.0004 94.4237 17.0004 89.641C17.0004 85.9294 18.6211 83.1414 19.9811 81.4584C22.4971 78.3417 22.4971 73.8934 19.9811 70.7767C18.6211 69.0937 17.0004 66.3057 17.0004 62.594C17.0004 58.1684 19.7147 53.9977 24.2764 51.442C27.4327 49.6684 29.1157 46.0927 28.4754 42.534C28.3961 42.0977 28.3224 41.65 28.3224 41.191C28.3224 36.8957 32.7197 34.0057 36.8337 34.0057C41.5257 34.0057 45.3337 30.2034 45.3337 25.5057C45.3337 23.1087 46.4954 20.6663 48.4334 18.972C49.3174 18.2013 51.0514 17.0057 53.3237 17.0057C56.667 17.0057 59.5004 20.6607 59.5004 24.1967V45.339H42.5004C37.8084 45.339 34.0004 49.1414 34.0004 53.839C34.0004 58.5367 37.8084 62.339 42.5004 62.339H59.5004V79.339H42.5004C37.8084 79.339 34.0004 83.1414 34.0004 87.839C34.0004 92.5367 37.8084 96.339 42.5004 96.339H59.5004V103.167C59.5004 111.905 52.3944 119 43.6564 119ZM116.02 81.4527C117.38 83.1357 119 85.9237 119 89.6354C119 94.418 116.314 98.8267 112.002 101.139C109.837 102.295 108.285 104.329 107.729 106.715C106.058 113.945 99.7337 118.994 92.3444 118.994C83.6064 118.994 76.5004 111.888 76.5004 103.156V84.9944H82.1671C93.1037 84.9944 102 76.0977 102 65.161V53.8277C102 49.13 98.1924 45.3277 93.5004 45.3277C88.8084 45.3277 85.0004 49.13 85.0004 53.8277V65.161C85.0004 66.725 83.7254 67.9944 82.1671 67.9944H76.5004V24.191C76.5004 20.655 78.8747 17.459 81.7987 17.0623C84.5527 16.694 86.5757 18.0993 87.5731 18.9663C89.5111 20.6607 90.6727 23.103 90.6727 25.5C90.6727 30.1977 94.4807 34 99.1727 34C103.287 34 107.684 36.8844 107.684 41.1854C107.684 41.65 107.605 42.092 107.531 42.5284C106.896 46.087 108.579 49.6627 111.73 51.4364C116.292 53.9977 119.006 58.1684 119.006 62.5884C119.006 66.3 117.385 69.0824 116.025 70.771C113.509 73.8877 113.504 78.336 116.02 81.4527Z" fill="url(#paint0_linear_1379_25)"/>
</g>
<defs>
<linearGradient id="paint0_linear_1379_25" x1="68.0117" y1="0.00256348" x2="68.0117" y2="136" gradientUnits="userSpaceOnUse">
<stop stop-color="#4F0056"/>
<stop offset="1" stop-color="#612067"/>
</linearGradient>
<clipPath id="clip0_1379_25">
<rect width="136" height="136" fill="white"/>
</clipPath>
</defs>
</svg>
