<svg width="86" height="25" viewBox="0 0 86 25" fill="none" xmlns="http://www.w3.org/2000/svg">
<g clip-path="url(#clip0_1386_188)">
<path d="M12.9462 21.1595C12.0724 21.1595 11.1961 21.1986 10.3252 21.1481C9.54061 21.1004 9.24241 20.6884 9.23329 19.8391C9.24662 14.5065 8.61879 9.19149 7.363 4.00716C7.1232 3.06059 6.84739 2.1231 6.59565 1.17939C6.58172 1.12741 6.62393 1.06066 6.60523 1.13171L11.584 0.544189C11.1832 3.98572 10.7738 7.49308 10.3671 11.0004C10.1433 12.9397 9.92134 14.8805 9.70136 16.8229C9.64862 17.2931 9.58106 17.7638 9.56812 18.2358C9.53442 18.5518 9.56765 18.8714 9.66603 19.1737C9.76437 19.476 9.9256 19.7544 10.139 19.9909C10.3524 20.2274 10.6133 20.4167 10.905 20.5465C11.1966 20.6764 11.5125 20.7439 11.832 20.7446C12.1989 20.7756 12.5648 20.81 12.9312 20.8424L12.9462 21.1595Z" fill="#399C2E"/>
<path d="M8.19709 19.4237C6.18852 14.5881 3.58221 10.0201 0.438477 5.82493L3.41916 4.69476C5.01375 6.85782 8.44071 17.2482 8.19709 19.4237Z" fill="#399C2E"/>
<path d="M3.78613 3.37309L6.49661 2.85571C7.72627 7.36578 8.44234 11.999 8.63125 16.6681C7.04484 12.3143 5.4109 7.83178 3.78613 3.37309Z" fill="#399C2E"/>
<path d="M13.1851 22.5307C11.5857 23.7329 9.98012 23.8864 9.71875 22.9598L13.1851 22.5307Z" fill="#399C2E"/>
<path d="M12.2009 21.8903C11.3046 22.2431 10.4002 22.5396 9.58203 21.7308L12.2009 21.8903Z" fill="#399C2E"/>
<path d="M23.0491 1.39759C22.3638 1.28648 21.6742 1.20112 20.9826 1.13436C18.5253 0.895925 16.0685 0.642247 13.6069 0.455793C13.4007 0.428508 13.1911 0.445164 12.992 0.504691C12.7928 0.564217 12.6086 0.66526 12.4518 0.801043C12.2949 0.936826 12.1688 1.10427 12.082 1.29223C11.9953 1.48019 11.9498 1.68435 11.9485 1.89116C11.3142 7.30295 10.6878 12.7157 10.0691 18.1294C10.0275 18.3644 10.0356 18.6055 10.0932 18.8372C10.1509 19.0689 10.2567 19.286 10.4037 19.4746C10.5508 19.6632 10.7359 19.8192 10.9472 19.9324C11.1585 20.0457 11.3912 20.1137 11.6305 20.1322C14.5516 20.4926 17.4813 20.805 20.0532 21.0964C22.0108 21.1741 22.4469 20.8217 22.6867 19.2628C22.7202 19.0449 22.7345 18.8241 22.7604 18.6048C23.3103 13.4941 23.8618 8.38334 24.4146 3.27262C24.5321 2.20206 24.1085 1.56831 23.0491 1.39759ZM21.0641 19.4326C18.0625 19.1055 15.201 18.7869 12.3361 18.4875C11.7534 18.4264 11.7021 18.0883 11.7568 17.6263C12.0793 14.9348 12.3976 12.2431 12.7119 9.55101C12.9574 7.45567 13.1945 5.35937 13.4449 3.265C13.4847 2.93119 13.5732 2.59978 13.6514 2.20684L22.8822 3.27117C22.2717 8.70505 21.6713 14.0393 21.0641 19.4326Z" fill="#2A9DB5"/>
<path d="M14.9098 10.6302L14.9576 10.1562C14.9707 9.76475 15.1301 9.39228 15.4046 9.11144C15.5411 8.9959 15.7012 8.9114 15.8739 8.86386C16.0466 8.81632 16.2278 8.80695 16.4045 8.83627C16.5819 8.84233 16.7559 8.88806 16.9131 8.97003C17.0704 9.05199 17.2069 9.16817 17.3128 9.3098C17.5157 9.64552 17.5909 10.0424 17.5247 10.4285L17.2639 12.9606L16.4429 12.8772L16.7066 10.3178C16.741 10.1207 16.7217 9.91803 16.6506 9.73084C16.6195 9.66792 16.5718 9.61453 16.5127 9.5762C16.4536 9.53786 16.3853 9.51598 16.3148 9.51293C16.2467 9.50227 16.177 9.51052 16.1132 9.53665C16.0494 9.56283 15.9941 9.6059 15.9533 9.66121C15.8471 9.83236 15.7879 10.0282 15.7816 10.2292L15.5185 12.7828L14.6977 12.6988L14.8473 11.2473L14.5087 11.2125C14.4629 11.3398 14.3729 11.4465 14.2547 11.5134C14.1254 11.583 13.9774 11.6099 13.8317 11.5902L13.6992 11.5768L14.0006 10.5377L14.9098 10.6302Z" fill="#399C2E"/>
<path d="M19.4888 13.1869C19.2023 13.1703 18.9223 13.0955 18.666 12.9671C18.4802 12.8632 18.3395 12.6948 18.2712 12.4941C18.194 12.2261 18.1755 11.9448 18.2166 11.6691L18.2492 11.3486C18.2802 10.9026 18.383 10.4645 18.554 10.051C18.6719 9.76774 18.8877 9.53569 19.1626 9.39681C19.4992 9.26486 19.8652 9.22519 20.2224 9.28192L20.9678 9.3577L21.0507 10.4359L20.9179 10.4221C20.7723 10.4113 20.6338 10.3547 20.5227 10.2604C20.419 10.1722 20.3509 10.0498 20.3309 9.91564C20.1002 9.87756 19.8637 9.90245 19.6462 9.98764C19.4716 10.0812 19.3382 10.2361 19.2725 10.4221C19.16 10.7463 19.0917 11.0841 19.0692 11.4264L19.0303 11.8007C18.9925 11.9919 19.0212 12.1901 19.1118 12.3629C19.167 12.4279 19.2358 12.4802 19.3134 12.516C19.3911 12.5518 19.4756 12.5704 19.5612 12.5704L20.0956 12.6247C20.1465 12.5226 20.233 12.4425 20.3391 12.3992C20.457 12.3413 20.589 12.3178 20.7198 12.3314L20.8521 12.3448L20.6351 12.9895L20.7156 13.6676L20.5831 13.6538C20.4513 13.6414 20.3259 13.5917 20.2215 13.5107C20.1269 13.4467 20.0588 13.3509 20.0298 13.2408L19.4888 13.1869Z" fill="#399C2E"/>
<path d="M28.7845 7.83325H31.2674L36.2127 20.6194H33.6708L32.664 17.9857H27.4175L26.371 20.6194H23.8291L28.7845 7.83325ZM30.0411 11.2233L28.3146 15.6133H31.7547L30.0411 11.2233Z" fill="#399C2E"/>
<path d="M37.2812 11.162H39.3272V12.3542C39.5163 11.9234 39.8218 11.5534 40.21 11.2851C40.5659 11.045 40.9866 10.9177 41.4166 10.9198C41.7543 10.9269 42.086 11.01 42.3868 11.163L41.6433 13.2059C41.4316 13.0864 41.1959 13.0152 40.9532 12.9975C40.7499 13.0128 40.555 13.0845 40.3905 13.2043C40.226 13.3241 40.0984 13.4874 40.0224 13.6756C39.7685 14.1273 39.6418 15.0138 39.6421 16.3351L39.6513 16.7957V20.6202H37.2822L37.2812 11.162Z" fill="#399C2E"/>
<path d="M44.4991 7.26838C44.7002 7.26589 44.8996 7.30475 45.0849 7.38254C45.2701 7.46034 45.4373 7.5754 45.5757 7.72046C45.7215 7.86342 45.8366 8.03436 45.9136 8.22292C45.9909 8.41148 46.0288 8.61366 46.0249 8.81722C46.0283 9.01812 45.9909 9.21768 45.9144 9.40366C45.8379 9.58969 45.724 9.7583 45.58 9.89924C45.4434 10.0428 45.2787 10.1567 45.0956 10.2338C44.9125 10.3109 44.7153 10.3494 44.5167 10.347C44.3138 10.3499 44.1127 10.3108 43.9261 10.2323C43.7391 10.1537 43.5707 10.0374 43.4314 9.89069C43.2854 9.74545 43.1706 9.57245 43.0935 9.38204C43.0164 9.19159 42.9787 8.98765 42.9827 8.78241C42.9796 8.58349 43.0171 8.38612 43.0935 8.20224C43.1699 8.01841 43.2833 7.85199 43.4267 7.71329C43.5655 7.57011 43.7318 7.45682 43.9162 7.38027C44.1006 7.30376 44.2992 7.26568 44.4991 7.26838ZM43.3058 11.1625H45.6922V20.6196H43.3058V11.1625Z" fill="#399C2E"/>
<path d="M46.7221 11.1622H47.5706C47.5762 9.92236 47.5968 9.18922 47.6316 8.96288C47.6531 8.723 47.7223 8.48983 47.8358 8.27698C47.9488 8.06409 48.1035 7.87575 48.2909 7.72304C48.7538 7.39221 49.3178 7.23094 49.8864 7.26666C50.4615 7.2823 51.0293 7.39702 51.5648 7.60574V9.41401C51.2902 9.32706 51.0052 9.27733 50.7172 9.26616C50.4985 9.2475 50.2805 9.30944 50.1052 9.44019C49.9913 9.59548 49.941 9.78825 49.9651 9.97905L49.9565 11.1612H51.4686V13.1698H49.9565V20.6189H47.5701V13.1698H46.7217L46.7221 11.1622Z" fill="#399C2E"/>
<path d="M55.2379 11.1621V12.205C55.638 11.7975 56.113 11.4701 56.6369 11.2403C57.1449 11.0246 57.6921 10.9151 58.2448 10.9189C58.8427 10.9118 59.435 11.0332 59.9813 11.2747C60.5276 11.5163 61.0146 11.8723 61.41 12.3185C62.2967 13.3012 62.7644 14.5888 62.7123 15.9083C62.7506 17.2166 62.2666 18.4868 61.3662 19.4415C60.9664 19.8902 60.4752 20.2491 59.925 20.4941C59.3748 20.7392 58.7787 20.8648 58.1756 20.8625C57.6513 20.8669 57.1316 20.7679 56.6459 20.5711C56.122 20.3419 55.6445 20.0186 55.2383 19.6173V24.0765H52.8691V11.1602L55.2379 11.1621ZM57.7467 13.1091C57.3985 13.0995 57.0521 13.1623 56.7302 13.2937C56.4078 13.4251 56.1173 13.6222 55.8761 13.8721C55.6251 14.1396 55.43 14.4542 55.3023 14.7974C55.1751 15.1406 55.1175 15.5056 55.1334 15.8711C55.0995 16.6217 55.3668 17.3548 55.8761 17.9097C56.1151 18.1636 56.4052 18.3642 56.7276 18.4984C57.05 18.6325 57.3972 18.6971 57.7467 18.688C58.0923 18.6942 58.4352 18.6268 58.7524 18.4904C59.0697 18.3539 59.3542 18.1516 59.5867 17.8969C60.093 17.349 60.3617 16.6244 60.3342 15.8807C60.3625 15.1456 60.0986 14.4289 59.5996 13.886C59.3645 13.6329 59.0774 13.4326 58.7585 13.2987C58.4391 13.1647 58.0948 13.1001 57.7484 13.1091H57.7467Z" fill="#2A9DB5"/>
<path d="M71.7047 11.1619H74.0911V20.6192H71.7047V19.6177C71.3003 20.018 70.8249 20.3413 70.3031 20.5715C69.82 20.7685 69.3021 20.8675 68.7798 20.8628C68.1772 20.8651 67.5815 20.7394 67.0318 20.4943C66.4825 20.2493 65.9916 19.8905 65.5928 19.4418C64.694 18.4863 64.2113 17.2164 64.25 15.9086C64.198 14.5894 64.6648 13.3019 65.5511 12.3188C65.9452 11.8729 66.4318 11.517 66.9776 11.2754C67.5231 11.0339 68.1145 10.9123 68.7115 10.9192C69.2634 10.9155 69.8101 11.025 70.3177 11.2406C70.8399 11.4693 71.3123 11.7969 71.7086 12.2053L71.7047 11.1619ZM69.1963 13.109C68.8516 13.1005 68.5091 13.1656 68.1919 13.2999C67.8751 13.4341 67.5905 13.6344 67.358 13.8872C66.8603 14.4309 66.5972 15.1473 66.6256 15.882C66.5981 16.6252 66.8654 17.3493 67.3705 17.8981C67.6013 18.1527 67.8845 18.355 68.2013 18.4915C68.5176 18.628 68.8598 18.6954 69.2045 18.6893C69.5531 18.6984 69.8995 18.6337 70.221 18.4995C70.5421 18.3653 70.8313 18.1647 71.0686 17.911C71.5766 17.3554 71.8431 16.6226 71.8096 15.8725C71.8255 15.5071 71.7679 15.1422 71.6407 14.799C71.5135 14.4559 71.3192 14.1412 71.0686 13.8734C70.8279 13.6227 70.5365 13.425 70.2141 13.2934C69.8913 13.1617 69.5449 13.0989 69.1963 13.109Z" fill="#2A9DB5"/>
<path d="M75.4502 11.163H77.8885L80.3587 17.0971L83.0846 11.163H85.5307L79.5743 24.0794H77.1093L79.0649 19.9144L75.4502 11.163Z" fill="#2A9DB5"/>
</g>
<defs>
<clipPath id="clip0_1386_188">
<rect width="85.5332" height="23.6398" fill="white" transform="translate(0.339844 0.43927)"/>
</clipPath>
</defs>
</svg>
