<svg width="98" height="21" viewBox="0 0 98 21" fill="none" xmlns="http://www.w3.org/2000/svg">
<g clip-path="url(#clip0_1386_205)">
<path opacity="0.59" d="M7.39288 7.1366H21.0247C21.0247 8.15301 20.6269 9.1278 19.9188 9.84652C19.2106 10.5652 18.2502 10.969 17.2488 10.969H7.405C6.90442 10.969 6.42435 10.7672 6.07039 10.4079C5.71643 10.0486 5.51758 9.56139 5.51758 9.05331C5.51758 8.54515 5.7164 8.05778 6.07033 7.69835C6.42426 7.33893 6.90433 7.13687 7.405 7.1366H7.39288Z" fill="#8DC63F"/>
<path opacity="0.59" d="M20.8619 2.08209L18.1367 5.9145H21.7157C22.7172 5.9145 23.6776 5.51073 24.3857 4.79201C25.0938 4.0733 25.4916 3.09851 25.4916 2.08209H20.8619Z" fill="#8DC63F"/>
<path opacity="0.59" d="M13.5191 5.84381L16.1888 2.08209H7.42188C8.68029 2.0815 9.91465 2.43209 10.99 3.09552C12.0653 3.75896 12.9403 4.7097 13.5191 5.84381Z" fill="#8DC63F"/>
<path d="M13.5478 5.91501L13.5183 5.85608L13.4775 5.91501H13.5478Z" fill="#7DC242"/>
<path d="M16.2813 1.98272L16.1884 2.08517L13.5188 5.84382L13.548 5.90221H13.4784L12.6043 7.13665L9.76715 11.093C9.43381 11.4901 9.00821 11.7965 8.52886 11.9847C8.0495 12.1729 7.5315 12.2368 7.02167 12.1708C6.51185 12.1047 6.02629 11.9107 5.60888 11.6064C5.19148 11.302 4.85539 10.8968 4.63102 10.4275C4.40664 9.95818 4.30105 9.43949 4.32378 8.91834C4.34652 8.39719 4.49687 7.89001 4.76123 7.44265C5.0256 6.99529 5.39565 6.62186 5.83792 6.35612C6.2802 6.09038 6.78075 5.94072 7.29433 5.92065H13.4784L13.5188 5.86123C12.9422 4.72387 12.0683 3.76957 10.9928 3.10296C9.91728 2.43635 8.6817 2.08315 7.42151 2.08209H7.01072C5.8665 2.15297 4.758 2.5136 3.7864 3.13108C2.8148 3.74856 2.01106 4.60321 1.44855 5.61702C0.886035 6.63082 0.582669 7.77149 0.566143 8.93489C0.549618 10.0983 0.820459 11.2474 1.35394 12.2772C1.88743 13.307 2.66656 14.1849 3.62021 14.8305C4.57387 15.4762 5.67167 15.8691 6.8134 15.9734C7.95513 16.0777 9.10442 15.8901 10.1563 15.4277C11.2083 14.9653 12.1293 14.2429 12.8355 13.3263L13.0908 12.979L17.2603 7.13972L18.1344 5.91758L20.8595 2.08517L21.5489 1.14474C20.7404 0.54809 19.7319 0.301242 18.7444 0.458336C17.7569 0.615431 16.8711 1.16364 16.2813 1.98272Z" fill="#7DC242"/>
<path d="M47.6216 4.36247V5.79668C47.951 5.45982 48.345 5.19517 48.7792 5.01913C49.242 4.83341 49.735 4.73784 50.2327 4.73741C52.8966 4.73741 54.2285 6.32221 54.2285 9.49181V15.957C53.3543 15.9508 52.5178 15.5947 51.9008 14.9662C51.2838 14.3376 50.936 13.4873 50.9331 12.5999V9.71719C50.9728 9.19521 50.8179 8.67714 50.4991 8.26556C50.3411 8.09949 50.1497 7.96996 49.9379 7.88581C49.7261 7.80165 49.4989 7.76486 49.2718 7.77793C49.0482 7.76699 48.825 7.80486 48.6171 7.88898C48.4092 7.9731 48.2215 8.10152 48.0667 8.26556C47.7416 8.67424 47.5824 9.19344 47.6216 9.71719V15.9591C47.1872 15.9615 46.7567 15.8771 46.3546 15.7106C45.9524 15.5441 45.5865 15.2988 45.2778 14.9888C44.9691 14.6788 44.7235 14.31 44.5552 13.9037C44.3869 13.4973 44.2991 13.0612 44.2969 12.6204V1.0013C44.7319 0.999687 45.163 1.08505 45.5655 1.25253C45.968 1.42 46.334 1.6663 46.6428 1.97737C46.9515 2.28844 47.1968 2.65818 47.3648 3.06548C47.5327 3.47278 47.62 3.90967 47.6216 4.3512V4.36247Z" fill="#7DC242"/>
<path d="M67.7842 10.4578C67.78 9.42851 68.0742 8.42066 68.63 7.55971C69.1805 6.67863 69.9544 5.96419 70.8707 5.49138C71.6807 5.05642 72.573 4.80208 73.4877 4.74537C74.4024 4.68866 75.3185 4.83088 76.1747 5.16253C76.9052 5.43266 77.5763 5.84582 78.1499 6.37854C78.717 6.89787 79.1759 7.52732 79.4993 8.22969C79.8245 8.95079 79.9899 9.7355 79.9838 10.5285C79.9896 11.3184 79.8214 12.0997 79.4913 12.8151C79.1739 13.5158 78.7188 14.1433 78.1539 14.659C77.5859 15.1918 76.9183 15.6035 76.1908 15.8699C74.7055 16.418 73.0776 16.418 71.5924 15.8699L71.3552 15.7675L71.1119 15.665V20.109C70.2324 20.1058 69.3899 19.7488 68.7692 19.1163C68.1485 18.4837 67.8001 17.6273 67.8004 16.7345L67.7842 10.4578ZM71.0968 10.5285C71.0892 11.0092 71.2242 11.4811 71.4844 11.8828C71.7371 12.3045 72.0918 12.6536 72.5149 12.897C72.9278 13.1411 73.3975 13.2688 73.8754 13.2668C74.3608 13.2702 74.8384 13.1426 75.2592 12.897C75.6772 12.6603 76.0298 12.3207 76.2847 11.9095C76.5417 11.507 76.6765 11.0368 76.6722 10.5572C76.6742 10.1928 76.6011 9.83205 76.4575 9.49807C76.3139 9.16409 76.1031 8.8643 75.8385 8.61795C75.3203 8.0982 74.6211 7.80672 73.8926 7.80672C73.164 7.80672 72.4649 8.0982 71.9466 8.61795C71.6797 8.8617 71.4665 9.15988 71.321 9.49299C71.1754 9.82611 71.1007 10.1866 71.1018 10.5511L71.0968 10.5285Z" fill="#7DC242"/>
<path d="M86.5768 4.74457C85.6784 4.74366 84.7925 4.95901 83.992 5.37294C83.1915 5.78688 82.4991 6.38761 81.9717 7.12581C81.4443 7.86402 81.0969 8.71865 80.958 9.61956C80.8191 10.5205 80.8926 11.442 81.1727 12.3084C81.4527 13.1749 81.9311 13.9616 82.5688 14.6039C83.2065 15.2463 83.9851 15.726 84.8409 16.0037C85.6966 16.2814 86.605 16.3492 87.4916 16.2015C88.3781 16.0537 89.2175 15.6947 89.9408 15.1538C90.2207 15.5045 90.5746 15.7869 90.9764 15.9801C91.3782 16.1734 91.8176 16.2726 92.2622 16.2705V10.5111C92.2622 9.75349 92.1152 9.0033 91.8294 8.3034C91.5436 7.60351 91.1248 6.96763 90.5968 6.4321C90.0688 5.89658 89.442 5.4719 88.7522 5.18235C88.0624 4.89279 87.3232 4.74403 86.5768 4.74457ZM86.5768 13.2382C86.0442 13.2379 85.5237 13.0775 85.081 12.777C84.6383 12.4766 84.2933 12.0496 84.0896 11.5502C83.886 11.0508 83.8328 10.5012 83.9368 9.97112C84.0408 9.441 84.2974 8.95408 84.674 8.57194C85.0507 8.1898 85.5305 7.92959 86.0528 7.82422C86.5751 7.71884 87.1165 7.77302 87.6085 7.97992C88.1005 8.18682 88.521 8.53714 88.8169 8.98659C89.1127 9.43604 89.2706 9.96443 89.2706 10.505V10.5111C89.2706 10.8693 89.2011 11.224 89.066 11.5549C88.9309 11.8859 88.7329 12.1865 88.4833 12.4398C88.2337 12.693 87.9374 12.8939 87.6113 13.0309C87.2852 13.1678 86.9358 13.2383 86.5828 13.2382H86.5768Z" fill="#7DC242"/>
<path d="M61.0154 4.74458C60.1168 4.74285 59.2306 4.95751 58.4296 5.37091C57.6285 5.78432 56.9355 6.38469 56.4075 7.12271C55.8795 7.86073 55.5315 8.71535 55.392 9.6164C55.2526 10.5174 55.3258 11.4392 55.6055 12.306C55.8852 13.1728 56.3635 13.9598 57.001 14.6026C57.6386 15.2453 58.4174 15.7254 59.2732 16.0033C60.1291 16.2813 61.0378 16.3492 61.9245 16.2016C62.8113 16.0539 63.6509 15.6948 64.3744 15.1539C64.6546 15.5028 65.0079 15.7841 65.4086 15.9772C65.8092 16.1704 66.2472 16.2706 66.6908 16.2705V10.5111C66.6908 8.9828 66.093 7.51699 65.0289 6.43573C63.9647 5.35447 62.5212 4.74621 61.0154 4.74458ZM61.0154 13.2382C60.4828 13.2394 59.9618 13.0803 59.5183 12.7809C59.0748 12.4816 58.7287 12.0556 58.5238 11.5566C58.3189 11.0576 58.2644 10.5082 58.3671 9.97779C58.4698 9.44736 58.7252 8.95977 59.101 8.57667C59.4767 8.19357 59.9559 7.93216 60.4781 7.82551C61.0002 7.71886 61.5418 7.77175 62.0343 7.97749C62.5268 8.18324 62.9481 8.53259 63.245 8.98139C63.5419 9.43018 63.701 9.95825 63.7022 10.4988V10.5111C63.7003 11.2338 63.4167 11.9263 62.9132 12.4373C62.4097 12.9483 61.7274 13.2363 61.0154 13.2382Z" fill="#7DC242"/>
<path d="M38.0266 12.7792C37.3602 12.7758 36.705 12.6056 36.1189 12.2838C35.5328 11.9621 35.0339 11.4986 34.6663 10.9344C34.2988 10.3703 34.0739 9.72289 34.0117 9.04952C33.9494 8.37614 34.0517 7.69758 34.3094 7.07388C34.5672 6.45019 34.9724 5.90061 35.4893 5.47378C36.0062 5.04696 36.6188 4.75606 37.2729 4.62684C37.927 4.49761 38.6023 4.53405 39.2392 4.73292C39.8761 4.93179 40.4549 5.28696 40.9243 5.76699L43.2861 3.41694C42.2636 2.35877 40.9549 1.63212 39.5255 1.32887C38.0961 1.02563 36.6103 1.15942 35.2558 1.71331C33.9013 2.26721 32.7391 3.21634 31.9161 4.44068C31.0931 5.66501 30.6463 7.10956 30.6322 8.59164C30.6181 10.0737 31.0373 11.5268 31.8368 12.767C32.6363 14.0073 33.7803 14.979 35.1239 15.5594C36.4676 16.1398 37.9506 16.3027 39.3855 16.0276C40.8204 15.7524 42.1427 15.0516 43.1852 14.0137L43.2437 13.9553L40.9243 11.6042C40.5416 11.9844 40.0885 12.284 39.5911 12.4857C39.0938 12.6874 38.5621 12.7871 38.0266 12.7792Z" fill="#7DC242"/>
<path d="M94.5608 4.49148V2.93434H93.9824V2.74072H95.3087V2.93434H94.7293V4.49148H94.5608Z" fill="#7DC242"/>
<path d="M97.2597 4.49151H97.0579V3.14028L96.5068 4.48024H96.3271L95.7771 3.14028V4.49151H95.5752V2.72845H95.8306L96.4099 4.19237L96.9882 2.72845H97.2608L97.2597 4.49151Z" fill="#7DC242"/>
</g>
<defs>
<clipPath id="clip0_1386_205">
<rect width="96.7084" height="19.6999" fill="white" transform="translate(0.548828 0.40918)"/>
</clipPath>
</defs>
</svg>
