<svg width="102" height="106" viewBox="0 0 102 106" fill="none" xmlns="http://www.w3.org/2000/svg">
<path d="M56.0649 83.9748C56.4478 84.4546 88.6534 85.8903 90.1884 85.4551C90.2616 85.4315 90.3321 85.4005 90.3989 85.3626C92.2961 84.482 101.075 76.4741 101.738 75.7991C103.362 74.1441 96.6357 62.4904 94.4935 60.5647C93.0688 59.2832 90.4264 58.7829 90.4264 58.7829C90.4264 58.7829 82.965 37.4013 78.3528 32.9262C77.1972 31.8023 57.2274 31.3637 53.6571 32.9776C52.1289 33.6629 48.4137 37.4321 48.3136 38.1174C48.2309 39.1111 55.6786 83.4848 56.0649 83.9748Z" fill="#37474F"/>
<path d="M56.0645 83.975C56.4474 84.4547 88.6529 85.8904 90.188 85.4552C90.2611 85.4316 90.3316 85.4006 90.3984 85.3627C87.3145 77.0773 72.8054 38.1861 72.3949 37.9359C71.9844 37.6858 52.8978 37.7989 48.327 38.1244C48.2304 39.1112 55.6781 83.485 56.0645 83.975Z" fill="#263238"/>
<path d="M67.8936 34.5025C68.2144 34.201 68.4283 29.8527 67.8349 28.9892C67.1726 28.0195 59.5145 28.4992 59.0626 29.3318C58.6107 30.1645 58.3934 34.5025 58.6245 34.6567C58.8556 34.8109 60.132 34.9651 60.3044 34.6875C60.4769 34.41 60.4666 30.8155 60.6011 30.6271C60.7356 30.4386 66.0998 30.0891 66.2826 30.3632C66.4654 30.6374 66.0204 34.2729 66.2343 34.4305C66.4482 34.5882 67.5797 34.7938 67.8936 34.5025Z" fill="#37474F"/>
<path d="M36.2468 105.84H68.8766C70.8636 98.3013 72.6884 91.6504 73.851 87.4495C74.5823 84.8076 75.0514 83.132 75.1411 82.8168V82.762H41.2108L40.1759 87.4872C39.7654 89.3958 39.2445 91.8115 38.6443 94.5698C38.596 94.8097 38.5408 95.053 38.489 95.3065C37.8198 98.4624 37.0505 102.047 36.2468 105.84Z" fill="#455A64"/>
<path d="M63.93 105.84H64.5441C66.2102 99.7302 67.8522 93.6104 69.4287 87.4769L69.5632 86.9595C69.5689 86.9309 69.5636 86.9014 69.5484 86.8765C69.5331 86.8517 69.5091 86.8334 69.4811 86.8252C69.453 86.8171 69.4228 86.8196 69.3965 86.8324C69.3703 86.8452 69.3497 86.8673 69.339 86.8944C69.2804 87.0897 69.2217 87.2816 69.17 87.4769C67.3693 93.5796 65.6376 99.7062 63.93 105.84Z" fill="#263238"/>
<path d="M43.8741 82.8167C44.1372 84.4191 44.5247 85.9988 45.0332 87.5419C45.4126 88.7686 45.868 90.0946 46.3889 91.4618C46.4993 91.7702 46.6234 92.0752 46.7338 92.3836C48.3793 96.5468 50.5284 100.789 52.7499 102.8C53.0121 103.048 53.2974 103.271 53.602 103.465L55.5269 104.63C55.5248 104.639 55.5248 104.648 55.5269 104.657C55.5441 104.771 55.6097 105.175 55.72 105.836H87.5427C88.3533 98.5068 86.6596 91.6537 85.1935 87.3637C84.6764 85.81 84.0588 84.2912 83.3445 82.8167H43.8741Z" fill="#455A64"/>
<path d="M47.6547 101.015C49.6547 102.11 51.7164 103.089 53.8295 103.948C54.3918 104.191 54.9541 104.428 55.5267 104.657C55.5612 104.657 55.5957 104.688 55.6302 104.699C56.1235 104.901 56.6168 105.093 57.1101 105.285C57.6034 105.476 58.0725 105.661 58.5589 105.84H59.6387C58.897 105.466 58.1174 105.154 57.3654 104.812C56.3133 104.346 55.2646 103.883 54.209 103.441C53.7306 103.235 53.2511 103.025 52.7705 102.811C51.125 102.088 49.4865 101.361 47.7927 100.755C47.6168 100.676 47.5064 100.926 47.6547 101.015Z" fill="#263238"/>
<path d="M55.527 104.675C55.527 104.925 55.5477 105.333 55.596 105.836H55.9409C55.8305 105.363 55.727 104.976 55.6339 104.695C55.6354 104.685 55.6354 104.675 55.6339 104.664C55.6311 104.654 55.625 104.645 55.6166 104.639C55.6082 104.633 55.5979 104.629 55.5873 104.629C55.5768 104.629 55.5665 104.633 55.5581 104.639C55.5496 104.645 55.5436 104.654 55.5408 104.664L55.527 104.675Z" fill="#263238"/>
<path d="M80.2504 84.8006C80.6782 85.655 81.0726 86.5253 81.4336 87.4116C83.6324 92.7768 84.4619 98.5987 83.8484 104.359C83.7897 104.86 83.7207 105.356 83.6414 105.853H84.2037C84.4231 104.406 84.5498 102.947 84.5831 101.484C84.697 96.6463 83.7482 91.8417 81.8027 87.4048C81.3957 86.4796 80.9438 85.5784 80.4505 84.6944C80.3643 84.5608 80.1883 84.667 80.2504 84.8006Z" fill="#263238"/>
<path d="M56.3166 95.8581C56.2855 94.6417 56.1993 93.4252 56.1372 92.2088C55.9957 89.3374 55.8819 86.4488 55.6128 83.5842C55.6128 83.5606 55.6034 83.5379 55.5866 83.5212C55.5697 83.5045 55.5469 83.4951 55.5231 83.4951C55.4994 83.4951 55.4765 83.5045 55.4597 83.5212C55.4429 83.5379 55.4335 83.5606 55.4335 83.5842C55.399 85.8046 55.4852 88.0387 55.53 90.2523C55.5507 91.3659 55.5852 92.4761 55.6163 93.5897C55.6766 94.6498 55.6836 95.7122 55.637 96.773C55.5783 97.5748 55.399 99.1304 54.3468 99.2264C53.3568 99.3189 52.5703 98.2567 52.3254 97.4754C51.6941 95.4983 51.4733 93.3636 51.2698 91.3076C51.149 90.0878 51.0076 85.1399 51.0732 83.8994C51.0732 83.8206 50.9524 83.8241 50.949 83.8994C50.88 85.1536 50.7075 86.4008 50.6661 87.6686C50.6247 88.9365 50.6213 90.1769 50.7006 91.4378C50.7799 92.6371 50.88 93.8364 51.0628 95.0289C51.1851 96.116 51.4459 97.1834 51.839 98.2053C52.2046 99.0482 52.8325 99.8226 53.7845 100.008C53.8983 100.03 54.0137 100.042 54.1295 100.045C54.1295 100.302 54.1778 100.563 54.195 100.816C54.2226 101.217 54.2744 101.618 54.3261 102.019C54.3847 102.411 54.4676 102.799 54.5745 103.181C54.659 103.569 54.7984 103.944 54.9885 104.294C55.0195 104.349 55.0954 104.318 55.1023 104.26C55.1096 103.875 55.0772 103.49 55.0057 103.112C54.9505 102.721 54.8953 102.327 54.816 101.94C54.7366 101.553 54.6642 101.179 54.5849 100.799C54.5331 100.546 54.4986 100.282 54.4469 100.021C54.7544 99.9682 55.0438 99.8402 55.2894 99.6489C55.535 99.4576 55.7291 99.2088 55.8543 98.9248C56.3062 97.9825 56.3407 96.8758 56.3166 95.8581Z" fill="#263238"/>
<path d="M58.3555 42.3117C54.8818 47.03 32.5594 67.5619 18.1986 67.5482C15.7839 67.5482 7.34963 68.5384 5.22812 61.4798C2.7582 53.2561 2.93758 35.9075 5.48684 27.9442C7.59455 21.355 23.1212 30.7574 23.3799 34.8178C23.5766 37.9017 22.9798 47.7085 23.6111 47.6845C27.7161 47.5166 41.4559 40.0365 54.3333 36.3769C60.3011 34.6636 61.0462 38.6864 58.3555 42.3117Z" fill="#D3766A"/>
<path d="M5.1415 30.1505C6.4696 23.5613 10.0399 16.6122 12.1166 14.7311C14.1933 12.8499 24.0557 9.46789 26.4394 9.15608C28.823 8.84426 37.4471 10.8933 39.0546 12.3119C40.3413 13.4495 38.3647 16.4238 33.4973 16.2387C28.9507 16.0811 27.871 15.8207 26.5773 16.088C25.2837 16.3552 21.5409 19.6619 21.979 21.5499C22.2377 22.6601 24.9664 24.459 26.9879 24.0067C29.0093 23.5544 30.1477 21.5053 32.6176 20.2204C35.0875 18.9354 38.7717 19.9051 38.7821 20.9502C38.7924 21.9953 37.4609 22.2112 34.8495 25.2197C33.1696 27.1557 32.0898 30.8872 28.516 34.0807C26.7257 35.6878 22.5517 38.2234 22.5517 38.2234L5.1415 30.1505Z" fill="#D3766A"/>
<path d="M12.6721 14.9643C15.0489 12.5246 20.6856 8.38876 25.6185 7.59038C28.9439 7.04213 38.4959 14.3338 37.7715 16.2869C37.0471 18.2401 35.2326 17.8769 32.6143 17.0134C31.6622 16.6981 26.8707 13.8027 25.7669 14.7005C24.18 15.9923 21.479 20.9573 21.479 20.9573L12.6721 14.9643Z" fill="#D3766A"/>
<path d="M37.6714 15.4474C36.8055 13.0248 34.1597 11.2875 31.4793 9.79356C31.4379 9.76958 31.4 9.83468 31.4414 9.85524C32.1313 10.239 36.3571 13.3229 37.6334 15.4748C37.6472 15.4987 37.6783 15.4713 37.6714 15.4474Z" fill="#263238"/>
<path d="M12.6726 14.9641C15.0493 12.5244 20.686 8.38861 25.6189 7.59022C28.9443 7.04197 35.985 15.3205 35.2606 17.2702C34.5362 19.2199 31.8972 18.8533 29.2238 17.2702C28.3614 16.7596 25.6914 13.943 24.5875 14.8408C23.0041 16.1326 19.1199 19.3501 19.1199 19.3501L12.6726 14.9641Z" fill="#D3766A"/>
<path d="M31.5245 18.3257C30.4171 18.0001 29.3167 17.0818 28.4612 16.3314C27.7126 15.677 26.9434 14.8614 25.9637 14.5668C25.5335 14.4263 25.0693 14.4263 24.639 14.5668C24.2096 14.7663 23.8185 15.0388 23.4834 15.372C23.0695 15.7146 22.6762 16.0881 22.2933 16.4651C21.9104 16.842 21.7724 16.9756 21.393 17.3594C21.2343 17.5204 21.3585 17.6129 21.5378 17.4416C22.1891 16.826 22.8958 16.2708 23.649 15.7832C24.0143 15.4884 24.4211 15.2483 24.8564 15.0705C25.0874 15.0087 25.3285 14.9936 25.5655 15.0259C25.8025 15.0583 26.0306 15.1375 26.2362 15.2589C27.1193 15.7318 27.8161 16.5096 28.6509 17.0544C29.4857 17.5992 30.5137 18.288 31.5107 18.425C31.5624 18.3976 31.5693 18.3257 31.5245 18.3257Z" fill="#263238"/>
<path d="M35.2226 15.1014C34.7776 13.9775 33.9221 12.9769 33.1045 12.1032C32.2329 11.1854 31.2906 10.3365 30.2862 9.56411C29.7722 9.16663 29.2513 8.77601 28.7132 8.40594C28.175 8.03588 27.6783 7.62127 27.0815 7.46365C25.4188 7.03533 23.5629 8.00504 22.8385 8.27231C22.7937 8.28944 22.8109 8.3614 22.8558 8.34426C23.4525 8.13524 25.3774 7.42938 26.4192 7.65896C27.0516 7.82831 27.6399 8.131 28.144 8.54643C28.5994 8.88909 29.0547 9.21118 29.5031 9.55383C31.3211 10.9484 33.1597 12.5726 34.3705 14.5395C35.0398 15.6325 35.4054 16.9586 34.6293 18.0893C34.6017 18.1305 34.6569 18.1682 34.6914 18.1408C35.5538 17.4178 35.6055 16.0745 35.2226 15.1014Z" fill="#263238"/>
<path d="M8.44326 20.4776C10.3888 16.4206 14.0178 10.664 15.4322 9.19401C16.8465 7.72403 22.9385 2.87889 25.1704 3.59161C27.9715 4.48937 23.9251 9.0124 21.9899 10.8216C20.0546 12.6308 19.5751 16.2698 19.5751 16.2698L8.44326 20.4776Z" fill="#D3766A"/>
<path d="M24.8014 7.74799C24.1287 8.30995 23.5044 8.95414 22.8938 9.57777C22.2747 10.1475 21.6982 10.7614 21.169 11.4144C20.7027 12.0963 20.353 12.85 20.1341 13.6451C20.0133 14.0323 19.9202 14.4229 19.8374 14.8204C19.7546 15.2179 19.6925 15.701 19.5925 16.1293C19.5925 16.1773 19.6511 16.1978 19.6649 16.1533C19.8787 15.3701 20.1449 14.602 20.4618 13.8541C20.7707 13.0735 21.1751 12.3335 21.6657 11.6508C22.6419 10.2802 23.8942 9.16658 24.8842 7.81995C24.929 7.76855 24.8497 7.70345 24.8014 7.74799Z" fill="#263238"/>
<path d="M23.97 38.6348L0.0987282 44.0247C0.0987282 44.0247 2.55484 62.8193 7.50848 66.2801C12.4621 69.7409 24.5668 68.3772 31.9489 63.8815C39.3311 59.3859 53.5745 49.8498 58.3453 42.8631C63.1161 35.8764 57.8348 34.403 52.7742 36.4658C47.7137 38.5285 24.5323 47.0503 24.2839 46.8893C24.0355 46.7283 23.97 38.6348 23.97 38.6348Z" fill="#1DE39E"/>
<path d="M8.08793 58.5979C8.20917 58.6941 8.35064 58.762 8.50188 58.7966C8.63656 58.8233 8.77582 58.8163 8.9071 58.7762C9.03838 58.7361 9.15755 58.6642 9.25389 58.567C9.40466 58.4175 9.59822 58.3178 9.80814 58.2817C10.0181 58.2455 10.2341 58.2745 10.4268 58.3648C10.6024 58.4507 10.7513 58.5821 10.858 58.7452C10.9546 58.8823 11.0615 59.0159 11.1546 59.1735C11.0002 59.086 10.8515 58.9887 10.7096 58.8822C10.5894 58.7893 10.4541 58.7175 10.3095 58.6698C10.1755 58.6372 10.0355 58.6386 9.90224 58.674C9.769 58.7093 9.64687 58.7774 9.54711 58.872C9.39975 59.0195 9.21204 59.1209 9.00724 59.1636C8.80244 59.2062 8.58955 59.1882 8.39494 59.1118C8.21202 59.0352 8.05516 58.9079 7.94305 58.7452C7.84645 58.5978 7.73952 58.4608 7.65673 58.3032C7.80574 58.3936 7.94969 58.4919 8.08793 58.5979ZM27.0435 61.7811C27.1551 61.884 27.2939 61.9529 27.4437 61.9798C27.579 62.0109 27.7201 62.0071 27.8536 61.9687C27.987 61.9303 28.1084 61.8587 28.206 61.7606C28.3548 61.6115 28.5459 61.5112 28.7538 61.4732C28.9616 61.4353 29.1761 61.4614 29.3686 61.5481C29.544 61.6355 29.6938 61.7666 29.8032 61.9285C29.9107 62.0687 30.0098 62.2151 30.0999 62.367C29.9454 62.2796 29.7968 62.1823 29.6549 62.0758C29.5417 61.9726 29.404 61.8995 29.2547 61.8633C29.1224 61.8303 28.9838 61.8315 28.8521 61.8669C28.7205 61.9023 28.6002 61.9707 28.5027 62.0655C28.3532 62.2132 28.1638 62.3145 27.9573 62.3571C27.7509 62.3997 27.5365 62.3817 27.3402 62.3054C27.1598 62.2276 27.0054 62.1005 26.8952 61.9387C26.802 61.7914 26.6848 61.6543 26.5985 61.4967C26.7572 61.5824 26.8952 61.6852 27.0435 61.7811ZM17.5502 43.2024C17.6635 43.3034 17.8015 43.3731 17.9504 43.4046C18.0853 43.4341 18.2256 43.4282 18.3575 43.3873C18.4894 43.3464 18.6083 43.2721 18.7024 43.1716C18.8563 43.0272 19.0498 42.9312 19.2585 42.8959C19.4672 42.8605 19.6818 42.8873 19.8752 42.9728C20.0532 43.055 20.2039 43.1857 20.3099 43.3497C20.403 43.4971 20.5203 43.6341 20.6066 43.7918C20.4479 43.6958 20.3099 43.593 20.1616 43.4971C20.0483 43.3928 19.9089 43.3206 19.7579 43.2881C19.6259 43.251 19.4864 43.2489 19.3532 43.2819C19.2201 43.315 19.098 43.3821 18.999 43.4765C18.8928 43.5882 18.7627 43.6749 18.6183 43.7301C18.474 43.7853 18.3189 43.8076 18.1647 43.7955C18.0105 43.7833 17.861 43.737 17.7272 43.6598C17.5934 43.5827 17.4787 43.4767 17.3915 43.3497C17.2949 43.2024 17.1914 43.0653 17.1052 42.9077C17.2639 42.9968 17.4019 43.1099 17.5502 43.2024ZM34.612 54.1982C34.6383 54.0251 34.674 53.8535 34.7189 53.6842C34.7603 53.8521 34.781 54.0268 34.8258 54.1982C34.8359 54.3492 34.8782 54.4964 34.95 54.6299C35.0205 54.7491 35.1214 54.8477 35.2426 54.9157C35.3637 54.9837 35.5008 55.0186 35.6399 55.0171C35.8512 55.0187 36.0574 55.0811 36.2337 55.1966C36.41 55.3121 36.5488 55.4759 36.6334 55.6682C36.7064 55.8522 36.7244 56.0533 36.6852 56.2472C36.6601 56.4206 36.6244 56.5922 36.5782 56.7612C36.5348 56.5918 36.5003 56.4202 36.4747 56.2472C36.4618 56.0934 36.4108 55.9451 36.3264 55.8155C36.2534 55.7001 36.1513 55.6057 36.0304 55.5414C35.9094 55.4771 35.7736 55.4452 35.6365 55.4489C35.4248 55.4462 35.2189 55.379 35.0468 55.2565C34.8747 55.1339 34.7446 54.9619 34.674 54.7635C34.5969 54.5855 34.5753 54.3886 34.612 54.1982ZM36.7852 43.3909C36.8087 43.2164 36.8433 43.0436 36.8887 42.8735C36.9301 43.0414 36.9542 43.2161 36.9956 43.3909C37.0051 43.5414 37.0488 43.6878 37.1233 43.8192C37.1925 43.9397 37.293 44.0396 37.4144 44.1083C37.5358 44.177 37.6735 44.2121 37.8132 44.2098C37.9666 44.2072 38.1187 44.2386 38.2585 44.3016C38.3982 44.3646 38.5221 44.4577 38.6212 44.5741C38.7203 44.6905 38.792 44.8274 38.8313 44.9748C38.8705 45.1222 38.8762 45.2764 38.8481 45.4262C38.8236 45.6028 38.789 45.7778 38.7446 45.9505C38.6974 45.7783 38.6617 45.6031 38.6377 45.4262C38.6236 45.2769 38.5726 45.1333 38.4893 45.0082C38.4169 44.8919 38.3152 44.7966 38.1941 44.7317C38.073 44.6667 37.9369 44.6345 37.7994 44.6381C37.5874 44.6314 37.3821 44.5629 37.2091 44.441C37.0361 44.3191 36.9031 44.1493 36.8266 43.9528C36.7591 43.7733 36.7447 43.5783 36.7852 43.3909ZM7.73262 64.2688C7.75613 64.0954 7.7907 63.9238 7.83611 63.7548C7.88095 63.9227 7.90165 64.0974 7.94305 64.2688C7.95297 64.4203 7.99656 64.5677 8.07068 64.7005C8.14089 64.8199 8.24175 64.9187 8.36296 64.9867C8.48417 65.0548 8.62139 65.0896 8.7606 65.0877C8.9719 65.0889 9.17831 65.1511 9.35469 65.2667C9.53107 65.3823 9.66983 65.5463 9.75409 65.7388C9.82508 65.9197 9.84302 66.1169 9.80583 66.3076C9.78133 66.4841 9.74678 66.6592 9.70235 66.8318C9.65514 66.6596 9.61942 66.4845 9.59541 66.3076C9.58249 66.1569 9.53146 66.0119 9.44708 65.8861C9.37429 65.7705 9.2723 65.6758 9.15127 65.6115C9.03024 65.5472 8.89437 65.5155 8.75716 65.5195C8.60276 65.5185 8.45053 65.4832 8.31163 65.4163C8.17273 65.3493 8.05068 65.2523 7.95443 65.1323C7.85817 65.0124 7.79015 64.8726 7.75535 64.7232C7.72055 64.5738 7.71986 64.4185 7.75332 64.2688H7.73262ZM17.8262 53.1154C17.8497 52.9421 17.8843 52.7704 17.9297 52.6014C17.9711 52.7693 17.9952 52.9441 18.0366 53.1154C18.0456 53.2671 18.0892 53.4147 18.1642 53.5471C18.233 53.6678 18.3336 53.7675 18.4551 53.8358C18.5767 53.904 18.7146 53.938 18.8542 53.9343C19.008 53.9316 19.1604 53.963 19.3005 54.0262C19.4405 54.0894 19.5646 54.1829 19.6637 54.2997C19.7629 54.4165 19.8345 54.5539 19.8735 54.7017C19.9125 54.8495 19.9178 55.0041 19.889 55.1542C19.8645 55.3307 19.83 55.5058 19.7856 55.6784C19.7383 55.5062 19.7026 55.3311 19.6786 55.1542C19.664 55.0039 19.6131 54.8593 19.5303 54.7327C19.4572 54.6173 19.3552 54.5229 19.2342 54.4586C19.1133 54.3943 18.9775 54.3624 18.8404 54.3661C18.6285 54.3589 18.4234 54.2902 18.2505 54.1684C18.0775 54.0466 17.9444 53.877 17.8676 53.6808C17.8007 53.4999 17.7863 53.304 17.8262 53.1154ZM7.73262 50.566C7.88212 50.5502 8.02663 50.5035 8.15692 50.429C8.27212 50.3554 8.3665 50.2539 8.4311 50.1339C8.49569 50.014 8.52837 49.8797 8.52603 49.7437C8.53142 49.5328 8.59991 49.3282 8.72279 49.1561C8.84566 48.984 9.01735 48.8522 9.21595 48.7774C9.39796 48.7056 9.59755 48.6901 9.78859 48.7328C9.96797 48.7774 10.1335 48.7979 10.3164 48.8391C10.137 48.8905 9.97142 48.911 9.78859 48.9453C9.63653 48.9553 9.48835 48.9973 9.35393 49.0686C9.23557 49.1404 9.13764 49.2411 9.06942 49.361C9.0012 49.4809 8.96496 49.6162 8.96413 49.7539C8.9638 49.964 8.90157 50.1694 8.7851 50.3448C8.66862 50.5202 8.50302 50.6578 8.3087 50.7408C8.127 50.8132 7.92789 50.8311 7.73606 50.7922C7.55798 50.7683 7.38166 50.7329 7.20828 50.686C7.38421 50.6277 7.55325 50.6072 7.73262 50.566ZM16.8913 65.0055C17.0443 64.9888 17.1916 64.9385 17.3225 64.8581C17.4379 64.7845 17.5326 64.6831 17.5978 64.5632C17.6629 64.4434 17.6964 64.309 17.6951 64.1728C17.6941 64.0187 17.728 63.8663 17.7944 63.7269C17.8607 63.5875 17.9578 63.4647 18.0784 63.3677C18.1989 63.2706 18.34 63.2017 18.491 63.1661C18.642 63.1305 18.7991 63.1291 18.9507 63.162C19.1336 63.2066 19.2957 63.2271 19.4716 63.2682C19.3001 63.3132 19.1262 63.3486 18.9507 63.3745C18.7981 63.3828 18.6499 63.4287 18.5195 63.5081C18.3982 63.5777 18.2971 63.6775 18.2264 63.7976C18.1556 63.9178 18.1175 64.0542 18.1159 64.1934C18.1209 64.402 18.0618 64.6071 17.9466 64.7815C17.8314 64.956 17.6654 65.0914 17.4709 65.17C17.2866 65.2418 17.0855 65.2596 16.8913 65.2214C16.7168 65.1965 16.544 65.161 16.3739 65.1151C16.5464 65.0569 16.7257 65.0363 16.8913 65.0055ZM27.2815 50.566C27.4347 50.5522 27.5831 50.5055 27.7162 50.429C27.828 50.3519 27.9197 50.2496 27.9839 50.1305C28.048 50.0113 28.0828 49.8788 28.0853 49.7437C28.0859 49.5316 28.1525 49.3249 28.276 49.1519C28.3996 48.9789 28.5739 48.8481 28.7752 48.7774C28.9598 48.7061 29.1614 48.6906 29.3548 48.7328C29.5238 48.7671 29.6997 48.7877 29.8722 48.8391C29.7032 48.8905 29.5272 48.911 29.3548 48.9453C29.1997 48.9568 29.0484 48.9987 28.9098 49.0686C28.7929 49.1421 28.6962 49.2431 28.6282 49.3626C28.5602 49.4822 28.523 49.6166 28.52 49.7539C28.5205 49.9629 28.4598 50.1675 28.3452 50.3427C28.2307 50.518 28.0673 50.6563 27.8749 50.7408C27.6896 50.8133 27.4872 50.8311 27.2919 50.7922C27.1172 50.7683 26.9443 50.7328 26.7745 50.686C26.9366 50.6277 27.116 50.6072 27.285 50.566H27.2815ZM47.5928 41.6776C47.6377 41.4994 47.6584 41.3349 47.6998 41.1533C47.7515 41.3315 47.7722 41.496 47.8067 41.6776C47.8168 41.8286 47.8591 41.9758 47.9309 42.1093C48.0032 42.2269 48.1045 42.3242 48.2252 42.3919C48.346 42.4597 48.4821 42.4957 48.6208 42.4965C48.8328 42.4946 49.0406 42.5555 49.2176 42.6715C49.3945 42.7875 49.5327 42.9532 49.6143 43.1476C49.6871 43.3269 49.7051 43.5235 49.666 43.713C49.6434 43.8878 49.6076 44.0608 49.5591 44.2304C49.5177 44.0625 49.497 43.8877 49.4556 43.713C49.4397 43.5655 49.3927 43.4231 49.3176 43.2949C49.2448 43.1793 49.1429 43.0846 49.0218 43.0203C48.9008 42.956 48.7649 42.9243 48.6277 42.9283C48.4155 42.9225 48.2098 42.8543 48.0366 42.7323C47.8635 42.6103 47.7306 42.44 47.6549 42.243C47.5774 42.065 47.5557 41.868 47.5928 41.6776ZM56.9068 36.6371C57.0616 36.6243 57.2109 36.5737 57.3414 36.4898C57.4544 36.414 57.5471 36.312 57.6114 36.1925C57.6757 36.0731 57.7098 35.9399 57.7105 35.8045C57.7072 35.7657 57.7072 35.7268 57.7105 35.688C57.8554 35.712 57.9934 35.7394 58.1279 35.7737C58.1262 35.7873 58.1262 35.8011 58.1279 35.8148C58.1285 36.0237 58.0678 36.2283 57.9532 36.4035C57.8387 36.5788 57.6752 36.7171 57.4829 36.8016C57.2976 36.8741 57.0951 36.892 56.8999 36.853C56.7252 36.8292 56.5523 36.7937 56.3824 36.7468C56.5481 36.7009 56.7162 36.6643 56.8861 36.6371H56.9068ZM45.1781 54.3421C45.3322 54.3308 45.4808 54.2801 45.6093 54.1947C45.7229 54.1196 45.8161 54.0177 45.8805 53.8981C45.9449 53.7786 45.9785 53.645 45.9784 53.5094C45.9833 53.2984 46.0517 53.0937 46.1746 52.9215C46.2975 52.7493 46.4695 52.6175 46.6683 52.5431C46.8512 52.4788 47.0487 52.4681 47.2375 52.5123C47.4118 52.5367 47.5846 52.571 47.755 52.6151C47.5859 52.6597 47.41 52.6802 47.2375 52.7213C47.0859 52.7303 46.9384 52.7737 46.8063 52.8481C46.6854 52.9182 46.5847 53.0181 46.514 53.1382C46.4433 53.2582 46.405 53.3944 46.4027 53.5334C46.406 53.7429 46.3464 53.9487 46.2315 54.1244C46.1166 54.3002 45.9516 54.438 45.7576 54.5203C45.5723 54.5873 45.3725 54.605 45.1781 54.5717C45.0026 54.5473 44.8287 54.513 44.6572 54.4689C44.8278 54.415 45.0018 54.3727 45.1781 54.3421Z" fill="white"/>
<path d="M24.7048 52.2862C24.7531 51.6729 24.7669 51.0595 24.7565 50.4462C24.7044 49.2587 24.5428 48.0784 24.2736 46.9203C24.2736 46.8689 24.1736 46.8826 24.177 46.9374C24.3046 48.099 24.315 49.2846 24.3633 50.453C24.3909 51.0321 24.4047 51.6112 24.4116 52.1937C24.4185 52.7762 24.4461 53.3862 24.4116 53.979C24.4116 54.0132 24.4702 54.0201 24.4737 53.979C24.5599 53.417 24.6599 52.8585 24.7048 52.2862Z" fill="#263238"/>
<path d="M1.93007 49.425C13.1827 46.4096 21.3238 45.039 22.8899 44.8094C22.8979 44.8089 22.9058 44.8111 22.9124 44.8157C22.9189 44.8204 22.9236 44.8272 22.9256 44.8349C22.9277 44.8426 22.9269 44.8508 22.9236 44.858C22.9202 44.8652 22.9144 44.8711 22.9071 44.8745C15.0834 47.1703 2.70967 49.5072 1.95076 49.562C1.93507 49.5601 1.92046 49.5531 1.90914 49.5421C1.89782 49.5312 1.89042 49.5168 1.88807 49.5013C1.88573 49.4858 1.88856 49.4699 1.89615 49.4561C1.90373 49.4423 1.91564 49.4314 1.93007 49.425Z" fill="#263238"/>
<path opacity="0.1" d="M7.85974 66.5097C13.0169 69.6758 24.7318 68.2709 31.9449 63.8746C39.3271 59.379 53.5739 49.8464 58.3447 42.8631C59.6038 41.023 60.1627 39.5633 60.2075 38.4531L7.85974 66.5097Z" fill="black"/>
<path d="M86.8287 89.6182C86.7942 89.6594 39.7175 87.4767 39.4104 87.1888C38.8413 86.6509 46.1199 50.1616 53.7401 37.3875C55.1682 34.9889 61.6052 31.463 66.276 35.9929C80.3642 49.6648 87.4221 88.7993 86.8287 89.6182Z" fill="#1DE39E"/>
<path d="M66.6758 52.5056C66.8267 52.4896 66.9719 52.4392 67.1001 52.3583C67.216 52.2855 67.3109 52.1841 67.3756 52.0639C67.4403 51.9438 67.4725 51.8091 67.4692 51.673C67.4701 51.5196 67.5056 51.3684 67.5731 51.2304C67.6405 51.0924 67.7382 50.9712 67.8589 50.8756C67.9796 50.78 68.1204 50.7124 68.2708 50.6779C68.4212 50.6433 68.5775 50.6426 68.7283 50.6758C68.9061 50.7013 69.0823 50.7368 69.2561 50.7821C69.0767 50.8232 68.9111 50.8437 68.7283 50.878C68.5755 50.8913 68.4273 50.9368 68.2936 51.0116C68.1753 51.0834 68.0773 51.1841 68.0091 51.304C67.9409 51.4239 67.9047 51.5592 67.9038 51.697C67.9033 51.9057 67.8408 52.1096 67.7242 52.2833C67.6077 52.457 67.4422 52.5927 67.2484 52.6735C67.0676 52.749 66.8686 52.7704 66.6758 52.7352C66.4964 52.6941 66.3308 52.6735 66.1583 52.629C66.328 52.5769 66.5008 52.5357 66.6758 52.5056ZM57.0893 86.5517C57.2428 86.5374 57.3906 86.4869 57.5205 86.4044C57.6359 86.3308 57.7306 86.2293 57.7957 86.1094C57.8609 85.9896 57.8944 85.8553 57.8931 85.7191C57.8966 85.5077 57.9644 85.3023 58.0875 85.1299C58.2106 84.9574 58.3833 84.826 58.583 84.7528C58.7665 84.6919 58.9631 84.6812 59.1522 84.722C59.3212 84.7528 59.4971 84.7768 59.6696 84.8179C59.4993 84.862 59.3265 84.8963 59.1522 84.9207C59.0004 84.936 58.8535 84.9827 58.721 85.0578C58.5996 85.1274 58.4985 85.2271 58.4278 85.3473C58.357 85.4675 58.319 85.6039 58.3174 85.7431C58.3223 85.9516 58.2632 86.1568 58.148 86.3312C58.0328 86.5056 57.8669 86.6411 57.6723 86.7196C57.4899 86.7978 57.2882 86.8205 57.0928 86.7847C56.9237 86.7436 56.7478 86.7196 56.5719 86.6785C56.7512 86.6031 56.9065 86.5826 57.0893 86.5517ZM47.5304 52.5604C47.6017 52.5711 47.672 52.5872 47.7409 52.6084C47.6615 52.629 47.5822 52.6461 47.4994 52.6598C47.5061 52.6257 47.5165 52.5923 47.5304 52.5604ZM56.8858 36.6373C57.0407 36.6244 57.1899 36.5738 57.3204 36.49C57.4334 36.4142 57.5261 36.3121 57.5904 36.1927C57.6547 36.0733 57.6888 35.9401 57.6895 35.8046C57.6923 35.5943 57.7599 35.3899 57.8832 35.2189C58.0066 35.048 58.1798 34.9187 58.3795 34.8486C58.5652 34.7773 58.7679 34.7618 58.9624 34.8041C59.1315 34.8384 59.3074 34.8589 59.4799 34.9103C59.3109 34.9514 59.1349 34.972 58.9624 35.0165C58.8099 35.0264 58.6615 35.0697 58.5278 35.1433C58.4075 35.2139 58.3075 35.314 58.2374 35.434C58.1674 35.554 58.1295 35.6899 58.1276 35.8286C58.1282 36.0376 58.0675 36.2422 57.9529 36.4174C57.8384 36.5926 57.6749 36.731 57.4826 36.8155C57.2973 36.888 57.0948 36.9058 56.8996 36.8669C56.7249 36.843 56.552 36.8075 56.3821 36.7607C56.5475 36.7101 56.7157 36.6689 56.8858 36.6373ZM80.2638 66.7429C80.4155 66.7297 80.5626 66.6841 80.695 66.6093C80.8067 66.5322 80.8985 66.4299 80.9626 66.3108C81.0268 66.1916 81.0616 66.0591 81.0641 65.924C81.0646 65.6708 81.1592 65.4268 81.3297 65.2386L81.5022 65.7903C81.4969 65.8336 81.4969 65.8773 81.5022 65.9205C81.5032 66.1296 81.4426 66.3343 81.328 66.5097C81.2134 66.685 81.0497 66.8232 80.8571 66.9074C80.6736 66.9821 80.472 67.0012 80.2776 66.9622C80.102 66.9367 79.9281 66.9012 79.7567 66.856C79.9119 66.808 80.0947 66.7874 80.2638 66.7429ZM69.8701 81.1823C70.0237 81.1658 70.1719 81.1167 70.3047 81.0384C70.419 80.9639 70.5127 80.8622 70.5772 80.7425C70.6417 80.6228 70.6749 80.4889 70.6739 80.3531C70.6779 80.1418 70.7458 79.9367 70.8689 79.7643C70.9919 79.592 71.1644 79.4604 71.3638 79.3868C71.5476 79.3229 71.7452 79.3087 71.9364 79.3457C72.1158 79.3868 72.2814 79.4074 72.4539 79.4519C72.2837 79.497 72.1109 79.5314 71.9364 79.5547C71.7823 79.5637 71.6329 79.6108 71.5018 79.6918C71.3804 79.7614 71.2793 79.8612 71.2086 79.9813C71.1378 80.1015 71.0998 80.2379 71.0982 80.3771C71.1031 80.5857 71.044 80.7908 70.9288 80.9652C70.8136 81.1397 70.6477 81.2751 70.4531 81.3537C70.2697 81.4288 70.0679 81.4479 69.8735 81.4085C69.6993 81.382 69.5266 81.3465 69.3561 81.3023C69.532 81.2372 69.7011 81.2166 69.8701 81.1823ZM61.2944 67.1541C61.4442 67.1396 61.589 67.0928 61.7187 67.017C61.8341 66.9437 61.9287 66.8422 61.9933 66.7222C62.0579 66.6022 62.0905 66.4678 62.0878 66.3317C62.0936 66.1209 62.1623 65.9166 62.2851 65.7446C62.4079 65.5726 62.5794 65.4406 62.7777 65.3654C62.9597 65.2931 63.1598 65.2787 63.3503 65.3243C63.5297 65.3654 63.6953 65.386 63.8781 65.4271C63.7047 65.474 63.5284 65.5095 63.3503 65.5333C63.1978 65.5432 63.0494 65.5865 62.9157 65.6601C62.7969 65.7314 62.6986 65.8319 62.6303 65.952C62.562 66.072 62.5261 66.2075 62.5259 66.3454C62.5256 66.5555 62.4633 66.7609 62.3469 66.9363C62.2304 67.1116 62.0648 67.2493 61.8705 67.3323C61.6888 67.4047 61.4897 67.4226 61.2978 67.3837C61.1201 67.3593 60.9439 67.325 60.77 67.2809C60.946 67.2158 61.115 67.1952 61.2944 67.1541ZM46.9026 76.1008C47.0546 76.0896 47.201 76.0388 47.3269 75.9534C47.4433 75.8811 47.5386 75.7798 47.6034 75.6596C47.6681 75.5394 47.7001 75.4044 47.696 75.2681C47.7019 75.0573 47.7705 74.853 47.8934 74.681C48.0162 74.509 48.1876 74.377 48.3859 74.3018C48.5742 74.2411 48.7752 74.2304 48.9689 74.271C49.138 74.3018 49.3139 74.3224 49.4864 74.3635C49.3162 74.4094 49.1434 74.4449 48.9689 74.4697C48.812 74.4812 48.6599 74.5281 48.5239 74.6068C48.4042 74.6771 48.3051 74.7774 48.2367 74.8977C48.1683 75.0179 48.1329 75.154 48.1341 75.2921C48.1349 75.4998 48.0741 75.7031 47.9594 75.8767C47.8447 76.0504 47.6811 76.1867 47.4891 76.2687C47.3054 76.347 47.1022 76.3685 46.9061 76.3304C46.7267 76.2892 46.5611 76.2687 46.3886 76.2276C46.5566 76.1729 46.7284 76.1305 46.9026 76.1008ZM49.0517 65.2695C49.1708 65.3685 49.3078 65.4441 49.4553 65.4922C49.5893 65.5245 49.7293 65.5229 49.8624 65.4876C49.9956 65.4523 50.1178 65.3844 50.2177 65.29C50.3651 65.1425 50.5528 65.0411 50.7576 64.9985C50.9624 64.9558 51.1752 64.9738 51.3699 65.0502C51.5548 65.1234 51.7126 65.2514 51.8218 65.4168C51.9183 65.5642 52.0253 65.7012 52.1184 65.8588C51.9597 65.7629 51.8218 65.6601 51.6734 65.5642C51.5566 65.4691 51.4199 65.4013 51.2733 65.3654C51.137 65.3388 50.9962 65.3458 50.8633 65.3858C50.7304 65.4259 50.6094 65.4977 50.5109 65.595C50.3573 65.74 50.164 65.8365 49.9553 65.8725C49.7466 65.9085 49.5318 65.8823 49.338 65.7972C49.1621 65.7104 49.0122 65.5792 48.9034 65.4168C48.8102 65.2695 48.7033 65.1358 48.6205 64.9782C48.7689 65.0742 48.9034 65.1804 49.0517 65.2695ZM66.6758 39.0393C66.7103 38.8577 66.731 38.6966 66.7724 38.5219C66.8176 38.6923 66.8533 38.865 66.8793 39.0393C66.8926 39.19 66.9385 39.3361 67.0138 39.4676C67.0836 39.5877 67.1843 39.6871 67.3055 39.7558C67.4268 39.8244 67.5642 39.8598 67.7037 39.8582C67.9138 39.8592 68.1189 39.9215 68.2937 40.0372C68.4684 40.1529 68.6052 40.3171 68.6869 40.5093C68.7627 40.6913 68.7842 40.8911 68.749 41.0849C68.7076 41.2528 68.6869 41.4276 68.642 41.5989C68.5986 41.4295 68.5641 41.2579 68.5386 41.0849C68.5262 40.932 68.4752 40.7847 68.3902 40.6566C68.3161 40.542 68.214 40.448 68.0933 40.3832C67.9726 40.3185 67.8374 40.2852 67.7003 40.2866C67.5463 40.2855 67.3944 40.2503 67.2558 40.1835C67.1172 40.1167 66.9954 40.02 66.8992 39.9005C66.803 39.781 66.7349 39.6417 66.6998 39.4927C66.6647 39.3437 66.6636 39.1888 66.6965 39.0393H66.6758ZM70.8153 69.2922C70.8388 69.1189 70.8734 68.9472 70.9188 68.7783C70.9602 68.9462 70.9843 69.1209 71.0257 69.2922C71.0356 69.4437 71.0792 69.5912 71.1534 69.724C71.2236 69.8434 71.3244 69.9422 71.4456 70.0102C71.5668 70.0782 71.7041 70.1131 71.8433 70.1112C71.9971 70.1085 72.1495 70.1399 72.2896 70.2031C72.4296 70.2663 72.5537 70.3597 72.6529 70.4766C72.752 70.5934 72.8236 70.7307 72.8626 70.8785C72.9016 71.0263 72.9069 71.1809 72.8782 71.331C72.8537 71.5076 72.8191 71.6826 72.7747 71.8553C72.7275 71.6831 72.6917 71.5079 72.6677 71.331C72.6548 71.1804 72.6038 71.0354 72.5194 70.9096C72.4466 70.794 72.3446 70.6993 72.2236 70.635C72.1026 70.5707 71.9667 70.5389 71.8295 70.5429C71.6176 70.5358 71.4125 70.4671 71.2396 70.3452C71.0667 70.2234 70.9335 70.0539 70.8567 69.8576C70.7858 69.6791 70.7667 69.4844 70.8015 69.2957L70.8153 69.2922ZM55.3473 56.5215C55.3886 56.3536 55.4093 56.1789 55.4542 56.0075C55.4976 56.177 55.5322 56.3485 55.5577 56.5215C55.5701 56.6772 55.6172 56.8282 55.6957 56.9635C55.7657 57.0834 55.8664 57.1826 55.9876 57.2512C56.1088 57.3198 56.2461 57.3554 56.3856 57.3542C56.5968 57.3501 56.8041 57.4102 56.9799 57.5266C57.1556 57.643 57.2913 57.81 57.3687 58.0052C57.4502 58.1823 57.4684 58.3818 57.4205 58.5706C57.3894 58.7488 57.3687 58.9132 57.3273 59.0846C57.2808 58.9157 57.245 58.744 57.2204 58.5706C57.2026 58.421 57.152 58.2771 57.0721 58.1491C56.9993 58.0335 56.8973 57.9389 56.7763 57.8745C56.6552 57.8102 56.5193 57.7785 56.3821 57.7825C56.1699 57.7767 55.9642 57.7085 55.791 57.5865C55.6179 57.4645 55.485 57.2942 55.4093 57.0972C55.3396 56.9149 55.3136 56.719 55.3335 56.5249L55.3473 56.5215ZM77.5593 87.1651C77.6007 86.9869 77.6214 86.8224 77.6662 86.6511C77.7116 86.8201 77.7462 86.9917 77.7697 87.1651C77.7792 87.3181 77.8266 87.4664 77.9077 87.5968C77.9765 87.7175 78.0771 87.8172 78.1986 87.8855C78.3201 87.9537 78.4581 87.9877 78.5976 87.984C78.8075 87.9855 79.0125 88.0479 79.1872 88.1636C79.3618 88.2792 79.4987 88.4431 79.5807 88.6351C79.6563 88.8185 79.6755 89.0199 79.6359 89.2142C79.6359 89.2416 79.6359 89.2724 79.6187 89.2998H79.4428L79.4221 89.221C79.4141 89.0677 79.3666 88.919 79.2841 88.7893C79.2113 88.6737 79.1093 88.579 78.9883 88.5147C78.8672 88.4504 78.7314 88.4186 78.5942 88.4226C78.3814 88.4191 78.1746 88.3518 78.001 88.2295C77.8274 88.1072 77.6951 87.9356 77.6214 87.7373C77.5454 87.5579 77.5192 87.3614 77.5455 87.1685L77.5593 87.1651ZM56.5167 46.7662C56.6331 46.8637 56.7716 46.9319 56.9203 46.9649C57.0543 46.9956 57.1942 46.9906 57.3257 46.9503C57.4572 46.91 57.5756 46.8358 57.6688 46.7353C57.8228 46.5909 58.0163 46.495 58.225 46.4596C58.4337 46.4243 58.6483 46.451 58.8417 46.5366C59.0196 46.6187 59.1704 46.7495 59.2764 46.9135C59.3729 47.0608 59.4868 47.1979 59.573 47.3555C59.4143 47.2596 59.2764 47.1568 59.128 47.0608C59.0155 46.9573 58.8775 46.8852 58.7279 46.8518C58.5953 46.8144 58.4552 46.8122 58.3214 46.8452C58.1877 46.8783 58.065 46.9455 57.9655 47.0403C57.8593 47.152 57.7292 47.2387 57.5848 47.2939C57.4404 47.3491 57.2854 47.3714 57.1312 47.3592C56.977 47.3471 56.8274 47.3007 56.6936 47.2236C56.5598 47.1464 56.4451 47.0405 56.358 46.9135C56.2614 46.7662 56.1579 46.6291 56.0717 46.4715C56.2166 46.5708 56.358 46.6771 56.5063 46.7662H56.5167ZM70.5359 59.3793C70.6484 59.4807 70.7868 59.5495 70.936 59.578C71.0706 59.609 71.2111 59.6041 71.3432 59.5638C71.4752 59.5235 71.5942 59.4492 71.688 59.3484C71.842 59.204 72.0355 59.1081 72.2442 59.0727C72.4529 59.0374 72.6675 59.0642 72.8609 59.1497C73.0388 59.2318 73.1896 59.3626 73.2956 59.5266C73.3887 59.6739 73.506 59.811 73.5922 59.9686C73.4335 59.8727 73.2956 59.7665 73.1472 59.6739C73.034 59.5696 72.8946 59.4974 72.7436 59.4649C72.6116 59.4278 72.472 59.4257 72.3389 59.4588C72.2058 59.4918 72.0837 59.5589 71.9847 59.6534C71.8785 59.7651 71.7484 59.8518 71.604 59.907C71.4596 59.9622 71.3046 59.9845 71.1504 59.9723C70.9962 59.9602 70.8466 59.9138 70.7128 59.8367C70.579 59.7595 70.4643 59.6536 70.3772 59.5266C70.2806 59.3793 70.1771 59.2422 70.0909 59.0846C70.2392 59.1839 70.3599 59.2867 70.5255 59.3827L70.5359 59.3793ZM80.0188 77.9477C80.1321 78.05 80.2719 78.1188 80.4224 78.1464C80.5575 78.1775 80.6984 78.1733 80.8314 78.1343C80.9644 78.0952 81.0849 78.0227 81.1814 77.9237C81.3305 77.7752 81.5218 77.6756 81.7296 77.6382C81.9374 77.6009 82.1518 77.6275 82.3439 77.7147C82.5183 77.802 82.6678 77.9317 82.7785 78.0916C82.8869 78.2324 82.986 78.3801 83.0752 78.5336C82.9199 78.4462 82.7712 78.3477 82.6302 78.2389C82.5168 78.1367 82.3791 78.0648 82.23 78.0299C82.098 77.9971 81.9597 77.9981 81.8282 78.0329C81.6967 78.0676 81.5762 78.135 81.478 78.2287C81.372 78.3406 81.2422 78.4274 81.0979 78.4829C80.9537 78.5384 80.7988 78.5611 80.6445 78.5492C80.4903 78.5374 80.3407 78.4914 80.2068 78.4145C80.0728 78.3377 79.9579 78.2321 79.8705 78.1053C79.7774 77.958 79.6601 77.8209 79.5738 77.6633C79.7325 77.7592 79.8705 77.8654 80.0188 77.9477ZM57.5309 76.046C57.651 76.1439 57.7929 76.212 57.9448 76.2447C58.079 76.2717 58.2178 76.2649 58.3486 76.2248C58.4794 76.1847 58.5979 76.1126 58.6934 76.0151C58.8444 75.8649 59.0386 75.7648 59.2492 75.7286C59.4599 75.6924 59.6766 75.7218 59.8697 75.8129C60.0453 75.8988 60.1943 76.0303 60.3009 76.1933C60.3975 76.3304 60.501 76.464 60.5976 76.6216C60.4431 76.5341 60.2944 76.4368 60.1526 76.3304C60.0319 76.2381 59.8967 76.1663 59.7524 76.1179C59.6185 76.0853 59.4784 76.0867 59.3452 76.1221C59.2119 76.1574 59.0898 76.2255 58.99 76.3201C58.8838 76.4318 58.7537 76.5185 58.6093 76.5737C58.465 76.6289 58.3099 76.6512 58.1557 76.639C58.0015 76.6269 57.852 76.5805 57.7182 76.5034C57.5844 76.4262 57.4697 76.3203 57.3825 76.1933C57.2894 76.046 57.1824 75.9089 57.0997 75.7513C57.2514 75.8506 57.3825 75.9534 57.5309 76.0597V76.046ZM44.888 83.7317C45.0049 83.8267 45.1416 83.8946 45.2882 83.9304C45.4245 83.9583 45.5656 83.9519 45.6987 83.9118C45.8319 83.8717 45.9528 83.7992 46.0506 83.7008C46.2024 83.5565 46.3942 83.4605 46.6013 83.4251C46.8084 83.3897 47.0214 83.4165 47.2131 83.5021C47.3932 83.5808 47.5449 83.7123 47.6477 83.879C47.7549 84.0207 47.8539 84.1683 47.9444 84.3211C47.7857 84.2251 47.6477 84.1223 47.4994 84.0264C47.3839 83.923 47.2457 83.8479 47.0958 83.8071C46.9643 83.7735 46.8264 83.7742 46.6953 83.809C46.5642 83.8438 46.4443 83.9116 46.3472 84.0058C46.1983 84.1543 46.0087 84.2561 45.8021 84.2987C45.5955 84.3413 45.3809 84.3229 45.1847 84.2457C45.0043 84.1679 44.85 84.0408 44.7397 83.879C44.6431 83.7317 44.5293 83.5946 44.443 83.437C44.6017 83.5466 44.7397 83.6529 44.888 83.7454V83.7317Z" fill="white"/>
<path d="M51.5676 85.8473L46.1504 47.7961L53.486 46.7657L58.9032 84.8169L51.5676 85.8473Z" fill="#37474F"/>
<path d="M44.2614 86.8275L38.8442 48.7764L46.1799 47.7459L51.5971 85.7971L44.2614 86.8275Z" fill="#263238"/>
<path d="M50.5844 82.4391L50.0977 78.8911L57.4396 77.8973L57.9263 81.4453L50.5844 82.4391Z" fill="#1DE39E"/>
<path d="M49.7775 76.5562L49.5889 75.1812L56.9308 74.1873L57.1194 75.5624L49.7775 76.5562Z" fill="#1DE39E"/>
<path d="M41.9011 88.6458L36.2871 47.7239L42.9044 46.8282L48.5184 87.7501L41.9011 88.6458Z" fill="#C7C7C7"/>
<path d="M37.1802 54.2489L36.6343 50.2698L43.2516 49.3741L43.7974 53.3532L37.1802 54.2489Z" fill="#1DE39E"/>
<path d="M38.0135 56.8117L37.7773 55.1528L44.389 54.2241L44.6252 55.8829L38.0135 56.8117Z" fill="#1DE39E"/>
<path d="M41.2178 83.6705L40.6719 79.6914L47.2892 78.7957L47.8351 82.7748L41.2178 83.6705Z" fill="#1DE39E"/>
<path d="M23.7791 49.4163L36.2856 47.7234L41.9048 88.6826L29.3983 90.3755L23.7791 49.4163Z" fill="#EBEBEB"/>
<path d="M34.5885 89.0255L29.4058 51.2476L34.9054 50.5031L40.0881 88.2811L34.5885 89.0255Z" fill="#455A64"/>
<path d="M24.2291 90.4259L19.0464 52.6479L29.4098 51.2451L34.5925 89.0231L24.2291 90.4259Z" fill="#37474F"/>
<path d="M35.1593 88.9484L29.9766 51.1704L34.3345 50.5805L39.5173 88.3585L35.1593 88.9484Z" fill="white"/>
<path d="M31.207 53.4956L31.7727 57.9193L32.3626 62.3361L33.5458 71.1731L34.7877 80.0033L35.4086 84.4201L36.0537 88.8301L35.4914 84.4064L34.9015 79.9896L33.7183 71.1526L32.4765 62.3224L31.8555 57.9056L31.207 53.4956Z" fill="#DBDBDB"/>
<path d="M32.0625 53.3792L32.6282 57.8028L33.2181 62.2231L34.4013 71.0601L35.6397 79.8869L36.2641 84.3037L36.9092 88.7136L36.3469 84.29L35.7536 79.8732L34.5703 71.0361L33.3319 62.2059L32.711 57.7925L32.0625 53.3792Z" fill="#DBDBDB"/>
<path d="M32.9179 53.2627L33.4837 57.6864L34.0736 62.1066L35.2568 70.9437L36.4952 79.7738L37.1161 84.1872L37.7646 88.5972L37.2024 84.177L36.609 79.7567L35.4258 70.9197L34.1874 62.0895L33.5665 57.6761L32.9179 53.2627Z" fill="#DBDBDB"/>
<path d="M33.7739 53.1497L34.3362 57.5699L34.9295 61.9901L36.1127 70.8272L37.3511 79.6574L37.9721 84.0708L38.6206 88.4842L38.0549 84.0605L37.465 79.6403L36.2818 70.8032L35.0399 61.973L34.419 57.5596L33.7739 53.1497Z" fill="#DBDBDB"/>
<path d="M65.9688 36.0751C66.5483 35.3898 62.8089 33.3339 61.8292 34.1083C60.8495 34.8827 55.9407 46.9407 57.5379 60.0198C59.1351 73.0989 85.3417 87.1991 86.3076 85.2323C86.7112 84.4099 86.1938 82.1175 85.5556 81.3843C84.6587 80.3563 65.7445 69.0042 63.8748 60.8936C62.2156 53.6807 64.4958 37.8569 65.9688 36.0751Z" fill="#455A64"/>
<path d="M72.5023 45.3371C80.4744 64.4538 87.6806 91.2905 79.7776 94.9911C74.5273 97.448 64.0749 77.7351 63.9749 77.3753C63.6299 76.1451 63.3954 60.2049 63.0159 45.6215C62.6675 32.1484 68.9423 36.7982 72.5023 45.3371Z" fill="#1DE39E"/>
<path d="M66.6763 52.5055C66.8273 52.4894 66.9725 52.439 67.1006 52.3581C67.2165 52.2853 67.3114 52.1839 67.3761 52.0638C67.4408 51.9437 67.473 51.809 67.4697 51.6728C67.4707 51.5194 67.5062 51.3682 67.5736 51.2303C67.641 51.0923 67.7387 50.9711 67.8594 50.8754C67.9802 50.7798 68.1209 50.7123 68.2713 50.6777C68.4218 50.6431 68.5781 50.6425 68.7288 50.6757C68.9066 50.7012 69.0828 50.7367 69.2566 50.7819C69.0772 50.823 68.9116 50.8436 68.7288 50.8778C68.576 50.8911 68.4278 50.9367 68.2942 51.0115C68.1758 51.0833 68.0779 51.1839 68.0097 51.3038C67.9414 51.4238 67.9052 51.559 67.9044 51.6968C67.9038 51.9055 67.8413 52.1095 67.7248 52.2832C67.6082 52.4568 67.4427 52.5926 67.2489 52.6734C67.0682 52.7488 66.8692 52.7703 66.6763 52.735C66.4969 52.6939 66.3313 52.6734 66.1589 52.6288C66.3285 52.5768 66.5013 52.5356 66.6763 52.5055ZM79.9504 66.8078C79.9568 66.8402 79.9649 66.8722 79.9745 66.9038C79.8963 66.8908 79.8191 66.8725 79.7434 66.849C79.8116 66.8316 79.8807 66.8179 79.9504 66.8078ZM69.8706 81.1822C70.0242 81.1657 70.1724 81.1166 70.3053 81.0383C70.4196 80.9638 70.5133 80.862 70.5777 80.7423C70.6422 80.6226 70.6754 80.4887 70.6744 80.353C70.6784 80.1417 70.7463 79.9365 70.8694 79.7642C70.9925 79.5918 71.1649 79.4603 71.3643 79.3867C71.5481 79.3227 71.7458 79.3085 71.9369 79.3456C72.1163 79.3867 72.2819 79.4072 72.4544 79.4518C72.2843 79.4969 72.1114 79.5312 71.9369 79.5546C71.7828 79.5635 71.6334 79.6106 71.5023 79.6916C71.3809 79.7612 71.2799 79.861 71.2091 79.9812C71.1383 80.1014 71.1003 80.2377 71.0987 80.3769C71.1036 80.5855 71.0446 80.7906 70.9293 80.9651C70.8141 81.1395 70.6482 81.275 70.4536 81.3535C70.2702 81.4287 70.0684 81.4477 69.8741 81.4083C69.6999 81.3818 69.5272 81.3463 69.3566 81.3021C69.5326 81.237 69.7016 81.2165 69.8706 81.1822ZM63.8752 65.4201C63.7471 65.4561 63.6169 65.4847 63.4854 65.5058C63.4854 65.4544 63.4854 65.3995 63.4854 65.3447C63.613 65.3687 63.7407 65.3893 63.8752 65.4201ZM66.6763 39.0357C66.7108 38.8541 66.7315 38.6931 66.7729 38.5183C66.8181 38.6887 66.8538 38.8614 66.8798 39.0357C66.8931 39.1864 66.939 39.3325 67.0144 39.464C67.0841 39.5841 67.1848 39.6836 67.306 39.7522C67.4273 39.8208 67.5647 39.8562 67.7043 39.8547C67.9143 39.8557 68.1194 39.9179 68.2942 40.0336C68.469 40.1494 68.6057 40.3135 68.6874 40.5057C68.7632 40.6877 68.7848 40.8875 68.7495 41.0814C68.7081 41.2493 68.6874 41.424 68.6426 41.5953C68.5991 41.4259 68.5646 41.2544 68.5391 41.0814C68.5267 40.9285 68.4757 40.7812 68.3907 40.653C68.3166 40.5384 68.2145 40.4444 68.0938 40.3796C67.9732 40.3149 67.8379 40.2817 67.7008 40.283C67.5468 40.2819 67.3949 40.2467 67.2563 40.1799C67.1177 40.1131 66.9959 40.0165 66.8997 39.8969C66.8035 39.7774 66.7354 39.6381 66.7003 39.4891C66.6653 39.3401 66.6641 39.1852 66.697 39.0357H66.6763ZM70.8158 69.2887C70.8393 69.1153 70.8739 68.9437 70.9193 68.7747C70.9607 68.9426 70.9849 69.1173 71.0262 69.2887C71.0362 69.4402 71.0798 69.5876 71.1539 69.7204C71.2241 69.8398 71.325 69.9386 71.4462 70.0066C71.5674 70.0746 71.7046 70.1095 71.8438 70.1076C71.9976 70.1049 72.1501 70.1363 72.2901 70.1995C72.4302 70.2627 72.5543 70.3561 72.6534 70.473C72.7525 70.5898 72.8242 70.7271 72.8631 70.875C72.9021 71.0228 72.9074 71.1773 72.8787 71.3274C72.8542 71.504 72.8196 71.679 72.7752 71.8517C72.728 71.6795 72.6923 71.5043 72.6683 71.3274C72.6553 71.1768 72.6043 71.0318 72.5199 70.906C72.4471 70.7904 72.3452 70.6957 72.2241 70.6314C72.1031 70.5671 71.9672 70.5353 71.83 70.5393C71.6181 70.5322 71.413 70.4635 71.2401 70.3417C71.0672 70.2198 70.9341 70.0503 70.8572 69.854C70.787 69.6766 70.7679 69.4832 70.802 69.2955L70.8158 69.2887ZM77.5598 87.1615C77.6012 86.9833 77.6219 86.8189 77.6667 86.6475C77.7122 86.8165 77.7467 86.9882 77.7702 87.1615C77.7798 87.3145 77.8272 87.4628 77.9082 87.5932C77.977 87.7139 78.0776 87.8137 78.1991 87.8819C78.3207 87.9501 78.4586 87.9842 78.5981 87.9804C78.8081 87.9819 79.013 88.0443 79.1877 88.16C79.3624 88.2757 79.4992 88.4395 79.5813 88.6315C79.6568 88.8149 79.676 89.0164 79.6365 89.2106C79.602 89.3785 79.5813 89.5532 79.5295 89.7246C79.4881 89.5464 79.4674 89.3819 79.4226 89.2106C79.4147 89.0573 79.3671 88.9086 79.2846 88.7788C79.2118 88.6632 79.1098 88.5686 78.9888 88.5042C78.8678 88.4399 78.7319 88.4082 78.5947 88.4122C78.3819 88.4087 78.1751 88.3414 78.0015 88.2191C77.8279 88.0968 77.6956 87.9252 77.6219 87.7269C77.5477 87.5505 77.5216 87.3579 77.546 87.1684L77.5598 87.1615ZM70.5399 59.3757C70.6524 59.4771 70.7908 59.5459 70.94 59.5744C71.0746 59.6055 71.2151 59.6006 71.3471 59.5602C71.4792 59.5199 71.5982 59.4456 71.692 59.3448C71.846 59.2004 72.0395 59.1045 72.2482 59.0692C72.4569 59.0338 72.6715 59.0606 72.8649 59.1461C73.0428 59.2283 73.1936 59.359 73.2995 59.523C73.3927 59.6704 73.51 59.8074 73.5962 59.965C73.4375 59.8691 73.2995 59.7629 73.1512 59.6704C73.0379 59.566 72.8986 59.4938 72.7476 59.4613C72.6155 59.4243 72.476 59.4221 72.3429 59.4552C72.2097 59.4883 72.0876 59.5554 71.9887 59.6498C71.8825 59.7615 71.7524 59.8482 71.608 59.9034C71.4636 59.9586 71.3086 59.9809 71.1544 59.9687C71.0001 59.9566 70.8506 59.9102 70.7168 59.8331C70.583 59.756 70.4683 59.65 70.3812 59.523C70.2846 59.3757 70.1811 59.2386 70.0949 59.081C70.2397 59.1838 70.3605 59.2866 70.5261 59.3825L70.5399 59.3757ZM80.0194 77.9475C80.1326 78.0499 80.2724 78.1187 80.423 78.1463C80.5581 78.1773 80.699 78.1731 80.8319 78.1341C80.9649 78.0951 81.0855 78.0225 81.1819 77.9235C81.331 77.775 81.5224 77.6754 81.7302 77.6381C81.938 77.6007 82.1523 77.6274 82.3444 77.7145C82.3714 77.7248 82.397 77.7386 82.4203 77.7556C82.4444 77.8824 82.4651 78.0092 82.4858 78.136C82.4085 78.0845 82.3218 78.0485 82.2306 78.0298C82.0985 77.9969 81.9603 77.998 81.8287 78.0327C81.6972 78.0675 81.5767 78.1348 81.4786 78.2285C81.3726 78.3404 81.2427 78.4273 81.0984 78.4828C80.9542 78.5382 80.7993 78.5609 80.6451 78.5491C80.4909 78.5372 80.3413 78.4912 80.2073 78.4144C80.0734 78.3376 79.9585 78.2319 79.871 78.1051C79.7779 77.9578 79.6606 77.8208 79.5744 77.6631C79.7331 77.7591 79.871 77.8653 80.0194 77.9475Z" fill="white"/>
<path d="M62.4262 56.8023C62.5435 57.6761 62.6539 58.5567 62.7436 59.4339C62.7436 59.2181 62.7436 59.0022 62.7643 58.7863C62.8436 57.0216 62.9367 55.257 63.0299 53.4957C63.0299 53.458 63.092 53.4649 63.092 53.4957C63.1265 56.6242 63.1886 59.7492 63.23 62.8776C63.2713 66.006 63.3127 69.1105 63.5094 72.2321C63.6198 74.0002 63.7301 75.7854 63.9785 77.5466C63.9785 77.5843 63.9233 77.5946 63.9164 77.5466C63.6612 75.991 63.3852 74.4422 63.2265 72.8797C63.0678 71.3172 62.9022 69.7718 62.8229 68.2162C62.6987 65.8655 62.6596 63.5195 62.7056 61.178C62.5037 59.7236 62.3805 58.2596 62.3365 56.7921C62.3089 56.7509 62.4089 56.7475 62.4262 56.8023Z" fill="#263238"/>
<path d="M74.4996 50.2097C75.1895 51.8887 75.8656 53.578 76.528 55.2776C76.39 54.4929 76.221 53.7185 76.0554 52.9441C76.0554 52.8927 76.1244 52.8619 76.1451 52.9133C76.4805 53.8749 76.6881 54.8759 76.7625 55.8909C77.9147 58.9269 78.9806 61.9936 79.9155 65.1015C81.4264 70.1248 82.6234 75.2749 83.096 80.5004C83.3944 83.4042 83.3944 86.3307 83.096 89.2346C83.096 89.2446 83.092 89.2542 83.0849 89.2613C83.0778 89.2683 83.0681 89.2723 83.0581 89.2723C83.048 89.2723 83.0384 89.2683 83.0312 89.2613C83.0241 89.2542 83.0201 89.2446 83.0201 89.2346C83.0563 86.6211 82.9527 84.0075 82.7097 81.405C82.4528 78.8213 82.0556 76.2534 81.5196 73.7124C80.3955 68.6125 78.9554 63.5865 77.2075 58.663C76.2486 55.867 75.2861 53.0743 74.3547 50.2714C74.3202 50.172 74.4755 50.1206 74.4996 50.2097Z" fill="#263238"/>
<path d="M81.0537 93.7096C75.5343 99.4182 52.6117 97.2081 37.9336 93.367C35.136 92.6337 43.2701 67.8632 46.1471 68.9803C62.5879 75.3297 87.1319 87.4459 81.0537 93.7096Z" fill="#D3766A"/>
<path d="M17.7189 68.809C17.8362 71.5502 19.523 71.1767 19.523 71.1767C19.523 71.1767 17.9431 72.2492 17.5809 74.0379C17.1635 76.0938 20.2164 77.6323 20.2164 77.6323C19.3683 78.5657 18.8226 79.731 18.6503 80.9767C18.4502 82.9743 21.3065 84.972 21.3065 84.972C21.3065 84.972 20.758 86.9868 21.7963 88.772C23.5694 91.8217 40.0792 94.5732 44.5189 94.8062L48.6895 70.1556C48.6895 70.1556 33.6699 62.2472 29.5993 62.6344C26.1704 62.9633 17.5361 64.6115 17.7189 68.809Z" fill="#D3766A"/>
<path d="M19.5754 71.0944C23.1388 69.8779 26.9851 69.5079 30.7038 69.196C30.7182 69.1994 30.731 69.2075 30.7402 69.219C30.7494 69.2305 30.7544 69.2447 30.7544 69.2594C30.7544 69.2741 30.7494 69.2884 30.7402 69.2999C30.731 69.3114 30.7182 69.3195 30.7038 69.3228C27.0024 69.5935 23.2837 70.8511 19.6029 71.2657C19.5828 71.2643 19.5637 71.2561 19.5487 71.2425C19.5338 71.2289 19.5239 71.2107 19.5207 71.1909C19.5175 71.171 19.5212 71.1507 19.5311 71.1332C19.541 71.1156 19.5566 71.102 19.5754 71.0944Z" fill="#263238"/>
<path d="M20.3028 77.3514C21.138 77.1504 21.9966 77.0616 22.8555 77.0875C23.7662 77.0533 24.6769 77.0396 25.5842 77.0361C27.409 77.0361 29.2304 77.0704 31.0484 77.1629C31.1311 77.1629 31.1449 77.2897 31.0484 77.2897C29.2339 77.2897 27.4159 77.3308 25.6049 77.4131C24.685 77.4542 23.7766 77.5033 22.8797 77.5604C22.0269 77.6654 21.1652 77.6781 20.3097 77.5981C20.2835 77.5901 20.2604 77.5741 20.2438 77.5525C20.2272 77.5308 20.2178 77.5044 20.2171 77.4772C20.2163 77.4499 20.2242 77.4231 20.2395 77.4006C20.2549 77.378 20.2771 77.3608 20.3028 77.3514Z" fill="#263238"/>
<path d="M21.3755 84.9684C22.0654 84.7217 22.9589 84.8416 23.6902 84.8553C24.5181 84.8691 25.3483 84.8793 26.1808 84.8862C27.8401 84.8862 29.4993 84.9102 31.1586 84.8656C31.2414 84.8656 31.2517 84.9924 31.1586 84.9924C29.4717 85.0472 27.7883 85.126 26.1015 85.1637C25.2736 85.1843 24.4456 85.1991 23.6177 85.2083C22.9106 85.2083 22.0344 85.3076 21.3617 85.0541C21.3541 85.0489 21.3482 85.0418 21.3446 85.0334C21.341 85.0251 21.3398 85.0159 21.3413 85.0069C21.3427 84.9979 21.3467 84.9895 21.3528 84.9827C21.3588 84.9759 21.3667 84.971 21.3755 84.9684Z" fill="#263238"/>
<path d="M47.8585 68.7988L43.3119 96.3791C43.3119 96.3791 79.2706 101.077 82.0269 92.4694C84.7831 83.8619 47.8585 68.7988 47.8585 68.7988Z" fill="#1DE39E"/>
<path d="M57.0897 86.5517C57.2431 86.5374 57.391 86.4869 57.5209 86.4044C57.6362 86.3308 57.7309 86.2293 57.7961 86.1094C57.8613 85.9896 57.8947 85.8553 57.8934 85.7191C57.8969 85.5077 57.9647 85.3023 58.0878 85.1299C58.211 84.9574 58.3837 84.826 58.5833 84.7528C58.7668 84.6919 58.9635 84.6812 59.1525 84.7219C59.3216 84.7528 59.4975 84.7768 59.67 84.8179C59.4996 84.862 59.3269 84.8963 59.1525 84.9207C59.0007 84.936 58.8539 84.9827 58.7213 85.0577C58.5999 85.1273 58.4989 85.2271 58.4281 85.3473C58.3574 85.4675 58.3193 85.6039 58.3177 85.7431C58.3227 85.9516 58.2636 86.1568 58.1484 86.3312C58.0332 86.5056 57.8672 86.6411 57.6726 86.7196C57.4902 86.7978 57.2885 86.8205 57.0931 86.7847C56.9241 86.7436 56.7482 86.7196 56.5722 86.6785C56.7516 86.6031 56.9068 86.5826 57.0897 86.5517ZM48.4656 94.9707C48.6175 94.9583 48.7648 94.9126 48.8968 94.8371C49.0113 94.7626 49.1053 94.6609 49.1704 94.5413C49.2354 94.4216 49.2695 94.2878 49.2694 94.1518C49.2734 93.9405 49.3414 93.7354 49.4644 93.563C49.5875 93.3907 49.7599 93.2591 49.9593 93.1855C50.1409 93.1166 50.3388 93.1023 50.5285 93.1444C50.6975 93.1855 50.8735 93.2095 51.0494 93.2506C50.8779 93.2947 50.704 93.3291 50.5285 93.3534C50.3776 93.3661 50.2309 93.4093 50.0973 93.4802C49.9766 93.5505 49.8761 93.6505 49.8054 93.7705C49.7348 93.8905 49.6963 94.0265 49.6937 94.1655C49.7008 94.3758 49.6427 94.5832 49.5274 94.7597C49.412 94.9361 49.2449 95.0732 49.0486 95.1523C48.8652 95.2275 48.6635 95.2466 48.4691 95.2072C48.2899 95.1743 48.1125 95.132 47.9379 95.0804C48.1241 95.0358 48.2828 95.0153 48.4622 94.9707H48.4656ZM69.8739 81.1823C70.0275 81.1658 70.1757 81.1167 70.3086 81.0384C70.4229 80.9639 70.5165 80.8622 70.581 80.7425C70.6455 80.6227 70.6787 80.4889 70.6777 80.3531C70.6781 80.278 70.6874 80.2033 70.7053 80.1304L71.0985 80.3702C71.1021 80.5777 71.0423 80.7813 70.9272 80.9543C70.8121 81.1274 70.6469 81.2618 70.4534 81.3399C70.2701 81.4151 70.0683 81.4342 69.8739 81.3948C69.6997 81.3682 69.527 81.3328 69.3565 81.2886C69.5324 81.2372 69.7014 81.2166 69.8705 81.1823H69.8739ZM46.6511 76.1453L46.9202 76.1008C47.0722 76.0896 47.2186 76.0388 47.3445 75.9534C47.4609 75.8811 47.5562 75.7798 47.621 75.6596C47.6857 75.5394 47.7177 75.4044 47.7136 75.2681C47.7195 75.0573 47.7882 74.853 47.911 74.681C48.0338 74.509 48.2052 74.377 48.4036 74.3018C48.5918 74.2411 48.7928 74.2304 48.9865 74.271C49.1556 74.3018 49.3315 74.3224 49.504 74.3635C49.3338 74.4094 49.161 74.4449 48.9865 74.4697C48.8296 74.4812 48.6775 74.5281 48.5415 74.6068C48.4218 74.6771 48.3227 74.7774 48.2543 74.8976C48.1859 75.0179 48.1505 75.154 48.1517 75.2921C48.1525 75.4998 48.0917 75.7031 47.977 75.8767C47.8623 76.0504 47.6987 76.1867 47.5067 76.2687C47.323 76.347 47.1198 76.3685 46.9237 76.3303C46.8271 76.3064 46.7305 76.2927 46.6374 76.2755L46.6511 76.1453ZM58.8041 94.6795C58.8271 94.5058 58.8629 94.334 58.9111 94.1655C58.9525 94.3334 58.9732 94.5081 59.0145 94.6795C59.0268 94.8295 59.0702 94.9753 59.1422 95.1078C59.212 95.2278 59.3126 95.3273 59.4339 95.396C59.5551 95.4646 59.6926 95.5 59.8321 95.4984C60.0437 95.4983 60.2507 95.5599 60.4273 95.6757C60.6039 95.7914 60.7424 95.9562 60.8256 96.1495C60.9012 96.328 60.9205 96.5252 60.8808 96.7148C60.8551 96.8915 60.8194 97.0665 60.7738 97.2391C60.7221 97.0609 60.7014 96.8964 60.6669 96.7148C60.6545 96.5651 60.6034 96.4212 60.5186 96.2968C60.4467 96.1801 60.345 96.0844 60.2239 96.0193C60.1027 95.9543 59.9663 95.9224 59.8287 95.9267C59.6176 95.9212 59.4131 95.8529 59.2416 95.7308C59.07 95.6086 58.9393 95.4382 58.8662 95.2414C58.7894 95.0645 58.7666 94.8691 58.8007 94.6795H58.8041ZM77.5493 87.1685C77.5907 86.9903 77.6114 86.8258 77.6562 86.6545C77.7016 86.8235 77.7362 86.9952 77.7597 87.1685C77.7693 87.3215 77.8167 87.4698 77.8977 87.6002C77.9665 87.7209 78.0671 87.8207 78.1886 87.8889C78.3101 87.9571 78.4481 87.9912 78.5876 87.9874C78.7976 87.9889 79.0025 88.0513 79.1772 88.167C79.3519 88.2826 79.4887 88.4466 79.5708 88.6385C79.6463 88.8219 79.6655 89.0234 79.6259 89.2176C79.5915 89.3855 79.5708 89.5602 79.519 89.7316C79.4776 89.5534 79.4569 89.3889 79.4121 89.2176C79.4041 89.0643 79.3566 88.9156 79.2741 88.7858C79.2013 88.6702 79.0993 88.5756 78.9783 88.5112C78.8572 88.4469 78.7214 88.4152 78.5842 88.4192C78.3714 88.4157 78.1646 88.3484 77.991 88.2261C77.8174 88.1038 77.6851 87.9322 77.6114 87.7339C77.5395 87.5545 77.5169 87.3594 77.5458 87.1685H77.5493ZM57.5416 76.0596C57.6617 76.1576 57.8036 76.2257 57.9555 76.2584C58.0897 76.2854 58.2285 76.2786 58.3593 76.2385C58.4901 76.1983 58.6086 76.1263 58.7041 76.0288C58.8551 75.8786 59.0493 75.7785 59.2599 75.7423C59.4706 75.7061 59.6873 75.7355 59.8804 75.8266C60.056 75.9125 60.205 76.044 60.3116 76.207C60.4082 76.3441 60.5117 76.4777 60.6083 76.6353C60.4538 76.5478 60.3051 76.4505 60.1633 76.3441C60.0426 76.2518 59.9074 76.18 59.7631 76.1316C59.6292 76.099 59.4891 76.1004 59.3559 76.1358C59.2226 76.1711 59.1005 76.2392 59.0008 76.3338C58.8945 76.4455 58.7644 76.5322 58.6201 76.5874C58.4757 76.6426 58.3207 76.6649 58.1664 76.6527C58.0122 76.6406 57.8627 76.5942 57.7289 76.5171C57.5951 76.4399 57.4804 76.334 57.3932 76.207C57.3001 76.0597 57.1932 75.9226 57.1104 75.765C57.2518 75.8506 57.3829 75.9534 57.5312 76.0596H57.5416ZM45.3713 83.9407C45.4972 83.9558 45.6248 83.9421 45.7444 83.9005C45.864 83.8589 45.9724 83.7906 46.0613 83.7008C46.2131 83.5565 46.4049 83.4605 46.612 83.4251C46.8191 83.3897 47.0321 83.4165 47.2238 83.5021C47.4039 83.5808 47.5556 83.7123 47.6584 83.879C47.7656 84.0207 47.8646 84.1683 47.9551 84.321C47.7964 84.2251 47.6584 84.1223 47.5101 84.0264C47.3946 83.923 47.2564 83.8479 47.1065 83.8071C46.9751 83.7735 46.8371 83.7742 46.706 83.809C46.5749 83.8438 46.455 83.9116 46.3579 84.0058C46.2243 84.137 46.0588 84.2318 45.8776 84.281C45.6963 84.3302 45.5053 84.3322 45.3231 84.2868L45.3713 83.9407ZM66.1587 89.5979C66.2796 89.6954 66.4211 89.7645 66.5726 89.8001C66.7071 89.8261 66.8459 89.8184 66.9766 89.7777C67.1073 89.737 67.2257 89.6646 67.3212 89.5671C67.4739 89.4207 67.6675 89.3234 67.8768 89.2879C68.086 89.2525 68.3011 89.2805 68.4941 89.3683C68.672 89.4505 68.8227 89.5812 68.9287 89.7453C69.0253 89.8926 69.1288 90.0297 69.2254 90.177C69.0667 90.0913 68.9287 89.9885 68.7804 89.8926C68.6647 89.7913 68.5281 89.7165 68.3802 89.6733C68.2466 89.6402 68.1067 89.6411 67.9735 89.6759C67.8402 89.7106 67.718 89.778 67.6179 89.872C67.4708 90.02 67.283 90.1216 67.0781 90.1643C66.8732 90.2069 66.6602 90.1887 66.4657 90.1119C66.2841 90.0315 66.1271 89.9051 66.0103 89.7453C65.9172 89.5979 65.8103 89.4609 65.724 89.3032C65.8758 89.3752 66.0104 89.4917 66.1587 89.5979Z" fill="white"/>
<path d="M52.5637 72.777C51.6909 84.7699 50.2594 93.1821 49.9454 94.7857C49.9454 94.7948 49.9418 94.8035 49.9353 94.8099C49.9289 94.8163 49.9201 94.8199 49.9109 94.8199C49.9018 94.8199 49.893 94.8163 49.8865 94.8099C49.8801 94.8035 49.8764 94.7948 49.8764 94.7857C50.2869 86.3701 52.2153 73.5137 52.4223 72.7564C52.4464 72.6673 52.5706 72.7016 52.5637 72.777Z" fill="#263238"/>
<path d="M47.4443 69.5285C47.5444 69.2099 47.7134 68.3087 47.8686 68.367C48.4102 68.576 48.9656 68.7404 49.5072 68.9495L51.0423 69.5594C52.084 69.9843 53.1189 70.4274 54.1469 70.8889C56.1937 71.8026 58.2117 72.7655 60.201 73.7775C62.1902 74.7894 64.145 75.8642 66.0653 77.0018C67.9867 78.1257 69.8909 79.2976 71.7192 80.562L72.0642 80.8019C72.8409 80.9537 73.6018 81.1762 74.3375 81.4666C75.193 81.8093 76.014 82.2136 76.8315 82.6351C76.8379 82.6392 76.8426 82.6455 76.8446 82.6528C76.8466 82.6602 76.8458 82.668 76.8424 82.6747C76.839 82.6815 76.8332 82.6868 76.8261 82.6896C76.819 82.6924 76.8111 82.6925 76.8039 82.6899C75.9788 82.3005 75.1255 81.9729 74.2512 81.7099L72.6816 81.2336C74.4237 82.45 76.152 83.6904 77.8009 85.0268C77.8319 85.0542 77.8009 85.0953 77.7595 85.0748C75.8932 83.8172 74.0408 82.5323 72.1263 81.3433C70.2117 80.1543 68.3317 78.9927 66.3965 77.879C62.5467 75.6655 58.6073 73.6096 54.5609 71.7661C53.4317 71.2498 52.2956 70.7507 51.1527 70.2687C50.5697 70.0254 49.9832 69.7753 49.3968 69.5354C48.8932 69.3298 48.5068 69.1448 48.017 68.9392C47.9376 69.1688 47.8652 69.3744 47.7893 69.6039C47.7134 69.8335 47.3512 69.8164 47.4443 69.5285Z" fill="#263238"/>
<path d="M45.1363 19.9806C46.0366 21.6939 46.9783 23.3215 45.9711 25.7852C45.2604 27.5224 42.9044 29.2357 42.9044 29.2357L39.9791 28.5024C39.9791 28.5024 38.7441 26.1518 39.0684 23.7635C39.4134 21.221 42.0316 19.3467 42.0316 19.3467L45.1363 19.9806Z" fill="#263238"/>
<path d="M42.8665 28.8384C43.5116 30.6784 44.2119 32.4054 42.8665 34.7046C41.9144 36.3219 39.3376 37.6857 39.3376 37.6857L36.5468 36.5481C36.5468 36.5481 35.6603 34.0501 36.3226 31.7269C37.0125 29.2598 39.8861 27.7727 39.8861 27.7727L42.8665 28.8384Z" fill="#263238"/>
<path d="M39.4478 37.4185C39.3822 39.3647 39.4133 41.2288 37.3228 42.9009C35.8464 44.0694 32.9521 44.4223 32.9521 44.4223L30.7582 42.3664C30.7582 42.3664 30.8341 39.7177 32.2933 37.7885C33.8387 35.7326 37.0468 35.3694 37.0468 35.3694L39.4478 37.4185Z" fill="#263238"/>
<path d="M32.9525 44.412C32.9525 44.412 33.3596 47.7597 30.6379 49.8944C27.9161 52.0292 21.0549 50.7271 21.0549 50.7271C21.0549 50.7271 23.3799 49.891 24.2871 47.9859C25.1944 46.0807 26.5501 42.2909 30.7586 42.3561L32.9525 44.412Z" fill="#263238"/>
<path d="M30.2333 41.3014L34.1929 45.1208L32.9624 46.3794L29.0028 42.56L30.2333 41.3014Z" fill="#1DE39E"/>
<path d="M62.8644 33.7451C67.1798 35.6194 64.9617 41.2561 62.6988 44.0248C60.1461 47.1258 55.841 49.0275 54.4991 48.373C53.1572 47.7186 54.606 43.6273 54.606 43.6273C54.606 43.6273 51.8877 46.6495 50.9253 46.3103C49.9629 45.971 51.0495 40.3412 53.685 37.4801C56.5344 34.3516 60.3565 32.6555 62.8644 33.7451Z" fill="white"/>
<path d="M62.9848 36.1985C62.5432 36.9798 58.9591 42.9625 54.9437 42.9934C53.6363 42.9934 53.2672 35.9107 53.2672 35.9107L53.1224 35.3933L51.0526 28.1496L60.6287 21.3479C60.6287 21.3479 63.7402 34.8656 62.9848 36.1985Z" fill="#D3766A"/>
<path d="M61.436 25.0143C61.2534 25.9042 61.0231 26.7838 60.7461 27.6493C58.9213 33.519 55.5165 35.2631 53.2018 35.7428L53.1052 35.4001L51.0355 28.1598L60.615 21.3582C60.615 21.3582 60.9979 22.9035 61.436 25.0143Z" fill="#263238"/>
<path d="M64.3539 21.9341C65.6958 23.3561 67.0412 24.6513 66.748 27.2932C66.5375 29.1607 64.7437 31.4427 64.7437 31.4427L61.7253 31.5284C61.7253 31.5284 59.8936 29.6027 59.5521 27.2144C59.1864 24.6753 61.1906 22.1637 61.1906 22.1637L64.3539 21.9341Z" fill="#263238"/>
<path d="M64.5961 31.0726C65.7207 32.6693 66.8694 34.1565 66.2002 36.7161C65.7276 38.5322 63.6233 40.5401 63.6233 40.5401L60.6256 40.1975C60.6256 40.1975 59.0871 38.0319 59.0871 35.6196C59.0871 33.0565 61.4328 30.8499 61.4328 30.8499L64.5961 31.0726Z" fill="#263238"/>
<path d="M63.6579 40.2558C64.1305 42.1473 64.6686 43.9325 63.1128 46.0809C62.0124 47.6057 59.3183 48.7297 59.3183 48.7297L56.6448 47.3419C56.6448 47.3419 55.9928 44.772 56.869 42.5207C57.7935 40.1222 60.7809 38.9092 60.7809 38.9092L63.6579 40.2558Z" fill="#263238"/>
<path d="M59.3212 48.7398C59.3212 48.7398 60.6321 51.8477 58.6003 54.6472C56.5685 57.4466 49.6072 58.0394 49.6072 58.0394C49.6072 58.0394 51.6148 56.6071 51.9632 54.517C52.3116 52.4268 52.598 48.4246 56.6478 47.3521L59.3212 48.7398Z" fill="#263238"/>
<path d="M55.8593 46.4811L60.7158 49.0862L59.8766 50.6299L55.0201 48.0248L55.8593 46.4811Z" fill="#1DE39E"/>
<path d="M39.1892 16.3417C37.178 29.8046 45.0707 32.5219 47.9926 32.9502C50.6487 33.3374 59.7212 34.3208 63.1329 21.1389C66.5445 7.95698 60.8699 2.7692 54.8538 1.56306C48.8377 0.356913 41.2003 2.87885 39.1892 16.3417Z" fill="#D3766A"/>
<path d="M43.0012 14.2961C43.3261 14.2809 43.6497 14.2466 43.9705 14.1933C44.3171 14.205 44.6579 14.1026 44.9399 13.9021C45.0166 13.8222 45.0643 13.7192 45.0756 13.6094C45.0868 13.4996 45.0609 13.3892 45.002 13.2956C44.8582 13.1272 44.6717 13.0003 44.4617 12.928C44.2518 12.8556 44.0262 12.8406 43.8084 12.8844C43.3542 12.9034 42.9235 13.0904 42.601 13.4087C42.5314 13.4851 42.4856 13.58 42.4694 13.6819C42.4531 13.7837 42.4671 13.888 42.5095 13.9821C42.5519 14.0762 42.621 14.156 42.7083 14.2118C42.7956 14.2675 42.8974 14.2968 43.0012 14.2961Z" fill="#263238"/>
<path d="M52.4598 15.259C52.1453 15.1779 51.8355 15.0795 51.5319 14.9643C51.1897 14.9074 50.8764 14.7386 50.6419 14.4846C50.5803 14.3911 50.5523 14.2797 50.5623 14.1684C50.5723 14.0571 50.6198 13.9524 50.6971 13.8712C50.8719 13.7351 51.0803 13.648 51.3006 13.619C51.5208 13.5901 51.7448 13.6204 51.9493 13.7068C52.3907 13.8167 52.7754 14.0852 53.029 14.4606C53.0826 14.5496 53.1091 14.6521 53.1051 14.7557C53.1011 14.8593 53.0668 14.9595 53.0065 15.0441C52.9462 15.1287 52.8624 15.1941 52.7653 15.2323C52.6683 15.2704 52.5621 15.2797 52.4598 15.259Z" fill="#263238"/>
<path d="M51.1286 17.1468C52.6809 17.2222 52.4153 20.2958 50.9768 20.2307C49.5383 20.1656 49.8281 17.0817 51.1286 17.1468Z" fill="#263238"/>
<path d="M51.7319 17.3596C51.9872 17.5583 52.2252 17.8872 52.5495 17.9455C52.9255 18.014 53.2394 17.7193 53.5085 17.4281C53.5395 17.4007 53.5637 17.4281 53.5602 17.4692C53.5188 18.0586 53.236 18.6445 52.5943 18.6788C52.0079 18.7096 51.6353 18.1511 51.5387 17.548C51.5112 17.4349 51.6215 17.2979 51.7319 17.3596Z" fill="#263238"/>
<path d="M43.9223 16.2869C42.3872 16.0505 42.025 19.1172 43.4463 19.3331C44.8675 19.549 45.209 16.4857 43.9223 16.2869Z" fill="#263238"/>
<path d="M43.2565 16.4136C42.9909 16.5473 42.7149 16.8146 42.4217 16.8008C42.1285 16.7871 41.8732 16.4205 41.6938 16.0778C41.6938 16.0436 41.649 16.0778 41.6421 16.1053C41.5558 16.6912 41.68 17.3217 42.2319 17.5033C42.7839 17.6849 43.1771 17.2052 43.3876 16.6398C43.4255 16.5336 43.36 16.3588 43.2565 16.4136Z" fill="#263238"/>
<path d="M48.9726 25.3913C48.7346 25.6072 48.4931 25.9053 48.1413 25.919C47.78 25.9002 47.427 25.8044 47.1064 25.638C47.0788 25.638 47.0443 25.6586 47.065 25.686C47.1942 25.8793 47.3737 26.0343 47.5845 26.1344C47.7953 26.2346 48.0294 26.2762 48.262 26.2548C48.4596 26.2105 48.6397 26.1097 48.7802 25.9647C48.9206 25.8198 49.0151 25.6371 49.052 25.4393C49.0658 25.3844 48.9933 25.3604 48.9726 25.3913Z" fill="#263238"/>
<path d="M45.2918 21.5637C45.2918 21.5637 44.9469 22.9652 44.8882 23.6368C44.8882 23.6985 45.0435 23.7465 45.2711 23.7807C45.2711 23.7807 45.2884 23.7807 45.2987 23.7807C45.8676 23.9414 46.4701 23.9436 47.0401 23.7871C47.6102 23.6305 48.126 23.3213 48.531 22.8932C48.5393 22.88 48.5431 22.8644 48.5417 22.8489C48.5403 22.8333 48.5339 22.8186 48.5234 22.807C48.5129 22.7954 48.4989 22.7875 48.4834 22.7845C48.468 22.7815 48.452 22.7836 48.4379 22.7904C47.5199 23.2911 46.4635 23.4835 45.4264 23.3387C45.3988 23.1502 46.0852 20.9401 45.9783 20.9401C45.523 20.971 44.7123 21.0909 44.4122 21.1354C44.6088 20.2205 45.3022 17.6472 45.6609 15.9785C45.6816 15.8757 45.523 15.8243 45.4885 15.9202C44.7531 17.7853 44.1434 19.697 43.6636 21.6426C43.6257 21.7967 45.009 21.6528 45.2918 21.5637Z" fill="#263238"/>
<path d="M45.3747 23.2701C45.6661 23.8769 46.1091 24.3995 46.6614 24.7881C46.9674 24.9899 47.3292 25.0917 47.6963 25.0793C48.5001 25.0416 48.6691 24.3529 48.6587 23.7293C48.6501 23.3969 48.6015 23.0667 48.5139 22.7458C47.5502 23.2478 46.4506 23.4314 45.3747 23.2701Z" fill="#263238"/>
<path d="M46.6614 24.7881C46.9674 24.9899 47.3292 25.0918 47.6963 25.0794C48.5001 25.0417 48.6691 24.353 48.6587 23.7293C47.8308 23.6368 46.9029 24.0137 46.6614 24.7881Z" fill="#FF9BBC"/>
<path d="M62.2401 20.5702C59.6908 20.858 59.1078 15.0569 59.1078 15.0569C59.1078 15.0569 48.2795 13.1003 47.4688 4.31464C47.4688 4.31464 45.5405 9.8862 39.8279 12.3499C39.8279 12.3499 39.3105 1.63509 48.0242 0.95663C48.0242 0.95663 58.8801 -2.0553 64.1442 5.52079C69.4083 13.0969 63.9511 20.3817 62.2401 20.5702Z" fill="#263238"/>
<path d="M47.4375 3.66702C47.2921 5.01887 47.4403 6.38597 47.8721 7.67607C48.2851 8.99082 48.9675 10.2065 49.8764 11.2465C50.1046 11.5046 50.3464 11.7505 50.6008 11.9832L50.9733 12.3259C51.1044 12.4355 51.2424 12.5383 51.3838 12.6411C51.6633 12.8399 51.9323 13.0523 52.2186 13.2442C52.505 13.4361 52.8154 13.5869 53.119 13.741C53.2708 13.8199 53.4157 13.9055 53.5709 13.9775L54.0469 14.1659L54.9956 14.5429C55.6476 14.7313 56.3099 14.8855 56.9688 15.0329C56.3478 14.7553 55.7131 14.5429 55.106 14.2653L54.2125 13.8199L53.7675 13.6006C53.6261 13.5149 53.4915 13.419 53.3501 13.3299C53.0741 13.1483 52.7982 12.9701 52.5188 12.7987C52.2393 12.6274 52.0048 12.391 51.746 12.1888L51.3631 11.8839L51.0182 11.5412C50.7733 11.3208 50.5428 11.085 50.3283 10.8353C49.4664 9.85095 48.7815 8.72665 48.3033 7.5116C47.8135 6.27885 47.5169 4.9788 47.4237 3.65674L47.4375 3.66702Z" fill="#263238"/>
<g opacity="0.5">
<path d="M57.0825 22.2183C56.9663 22.2183 56.8721 22.1248 56.8721 22.0093C56.8721 21.8939 56.9663 21.8003 57.0825 21.8003C57.1988 21.8003 57.293 21.8939 57.293 22.0093C57.293 22.1248 57.1988 22.2183 57.0825 22.2183Z" fill="#263238"/>
<path d="M53.2983 21.4268C53.2977 21.469 53.3096 21.5104 53.3327 21.5458C53.3558 21.5812 53.3889 21.6089 53.428 21.6255C53.467 21.6421 53.5101 21.6468 53.5518 21.639C53.5935 21.6312 53.6319 21.6113 53.6622 21.5817C53.6925 21.5521 53.7132 21.5143 53.7217 21.473C53.7302 21.4317 53.7262 21.3888 53.7101 21.3498C53.694 21.3107 53.6666 21.2774 53.6314 21.2539C53.5962 21.2304 53.5547 21.2178 53.5122 21.2178C53.4843 21.2173 53.4566 21.2224 53.4306 21.2327C53.4047 21.243 53.3811 21.2583 53.3612 21.2778C53.3413 21.2973 53.3255 21.3204 53.3147 21.346C53.3039 21.3716 53.2983 21.3991 53.2983 21.4268Z" fill="#263238"/>
<path d="M50.856 21.3548C50.856 21.3961 50.8683 21.4365 50.8915 21.4709C50.9146 21.5053 50.9475 21.5321 50.9859 21.5479C51.0244 21.5637 51.0667 21.5678 51.1075 21.5598C51.1483 21.5517 51.1858 21.5318 51.2152 21.5026C51.2447 21.4733 51.2647 21.4361 51.2728 21.3955C51.2809 21.355 51.2768 21.313 51.2608 21.2748C51.2449 21.2366 51.2179 21.2039 51.1833 21.181C51.1487 21.158 51.1081 21.1458 51.0664 21.1458C51.0106 21.1458 50.9571 21.1678 50.9176 21.207C50.8782 21.2462 50.856 21.2993 50.856 21.3548Z" fill="#263238"/>
<path d="M49.8179 23.0611C49.8172 23.1033 49.8292 23.1447 49.8522 23.18C49.8753 23.2154 49.9085 23.2432 49.9475 23.2598C49.9865 23.2764 50.0296 23.2811 50.0713 23.2733C50.113 23.2655 50.1515 23.2455 50.1817 23.216C50.212 23.1864 50.2327 23.1485 50.2412 23.1072C50.2498 23.0659 50.2457 23.0231 50.2297 22.984C50.2136 22.945 50.1862 22.9116 50.1509 22.8881C50.1157 22.8646 50.0742 22.8521 50.0318 22.8521C50.0038 22.8516 49.9761 22.8567 49.9502 22.867C49.9242 22.8773 49.9006 22.8926 49.8807 22.9121C49.8608 22.9315 49.845 22.9547 49.8342 22.9803C49.8234 23.0059 49.8179 23.0334 49.8179 23.0611Z" fill="#263238"/>
<path d="M55.0337 23.5C55.0337 23.5555 55.0559 23.6086 55.0954 23.6478C55.1348 23.687 55.1884 23.7091 55.2442 23.7091C55.3 23.7091 55.3535 23.687 55.393 23.6478C55.4324 23.6086 55.4546 23.5555 55.4546 23.5C55.4546 23.4446 55.4324 23.3914 55.393 23.3522C55.3535 23.313 55.3 23.291 55.2442 23.291C55.1884 23.291 55.1348 23.313 55.0954 23.3522C55.0559 23.3914 55.0337 23.4446 55.0337 23.5Z" fill="#263238"/>
<path d="M52.2876 23.709C52.2876 23.7648 52.3096 23.8183 52.349 23.858C52.3884 23.8978 52.4419 23.9205 52.498 23.9214C52.5404 23.9221 52.5821 23.9102 52.6178 23.8873C52.6534 23.8644 52.6813 23.8315 52.698 23.7927C52.7148 23.7539 52.7195 23.7111 52.7116 23.6697C52.7038 23.6283 52.6837 23.5901 52.6539 23.56C52.6241 23.53 52.586 23.5094 52.5445 23.5009C52.5029 23.4924 52.4597 23.4964 52.4204 23.5124C52.3811 23.5284 52.3475 23.5556 52.3239 23.5906C52.3002 23.6256 52.2876 23.6668 52.2876 23.709Z" fill="#263238"/>
<path d="M55.2437 20.3817C55.243 20.424 55.255 20.4655 55.2783 20.501C55.3015 20.5364 55.3349 20.5642 55.3741 20.5807C55.4133 20.5972 55.4566 20.6017 55.4984 20.5936C55.5402 20.5855 55.5786 20.5652 55.6087 20.5353C55.6389 20.5054 55.6593 20.4672 55.6674 20.4257C55.6756 20.3841 55.6711 20.3411 55.6544 20.3022C55.6378 20.2632 55.6099 20.2301 55.5742 20.207C55.5385 20.1839 55.4967 20.172 55.4541 20.1726C55.3983 20.1726 55.3448 20.1947 55.3053 20.2339C55.2658 20.2731 55.2437 20.3262 55.2437 20.3817Z" fill="#263238"/>
<path d="M43.0357 21.1321C43.0357 21.1735 43.048 21.2139 43.0711 21.2482C43.0943 21.2826 43.1271 21.3094 43.1656 21.3252C43.204 21.341 43.2464 21.3452 43.2872 21.3371C43.328 21.3291 43.3655 21.3091 43.3949 21.2799C43.4243 21.2507 43.4444 21.2134 43.4525 21.1729C43.4606 21.1323 43.4564 21.0903 43.4405 21.0521C43.4246 21.0139 43.3976 20.9813 43.363 20.9583C43.3284 20.9354 43.2877 20.9231 43.2461 20.9231C43.2185 20.9231 43.1911 20.9285 43.1656 20.939C43.1401 20.9495 43.1169 20.9649 43.0973 20.9843C43.0778 21.0037 43.0623 21.0268 43.0517 21.0521C43.0411 21.0775 43.0357 21.1047 43.0357 21.1321Z" fill="#263238"/>
<path d="M40.0035 20.0767C40.0035 20.118 40.0158 20.1584 40.0389 20.1928C40.0621 20.2272 40.0949 20.254 40.1334 20.2698C40.1718 20.2856 40.2141 20.2898 40.2549 20.2817C40.2958 20.2736 40.3333 20.2537 40.3627 20.2245C40.3921 20.1953 40.4122 20.158 40.4203 20.1175C40.4284 20.0769 40.4242 20.0349 40.4083 19.9967C40.3924 19.9585 40.3654 19.9259 40.3308 19.9029C40.2962 19.8799 40.2555 19.8677 40.2139 19.8677C40.1863 19.8677 40.1589 19.8731 40.1334 19.8836C40.1078 19.8941 40.0846 19.9095 40.0651 19.9289C40.0456 19.9483 40.0301 19.9713 40.0195 19.9967C40.0089 20.0221 40.0035 20.0492 40.0035 20.0767Z" fill="#263238"/>
<path d="M39.1856 18.9837C39.1856 19.0391 39.2078 19.0923 39.2472 19.1315C39.2867 19.1707 39.3402 19.1927 39.396 19.1927C39.4518 19.1927 39.5053 19.1707 39.5448 19.1315C39.5843 19.0923 39.6064 19.0391 39.6064 18.9837C39.6064 18.9282 39.5843 18.8751 39.5448 18.8359C39.5053 18.7967 39.4518 18.7747 39.396 18.7747C39.3402 18.7747 39.2867 18.7967 39.2472 18.8359C39.2078 18.8751 39.1856 18.9282 39.1856 18.9837Z" fill="#263238"/>
<path d="M40.814 21.7867C40.814 21.828 40.8263 21.8684 40.8495 21.9028C40.8726 21.9372 40.9055 21.9639 40.9439 21.9798C40.9824 21.9956 41.0247 21.9997 41.0655 21.9917C41.1063 21.9836 41.1438 21.9637 41.1732 21.9345C41.2027 21.9052 41.2227 21.868 41.2308 21.8274C41.2389 21.7869 41.2348 21.7449 41.2188 21.7067C41.2029 21.6685 41.1759 21.6358 41.1413 21.6129C41.1067 21.5899 41.0661 21.5776 41.0244 21.5776C40.9968 21.5776 40.9694 21.583 40.9439 21.5935C40.9184 21.6041 40.8952 21.6194 40.8756 21.6389C40.8561 21.6583 40.8406 21.6813 40.83 21.7067C40.8194 21.732 40.814 21.7592 40.814 21.7867Z" fill="#263238"/>
<path d="M39.3135 21.3548C39.3135 21.3961 39.3259 21.4365 39.349 21.4709C39.3721 21.5053 39.405 21.5321 39.4434 21.5479C39.4819 21.5637 39.5242 21.5678 39.565 21.5598C39.6058 21.5517 39.6433 21.5318 39.6727 21.5026C39.7022 21.4733 39.7222 21.4361 39.7303 21.3955C39.7385 21.355 39.7343 21.313 39.7184 21.2748C39.7024 21.2366 39.6755 21.2039 39.6409 21.181C39.6062 21.158 39.5656 21.1458 39.5239 21.1458C39.4963 21.1458 39.469 21.1512 39.4434 21.1617C39.4179 21.1722 39.3947 21.1876 39.3752 21.207C39.3556 21.2264 39.3401 21.2494 39.3295 21.2748C39.319 21.3001 39.3135 21.3273 39.3135 21.3548Z" fill="#263238"/>
<path d="M42.1114 19.6656C42.1121 19.7068 42.125 19.7468 42.1485 19.7807C42.1721 19.8147 42.2052 19.8409 42.2437 19.8562C42.2822 19.8715 42.3244 19.8752 42.365 19.8667C42.4055 19.8583 42.4427 19.8381 42.4718 19.8087C42.5009 19.7794 42.5206 19.7421 42.5284 19.7017C42.5363 19.6612 42.5319 19.6194 42.5159 19.5814C42.4999 19.5434 42.4729 19.5109 42.4384 19.4881C42.4038 19.4653 42.3633 19.4531 42.3218 19.4531C42.2939 19.4531 42.2663 19.4586 42.2405 19.4694C42.2147 19.4801 42.1914 19.4958 42.1718 19.5156C42.1522 19.5353 42.1368 19.5588 42.1264 19.5845C42.1161 19.6103 42.1109 19.6378 42.1114 19.6656Z" fill="#263238"/>
</g>
<path d="M51.8945 23.7157C52.8171 23.7171 53.7216 23.4612 54.5051 22.9773C55.2886 22.4933 55.9197 21.8007 56.3265 20.9781C56.7333 20.1555 56.8995 19.236 56.8063 18.3243C56.713 17.4125 56.3641 16.545 55.799 15.8205C55.234 15.096 54.4756 14.5435 53.6101 14.2259C52.7446 13.9084 51.8068 13.8385 50.9033 14.0242C49.9998 14.2099 49.1669 14.6437 48.4993 15.2763C47.8317 15.9089 47.3563 16.715 47.1271 17.6027C46.9412 18.3253 46.9239 19.0804 47.0763 19.8107C47.2288 20.5409 47.547 21.2269 48.0068 21.8165C48.4666 22.406 49.0558 22.8836 49.7295 23.2127C50.4032 23.5418 51.1437 23.7138 51.8945 23.7157ZM51.8945 14.5736C52.7846 14.5741 53.6524 14.8509 54.3765 15.3653C55.1005 15.8796 55.6447 16.6059 55.9328 17.4425C56.221 18.2791 56.2387 19.1843 55.9836 20.0314C55.7285 20.8786 55.2133 21.6253 54.51 22.1673C53.8066 22.7094 52.9504 23.0195 52.0609 23.0544C51.1714 23.0894 50.2932 22.8474 49.549 22.3622C48.8047 21.8771 48.2318 21.173 47.9101 20.3486C47.5884 19.5241 47.5342 18.6204 47.7549 17.7638C47.988 16.8471 48.524 16.0346 49.2769 15.4562C50.0299 14.8779 50.9564 14.5671 51.9083 14.5736H51.8945Z" fill="#DBDBDB"/>
<path d="M41.0934 22.328C42.9804 22.328 44.6948 20.416 44.9984 17.8735C45.1662 16.663 44.9466 15.4307 44.3705 14.351C44.1526 13.8726 43.814 13.4582 43.3875 13.1479C42.961 12.8376 42.4611 12.642 41.9361 12.5799C41.4111 12.5179 40.879 12.5916 40.3911 12.7938C39.9032 12.996 39.4761 13.32 39.1513 13.7343C38.3376 14.6509 37.8333 15.7976 37.7094 17.0135C37.3885 19.693 38.7442 22.0676 40.7726 22.3075C40.8795 22.3212 40.9865 22.328 41.0934 22.328ZM41.6074 13.2203C41.6913 13.2152 41.7754 13.2152 41.8592 13.2203C42.2751 13.289 42.6682 13.4558 43.0056 13.7069C43.3429 13.9579 43.6147 14.2858 43.7979 14.6628C44.3032 15.6226 44.4949 16.7149 44.3464 17.7879C44.067 20.1076 42.5043 21.8415 40.8485 21.6461C39.1927 21.4508 38.0888 19.4018 38.3648 17.0786C38.4712 16.0008 38.9152 14.9834 39.6342 14.1694C39.879 13.8841 40.1808 13.6524 40.5205 13.4891C40.8602 13.3257 41.2303 13.2342 41.6074 13.2203Z" fill="#DBDBDB"/>
<path d="M47.1754 18.1785L47.5928 17.7982C47.0305 17.202 45.6679 16.3282 44.5295 17.2808L44.8745 17.7022C45.8921 16.849 47.1236 18.1237 47.1754 18.1785Z" fill="#DBDBDB"/>
<path d="M66.9659 21.5913L67.4868 21.3994C67.3971 21.1561 66.5623 19.0351 65.355 18.689C64.2235 18.3703 56.7309 18.1853 56.4274 18.1785V18.7301C58.5696 18.7815 64.3408 18.9734 65.2135 19.2201C66 19.4463 66.7452 21.0088 66.9659 21.5913Z" fill="#DBDBDB"/>
<path d="M60.4078 20.9504C60.4078 20.9504 63.7573 16.7632 65.6891 17.9728C67.6209 19.1823 64.9164 25.3878 62.5155 26.1108C62.2151 26.2226 61.8951 26.2732 61.5746 26.2596C61.2541 26.246 60.9397 26.1685 60.65 26.0316C60.3603 25.8948 60.1013 25.7014 59.8884 25.4631C59.6755 25.2247 59.5131 24.9463 59.4108 24.6442L60.4078 20.9504Z" fill="#D3766A"/>
<path d="M64.8684 19.7307C64.8753 19.733 64.8813 19.7373 64.8855 19.7432C64.8898 19.749 64.8921 19.756 64.8921 19.7633C64.8921 19.7705 64.8898 19.7775 64.8855 19.7834C64.8813 19.7892 64.8753 19.7936 64.8684 19.7958C63.1815 20.3578 62.2225 21.8209 61.5188 23.356C62.0466 22.7803 62.7331 22.4891 63.5127 23.1161C63.5541 23.1504 63.5127 23.2121 63.4644 23.2018C63.1805 23.0922 62.8694 23.0728 62.574 23.1465C62.2786 23.2202 62.0135 23.3832 61.8155 23.613C61.4875 23.9986 61.2018 24.4179 60.9634 24.8637C60.8772 25.0042 60.6184 24.9116 60.684 24.7472C60.684 24.7472 60.684 24.7198 60.684 24.7095C60.7944 22.6227 62.6054 19.8061 64.8684 19.7307Z" fill="#263238"/>
</svg>
