<svg width="345" height="217" viewBox="0 0 345 217" fill="none" xmlns="http://www.w3.org/2000/svg">
<path d="M340.409 216.408L297.859 216.604L255.309 216.677L170.208 216.816L85.1083 216.677L42.5582 216.604L0 216.408L42.5582 216.204L85.1083 216.139L170.208 216L255.309 216.139L297.859 216.204L340.409 216.408Z" fill="#263238"/>
<path d="M150.501 108.094C154.653 137.17 164.88 174.443 174.513 182.591C182.293 189.173 224.795 203.177 227.192 203.642C233.13 204.751 248.512 163.44 242.444 161.23C234.81 158.408 197.733 154.118 195.8 151.769C193.867 149.42 181.812 129.829 168.281 107.327C158.943 91.7733 147.916 90.0442 150.501 108.094Z" fill="#AD6359"/>
<path d="M222.576 200.909C223.261 201.333 232.959 207.279 239.068 209.62C243.627 211.365 256.889 216.047 259.311 211.251C260.942 207.989 253.496 204.294 248.268 201.578C245.511 200.151 242.249 196.872 243.244 195.11C244.981 192.027 252.06 195.861 256.652 199.074C265.534 205.289 277.156 216.104 283.257 211.846C285.565 210.215 283.331 206.757 279.938 203.258C285.573 207.483 291.65 211.072 294.284 209.383C295.793 208.429 295.981 206.937 295.336 205.191C297.122 205.941 298.754 205.966 299.985 204.865C302.089 203.005 301.396 199.971 299.537 196.709C299.902 196.699 300.261 196.603 300.582 196.429C300.904 196.255 301.18 196.007 301.388 195.706C306.004 189.809 287.033 170.177 280.093 167.902C259.703 161.197 237.355 161.14 237.355 161.14C228.62 166.947 222.56 200.901 222.576 200.909Z" fill="#AD6359"/>
<path d="M254.833 184.304C259.729 185.499 264.314 187.723 268.282 190.828C273.274 194.76 276.438 199.131 280.517 203.617C280.623 203.731 280.443 203.903 280.337 203.788C278.388 201.651 270.256 193.577 268.103 191.717C264.277 188.288 259.719 185.777 254.776 184.377C254.752 184.377 254.776 184.295 254.833 184.304Z" fill="#263238"/>
<path d="M259.49 175.789C264.841 177.746 270.33 179.736 275.191 182.754C280.517 186.057 284.481 191.04 288.387 195.853C290.736 198.74 293.017 201.679 295.23 204.669C295.32 204.792 295.149 204.963 295.051 204.832C291.092 199.873 286.987 195.037 282.735 190.323C278.821 185.924 274.076 182.343 268.772 179.785C265.738 178.325 262.598 177.11 259.466 175.887C259.46 175.885 259.453 175.882 259.448 175.878C259.443 175.874 259.438 175.869 259.435 175.864C259.432 175.858 259.429 175.852 259.428 175.845C259.427 175.838 259.428 175.832 259.429 175.825C259.431 175.819 259.434 175.813 259.438 175.808C259.442 175.802 259.447 175.798 259.452 175.794C259.458 175.791 259.464 175.789 259.471 175.788C259.477 175.787 259.484 175.787 259.49 175.789Z" fill="#263238"/>
<path d="M265.958 168.554C271.186 170.096 275.745 171.417 280.223 174.663C286.144 178.961 291.641 185.829 293.558 188.259C295.678 190.951 297.709 193.708 299.699 196.489C299.781 196.603 299.585 196.75 299.504 196.636C294.926 190.508 289.957 184.683 284.627 179.198C282.129 176.546 279.234 174.299 276.047 172.534C272.799 170.935 269.421 169.614 265.95 168.587C265.95 168.587 265.933 168.546 265.958 168.554Z" fill="#263238"/>
<path d="M158.886 157.397L191.11 139.347C191.11 139.347 178.566 117.057 165.696 100.255C152.826 83.454 147.696 93.1271 149.547 111.34C151.399 129.552 158.886 157.397 158.886 157.397Z" fill="#1DE39E"/>
<path d="M186.2 134.837C176.974 139.413 167.99 144.463 159.285 149.967C159.155 150.048 159.285 150.26 159.424 150.195C168.67 145.63 177.673 140.588 186.396 135.09C186.494 135 186.347 134.764 186.2 134.837Z" fill="#263238"/>
<path opacity="0.1" d="M185.417 142.537L158.885 157.397C158.885 157.397 151.39 129.56 149.547 111.34C148.372 99.8152 150.004 91.7163 154.62 91.5776L185.417 142.537Z" fill="black"/>
<path d="M68.2309 207.883H190.164C191.722 206.741 177.595 124.12 159.644 95.574C156.284 90.24 140.184 82.0839 127.582 91.7488C89.5508 120.923 66.8036 206.056 68.2309 207.883Z" fill="#1DE39E"/>
<path d="M211.557 146.329C215.581 144.228 219.802 142.526 224.158 141.248C229.99 139.739 242.786 137.423 245.078 136.469L248.952 136.33L223.905 202.394L189.584 209.441L132.492 195.82L152.882 132.953L156.814 132.758C156.814 132.758 164.064 134.723 170.043 135.865C176.021 137.007 196.754 137.904 211.557 146.329Z" fill="white"/>
<path d="M184.496 211.137L206.9 147.455L150.411 132.309L129.189 197.312L184.496 211.137Z" fill="#455A64"/>
<path d="M184.496 211.137L192.725 211.586L215.219 147.911L206.9 147.455L184.496 211.137Z" fill="#37474F"/>
<path d="M192.725 211.586L215.219 147.911L250.617 135.751L224.819 203.046L192.725 211.586Z" fill="#455A64"/>
<path d="M124.1 95.1663C95.1298 128.027 58.3705 189.23 64.7241 201.342C72.7822 216.699 128.431 213.861 141.391 210.835C146.929 209.547 127.778 161.54 121.816 162.796C116.629 163.889 112.151 164.982 111.972 164.264C111.793 163.547 127.273 140.669 136.701 107.718C143.185 85.2568 130.25 88.2337 124.1 95.1663Z" fill="#AD6359"/>
<path d="M95.79 185.658C95.79 185.658 97.9514 183.439 107.445 169.908C113.97 160.545 135.991 141.941 167.212 149.518C179.169 152.43 182.358 162.095 169.39 161.279C160.255 160.7 153.983 159.517 150.949 160.17C150.949 160.17 161.34 169.558 160.386 177.616C159.554 184.664 158.221 191.644 156.398 198.503C155.064 198.452 153.735 198.319 152.417 198.104C151.757 201.248 150.221 204.141 147.987 206.449C145.753 208.758 142.912 210.389 139.792 211.153L95.79 185.658Z" fill="#AD6359"/>
<path d="M115.128 161.972C120.952 160.537 133.333 157.707 144.27 158.914C156.414 160.26 179.447 166.116 178.37 175.071C177.555 181.596 168.583 180.177 168.583 180.177C168.583 180.177 177.596 184.605 175.581 190.38C173.746 195.64 166.854 194.091 166.854 194.091C166.854 194.091 171.862 197.72 169.113 202.451C165.851 208.16 155.868 199.604 147.541 202.451C145.681 203.119 115.128 161.972 115.128 161.972Z" fill="#AD6359"/>
<path d="M140.714 171.515C146.423 171.066 159.603 173.358 168.493 179.94C168.697 180.087 168.689 180.323 168.493 180.226C159.632 176.248 150.32 173.361 140.763 171.629C140.64 171.621 140.657 171.523 140.714 171.515Z" fill="#263238"/>
<path d="M139.718 183.814C144.669 183.928 158.167 186.905 166.943 193.887C167.139 194.042 167.115 194.27 166.943 194.164C158.29 189.735 149.162 186.301 139.735 183.928C139.72 183.931 139.704 183.927 139.692 183.917C139.68 183.908 139.672 183.895 139.67 183.879C139.667 183.864 139.671 183.849 139.68 183.837C139.69 183.824 139.703 183.816 139.718 183.814Z" fill="#263238"/>
<path d="M87.1207 179.353C90.6115 174.834 101.174 166.605 112.021 164.444C112.266 164.395 112.437 164.558 112.225 164.648C103.313 168.547 94.9076 173.515 87.1941 179.443C87.1452 179.483 87.08 179.402 87.1207 179.353Z" fill="#263238"/>
<path d="M89.9019 135.694L124.418 148.833C124.418 148.833 133.471 124.903 138.104 104.26C142.737 83.6174 132.028 85.8766 119.231 98.9752C106.434 112.074 89.9019 135.694 89.9019 135.694Z" fill="#1DE39E"/>
<path d="M135.111 122.106C135.115 122.096 135.117 122.087 135.118 122.077C135.118 122.066 135.117 122.056 135.113 122.047C135.11 122.037 135.105 122.029 135.098 122.021C135.091 122.014 135.083 122.008 135.074 122.004C135.065 121.999 135.055 121.997 135.045 121.996C135.035 121.996 135.025 121.997 135.015 122.001C135.006 122.004 134.997 122.009 134.99 122.016C134.982 122.023 134.976 122.031 134.972 122.04L133.186 125.409C133.806 123.125 134.382 120.825 134.915 118.509C134.915 118.435 134.809 118.386 134.784 118.46C133.034 123.451 131.318 128.448 129.638 133.451C128.007 138.467 126.066 143.409 124.451 148.441C123.456 148.246 122.917 148.083 122.175 147.96C122.004 147.96 121.898 148.123 122.053 148.205C122.947 148.687 123.901 149.046 124.891 149.273C127.077 144.461 128.847 139.062 130.551 134.062C131.367 131.615 132.183 129.128 132.851 126.632C133.689 125.167 134.443 123.656 135.111 122.106Z" fill="#263238"/>
<path d="M124.728 142.169C115.292 138.015 105.647 134.353 95.831 131.2C95.6842 131.151 95.6026 131.395 95.7413 131.452C105.176 135.618 114.821 139.288 124.638 142.447C124.793 142.504 124.915 142.235 124.728 142.169Z" fill="#263238"/>
<path d="M134.703 93.2904C134.703 95.2886 140.975 109.602 149.718 111.16C152.573 111.658 155.982 96.2347 155.982 96.2347L156.496 95.1499L163.657 80.0123L145.306 61.5634C145.306 61.5634 134.703 92.4503 134.703 93.2904Z" fill="#AD6359"/>
<path d="M163.656 80.0124L156.495 95.1418L155.982 96.2347C155.982 96.2347 155.362 99.0241 154.432 102.197C143.014 97.7844 139.637 87.7035 138.658 81.0645C141.668 72.0928 145.297 61.5715 145.297 61.5715L163.656 80.0124Z" fill="#263238"/>
<path d="M192.872 56.115C189.088 91.7977 167.295 93.5676 159.595 92.7438C152.614 91.9935 128.929 88.5679 128.994 52.6813C129.059 16.7948 146.856 7.27667 162.915 8.14121C178.974 9.00575 196.689 20.4324 192.872 56.115Z" fill="#AD6359"/>
<path d="M183.77 61.4736C187.701 62.069 186.217 69.8988 182.579 69.3442C178.942 68.7896 180.467 60.9761 183.77 61.4736Z" fill="#263238"/>
<path d="M165.573 58.8719C161.658 58.1297 160.459 66.0084 164.081 66.6935C167.702 67.3786 168.844 59.4754 165.573 58.8719Z" fill="#263238"/>
<path d="M187.22 56.9958C186.438 56.7254 185.67 56.4151 184.92 56.0661C184.065 55.8521 183.306 55.3618 182.759 54.6714C182.628 54.4212 182.585 54.1348 182.635 53.8573C182.685 53.5797 182.826 53.3267 183.036 53.138C183.974 52.3795 185.156 52.559 186.233 52.9586C187.331 53.3188 188.254 54.0786 188.819 55.0873C188.934 55.324 188.979 55.5892 188.947 55.8508C188.916 56.1124 188.809 56.3591 188.64 56.5611C188.47 56.7632 188.246 56.9118 187.994 56.9889C187.742 57.0661 187.473 57.0685 187.22 56.9958Z" fill="#263238"/>
<path d="M163.013 53.8803C163.828 53.9293 164.644 53.8314 165.459 53.7988C166.336 53.8921 167.219 53.6944 167.971 53.236C168.179 53.0455 168.317 52.7921 168.366 52.5149C168.414 52.2378 168.37 51.9523 168.241 51.7027C167.908 51.2475 167.459 50.8895 166.942 50.6658C166.424 50.4421 165.856 50.3608 165.296 50.4303C164.14 50.3911 163.011 50.7869 162.132 51.5395C161.94 51.7242 161.807 51.9608 161.749 52.2203C161.69 52.4797 161.709 52.7506 161.803 52.9995C161.896 53.2484 162.061 53.4645 162.276 53.621C162.491 53.7775 162.747 53.8677 163.013 53.8803Z" fill="#263238"/>
<path d="M162.719 80.363C163.159 81.0563 163.535 81.9942 164.35 82.2389C165.24 82.4305 166.16 82.4305 167.05 82.2389C167.067 82.238 167.084 82.2423 167.099 82.2511C167.114 82.2599 167.127 82.2728 167.134 82.2884C167.142 82.3039 167.145 82.3214 167.143 82.3387C167.141 82.356 167.134 82.3723 167.123 82.3857C166.673 82.7739 166.124 83.0316 165.538 83.1308C164.951 83.23 164.349 83.1669 163.796 82.9484C163.342 82.7069 162.97 82.3361 162.728 81.8831C162.485 81.43 162.383 80.9151 162.434 80.4038C162.434 80.2733 162.662 80.2651 162.719 80.363Z" fill="#263238"/>
<path d="M174.35 73.4956C174.35 73.4956 174.195 77.174 173.885 78.8704C173.885 79.0254 173.436 79.0336 172.849 78.9602C172.849 78.9602 172.808 78.9602 172.784 78.9602C171.282 78.9594 169.809 78.5459 168.526 77.7649C167.243 76.9839 166.199 75.8653 165.508 74.5314C165.427 74.3438 165.672 74.2133 165.81 74.3438C167.743 76.391 170.133 77.2555 172.775 77.7857C172.979 77.3371 172.849 71.4077 173.102 71.4974C174.195 71.897 176.087 72.7534 176.788 73.0715C176.943 70.6818 177.049 63.8715 177.343 59.5243C177.343 59.2552 177.783 59.2388 177.8 59.5243C178.296 64.6194 178.451 69.7419 178.264 74.8577C178.248 75.2247 174.978 73.9034 174.35 73.4956Z" fill="#263238"/>
<path d="M124.695 54.4757C134.695 58.1867 143.593 47.5676 144.074 37.0708C144.074 37.0708 170.173 48.6279 177.865 27.2019C178.908 30.7196 180.803 33.9254 183.383 36.5348C185.962 39.1442 189.146 41.0764 192.652 42.1601L193.328 51.1318C196.354 51.1318 201.639 44.0931 196.64 35.8881C196.64 35.8881 199.356 24.8775 193.255 16.0118C191.642 13.4991 189.338 11.5057 186.619 10.2715C183.9 9.03724 180.883 8.61473 177.93 9.05474C174.203 4.2505 168.754 1.08314 162.735 0.221751C152.353 -1.40946 145.607 6.49375 145.607 6.49375C145.607 6.49375 131.4 5.12354 126.31 14.0055C121.221 22.8874 124.279 30.7417 124.279 30.7417C124.279 30.7417 119.81 33.5066 119.133 42.1601C118.668 47.7307 121.694 53.3584 124.695 54.4757Z" fill="#263238"/>
<path d="M177.832 25.0896C177.516 26.9171 177.014 28.7073 176.331 30.4318C175.705 32.1598 174.866 33.8036 173.836 35.3254C171.833 38.3321 168.768 40.4706 165.255 41.312C161.773 42.3315 158.07 41.5648 154.506 40.896C152.76 40.3251 150.966 39.8765 149.245 39.2077C147.524 38.5389 145.828 37.7722 144.074 37.1034C145.705 38.0332 147.337 38.8896 148.968 39.7949C150.599 40.7003 152.459 41.1652 154.212 41.8666C157.842 42.7719 161.716 43.5793 165.541 42.5843C169.349 41.6225 172.627 39.203 174.668 35.8474C176.604 32.5819 177.692 28.8835 177.832 25.0896Z" fill="#263238"/>
<path d="M145.575 6.49378C142.117 5.51298 138.494 5.25204 134.931 5.72711C131.24 6.15376 127.817 7.86939 125.267 10.5718C124.094 11.9911 123.156 13.5879 122.485 15.3023C121.762 16.9841 121.332 18.777 121.213 20.6037C120.929 24.2427 122.011 27.857 124.247 30.7417C122.494 27.7028 121.781 24.1747 122.216 20.6935C122.646 17.282 124.048 14.066 126.253 11.4282C127.372 10.1582 128.72 9.10962 130.225 8.33704C131.781 7.5889 133.426 7.04081 135.119 6.70583C138.571 6.08256 142.1 6.01099 145.575 6.49378Z" fill="#263238"/>
<path d="M177.93 9.05465C180.767 8.8768 183.614 9.15212 186.364 9.87025C189.049 10.548 191.515 11.9045 193.525 13.8096C195.463 15.7948 196.866 18.2389 197.603 20.9135C198.367 23.652 198.724 26.4881 198.663 29.3306C199.227 26.4653 199.199 23.5149 198.581 20.6607C198.04 17.7048 196.6 14.9881 194.457 12.8816C192.314 10.7751 189.573 9.38162 186.608 8.89153C183.738 8.31835 180.777 8.374 177.93 9.05465Z" fill="#263238"/>
<path d="M188.133 41.7932C185.454 39.9151 183.11 37.599 181.2 34.9421C180.273 33.6362 179.529 32.2092 178.99 30.701C178.456 29.1467 178.095 27.5384 177.913 25.9052C177.594 27.5851 177.63 29.3132 178.019 30.9783C178.4 32.6741 179.115 34.2769 180.124 35.6925C181.109 37.1023 182.308 38.349 183.68 39.3871C185.02 40.4304 186.525 41.2435 188.133 41.7932Z" fill="#263238"/>
<path d="M150.648 63.2843C150.615 63.3523 150.57 63.4132 150.514 63.4636C150.457 63.5139 150.392 63.5527 150.321 63.5777C150.249 63.6027 150.174 63.6134 150.099 63.6092C150.023 63.6051 149.949 63.5861 149.881 63.5535C149.813 63.5208 149.753 63.4751 149.702 63.4188C149.652 63.3626 149.613 63.2971 149.588 63.2259C149.563 63.1547 149.552 63.0793 149.557 63.0039C149.561 62.9286 149.58 62.8548 149.612 62.7868C149.678 62.6494 149.796 62.5439 149.94 62.4934C150.084 62.443 150.242 62.4517 150.379 62.5176C150.516 62.5836 150.622 62.7015 150.672 62.8452C150.723 62.989 150.714 63.147 150.648 63.2843Z" fill="#AD6359"/>
<path d="M161.814 68.0147C161.758 68.1121 161.676 68.1914 161.576 68.2429C161.477 68.2944 161.364 68.3159 161.253 68.3049C161.141 68.2938 161.035 68.2506 160.948 68.1805C160.86 68.1105 160.795 68.0165 160.76 67.9101C160.725 67.8037 160.722 67.6893 160.75 67.581C160.779 67.4726 160.838 67.3749 160.921 67.2996C161.004 67.2243 161.107 67.1748 161.218 67.1569C161.328 67.1391 161.442 67.1537 161.544 67.1991C161.618 67.2328 161.683 67.2812 161.737 67.3413C161.79 67.4014 161.831 67.4719 161.856 67.5484C161.881 67.6249 161.891 67.7057 161.883 67.786C161.876 67.8662 161.852 67.944 161.814 68.0147Z" fill="#AD6359"/>
<path d="M156.129 69.9966C156.096 70.0706 156.048 70.1369 155.988 70.1913C155.928 70.2456 155.857 70.2868 155.781 70.3122C155.704 70.3375 155.622 70.3465 155.542 70.3385C155.461 70.3305 155.383 70.3057 155.313 70.2658C155.246 70.2293 155.186 70.1795 155.139 70.1196C155.091 70.0597 155.056 69.9907 155.035 69.9169C155.015 69.8431 155.009 69.7659 155.019 69.6899C155.029 69.6139 155.054 69.5407 155.093 69.4746C155.126 69.406 155.172 69.3446 155.229 69.2939C155.286 69.2432 155.352 69.2042 155.424 69.1792C155.496 69.1542 155.573 69.1437 155.649 69.1482C155.725 69.1527 155.799 69.1722 155.868 69.2055C155.938 69.2383 156.002 69.2854 156.054 69.3437C156.106 69.402 156.145 69.4704 156.17 69.5445C156.194 69.6187 156.203 69.697 156.196 69.7748C156.189 69.8526 156.166 69.9281 156.129 69.9966Z" fill="#AD6359"/>
<path d="M153.013 59.1165C152.98 59.1852 152.934 59.2466 152.877 59.2973C152.82 59.348 152.754 59.3869 152.682 59.4119C152.61 59.4369 152.534 59.4475 152.457 59.443C152.381 59.4385 152.307 59.419 152.238 59.3857C152.135 59.3356 152.05 59.2562 151.992 59.1574C151.934 59.0586 151.907 58.9449 151.914 58.8307C151.92 58.7164 151.961 58.6067 152.03 58.5155C152.099 58.4242 152.194 58.3554 152.302 58.3179C152.41 58.2803 152.527 58.2757 152.637 58.3045C152.748 58.3332 152.848 58.3942 152.924 58.4797C153 58.5651 153.049 58.6712 153.065 58.7846C153.081 58.8979 153.063 59.0134 153.013 59.1165Z" fill="#AD6359"/>
<path d="M156.724 64.5241C156.676 64.6282 156.598 64.7156 156.5 64.7753C156.402 64.8349 156.288 64.8641 156.174 64.8591C156.059 64.8542 155.948 64.8152 155.856 64.7473C155.763 64.6794 155.693 64.5855 155.654 64.4776C155.615 64.3697 155.609 64.2526 155.637 64.1412C155.664 64.0299 155.724 63.9292 155.809 63.852C155.894 63.7749 156 63.7247 156.114 63.7078C156.227 63.691 156.343 63.7082 156.447 63.7574C156.516 63.7889 156.578 63.8339 156.629 63.8898C156.681 63.9456 156.721 64.0111 156.746 64.0825C156.772 64.1539 156.784 64.2297 156.78 64.3055C156.776 64.3813 156.757 64.4556 156.724 64.5241Z" fill="#AD6359"/>
<path d="M187.228 69.8663C187.161 70.0047 187.042 70.1109 186.896 70.1613C186.751 70.2118 186.592 70.2025 186.453 70.1354C186.315 70.0684 186.209 69.9491 186.158 69.8038C186.108 69.6585 186.117 69.499 186.184 69.3606C186.251 69.2222 186.37 69.116 186.516 69.0656C186.661 69.0151 186.82 69.0244 186.959 69.0915C187.097 69.1585 187.203 69.2778 187.254 69.4231C187.304 69.5684 187.295 69.7278 187.228 69.8663Z" fill="#AD6359"/>
<path d="M181.731 70.8774C181.698 70.9458 181.653 71.007 181.597 71.0576C181.54 71.1082 181.475 71.1472 181.403 71.1722C181.332 71.1973 181.257 71.2079 181.181 71.2035C181.106 71.1991 181.032 71.1798 180.964 71.1466C180.89 71.1138 180.824 71.066 180.769 71.006C180.715 70.946 180.674 70.8754 180.648 70.7985C180.623 70.7217 180.614 70.6404 180.622 70.5598C180.63 70.4793 180.655 70.4013 180.695 70.331C180.727 70.2626 180.773 70.2014 180.829 70.1508C180.885 70.1002 180.951 70.0612 181.022 70.0362C181.093 70.0112 181.169 70.0005 181.244 70.0049C181.32 70.0093 181.393 70.0287 181.461 70.0618C181.535 70.0956 181.6 70.144 181.654 70.2041C181.707 70.2641 181.748 70.3346 181.773 70.4111C181.799 70.4876 181.808 70.5685 181.8 70.6487C181.793 70.7289 181.769 70.8068 181.731 70.8774Z" fill="#AD6359"/>
<path d="M181.127 74.8087C181.059 74.9458 180.939 75.0507 180.795 75.101C180.65 75.1513 180.491 75.143 180.352 75.0779C180.252 75.0274 180.169 74.9485 180.114 74.8511C180.058 74.7537 180.032 74.6421 180.04 74.5302C180.047 74.4184 180.087 74.3111 180.155 74.222C180.223 74.1328 180.316 74.0656 180.422 74.0288C180.528 73.992 180.642 73.9872 180.751 74.015C180.86 74.0429 180.958 74.1021 181.033 74.1853C181.108 74.2684 181.157 74.3719 181.174 74.4828C181.191 74.5937 181.174 74.707 181.127 74.8087Z" fill="#AD6359"/>
<path d="M185.817 74.1236C185.767 74.2265 185.687 74.3123 185.588 74.3701C185.49 74.4279 185.376 74.4552 185.262 74.4484C185.147 74.4416 185.038 74.4012 184.946 74.3321C184.855 74.263 184.786 74.1685 184.749 74.0604C184.711 73.9522 184.707 73.8354 184.735 73.7246C184.764 73.6139 184.825 73.5141 184.911 73.438C184.996 73.3618 185.102 73.3127 185.216 73.2969C185.329 73.281 185.444 73.2991 185.547 73.3488C185.685 73.4173 185.789 73.5366 185.84 73.6814C185.89 73.8262 185.882 73.9849 185.817 74.1236Z" fill="#AD6359"/>
<path d="M156.545 71.6769C154.299 70.995 152.29 69.6965 150.746 67.9292C149.202 66.1619 148.186 63.9967 147.812 61.68C147.438 59.3634 147.721 56.9882 148.631 54.8249C149.54 52.6615 151.038 50.7968 152.955 49.4429C154.871 48.089 157.13 47.3003 159.473 47.1665C161.815 47.0327 164.149 47.5593 166.207 48.6862C168.266 49.8131 169.966 51.4952 171.116 53.541C172.265 55.5868 172.818 57.9142 172.71 60.2584C172.553 63.5689 171.093 66.6829 168.648 68.9202C166.203 71.1574 162.971 72.3362 159.66 72.1989C158.604 72.1552 157.557 71.9799 156.545 71.6769ZM163.347 49.2967C162.483 49.0318 161.59 48.8784 160.688 48.84C157.929 48.7142 155.225 49.645 153.128 51.4428C151.031 53.2405 149.698 55.77 149.401 58.5161C149.104 61.2622 149.864 64.0183 151.528 66.2232C153.192 68.428 155.633 69.9157 158.356 70.3834C161.078 70.851 163.876 70.2634 166.18 68.7401C168.484 67.2169 170.121 64.8726 170.757 62.1847C171.394 59.4968 170.981 56.6675 169.604 54.273C168.228 51.8786 165.99 50.099 163.347 49.2967Z" fill="#455A64"/>
<path d="M183.843 76.3012C179.251 74.9066 176.503 68.9608 177.677 62.5094C178.178 59.4229 179.633 56.5708 181.837 54.3533C182.751 53.38 183.887 52.6418 185.148 52.2016C186.409 51.7614 187.758 51.6322 189.08 51.825C191.592 52.2735 193.68 54.0189 194.985 56.7186C196.277 59.5625 196.645 62.7403 196.037 65.8044C194.813 72.6066 189.699 77.4023 184.618 76.4888C184.356 76.4426 184.097 76.3799 183.843 76.3012ZM189.398 53.6275C189.198 53.5623 188.993 53.5132 188.786 53.4806C187.725 53.3364 186.644 53.4501 185.636 53.8121C184.628 54.1742 183.722 54.7739 182.995 55.5604C181.048 57.5338 179.765 60.0657 179.325 62.803C178.265 68.6998 180.769 74.0991 184.936 74.8495C189.104 75.5998 193.329 71.4076 194.389 65.5189C194.936 62.8008 194.617 59.9795 193.476 57.4526C193.1 56.5658 192.544 55.7673 191.841 55.1085C191.139 54.4497 190.307 53.9452 189.398 53.6275Z" fill="#455A64"/>
<path d="M172.164 61.6286L171.462 60.397C173.273 59.3612 177.245 58.2357 179.292 61.4084L178.11 62.175C176.299 59.3286 172.327 61.5307 172.164 61.6286Z" fill="#455A64"/>
<path d="M121.49 55.2831L120.373 54.4675C120.772 53.9455 124.385 49.37 127.583 49.4189C130.568 49.4842 148.886 54.5817 149.661 54.8019L149.286 56.1558C144.033 54.6877 129.866 50.8707 127.558 50.8381C125.446 50.7565 122.469 54.0271 121.49 55.2831Z" fill="#455A64"/>
<path d="M135.429 56.6859C135.429 56.6859 129.883 44.199 124.361 45.9689C118.839 47.7387 121.514 64.8012 126.946 68.1207C127.613 68.5952 128.368 68.9301 129.167 69.1052C129.966 69.2803 130.793 69.2921 131.596 69.1397C132.4 68.9873 133.165 68.674 133.844 68.2186C134.524 67.7631 135.105 67.175 135.551 66.4895L135.429 56.6859Z" fill="#AD6359"/>
<path d="M125.25 50.8463C125.152 50.8463 125.111 50.9441 125.185 50.9931C128.969 53.4399 130.388 57.681 131.138 61.9303C130.209 60.1686 128.692 59.0104 126.392 60.0707C126.269 60.1278 126.343 60.3154 126.457 60.3154C127.224 60.225 128 60.375 128.678 60.7446C129.356 61.1143 129.902 61.6853 130.241 62.3789C130.805 63.5405 131.24 64.7603 131.538 66.0165C131.66 66.4161 132.354 66.3509 132.305 65.9023C132.309 65.8671 132.309 65.8315 132.305 65.7963C133.414 60.5846 130.763 52.4611 125.25 50.8463Z" fill="#263238"/>
<path d="M285.021 211.491H186.602V215.903H285.021V211.491Z" fill="#455A64"/>
<path d="M236.133 211.491H186.602V215.903H236.133V211.491Z" fill="#A6A6A6"/>
<path d="M234.991 215.903H330.906L344.462 150.761H248.547L234.991 215.903Z" fill="#C7C7C7"/>
<path d="M282.288 184.78C282.181 185.587 282.25 186.407 282.489 187.185C282.729 187.963 283.133 188.68 283.675 189.287C284.217 189.894 284.884 190.377 285.63 190.703C286.376 191.029 287.184 191.189 287.998 191.174C289.747 191.136 291.424 190.468 292.721 189.294C294.019 188.119 294.849 186.517 295.061 184.78C295.168 183.973 295.099 183.152 294.86 182.374C294.62 181.596 294.216 180.879 293.674 180.272C293.132 179.665 292.465 179.182 291.719 178.856C290.973 178.531 290.165 178.37 289.351 178.385C287.602 178.425 285.926 179.093 284.629 180.267C283.332 181.442 282.501 183.043 282.288 184.78Z" fill="white"/>
</svg>
