<svg width="13" height="12" viewBox="0 0 13 12" fill="none" xmlns="http://www.w3.org/2000/svg">
<g clip-path="url(#clip0_1119_824)">
<path d="M9.22645 4.09393C9.49862 4.3775 9.49008 4.82875 9.20603 5.1014L7.01865 7.2028C6.70135 7.51583 6.28145 7.67258 5.8606 7.67258C5.43975 7.67258 5.01795 7.51583 4.69637 7.20185L3.96155 6.54255C3.66895 6.2794 3.64473 5.8291 3.90788 5.5365C4.17103 5.24438 4.62037 5.2192 4.9144 5.48283L5.6706 6.16208C5.78317 6.27133 5.93423 6.27228 6.02495 6.18203L8.21945 4.07398C8.50303 3.80133 8.95285 3.8094 9.22645 4.09393ZM12.275 5.77495C12.275 8.91803 9.71807 11.475 6.575 11.475C3.43192 11.475 0.875 8.91803 0.875 5.77495C0.875 2.63188 3.43192 0.0749512 6.575 0.0749512C9.71807 0.0749512 12.275 2.63188 12.275 5.77495ZM10.85 5.77495C10.85 3.418 8.93242 1.49995 6.575 1.49995C4.21758 1.49995 2.3 3.418 2.3 5.77495C2.3 8.1319 4.21758 10.05 6.575 10.05C8.93242 10.05 10.85 8.1319 10.85 5.77495Z" fill="#966DED"/>
</g>
<defs>
<clipPath id="clip0_1119_824">
<rect width="11.4" height="11.4" fill="white" transform="translate(0.875 0.0749512)"/>
</clipPath>
</defs>
</svg>
