<svg width="167" height="167" viewBox="0 0 167 167" fill="none" xmlns="http://www.w3.org/2000/svg">
<path d="M83.37 0C66.8806 1.1862e-07 50.7614 4.88982 37.0511 14.0511C23.3407 23.2123 12.655 36.2335 6.34525 51.468C0.0354676 66.7024 -1.61496 83.4659 1.6027 99.6384C4.82036 115.811 12.7616 130.666 24.4221 142.325C36.0826 153.984 50.9386 161.924 67.1115 165.139C83.2843 168.355 100.048 166.703 115.281 160.391C130.515 154.079 143.535 143.392 152.694 129.681C161.854 115.969 166.742 99.8495 166.74 83.36C166.737 61.2506 157.953 40.0477 142.318 24.415C126.683 8.78222 105.479 -1.59047e-07 83.37 0ZM83.37 126.94C74.7507 126.94 66.325 124.384 59.1583 119.595C51.9916 114.807 46.4058 108.001 43.1073 100.037C39.8089 92.0741 38.9459 83.3116 40.6274 74.858C42.309 66.4043 46.4595 58.639 52.5543 52.5443C58.6491 46.4495 66.4143 42.2989 74.868 40.6174C83.3216 38.9358 92.0841 39.7989 100.047 43.0973C108.011 46.3958 114.817 51.9815 119.605 59.1482C124.394 66.3149 126.95 74.7407 126.95 83.36C126.95 94.9181 122.359 106.003 114.186 114.176C106.013 122.349 94.9282 126.94 83.37 126.94Z" fill="#F5F95A"/>
</svg>
