<svg width="71" height="71" viewBox="0 0 71 71" fill="none" xmlns="http://www.w3.org/2000/svg">
<path d="M35.5 0C28.4786 5.05098e-08 21.6148 2.08214 15.7768 5.98312C9.93877 9.8841 5.38867 15.4287 2.70189 21.9157C0.0151026 28.4027 -0.687671 35.5408 0.682449 42.4273C2.05257 49.3137 5.43405 55.6392 10.3992 60.6038C15.3644 65.5684 21.6903 68.9491 28.5769 70.3184C35.4635 71.6877 42.6015 70.984 49.0882 68.2965C55.5749 65.6089 61.119 61.0581 65.0192 55.2196C68.9195 49.3811 71.0008 42.5172 71 35.4957C70.9989 26.0813 67.2582 17.0528 60.6008 10.3962C53.9434 3.73958 44.9145 -6.77244e-08 35.5 0ZM35.5 54.0526C31.8298 54.0526 28.242 52.9643 25.1904 50.9252C22.1387 48.8862 19.7602 45.988 18.3556 42.5972C16.9511 39.2063 16.5836 35.4751 17.2997 31.8755C18.0157 28.2758 19.7831 24.9692 22.3783 22.374C24.9735 19.7788 28.28 18.0114 31.8797 17.2954C35.4794 16.5794 39.2106 16.9469 42.6014 18.3514C45.9923 19.7559 48.8904 22.1344 50.9295 25.1861C52.9686 28.2377 54.0569 31.8255 54.0569 35.4957C54.0569 40.4173 52.1018 45.1374 48.6217 48.6174C45.1416 52.0975 40.4216 54.0526 35.5 54.0526Z" fill="#F5F95A"/>
</svg>
