<svg width="124" height="170" viewBox="0 0 124 170" fill="none" xmlns="http://www.w3.org/2000/svg">
<path d="M117.947 2.18089C120.004 3.57887 121.61 5.54199 122.567 7.82653C123.524 10.1111 123.789 12.6164 123.33 15.0316C119.484 19.3825 116.399 21.6706 112.94 24.9756C110.036 27.7473 106.87 31.2341 102.783 37.2389C91.3813 53.9902 95.5796 56.8478 84.1763 73.6012C72.7729 90.3545 68.576 87.4948 57.1727 104.248C45.7693 121.002 49.9691 123.857 38.5657 140.61C32.9535 148.856 29.0934 152.343 25.2398 155.779C21.5774 159.043 17.9335 162.244 12.8227 169.446C9.82302 169.446 6.9074 168.385 4.59689 166.452C2.28638 164.52 0.731575 161.841 0.21034 158.895C5.89729 151.158 9.75363 148.399 14.0734 144.395C17.1882 141.497 20.543 137.945 24.998 131.4C36.4014 114.646 32.203 111.789 43.605 95.0374C55.0069 78.2861 59.2067 81.1417 70.6086 64.3904C82.0105 47.6392 77.8136 44.7794 89.2155 28.0282C93.0688 22.3671 96.0984 18.9451 98.864 16.2493C103.747 11.4858 107.794 8.99606 114.081 0.413475C115.458 0.783485 116.765 1.38101 117.947 2.18089Z" fill="#FF3AF7" fill-opacity="0.76"/>
</svg>
