<svg width="13" height="13" viewBox="0 0 13 13" fill="none" xmlns="http://www.w3.org/2000/svg">
<path d="M9.65871 1.25254C9.65867 0.949491 9.53826 0.658867 9.32397 0.444579C9.10968 0.23029 8.81906 0.109884 8.51601 0.109838L1.2428 0.109839C0.939753 0.109884 0.649129 0.23029 0.43484 0.444579C0.220552 0.658867 0.100146 0.949491 0.100101 1.25254L0.1001 8.52575C0.105309 8.82537 0.227989 9.11096 0.44172 9.32101C0.655452 9.53106 0.943133 9.64876 1.2428 9.64876C1.54247 9.64876 1.83015 9.53106 2.04388 9.32101C2.25762 9.11096 2.3803 8.82537 2.3855 8.52575L2.455 4.08101L10.1323 11.7583C10.3466 11.9726 10.6373 12.093 10.9404 12.093C11.2435 12.093 11.5342 11.9726 11.7485 11.7583C11.9629 11.544 12.0833 11.2533 12.0833 10.9502C12.0833 10.647 11.9629 10.3563 11.7485 10.142L4.07127 2.46474L8.51601 2.39524C8.81906 2.3952 9.10968 2.27479 9.32397 2.0605C9.53826 1.84621 9.65867 1.55559 9.65871 1.25254Z" fill="white"/>
</svg>
