<svg width="16" height="16" viewBox="0 0 16 16" fill="none" xmlns="http://www.w3.org/2000/svg">
<g clip-path="url(#clip0_458_1173)">
<path d="M7.9998 15.4998C11.2748 15.4998 14.0498 13.4248 15.0748 10.4998H0.924805C1.9498 13.4248 4.7248 15.4998 7.9998 15.4998Z" fill="#ED4C5C"/>
<path d="M7.9998 0.499756C4.7248 0.499756 1.9498 2.59976 0.924805 5.49976H15.0748C14.0498 2.59976 11.2748 0.499756 7.9998 0.499756Z" fill="#0FA958"/>
<path d="M15.075 10.4998C15.35 9.72476 15.5 8.87476 15.5 7.99976C15.5 7.12476 15.35 6.27476 15.075 5.49976H0.925C0.65 6.27476 0.5 7.12476 0.5 7.99976C0.5 8.87476 0.65 9.72476 0.925 10.4998H15.075Z" fill="#FFCE31"/>
<path d="M7.99976 11.4998C9.93275 11.4998 11.4998 9.93275 11.4998 7.99976C11.4998 6.06676 9.93275 4.49976 7.99976 4.49976C6.06676 4.49976 4.49976 6.06676 4.49976 7.99976C4.49976 9.93275 6.06676 11.4998 7.99976 11.4998Z" fill="#428BC1"/>
<path d="M8.9498 8.32451L10.4748 7.24951H8.5998L7.9998 5.49951L7.4248 7.24951H5.5498L7.0748 8.32451L6.4998 10.0745L7.9998 8.99951L9.5248 10.0745L8.9498 8.32451ZM9.8248 7.44951L8.8748 8.12451L8.6498 7.44951H9.8248ZM7.2998 8.24951L7.5748 7.44951H8.4498L8.7248 8.24951L7.9998 8.74951L7.2998 8.24951ZM7.9998 6.14951L8.3748 7.24951H7.6498L7.9998 6.14951ZM6.1748 7.44951H7.3498L7.1248 8.12451L6.1748 7.44951ZM6.8748 9.54951L7.2248 8.44951L7.8248 8.87451L6.8748 9.54951ZM9.1248 9.54951L8.1748 8.87451L8.7748 8.44951L9.1248 9.54951Z" fill="#FFCE31"/>
<path d="M7.89976 9.32451V10.4995H8.09976V9.32451L7.99976 9.24951L7.89976 9.32451ZM6.47476 8.17451L5.49976 8.44951L5.54976 8.64951L6.69976 8.32451L6.47476 8.17451ZM7.27476 7.02451L7.32476 6.82451L6.54976 5.87451L6.39976 5.99951L7.22476 7.02451H7.27476ZM8.77476 7.02451L9.59976 5.99951L9.44976 5.87451L8.67476 6.82451L8.72476 7.02451H8.77476ZM9.52476 8.17451L9.29976 8.32451L10.4498 8.64951L10.4998 8.44951L9.52476 8.17451Z" fill="#FFCE31"/>
</g>
<defs>
<clipPath id="clip0_458_1173">
<rect width="16" height="16" fill="white"/>
</clipPath>
</defs>
</svg>
