<svg width="82" height="82" viewBox="0 0 82 82" fill="none" xmlns="http://www.w3.org/2000/svg">
<path d="M0 0H72C77.5229 0 82 4.47715 82 10V82C36.7127 82 0 45.2873 0 0Z" fill="#966DED"/>
<path d="M20.152 41V29.72H27.992V31.656H22.536V34.296H27.608V36.248H22.536V39.064H27.992V41H20.152ZM28.2261 41L32.0661 36.28V37.352L28.4341 32.888H31.2821L33.4421 35.72H32.5781L34.7541 32.888H37.5861L33.9701 37.368V36.264L37.8101 41H34.9461L32.5781 37.96H33.4421L31.0581 41H28.2261ZM38.4764 44.456V35C38.4764 34.6587 38.4657 34.312 38.4444 33.96C38.423 33.5973 38.391 33.24 38.3484 32.888H40.6684L40.8604 34.472H40.6844C40.8444 33.9387 41.1804 33.5173 41.6924 33.208C42.2044 32.888 42.791 32.728 43.4524 32.728C44.1564 32.728 44.775 32.8987 45.3084 33.24C45.8417 33.5707 46.2577 34.0507 46.5564 34.68C46.8657 35.3093 47.0204 36.0613 47.0204 36.936C47.0204 37.8213 46.8657 38.5787 46.5564 39.208C46.2577 39.8373 45.8417 40.3227 45.3084 40.664C44.775 41.0053 44.1564 41.176 43.4524 41.176C42.8017 41.176 42.2204 41.0213 41.7084 40.712C41.207 40.4027 40.871 39.992 40.7004 39.48H40.8924V44.456H38.4764ZM42.7164 39.352C43.2817 39.352 43.735 39.1547 44.0764 38.76C44.4177 38.3653 44.5884 37.7573 44.5884 36.936C44.5884 36.1147 44.4177 35.512 44.0764 35.128C43.735 34.744 43.2817 34.552 42.7164 34.552C42.1617 34.552 41.7084 34.744 41.3564 35.128C41.015 35.512 40.8444 36.1147 40.8444 36.936C40.8444 37.7573 41.015 38.3653 41.3564 38.76C41.7084 39.1547 42.1617 39.352 42.7164 39.352ZM48.5858 41V29.224H51.0018V41H48.5858ZM56.1284 41.176C55.4244 41.176 54.8057 41.0053 54.2724 40.664C53.739 40.3227 53.323 39.8373 53.0244 39.208C52.7257 38.5787 52.5764 37.8213 52.5764 36.936C52.5764 36.0613 52.7257 35.3093 53.0244 34.68C53.323 34.0507 53.739 33.5707 54.2724 33.24C54.8057 32.8987 55.4244 32.728 56.1284 32.728C56.779 32.728 57.3604 32.888 57.8724 33.208C58.395 33.5173 58.7364 33.9387 58.8964 34.472H58.7204L58.9124 32.888H61.2324C61.2004 33.24 61.1684 33.5973 61.1364 33.96C61.115 34.312 61.1044 34.6587 61.1044 35V41H58.7044L58.6884 39.48H58.8804C58.7097 39.992 58.3684 40.4027 57.8564 40.712C57.3444 41.0213 56.7684 41.176 56.1284 41.176ZM56.8644 39.352C57.419 39.352 57.867 39.1547 58.2084 38.76C58.5497 38.3653 58.7204 37.7573 58.7204 36.936C58.7204 36.1147 58.5497 35.512 58.2084 35.128C57.867 34.744 57.419 34.552 56.8644 34.552C56.3097 34.552 55.8617 34.744 55.5204 35.128C55.179 35.512 55.0084 36.1147 55.0084 36.936C55.0084 37.7573 55.1737 38.3653 55.5044 38.76C55.8457 39.1547 56.299 39.352 56.8644 39.352ZM63.0858 41V32.888H65.5018V41H63.0858ZM62.9898 31.56V29.304H65.5818V31.56H62.9898ZM67.4764 41V35C67.4764 34.6587 67.4657 34.312 67.4444 33.96C67.423 33.5973 67.391 33.24 67.3484 32.888H69.6684L69.8444 34.392H69.6524C69.919 33.8587 70.2977 33.448 70.7884 33.16C71.279 32.872 71.8497 32.728 72.5004 32.728C73.4497 32.728 74.159 33.0053 74.6284 33.56C75.1084 34.104 75.3484 34.952 75.3484 36.104V41H72.9324V36.216C72.9324 35.6293 72.8257 35.2133 72.6124 34.968C72.399 34.7227 72.079 34.6 71.6524 34.6C71.119 34.6 70.6924 34.7707 70.3724 35.112C70.0524 35.4427 69.8924 35.8907 69.8924 36.456V41H67.4764Z" fill="white"/>
</svg>
