<svg width="39" height="39" viewBox="0 0 39 39" fill="none" xmlns="http://www.w3.org/2000/svg">
<g id="mdi:eye-off-outline">
<path id="Vector" d="M3.25 8.56375L5.33 6.5L32.5 33.67L30.4362 35.75L25.4312 30.745C23.5625 31.3625 21.58 31.6875 19.5 31.6875C11.375 31.6875 4.43625 26.6337 1.625 19.5C2.74625 16.64 4.53375 14.1213 6.80875 12.1225L3.25 8.56375ZM19.5 14.625C20.7929 14.625 22.0329 15.1386 22.9471 16.0529C23.8614 16.9671 24.375 18.2071 24.375 19.5C24.3758 20.0534 24.2824 20.6029 24.0987 21.125L17.875 14.9012C18.3971 14.7176 18.9466 14.6242 19.5 14.625ZM19.5 7.3125C27.625 7.3125 34.5638 12.3663 37.375 19.5C36.0488 22.869 33.795 25.7932 30.875 27.9338L28.5675 25.61C30.8147 24.0555 32.6271 21.9522 33.8325 19.5C32.5188 16.8187 30.4792 14.5596 27.9456 12.9797C25.4119 11.3998 22.4859 10.5623 19.5 10.5625C17.7288 10.5625 15.99 10.855 14.365 11.375L11.8625 8.88875C14.2025 7.88125 16.7863 7.3125 19.5 7.3125ZM5.1675 19.5C6.48121 22.1813 8.5208 24.4404 11.0544 26.0203C13.5881 27.6002 16.5141 28.4377 19.5 28.4375C20.6213 28.4375 21.7262 28.3238 22.75 28.0963L19.045 24.375C17.9143 24.2538 16.8591 23.7492 16.055 22.945C15.2508 22.1409 14.7462 21.0857 14.625 19.955L9.1 14.4137C7.49125 15.795 6.1425 17.5175 5.1675 19.5Z" fill="url(#paint0_linear_62_118)"/>
</g>
<defs>
<linearGradient id="paint0_linear_62_118" x1="19.5" y1="6.5" x2="19.5" y2="35.75" gradientUnits="userSpaceOnUse">
<stop stop-color="#3AFFF3"/>
<stop offset="1" stop-color="white" stop-opacity="0"/>
</linearGradient>
</defs>
</svg>
