<svg width="357" height="283" viewBox="0 0 357 283" fill="none" xmlns="http://www.w3.org/2000/svg">
<circle cx="239.5" cy="116.5" r="116.5" fill="#090A16"/>
<circle cx="116.5" cy="116.5" r="115.5" transform="matrix(1 0 0 -1 123.999 233)" fill="white" stroke="white" stroke-width="2"/>
<circle cx="96.5" cy="96.5" r="95.5" transform="matrix(1 0 0 -1 143.999 213)" fill="#090A16" stroke="black" stroke-width="2"/>
<path d="M292.999 116.5C292.999 146.056 269.261 170 239.999 170C210.737 170 186.999 146.056 186.999 116.5C186.999 86.9441 210.737 63 239.999 63C269.261 63 292.999 86.9441 292.999 116.5Z" fill="#090A16" stroke="#FB0A0A" stroke-width="2"/>
<circle cx="240.499" cy="116.5" r="32.5" fill="url(#paint0_linear_886_89)" stroke="#F5F95A" stroke-width="2"/>
<path d="M314.999 116.5C314.999 158.204 281.414 192 239.999 192C198.584 192 164.999 158.204 164.999 116.5C164.999 74.7963 198.584 41 239.999 41C281.414 41 314.999 74.7963 314.999 116.5Z" stroke="#38B7EE" stroke-width="2"/>
<path d="M141.655 179.39C138.209 184.815 135.109 189.495 134.788 189.778C134.495 190.044 133.798 190.349 133.277 190.456C132.428 190.597 131.687 190.423 124.791 188.428C116.232 185.938 115.86 185.764 115.374 183.814C115.126 182.812 115.164 182.576 117.114 175.299C119.292 167.173 119.477 166.755 120.9 166.128C121.812 165.757 144.705 164.338 145.715 164.608C146.518 164.824 147.538 165.884 147.941 166.952C148.544 168.466 148.329 168.901 141.655 179.39Z" fill="white"/>
<path d="M113.313 197.015C112.461 197.992 111.1 198.39 109.86 198.058C108.597 197.719 108.177 197.361 107.156 195.66L106.366 194.292L55.7852 223.476C10.0586 249.876 5.13503 252.641 4.31148 252.593C2.36595 252.416 0.719409 250.572 0.871653 248.719C1.00874 246.738 -1.37351 248.191 52.3345 217.163L102.724 188.051L101.886 186.498C100.913 184.712 100.796 183.401 101.467 182.277C102.576 180.433 105.31 179.96 106.832 181.352C107.638 182.11 114.138 193.57 114.217 194.378C114.309 195.412 114.019 196.22 113.313 197.015Z" fill="white"/>
<path d="M44.0949 247.728C43.7669 248.034 39.5739 250.552 34.8066 253.285C27.3737 257.518 26.0012 258.232 25.2297 258.173C23.9975 258.089 23.0842 257.549 22.3812 256.5C21.7517 255.544 21.6624 254.683 22.0295 252.395L22.2608 250.981L34.3339 244.03C45.1034 237.812 46.3947 237.125 46.3742 237.661C46.3101 238.726 45.3061 244.952 45.0047 246.077C44.8263 246.743 44.4811 247.388 44.0949 247.728Z" fill="white"/>
<path d="M23.7219 225.514L11.5553 232.538L9.71149 231.798C7.24952 230.794 6.30186 229.556 6.49551 227.639C6.64446 225.981 7.53161 225.333 16.7232 220.046C24.2786 215.723 25.5056 215.092 26.323 215.163C27.0715 215.216 35.7037 218.169 35.861 218.408C35.8717 218.46 30.4164 221.648 23.7219 225.514Z" fill="white"/>
<defs>
<linearGradient id="paint0_linear_886_89" x1="240.499" y1="83" x2="241.559" y2="171.637" gradientUnits="userSpaceOnUse">
<stop stop-color="#1E2247"/>
<stop offset="1"/>
</linearGradient>
</defs>
</svg>
