<svg width="176" height="176" viewBox="0 0 176 176" fill="none" xmlns="http://www.w3.org/2000/svg">
<circle cx="88" cy="88" r="88" fill="white"/>
<path d="M112.981 45.6051V65.2683L104.472 60.354V50.5209L112.981 45.6051Z" fill="#0B8F87"/>
<path d="M104.544 40.8301L96.0349 35.9143L87.5262 31L79.0175 35.9143L70.5087 40.8301L62 45.7444L70.5087 50.6602L79.0175 55.576L87.5262 60.4918L96.0349 55.576L104.544 50.6602L113.052 45.7444L104.544 40.8301ZM87.5262 50.6602L79.0175 45.7444L87.5262 40.8286L96.0349 45.7444L87.5262 50.6602Z" fill="#0B8F87"/>
<path d="M103.72 60.7843V135.621L103.418 135.795L87.5262 144.976H87.5233L71.6328 135.795L71.3313 135.621V116.913H71.3328L87.5233 126.265V88.8481L71.3313 79.4915V60.7813H71.3328L87.5233 70.1364H87.5262L103.717 60.7813L103.72 60.7843Z" fill="#0B8F87"/>
</svg>
