<svg width="16" height="17" viewBox="0 0 16 17" fill="none" xmlns="http://www.w3.org/2000/svg">
<path d="M14.4768 6.21006C14.6789 6.21006 14.8727 6.12979 15.0156 5.9869C15.1585 5.84401 15.2387 5.65021 15.2387 5.44813V3.16232C15.2387 3.00244 15.1884 2.84662 15.0948 2.71697C15.0013 2.58732 14.8693 2.49041 14.7176 2.44L7.86014 0.154194C7.70382 0.102248 7.5349 0.102248 7.37859 0.154194L0.521164 2.44C0.369443 2.49041 0.237447 2.58732 0.1439 2.71697C0.0503535 2.84662 6.07728e-06 3.00244 0 3.16232V5.44813C0 5.65021 0.0802752 5.84401 0.223166 5.9869C0.366057 6.12979 0.559858 6.21006 0.761936 6.21006H1.52387V11.6838C1.07943 11.8404 0.694337 12.1306 0.421485 12.5148C0.148634 12.899 0.00139932 13.3582 0 13.8294V15.3533C0 15.5554 0.0802752 15.7492 0.223166 15.8921C0.366057 16.035 0.559858 16.1152 0.761936 16.1152H14.4768C14.6789 16.1152 14.8727 16.035 15.0156 15.8921C15.1585 15.7492 15.2387 15.5554 15.2387 15.3533V13.8294C15.2373 13.3582 15.0901 12.899 14.8172 12.5148C14.5444 12.1306 14.1593 11.8404 13.7149 11.6838V6.21006H14.4768ZM13.7149 14.5914H1.52387V13.8294C1.52407 13.6274 1.60441 13.4337 1.74726 13.2909C1.89011 13.148 2.08379 13.0677 2.28581 13.0675H12.9529C13.1549 13.0677 13.3486 13.148 13.4915 13.2909C13.6343 13.4337 13.7147 13.6274 13.7149 13.8294V14.5914ZM3.04775 11.5436V6.21006H4.57162V11.5436H3.04775ZM6.09549 11.5436V6.21006H9.14324V11.5436H6.09549ZM10.6671 11.5436V6.21006H12.191V11.5436H10.6671ZM1.52387 4.68619V3.71091L7.61936 1.67959L13.7149 3.71167V4.68619H1.52387Z" fill="#966DED"/>
</svg>
