<svg width="40" height="40" viewBox="0 0 40 40" fill="none" xmlns="http://www.w3.org/2000/svg">
<path d="M40.0001 14.1333V33.3333C40.0001 33.7754 39.8245 34.1993 39.5119 34.5119C39.1994 34.8244 38.7755 35 38.3334 35C37.8914 35 37.4675 34.8244 37.1549 34.5119C36.8424 34.1993 36.6668 33.7754 36.6668 33.3333V19.5867L24.3334 25.48C23.033 26.2476 21.5485 26.6474 20.0384 26.6367C18.4548 26.6391 16.9 26.2136 15.5384 25.405L3.23843 19.55C2.27157 19.0301 1.46145 18.2609 0.892131 17.3223C0.322817 16.3836 0.0150496 15.3098 0.000765083 14.2121C-0.0135195 13.1144 0.266199 12.0328 0.810896 11.0797C1.35559 10.1266 2.14542 9.33659 3.09843 8.79168C3.14343 8.76502 3.19176 8.74002 3.23843 8.71668L15.6668 2.78668C17.0085 2.01612 18.5314 1.6169 20.0786 1.63008C21.6258 1.64326 23.1416 2.06837 24.4701 2.86168L36.7618 8.71668C37.7317 9.25332 38.5422 10.0372 39.111 10.9886C39.6798 11.94 39.9865 13.025 40.0001 14.1333ZM20.0368 29.9667C17.9044 29.9714 15.8086 29.4125 13.9618 28.3467L6.66676 24.865V29.365C6.66775 31.1442 7.23737 32.8765 8.29248 34.3091C9.34758 35.7417 10.8329 36.7996 12.5318 37.3283C14.959 38.0252 17.475 38.3638 20.0001 38.3333C22.5255 38.3617 25.0415 38.0208 27.4684 37.3217C29.1673 36.7929 30.6526 35.7351 31.7077 34.3025C32.7628 32.8699 33.3324 31.1376 33.3334 29.3583V24.8733L25.9018 28.4233C24.1178 29.4482 22.0941 29.9819 20.0368 29.97V29.9667Z" fill="#8E3A95"/>
</svg>
