<svg width="1923" height="2958" viewBox="0 0 1923 2958" fill="none" xmlns="http://www.w3.org/2000/svg">
<g clip-path="url(#clip0_2470_13)">
<rect width="1923" height="2958" fill="url(#paint0_linear_2470_13)"/>
<rect width="1923" height="2958" fill="black" fill-opacity="0.2"/>
<rect width="1923" height="2958" fill="black" fill-opacity="0.2"/>
<path d="M432.616 809.173C1468.12 588.173 463.116 2010.67 1621.12 951.672C2779.12 -107.327 1572.84 1925.29 1572.84 1925.29L364.338 3235.29C364.338 3235.29 -602.884 1030.17 432.616 809.173Z" fill="#1DE39E" fill-opacity="0.28"/>
<path d="M256.145 1038.65C1473.72 530.982 178 2413 1695.64 1038.65C3213.29 -335.695 1695.64 2012.5 1695.64 2012.5C1133.49 2012.5 818.304 4062 256.145 4062C256.145 4062 -961.431 1546.32 256.145 1038.65Z" fill="url(#paint1_linear_2470_13)"/>
<rect x="174" y="1879" width="66" height="195" rx="33" stroke="#1DE39E" stroke-width="4"/>
<circle cx="1313.77" cy="1403.77" r="33.7672" fill="#13FFD5"/>
<path d="M1376.54 146.311C1369.23 146.311 1362.09 147.701 1356.01 150.305C1349.94 152.909 1345.2 156.611 1342.4 160.941C1339.61 165.271 1338.88 170.037 1340.3 174.634C1341.73 179.231 1345.25 183.453 1350.42 186.767C1355.58 190.082 1362.17 192.338 1369.34 193.253C1376.5 194.167 1383.93 193.697 1390.69 191.903C1397.44 190.109 1403.21 187.071 1407.27 183.173C1411.33 179.276 1413.49 174.694 1413.49 170.006C1413.49 163.722 1409.6 157.695 1402.67 153.251C1395.74 148.807 1386.34 146.311 1376.54 146.311ZM1376.54 182.394C1372.72 182.394 1368.99 181.668 1365.81 180.307C1362.63 178.945 1360.16 177.011 1358.7 174.747C1357.24 172.483 1356.85 169.993 1357.6 167.59C1358.34 165.187 1360.18 162.979 1362.88 161.247C1365.59 159.514 1369.03 158.335 1372.77 157.857C1376.52 157.379 1380.4 157.624 1383.93 158.562C1387.46 159.499 1390.48 161.087 1392.6 163.124C1394.72 165.161 1395.86 167.556 1395.86 170.006C1395.86 173.292 1393.82 176.443 1390.2 178.766C1386.58 181.089 1381.66 182.394 1376.54 182.394Z" fill="#F5F95A"/>
<path d="M1443.31 474.492C1445.72 475.747 1447.73 477.36 1449.1 479.13C1450.46 480.901 1451.13 482.752 1451 484.453C1447.56 487.166 1444.62 488.469 1441.43 490.468C1438.75 492.143 1435.9 494.308 1432.45 498.195C1422.83 509.037 1427.74 511.601 1418.12 522.444C1408.49 533.287 1403.58 530.722 1393.95 541.566C1384.33 552.409 1389.24 554.972 1379.62 565.815C1374.88 571.152 1371.29 573.236 1367.7 575.284C1364.29 577.229 1360.89 579.13 1356.53 583.767C1353.33 583.419 1350.06 582.309 1347.3 580.636C1344.54 578.963 1342.48 576.837 1341.47 574.636C1346.37 569.678 1350.06 568.122 1354.06 565.715C1356.95 563.973 1359.99 561.783 1363.75 557.546C1373.37 546.703 1368.46 544.139 1378.08 533.297C1387.71 522.455 1392.62 525.018 1402.24 514.176C1411.87 503.334 1406.96 500.768 1416.58 489.926C1419.83 486.262 1422.55 484.129 1425.09 482.492C1429.57 479.6 1433.51 478.262 1438.92 472.759C1440.44 473.188 1441.93 473.774 1443.31 474.492Z" fill="#FF3AF7" fill-opacity="0.76"/>
<path d="M1823.56 198.356C1825.96 199.611 1827.98 201.223 1829.34 202.994C1830.71 204.765 1831.37 206.616 1831.25 208.317C1827.81 211.03 1824.86 212.333 1821.67 214.332C1819 216.007 1816.15 218.172 1812.7 222.058C1803.07 232.9 1807.99 235.464 1798.36 246.308C1788.74 257.151 1783.83 254.586 1774.2 265.429C1764.58 276.273 1769.49 278.835 1759.86 289.679C1755.13 295.015 1751.54 297.099 1747.95 299.148C1744.54 301.093 1741.13 302.994 1736.77 307.631C1733.57 307.282 1730.3 306.173 1727.55 304.5C1724.79 302.827 1722.72 300.7 1721.72 298.5C1726.61 293.541 1730.31 291.985 1734.31 289.579C1737.19 287.837 1740.23 285.647 1743.99 281.41C1753.62 270.567 1748.71 268.003 1758.33 257.161C1767.95 246.319 1772.87 248.881 1782.49 238.039C1792.11 227.197 1787.2 224.632 1796.83 213.79C1800.08 210.126 1802.79 207.992 1805.33 206.356C1809.82 203.464 1813.76 202.126 1819.17 196.623C1820.69 197.051 1822.17 197.637 1823.56 198.356Z" fill="#FF3AF7" fill-opacity="0.76"/>
<path d="M1835.96 514.151L1826.05 540.1C1813.14 537.199 1799.25 538.349 1787.45 543.299C1775.64 548.248 1766.88 556.591 1763.1 566.492L1729.24 558.884C1735.66 542.1 1750.51 527.959 1770.52 519.57C1790.54 511.182 1814.08 509.232 1835.96 514.151Z" fill="#3AFFF3"/>
<path d="M993.687 252.223L1028.34 272.129C1020.65 280.003 1017.28 289.852 1018.96 299.508C1020.64 309.164 1027.24 317.838 1037.31 323.62C1047.37 329.403 1060.08 331.82 1072.64 330.341C1085.2 328.862 1096.57 323.608 1104.26 315.734L1138.92 335.64C1124.21 350.703 1102.45 360.755 1078.43 363.584C1054.4 366.414 1030.09 361.789 1010.83 350.727C991.571 339.665 978.945 323.073 975.73 304.6C972.515 286.126 978.975 267.286 993.687 252.223Z" fill="#F5F95A"/>
</g>
<defs>
<linearGradient id="paint0_linear_2470_13" x1="961.5" y1="0" x2="961.5" y2="2958" gradientUnits="userSpaceOnUse">
<stop stop-color="#025C57"/>
<stop offset="1" stop-color="#04C2B7"/>
</linearGradient>
<linearGradient id="paint1_linear_2470_13" x1="832.5" y1="859" x2="832.5" y2="4062" gradientUnits="userSpaceOnUse">
<stop stop-color="#026E68"/>
<stop offset="1" stop-color="#4D219A"/>
</linearGradient>
<clipPath id="clip0_2470_13">
<rect width="1923" height="2958" fill="white"/>
</clipPath>
</defs>
</svg>
