<svg width="9" height="9" viewBox="0 0 9 9" fill="none" xmlns="http://www.w3.org/2000/svg">
<g clip-path="url(#clip0_462_1575)">
<path d="M2.71287 1.50781H5.51287C6.57954 1.50781 7.44621 2.37448 7.44621 3.44115V6.24115C7.44621 6.7539 7.24252 7.24565 6.87995 7.60822C6.51738 7.97079 6.02563 8.17448 5.51287 8.17448H2.71287C1.64621 8.17448 0.779541 7.30781 0.779541 6.24115V3.44115C0.779541 2.92839 0.983231 2.43664 1.3458 2.07407C1.70837 1.7115 2.20012 1.50781 2.71287 1.50781ZM2.64621 2.17448C2.32795 2.17448 2.02272 2.30091 1.79768 2.52595C1.57264 2.75099 1.44621 3.05622 1.44621 3.37448V6.30781C1.44621 6.97115 1.98287 7.50781 2.64621 7.50781H5.57954C5.8978 7.50781 6.20303 7.38138 6.42807 7.15634C6.65311 6.9313 6.77954 6.62607 6.77954 6.30781V3.37448C6.77954 2.71115 6.24287 2.17448 5.57954 2.17448H2.64621ZM5.86287 2.67448C5.97338 2.67448 6.07936 2.71838 6.1575 2.79652C6.23564 2.87466 6.27954 2.98064 6.27954 3.09115C6.27954 3.20165 6.23564 3.30763 6.1575 3.38577C6.07936 3.46391 5.97338 3.50781 5.86287 3.50781C5.75237 3.50781 5.64639 3.46391 5.56825 3.38577C5.49011 3.30763 5.44621 3.20165 5.44621 3.09115C5.44621 2.98064 5.49011 2.87466 5.56825 2.79652C5.64639 2.71838 5.75237 2.67448 5.86287 2.67448ZM4.11287 3.17448C4.5549 3.17448 4.97882 3.35007 5.29139 3.66263C5.60395 3.97519 5.77954 4.39912 5.77954 4.84115C5.77954 5.28317 5.60395 5.7071 5.29139 6.01966C4.97882 6.33222 4.5549 6.50781 4.11287 6.50781C3.67085 6.50781 3.24692 6.33222 2.93436 6.01966C2.6218 5.7071 2.44621 5.28317 2.44621 4.84115C2.44621 4.39912 2.6218 3.97519 2.93436 3.66263C3.24692 3.35007 3.67085 3.17448 4.11287 3.17448ZM4.11287 3.84115C3.84766 3.84115 3.5933 3.9465 3.40577 4.13404C3.21823 4.32158 3.11287 4.57593 3.11287 4.84115C3.11287 5.10636 3.21823 5.36072 3.40577 5.54825C3.5933 5.73579 3.84766 5.84115 4.11287 5.84115C4.37809 5.84115 4.63244 5.73579 4.81998 5.54825C5.00752 5.36072 5.11287 5.10636 5.11287 4.84115C5.11287 4.57593 5.00752 4.32158 4.81998 4.13404C4.63244 3.9465 4.37809 3.84115 4.11287 3.84115Z" fill="#031621"/>
</g>
<defs>
<clipPath id="clip0_462_1575">
<rect width="8" height="8" fill="white" transform="translate(0.112793 0.841309)"/>
</clipPath>
</defs>
</svg>
