<svg id="Layer_1" data-name="Layer 1" xmlns="http://www.w3.org/2000/svg" viewBox="0 0 126.39 282"><defs><style>.cls-1,.cls-3{opacity:0.53;}.cls-2,.cls-3{fill:#0b8f87;}</style></defs><g class="cls-1"><polygon class="cls-2" points="126.22 36.14 126.22 84.79 105.15 72.63 105.15 48.3 126.22 36.14"/><path class="cls-2" d="M342.13,163.32l-21.06-12.16h0L300,139h0l-21.06,12.16h0l-21.06,12.16L236.8,175.48l21.07,12.17,21.06,12.16h0L300,212h0l21.06-12.16h0l21.06-12.16,21.07-12.17ZM300,187.65l-21.07-12.17L300,163.32l21.07,12.16Z" transform="translate(-236.8 -139)"/></g><polygon class="cls-3" points="103.29 73.7 103.29 258.85 102.54 259.29 63.2 282 63.19 282 23.85 259.29 23.1 258.85 23.1 212.57 23.11 212.57 63.19 235.71 63.19 143.13 23.1 119.98 23.1 73.69 23.11 73.69 63.19 96.83 63.2 96.83 103.28 73.69 103.29 73.7"/></svg>