<svg width="10" height="10" viewBox="0 0 10 10" fill="none" xmlns="http://www.w3.org/2000/svg">
<rect x="0.676913" y="0.359774" width="8.73851" height="8.73851" rx="4.36925" stroke="#A7A7A7" stroke-width="0.529606"/>
<g clip-path="url(#clip0_1504_1061)">
<path d="M6.54504 2.94188C6.62882 2.94188 6.69787 2.96826 6.75217 3.02101C6.80648 3.07376 6.83363 3.14048 6.83363 3.22116V6.20951C6.83363 6.28709 6.80648 6.35769 6.75217 6.4213C6.69787 6.48492 6.62882 6.51672 6.54504 6.51672H3.566C3.48222 6.51672 3.41007 6.48569 3.34956 6.42363C3.28904 6.36157 3.25879 6.29019 3.25879 6.20951V3.22116C3.25879 3.14359 3.28904 3.07764 3.34956 3.02334C3.41007 2.96903 3.48222 2.94188 3.566 2.94188H6.54504ZM4.36662 5.92092V4.32899H3.8546V5.92092H4.36662ZM4.12457 4.08695C4.20836 4.08695 4.27585 4.06057 4.32705 4.00782C4.37826 3.95506 4.40386 3.89145 4.40386 3.81697C4.40386 3.73939 4.37981 3.67345 4.33171 3.61915C4.28361 3.56484 4.21767 3.53769 4.13388 3.53769C4.0501 3.53769 3.9826 3.56406 3.9314 3.61682C3.8802 3.66957 3.8546 3.73629 3.8546 3.81697C3.8546 3.89145 3.87865 3.95506 3.92674 4.00782C3.97484 4.06057 4.04079 4.08695 4.12457 4.08695ZM6.23783 5.92092V4.98997C6.23783 4.75413 6.18197 4.5788 6.07025 4.46398C5.95854 4.34916 5.8189 4.29176 5.65133 4.29176C5.51789 4.29176 5.41626 4.32201 5.34644 4.38252C5.27662 4.44304 5.22309 4.49967 5.18585 4.55242V4.32899H4.67383V5.92092H5.18585V5.0179C5.18585 4.99617 5.18663 4.97368 5.18818 4.9504C5.18973 4.92713 5.19516 4.90618 5.20447 4.88756C5.22309 4.84102 5.25335 4.79835 5.29524 4.75956C5.33713 4.72077 5.39376 4.70137 5.46514 4.70137C5.55823 4.70137 5.62495 4.73318 5.66529 4.7968C5.70563 4.86041 5.7258 4.94342 5.7258 5.04582V5.92092H6.23783Z" fill="#A7A7A7"/>
</g>
<defs>
<clipPath id="clip0_1504_1061">
<rect width="3.57484" height="4.76646" fill="white" transform="matrix(1 0 0 -1 3.25879 7.1123)"/>
</clipPath>
</defs>
</svg>
