<svg width="17" height="17" viewBox="0 0 17 17" fill="none" xmlns="http://www.w3.org/2000/svg">
<g clip-path="url(#clip0_487_363)">
<path d="M12.9312 6.48114V5.50434C12.9312 2.91068 10.8286 0.808105 8.23499 0.808105C5.64132 0.808105 3.53878 2.91068 3.53878 5.50431V6.48111C2.3049 7.11079 1.52763 8.37848 1.52612 9.76376V13.1182C1.52836 15.1551 3.17905 16.8059 5.21599 16.8081H11.254C13.2909 16.8058 14.9416 15.1551 14.9438 13.1182V9.76379C14.9424 8.37851 14.1651 7.11079 12.9312 6.48114ZM8.23499 2.82077C9.71706 2.82077 10.9185 4.02223 10.9185 5.50431V6.07389H5.55145V5.50431C5.55145 4.02223 6.75291 2.82077 8.23499 2.82077ZM12.9312 13.1182C12.9312 14.0445 12.1803 14.7954 11.254 14.7954H5.21602C4.28973 14.7954 3.53882 14.0445 3.53882 13.1182V9.76379C3.53882 8.83749 4.28973 8.08658 5.21602 8.08658H11.254C12.1803 8.08658 12.9312 8.83749 12.9312 9.76379V13.1182Z" fill="#031621"/>
<path d="M7.89964 10.0994H8.57052C9.1263 10.0994 9.57685 10.5499 9.57685 11.1057C9.57685 11.6615 9.1263 12.112 8.57052 12.112H7.89964C7.34386 12.112 6.89331 11.6615 6.89331 11.1057C6.89331 10.5499 7.34386 10.0994 7.89964 10.0994Z" fill="#031621"/>
</g>
<defs>
<clipPath id="clip0_487_363">
<rect width="16" height="16" fill="white" transform="translate(0.234863 0.808105)"/>
</clipPath>
</defs>
</svg>
