<svg id="Layer_1" data-name="Layer 1" xmlns="http://www.w3.org/2000/svg" viewBox="0 0 565.14 213"><defs><style>.cls-1{fill:#fff;}</style></defs><path class="cls-1" d="M732.38,565.71q-21,0-31.21-11.47t-10.26-35.07V451.9h33.31V519q0,10.8,4.52,15.88t13.34,5.07A21.57,21.57,0,0,0,758.52,533Q765,526,765,514.54V451.9h33.31V563.5H765.68V542.11h3.53a40.45,40.45,0,0,1-14.66,17.53Q745.16,565.7,732.38,565.71Z" transform="translate(-233.18 -399.9)"/><polygon class="cls-1" points="441.86 23.53 441.86 55.2 428.15 47.29 428.15 31.45 441.86 23.53"/><path class="cls-1" d="M661.45,415.74l-13.72-7.92h0L634,399.9h0l-13.71,7.92h0l-13.72,7.92-13.71,7.91,13.71,7.92,13.72,7.92h0L634,447.41h0l13.71-7.92h0l13.72-7.92,13.71-7.92ZM634,431.57l-13.71-7.92L634,415.74l13.72,7.91Z" transform="translate(-233.18 -399.9)"/><polygon class="cls-1" points="426.93 47.98 426.93 168.53 426.45 168.81 400.83 183.6 400.83 183.6 375.21 168.81 374.73 168.53 374.73 138.4 374.73 138.4 400.83 153.46 400.83 93.19 374.73 78.12 374.73 47.98 374.73 47.98 400.83 63.05 400.83 63.05 426.93 47.98 426.93 47.98"/><path class="cls-1" d="M233.18,563.5V541.89l66.61-73,.22,7.5H233.18V451.9h96.39v21.39L262.3,547.4l-.22-8.6H332v24.7Z" transform="translate(-233.18 -399.9)"/><path class="cls-1" d="M407.86,565.71q-29.12,0-45.43-15.55t-16.32-42.68q0-17.21,6.95-30.22a51.43,51.43,0,0,1,19.4-20.4q12.46-7.38,29.23-7.39t27.68,7.06A44.9,44.9,0,0,1,446,476.27q5.73,12.69,5.73,29.44v7.72H373.46V497.11h54.25L424,500.2q0-14.11-5.73-21.28t-16.32-7.17q-11.91,0-18.2,8.6t-6.28,24.7v3.31q0,16.54,8.16,24.48t23.16,7.94a62.55,62.55,0,0,0,17.31-2.31,51.85,51.85,0,0,0,15.33-7.39l9,22a60.16,60.16,0,0,1-19,9.27A81.93,81.93,0,0,1,407.86,565.71Z" transform="translate(-233.18 -399.9)"/><path class="cls-1" d="M526.52,612.9a118.42,118.42,0,0,1-28.67-3.19,72.52,72.52,0,0,1-22.5-9.6L482,576.29a59.51,59.51,0,0,0,13,6.51,89,89,0,0,0,14.45,3.86A82,82,0,0,0,523.87,588q14.77,0,22.06-7.06t7.28-20.29V537.47h2a30.28,30.28,0,0,1-13.89,17,45.63,45.63,0,0,1-23.82,6.17q-15,0-26.14-6.72A45.2,45.2,0,0,1,474,534.61q-6.18-12.57-6.18-29.56T474,475.5a45.2,45.2,0,0,1,17.31-19.3q11.15-6.72,26.14-6.73a45,45,0,0,1,23.71,6.18A30.44,30.44,0,0,1,555,472.41l-1.76-.88,2.2-19.63h32.2c-.58,4.71-1,9.48-1.32,14.33s-.44,9.71-.44,14.56v75.87q0,27.35-15.22,41.8T526.52,612.9Zm.66-77.19q11.69,0,18.64-7.94t6.95-22.72q0-14.78-6.95-22.71t-18.64-7.94q-11.91,0-18.85,7.94t-6.95,22.71q0,14.79,6.95,22.72T527.18,535.71Z" transform="translate(-233.18 -399.9)"/></svg>