<svg width="77" height="29" viewBox="0 0 77 29" fill="none" xmlns="http://www.w3.org/2000/svg">
<path d="M67.6053 22.5738C65.7139 22.5738 64.3048 22.0533 63.3778 21.0124C62.4508 19.9714 61.988 18.3798 61.9894 16.2374V7.07874H66.4997V16.2071C66.4997 17.1889 66.7037 17.9097 67.1117 18.3697C67.5197 18.8296 68.1216 19.0603 68.9174 19.0616C69.334 19.0723 69.7479 18.9935 70.1317 18.8303C70.5154 18.6671 70.8601 18.4234 71.1425 18.1155C71.7297 17.4847 72.0233 16.6489 72.0233 15.608V7.07874H76.5337V22.2752H72.1196V19.3622H72.5972C72.1777 20.3336 71.4879 21.1623 70.6108 21.7487C69.7112 22.3144 68.666 22.6013 67.6053 22.5738Z" fill="#031621"/>
<path d="M59.8405 3.20154V7.51457L57.9826 6.43732V4.28081L59.8405 3.20154Z" fill="#031621"/>
<path d="M57.9987 2.1545L56.1408 1.07725L54.2829 0L52.427 1.07725L50.571 2.1545L48.7131 3.23175L50.571 4.31102L52.427 5.38827L54.2829 6.46753L56.1408 5.38827L57.9987 4.31102L59.8566 3.23175L57.9987 2.1545ZM54.2829 4.31102L52.425 3.23175L54.2829 2.1545L56.1408 3.23175L54.2829 4.31102Z" fill="#031621"/>
<path d="M57.8181 6.53217V22.9471L57.7519 22.9854L54.2828 24.9987L50.8138 22.9854L50.7476 22.9471V18.8439H50.7496L54.2828 20.8935V12.687L50.7476 10.6354V6.53015H50.7496L54.2828 8.58177L57.8181 6.53015V6.53217Z" fill="#031621"/>
<path d="M-6.10352e-05 22.2752V19.3319L9.0287 9.39058L9.0588 10.4113H-6.10352e-05V7.07874H13.0535V9.99175L3.9425 20.0784L3.9124 18.9063H13.3806V22.2712L-6.10352e-05 22.2752Z" fill="#031621"/>
<path d="M23.6573 22.5738C21.0289 22.5738 18.9777 21.8684 17.5037 20.4576C16.0296 19.0469 15.294 17.1096 15.2966 14.6457C15.2662 13.2174 15.5896 11.8038 16.2376 10.5324C16.8388 9.378 17.7492 8.41576 18.866 7.75456C20.0694 7.06181 21.4383 6.71302 22.8246 6.7459C24.3374 6.7459 25.5868 7.06599 26.5726 7.70615C27.5699 8.36125 28.354 9.29626 28.8277 10.3952C29.368 11.6604 29.6328 13.0271 29.6042 14.4037V15.4547H18.9964V13.2356H26.3458L25.8362 13.6552C25.8362 12.3736 25.5774 11.4073 25.0597 10.7563C24.5421 10.1054 23.8064 9.78062 22.8527 9.78197C21.7826 9.78197 20.9614 10.172 20.3889 10.952C19.8164 11.732 19.5321 12.8537 19.5362 14.3169V14.7668C19.5362 16.2677 19.9047 17.3785 20.6417 18.0994C21.3787 18.8202 22.424 19.1807 23.7777 19.1807C24.5703 19.1866 25.3598 19.0806 26.1231 18.866C26.8662 18.6479 27.568 18.307 28.1997 17.8573L29.4236 20.8611C28.6483 21.4305 27.7788 21.8574 26.8555 22.1219C25.8171 22.4288 24.7396 22.5811 23.6573 22.5738Z" fill="#031621"/>
<path d="M39.7265 28.999C38.4189 29.0135 37.1144 28.8672 35.8421 28.5632C34.7606 28.305 33.7307 27.8636 32.7964 27.258L33.6933 24.0142C34.2419 24.3813 34.8336 24.6787 35.4549 24.8998C36.0912 25.1298 36.7456 25.3059 37.4111 25.4263C38.0567 25.5438 38.7113 25.6039 39.3674 25.6058C40.7049 25.6058 41.7008 25.2857 42.3549 24.6456C43.009 24.0054 43.3373 23.0842 43.34 21.8819V18.7308H43.6089C43.2915 19.7111 42.6199 20.5361 41.7269 21.0427C40.7485 21.6151 39.6324 21.9061 38.5006 21.8839C37.2592 21.914 36.034 21.5969 34.9613 20.968C33.9421 20.3428 33.1274 19.4311 32.6179 18.3455C32.066 17.0767 31.7811 15.7068 31.7811 14.3219C31.7811 12.9371 32.066 11.5672 32.6179 10.2984C33.1274 9.21277 33.9421 8.30104 34.9613 7.67588C36.034 7.04699 37.2592 6.72993 38.5006 6.76002C39.6274 6.73714 40.7385 7.0283 41.7108 7.60124C42.5901 8.1059 43.2542 8.91792 43.5768 9.88283L43.338 9.76381L43.6369 7.09086H47.9968C47.9193 7.73237 47.8597 8.38261 47.8183 9.04161C47.7781 9.70329 47.7581 10.363 47.7581 11.0246V21.3553C47.7581 23.8393 47.0712 25.7363 45.6975 27.0462C44.3238 28.3561 42.3335 29.007 39.7265 28.999ZM39.8148 18.4887C40.8701 18.4887 41.7115 18.1283 42.3388 17.4074C42.9662 16.6866 43.2798 15.6557 43.2798 14.3149C43.2798 12.97 42.9662 11.9385 42.3388 11.2203C41.7115 10.5021 40.8701 10.1417 39.8148 10.139C38.7447 10.139 37.894 10.4995 37.2626 11.2203C36.6313 11.9412 36.3176 12.9727 36.3217 14.3149C36.3217 15.6598 36.6353 16.6906 37.2626 17.4074C37.89 18.1243 38.7407 18.4854 39.8148 18.4907V18.4887Z" fill="#031621"/>
</svg>
