<svg width="191" height="200" viewBox="0 0 191 200" fill="none" xmlns="http://www.w3.org/2000/svg">
<path d="M118.75 175C118.75 176.658 118.092 178.247 116.92 179.419C115.747 180.592 114.158 181.25 112.5 181.25H87.5001C85.8425 181.25 84.2528 180.592 83.0807 179.419C81.9086 178.247 81.2501 176.658 81.2501 175C81.2501 173.342 81.9086 171.753 83.0807 170.581C84.2528 169.408 85.8425 168.75 87.5001 168.75H112.5C114.158 168.75 115.747 169.408 116.92 170.581C118.092 171.753 118.75 173.342 118.75 175ZM100 87.5C101.854 87.5 103.667 86.9502 105.209 85.92C106.75 84.8899 107.952 83.4257 108.661 81.7126C109.371 79.9996 109.557 78.1146 109.195 76.296C108.833 74.4774 107.94 72.807 106.629 71.4959C105.318 70.1847 103.648 69.2919 101.829 68.9301C100.011 68.5684 98.1255 68.754 96.4125 69.4636C94.6994 70.1732 93.2352 71.3748 92.2051 72.9165C91.1749 74.4582 90.6251 76.2708 90.6251 78.125C90.6251 80.6114 91.6128 82.996 93.371 84.7541C95.1291 86.5123 97.5137 87.5 100 87.5ZM174.703 121.742L165.047 165.203C164.589 167.267 163.615 169.181 162.216 170.766C160.817 172.351 159.039 173.555 157.048 174.266C155.057 174.977 152.918 175.172 150.832 174.831C148.745 174.491 146.779 173.627 145.117 172.32L123.836 156.25H76.1798L54.8829 172.32C53.2211 173.627 51.255 174.491 49.1685 174.831C47.082 175.172 44.9432 174.977 42.9523 174.266C40.9614 173.555 39.1833 172.351 37.7844 170.766C36.3854 169.181 35.4114 167.267 34.9532 165.203L25.297 121.742C24.8874 119.877 24.9081 117.943 25.3575 116.087C25.8069 114.231 26.6733 112.502 27.8907 111.031L50.2032 84.2656C50.9513 74.4291 53.2095 64.7664 56.8986 55.6172C66.9767 30.3515 85.0236 14.5 92.3439 8.85935C94.535 7.16157 97.2282 6.24023 100 6.24023C102.772 6.24023 105.465 7.16157 107.656 8.85935C114.953 14.5 133.024 30.3515 143.102 55.6172C146.791 64.7664 149.049 74.4291 149.797 84.2656L172.109 111.031C173.327 112.502 174.193 114.231 174.643 116.087C175.092 117.943 175.113 119.877 174.703 121.742ZM77.6798 143.75H122.32C138.82 114.422 141.906 86.3437 131.492 60.25C122.305 37.2187 105.07 22.6562 100 18.75C94.9142 22.6562 77.6798 37.2187 68.4923 60.25C58.0939 86.3437 61.1798 114.422 77.6798 143.75ZM65.961 148.32C57.5496 133.034 52.4454 118.01 50.6486 103.25L37.5001 119.031L47.1564 162.5L47.297 162.398L65.961 148.32ZM162.5 119.031L149.352 103.25C147.57 117.979 142.477 133.003 134.07 148.32L152.703 162.383L152.844 162.484L162.5 119.031Z" fill="url(#paint0_linear_458_1383)"/>
<defs>
<linearGradient id="paint0_linear_458_1383" x1="100" y1="6.24023" x2="100" y2="181.25" gradientUnits="userSpaceOnUse">
<stop stop-color="#0FA958"/>
<stop offset="1" stop-color="#064323"/>
</linearGradient>
</defs>
</svg>
