<svg width="24" height="24" viewBox="0 0 24 24" fill="none" xmlns="http://www.w3.org/2000/svg">
<g clip-path="url(#clip0_1455_39)">
<path d="M23.0003 11C22.7351 11 22.4807 10.8946 22.2932 10.7071C22.1057 10.5196 22.0003 10.2652 22.0003 10C21.9982 7.87892 21.1546 5.84532 19.6548 4.34549C18.155 2.84565 16.1214 2.00212 14.0003 2C13.7351 2 13.4807 1.89464 13.2932 1.70711C13.1057 1.51957 13.0003 1.26522 13.0003 1C13.0003 0.734785 13.1057 0.480431 13.2932 0.292894C13.4807 0.105358 13.7351 1.09023e-06 14.0003 1.09023e-06C16.6516 0.00291269 19.1934 1.05742 21.0681 2.93215C22.9429 4.80688 23.9974 7.34873 24.0003 10C24.0003 10.2652 23.8949 10.5196 23.7074 10.7071C23.5199 10.8946 23.2655 11 23.0003 11ZM20.0003 10C20.0003 8.4087 19.3682 6.88258 18.2429 5.75736C17.1177 4.63214 15.5916 4 14.0003 4C13.7351 4 13.4807 4.10536 13.2932 4.29289C13.1057 4.48043 13.0003 4.73479 13.0003 5C13.0003 5.26522 13.1057 5.51957 13.2932 5.70711C13.4807 5.89464 13.7351 6 14.0003 6C15.0612 6 16.0786 6.42143 16.8287 7.17157C17.5789 7.92172 18.0003 8.93914 18.0003 10C18.0003 10.2652 18.1057 10.5196 18.2932 10.7071C18.4807 10.8946 18.7351 11 19.0003 11C19.2655 11 19.5199 10.8946 19.7074 10.7071C19.8949 10.5196 20.0003 10.2652 20.0003 10ZM22.1833 22.164L23.0933 21.115C23.6725 20.5339 23.9977 19.7469 23.9977 18.9265C23.9977 18.1061 23.6725 17.3191 23.0933 16.738C23.0623 16.707 20.6563 14.856 20.6563 14.856C20.0788 14.3063 19.3118 14.0003 18.5146 14.0014C17.7174 14.0025 16.9512 14.3107 16.3753 14.862L14.4693 16.468C12.9135 15.8241 11.5002 14.8792 10.3106 13.6875C9.12098 12.4959 8.17851 11.0809 7.5373 9.524L9.1373 7.624C9.68901 7.04817 9.99759 6.28188 9.9989 5.4844C10.0002 4.68693 9.69413 3.91963 9.1443 3.342C9.1443 3.342 7.2913 0.939001 7.2603 0.908001C6.68975 0.333749 5.91618 0.00702311 5.10672 -0.00158413C4.29727 -0.0101914 3.51693 0.300011 2.9343 0.862001L1.7843 1.862C-5.0097 9.744 9.62029 24.261 17.7623 24C18.5845 24.0048 19.3993 23.8448 20.1586 23.5294C20.9179 23.2141 21.6064 22.7498 22.1833 22.164Z" fill="black"/>
</g>
<defs>
<clipPath id="clip0_1455_39">
<rect width="24" height="24" fill="white"/>
</clipPath>
</defs>
</svg>
