<svg width="17" height="17" viewBox="0 0 17 17" fill="none" xmlns="http://www.w3.org/2000/svg">
<g clip-path="url(#clip0_487_367)">
<path d="M15.5681 8.14139C15.3913 8.14139 15.2218 8.07115 15.0967 7.94613C14.9717 7.8211 14.9015 7.65154 14.9015 7.47472C14.9001 6.06067 14.3377 4.70494 13.3378 3.70505C12.3379 2.70516 10.9822 2.1428 9.56815 2.14139C9.39134 2.14139 9.22177 2.07115 9.09674 1.94613C8.97172 1.8211 8.90148 1.65154 8.90148 1.47472C8.90148 1.29791 8.97172 1.12834 9.09674 1.00332C9.22177 0.878296 9.39134 0.808058 9.56815 0.808058C11.3357 0.809999 13.0302 1.513 14.2801 2.76282C15.5299 4.01265 16.2329 5.70721 16.2348 7.47472C16.2348 7.65154 16.1646 7.8211 16.0396 7.94613C15.9145 8.07115 15.745 8.14139 15.5681 8.14139ZM13.5681 7.47472C13.5681 6.41386 13.1467 5.39644 12.3966 4.6463C11.6464 3.89615 10.629 3.47472 9.56815 3.47472C9.39134 3.47472 9.22177 3.54496 9.09674 3.66999C8.97172 3.79501 8.90148 3.96458 8.90148 4.14139C8.90148 4.3182 8.97172 4.48777 9.09674 4.6128C9.22177 4.73782 9.39134 4.80806 9.56815 4.80806C10.2754 4.80806 10.9537 5.08901 11.4538 5.58911C11.9539 6.0892 12.2348 6.76748 12.2348 7.47472C12.2348 7.65154 12.3051 7.8211 12.4301 7.94613C12.5551 8.07115 12.7247 8.14139 12.9015 8.14139C13.0783 8.14139 13.2479 8.07115 13.3729 7.94613C13.4979 7.8211 13.5681 7.65154 13.5681 7.47472ZM15.0235 15.5841L15.6301 14.8847C16.0163 14.4973 16.2331 13.9727 16.2331 13.4257C16.2331 12.8788 16.0163 12.3541 15.6301 11.9667C15.6095 11.9461 14.0055 10.7121 14.0055 10.7121C13.6205 10.3456 13.1092 10.1416 12.5777 10.1423C12.0462 10.1431 11.5354 10.3485 11.1515 10.7161L9.88082 11.7867C8.8436 11.3575 7.90141 10.7275 7.10834 9.93307C6.31527 9.13863 5.68696 8.19535 5.25948 7.15739L6.32615 5.89072C6.69396 5.50684 6.89968 4.99598 6.90055 4.46433C6.90142 3.93268 6.69737 3.42114 6.33082 3.03606C6.33082 3.03606 5.09548 1.43406 5.07482 1.41339C4.69445 1.03056 4.17874 0.812739 3.6391 0.807001C3.09946 0.801263 2.57924 1.00806 2.19082 1.38272L1.42415 2.04939C-3.10518 7.30406 6.64815 16.9821 12.0761 16.8081C12.6243 16.8112 13.1675 16.7046 13.6737 16.4943C14.1799 16.2841 14.6389 15.9746 15.0235 15.5841Z" fill="#031621"/>
</g>
<defs>
<clipPath id="clip0_487_367">
<rect width="16" height="16" fill="white" transform="translate(0.234863 0.808105)"/>
</clipPath>
</defs>
</svg>
