<svg width="56" height="56" viewBox="0 0 56 56" fill="none" xmlns="http://www.w3.org/2000/svg">
<g clip-path="url(#clip0_624_566)">
<path d="M52.6474 3.35315C47.1081 -2.18619 38.8364 -0.835188 28.0004 7.31981C17.1668 -0.835188 8.89742 -2.18852 3.35342 3.35315C-2.19058 8.89481 -0.834915 17.1641 7.32008 28.0001C-0.834915 38.8338 -2.18825 47.1055 3.35342 52.6471C4.39244 53.7245 5.641 54.5778 7.02223 55.1545C8.40345 55.7311 9.8881 56.0189 11.3848 56.0001C15.9838 56.0001 21.5371 53.5455 28.0004 48.6828C34.4614 53.5455 40.0147 56.0001 44.6161 56.0001C46.1127 56.0189 47.5974 55.7311 48.9786 55.1545C50.3598 54.5778 51.6084 53.7245 52.6474 52.6471C58.1891 47.1055 56.8474 38.8361 48.6808 28.0001C56.8358 17.1641 58.1891 8.89481 52.6474 3.35315ZM44.5321 4.73215C45.4238 4.7053 46.3116 4.86096 47.1409 5.18958C47.9703 5.5182 48.7238 6.01284 49.3551 6.64314C53.4291 10.7195 50.4191 17.6401 45.6497 24.2341C43.6944 21.9288 41.4917 19.5325 38.9811 17.0195C36.4704 14.5065 34.0671 12.3038 31.7618 10.3461C36.1904 7.14248 40.7684 4.73215 44.5321 4.73215ZM42.7261 28.0001C40.3671 30.8468 37.8681 33.5091 35.6888 35.7001C33.5094 37.8911 30.8471 40.3668 28.0004 42.7258C25.1538 40.3668 22.4914 37.8678 20.3121 35.7001C18.1328 33.5325 15.6338 30.8468 13.2748 28.0001C15.6338 25.1535 18.1328 22.4888 20.3121 20.3118C22.4914 18.1348 25.1538 15.6335 28.0004 13.2721C30.8471 15.6288 33.5094 18.1325 35.7004 20.3118C37.8914 22.4911 40.3671 25.1535 42.7261 28.0001ZM6.64575 6.64548C7.27638 6.01408 8.02967 5.51856 8.85917 5.18949C9.68866 4.86042 10.5768 4.70477 11.4688 4.73215C15.2324 4.73215 19.8104 7.14248 24.2391 10.3461C21.9338 12.3038 19.5351 14.5065 17.0198 17.0195C14.5044 19.5325 12.3064 21.9195 10.3488 24.2341C5.58175 17.6401 2.56708 10.7195 6.64575 6.64548ZM6.64575 49.3455C2.57175 45.2715 5.58175 38.3485 10.3488 31.7568C12.3064 34.0621 14.5091 36.4585 17.0198 38.9715C19.5304 41.4845 21.9198 43.6918 24.2274 45.6471C17.6358 50.4211 10.7151 53.4335 6.64575 49.3548V49.3455ZM49.3457 49.3455C45.2741 53.4148 38.3558 50.4118 31.7641 45.6471C34.0648 43.6918 36.4634 41.4775 38.9717 38.9715C41.4801 36.4655 43.6851 34.0715 45.6404 31.7568C50.4191 38.3601 53.4338 45.2808 49.3551 49.3548L49.3457 49.3455Z" fill="url(#paint0_linear_624_566)" fill-opacity="0.8"/>
<path d="M27.9997 32.6666C30.577 32.6666 32.6663 30.5772 32.6663 27.9999C32.6663 25.4226 30.577 23.3333 27.9997 23.3333C25.4223 23.3333 23.333 25.4226 23.333 27.9999C23.333 30.5772 25.4223 32.6666 27.9997 32.6666Z" fill="url(#paint1_linear_624_566)" fill-opacity="0.8"/>
</g>
<defs>
<linearGradient id="paint0_linear_624_566" x1="28.0016" y1="0.0065918" x2="28.0016" y2="56.001" gradientUnits="userSpaceOnUse">
<stop stop-color="#4F0056"/>
<stop offset="1" stop-color="#612067"/>
</linearGradient>
<linearGradient id="paint1_linear_624_566" x1="27.9997" y1="23.3333" x2="27.9997" y2="32.6666" gradientUnits="userSpaceOnUse">
<stop stop-color="#4F0056"/>
<stop offset="1" stop-color="#612067"/>
</linearGradient>
<clipPath id="clip0_624_566">
<rect width="56" height="56" fill="white"/>
</clipPath>
</defs>
</svg>
