<svg width="156" height="114" viewBox="0 0 156 114" fill="none" xmlns="http://www.w3.org/2000/svg">
<rect width="156" height="114" fill="#F5F5F5"/>
<g id="Dashboard" clip-path="url(#clip0_0_1)">
<rect width="1440" height="3686" transform="translate(-194 -626)" fill="url(#paint0_linear_0_1)"/>
<path id="Rectangle 148" d="M-194 -197C368.355 -197 578.5 -118.88 1246 -197V3251H-194V-197Z" fill="#B0F9F4"/>
<path id="Ellipse 58" d="M362 466.947C362 610.541 245.594 726.947 102 726.947C-41.594 726.947 -158 610.541 -158 466.947C-158 323.353 36.5 434.947 102 206.947C167.5 -21.0533 362 323.353 362 466.947Z" fill="#3AFFF3" fill-opacity="0.31"/>
<g id="Group 8">
<rect id="Rectangle 189" x="-10" y="7" width="255" height="300" rx="20" fill="white"/>
<rect id="Rectangle 200" x="3" y="-26" width="230" height="140" rx="20" fill="#031621"/>
<path id="Rectangle 207" d="M1.99994 14C1.99994 14 -17.5001 -17.5 102 14C221.5 45.5 102 114 102 114H21.9999C10.9542 114 1.99994 105.046 1.99994 94V14Z" fill="#D9D9D9" fill-opacity="0.2"/>
<path id="Command of evidence" d="M60.6619 26.4347H57.4744C57.3835 25.9119 57.2159 25.4489 56.9716 25.0455C56.7273 24.6364 56.4233 24.2898 56.0597 24.0057C55.696 23.7216 55.2813 23.5085 54.8153 23.3665C54.3551 23.2188 53.858 23.1449 53.3239 23.1449C52.375 23.1449 51.5341 23.3835 50.8011 23.8608C50.0682 24.3324 49.4943 25.0256 49.0795 25.9403C48.6648 26.8494 48.4574 27.9602 48.4574 29.2727C48.4574 30.608 48.6648 31.733 49.0795 32.6477C49.5 33.5568 50.0739 34.2443 50.8011 34.7102C51.5341 35.1705 52.3722 35.4006 53.3153 35.4006C53.8381 35.4006 54.3267 35.3324 54.7812 35.196C55.2415 35.054 55.6534 34.8466 56.017 34.5739C56.3864 34.3011 56.696 33.9659 56.946 33.5682C57.2017 33.1705 57.3778 32.7159 57.4744 32.2045L60.6619 32.2216C60.5426 33.0511 60.2841 33.8295 59.8864 34.5568C59.4943 35.2841 58.9801 35.9261 58.3438 36.483C57.7074 37.0341 56.9631 37.4659 56.1108 37.7784C55.2585 38.0852 54.3125 38.2386 53.2727 38.2386C51.7386 38.2386 50.3693 37.8835 49.1648 37.1733C47.9602 36.4631 47.0114 35.4375 46.3182 34.0966C45.625 32.7557 45.2784 31.1477 45.2784 29.2727C45.2784 27.392 45.6278 25.7841 46.3267 24.4489C47.0256 23.108 47.9773 22.0824 49.1818 21.3722C50.3864 20.6619 51.75 20.3068 53.2727 20.3068C54.2443 20.3068 55.1477 20.4432 55.983 20.7159C56.8182 20.9886 57.5625 21.3892 58.2159 21.9176C58.8693 22.4403 59.4063 23.0824 59.8267 23.8438C60.2528 24.5994 60.5313 25.4631 60.6619 26.4347ZM69.1314 38.2557C67.853 38.2557 66.745 37.9744 65.8075 37.4119C64.87 36.8494 64.1428 36.0625 63.6257 35.0511C63.1143 34.0398 62.8587 32.858 62.8587 31.5057C62.8587 30.1534 63.1143 28.9687 63.6257 27.9517C64.1428 26.9347 64.87 26.1449 65.8075 25.5824C66.745 25.0199 67.853 24.7386 69.1314 24.7386C70.4098 24.7386 71.5178 25.0199 72.4553 25.5824C73.3928 26.1449 74.1172 26.9347 74.6286 27.9517C75.1456 28.9687 75.4041 30.1534 75.4041 31.5057C75.4041 32.858 75.1456 34.0398 74.6286 35.0511C74.1172 36.0625 73.3928 36.8494 72.4553 37.4119C71.5178 37.9744 70.4098 38.2557 69.1314 38.2557ZM69.1484 35.7841C69.8416 35.7841 70.4212 35.5937 70.8871 35.2131C71.353 34.8267 71.6996 34.3097 71.9268 33.6619C72.1598 33.0142 72.2763 32.2926 72.2763 31.4972C72.2763 30.696 72.1598 29.9716 71.9268 29.3239C71.6996 28.6705 71.353 28.1506 70.8871 27.7642C70.4212 27.3778 69.8416 27.1847 69.1484 27.1847C68.4382 27.1847 67.8473 27.3778 67.3757 27.7642C66.9098 28.1506 66.5604 28.6705 66.3274 29.3239C66.1001 29.9716 65.9865 30.696 65.9865 31.4972C65.9865 32.2926 66.1001 33.0142 66.3274 33.6619C66.5604 34.3097 66.9098 34.8267 67.3757 35.2131C67.8473 35.5937 68.4382 35.7841 69.1484 35.7841ZM78.0227 38V24.9091H80.9716V27.1335H81.125C81.3977 26.3835 81.8494 25.7983 82.4801 25.3778C83.1108 24.9517 83.8636 24.7386 84.7386 24.7386C85.625 24.7386 86.3722 24.9545 86.9801 25.3864C87.5938 25.8125 88.0256 26.3949 88.2756 27.1335H88.4119C88.7017 26.4062 89.1903 25.8267 89.8778 25.3949C90.571 24.9574 91.392 24.7386 92.3409 24.7386C93.5455 24.7386 94.5284 25.1193 95.2898 25.8807C96.0511 26.642 96.4318 27.7528 96.4318 29.2131V38H93.3381V29.6903C93.3381 28.8778 93.1222 28.2841 92.6903 27.9091C92.2585 27.5284 91.7301 27.3381 91.1051 27.3381C90.3608 27.3381 89.7784 27.571 89.358 28.0369C88.9432 28.4972 88.7358 29.0966 88.7358 29.8352V38H85.7102V29.5625C85.7102 28.8864 85.5057 28.3466 85.0966 27.9432C84.6932 27.5398 84.1648 27.3381 83.5114 27.3381C83.0682 27.3381 82.6648 27.4517 82.3011 27.679C81.9375 27.9006 81.6477 28.2159 81.4318 28.625C81.2159 29.0284 81.108 29.5 81.108 30.0398V38H78.0227ZM99.5618 38V24.9091H102.511V27.1335H102.664C102.937 26.3835 103.388 25.7983 104.019 25.3778C104.65 24.9517 105.403 24.7386 106.278 24.7386C107.164 24.7386 107.911 24.9545 108.519 25.3864C109.133 25.8125 109.565 26.3949 109.815 27.1335H109.951C110.241 26.4062 110.729 25.8267 111.417 25.3949C112.11 24.9574 112.931 24.7386 113.88 24.7386C115.085 24.7386 116.067 25.1193 116.829 25.8807C117.59 26.642 117.971 27.7528 117.971 29.2131V38H114.877V29.6903C114.877 28.8778 114.661 28.2841 114.229 27.9091C113.798 27.5284 113.269 27.3381 112.644 27.3381C111.9 27.3381 111.317 27.571 110.897 28.0369C110.482 28.4972 110.275 29.0966 110.275 29.8352V38H107.249V29.5625C107.249 28.8864 107.045 28.3466 106.636 27.9432C106.232 27.5398 105.704 27.3381 105.05 27.3381C104.607 27.3381 104.204 27.4517 103.84 27.679C103.477 27.9006 103.187 28.2159 102.971 28.625C102.755 29.0284 102.647 29.5 102.647 30.0398V38H99.5618ZM124.868 38.2642C124.038 38.2642 123.291 38.1165 122.626 37.821C121.967 37.5199 121.445 37.0767 121.058 36.4915C120.678 35.9062 120.487 35.1847 120.487 34.3267C120.487 33.5881 120.624 32.9773 120.896 32.4943C121.169 32.0114 121.541 31.625 122.013 31.3352C122.484 31.0455 123.016 30.8267 123.607 30.679C124.203 30.5256 124.82 30.4148 125.456 30.3466C126.223 30.267 126.845 30.196 127.322 30.1335C127.8 30.0653 128.146 29.9631 128.362 29.8267C128.584 29.6847 128.695 29.4659 128.695 29.1705V29.1193C128.695 28.4773 128.504 27.9801 128.124 27.6278C127.743 27.2756 127.195 27.0994 126.479 27.0994C125.723 27.0994 125.124 27.2642 124.68 27.5938C124.243 27.9233 123.947 28.3125 123.794 28.7614L120.913 28.3523C121.141 27.5568 121.516 26.892 122.038 26.358C122.561 25.8182 123.2 25.4148 123.956 25.1477C124.712 24.875 125.547 24.7386 126.462 24.7386C127.092 24.7386 127.72 24.8125 128.345 24.9602C128.97 25.108 129.541 25.3523 130.058 25.6932C130.575 26.0284 130.99 26.4858 131.303 27.0653C131.621 27.6449 131.78 28.3693 131.78 29.2386V38H128.814V36.2017H128.712C128.524 36.5653 128.26 36.9062 127.919 37.2244C127.584 37.5369 127.161 37.7898 126.649 37.983C126.143 38.1705 125.55 38.2642 124.868 38.2642ZM125.669 35.9972C126.288 35.9972 126.825 35.875 127.28 35.6307C127.734 35.3807 128.084 35.0511 128.328 34.642C128.578 34.233 128.703 33.7869 128.703 33.304V31.7614C128.607 31.8409 128.442 31.9148 128.209 31.983C127.982 32.0511 127.726 32.1108 127.442 32.1619C127.158 32.2131 126.876 32.2585 126.598 32.2983C126.32 32.3381 126.078 32.3722 125.874 32.4006C125.413 32.4631 125.001 32.5653 124.638 32.7074C124.274 32.8494 123.987 33.0483 123.777 33.304C123.567 33.554 123.462 33.8778 123.462 34.2756C123.462 34.8438 123.669 35.2727 124.084 35.5625C124.499 35.8523 125.027 35.9972 125.669 35.9972ZM137.967 30.3295V38H134.882V24.9091H137.831V27.1335H137.984C138.286 26.4006 138.766 25.8182 139.425 25.3864C140.089 24.9545 140.911 24.7386 141.888 24.7386C142.791 24.7386 143.578 24.9318 144.249 25.3182C144.925 25.7045 145.447 26.2642 145.817 26.9972C146.192 27.7301 146.376 28.6193 146.371 29.6648V38H143.286V30.142C143.286 29.267 143.058 28.5824 142.604 28.0881C142.155 27.5937 141.533 27.3466 140.737 27.3466C140.197 27.3466 139.717 27.4659 139.297 27.7045C138.882 27.9375 138.555 28.2756 138.317 28.7188C138.084 29.1619 137.967 29.6989 137.967 30.3295ZM154.365 38.2301C153.337 38.2301 152.416 37.9659 151.604 37.4375C150.791 36.9091 150.149 36.142 149.678 35.1364C149.206 34.1307 148.97 32.9091 148.97 31.4716C148.97 30.017 149.209 28.7898 149.686 27.7898C150.169 26.7841 150.82 26.0256 151.638 25.5142C152.456 24.9972 153.368 24.7386 154.374 24.7386C155.141 24.7386 155.771 24.8693 156.266 25.1307C156.76 25.3864 157.152 25.696 157.442 26.0597C157.732 26.4176 157.956 26.7557 158.115 27.0739H158.243V20.5455H161.337V38H158.303V35.9375H158.115C157.956 36.2557 157.726 36.5937 157.425 36.9517C157.124 37.304 156.726 37.6051 156.232 37.8551C155.737 38.1051 155.115 38.2301 154.365 38.2301ZM155.226 35.6989C155.879 35.6989 156.436 35.5227 156.896 35.1705C157.357 34.8125 157.706 34.3153 157.945 33.679C158.183 33.0426 158.303 32.3011 158.303 31.4545C158.303 30.608 158.183 29.8722 157.945 29.2472C157.712 28.6222 157.365 28.1364 156.905 27.7898C156.45 27.4432 155.891 27.2699 155.226 27.2699C154.538 27.2699 153.964 27.4489 153.504 27.8068C153.044 28.1648 152.697 28.6591 152.464 29.2898C152.232 29.9205 152.115 30.642 152.115 31.4545C152.115 32.2727 152.232 33.0028 152.464 33.6449C152.703 34.2812 153.053 34.7841 153.513 35.1534C153.979 35.517 154.55 35.6989 155.226 35.6989ZM176.288 38.2557C175.009 38.2557 173.901 37.9744 172.964 37.4119C172.026 36.8494 171.299 36.0625 170.782 35.0511C170.271 34.0398 170.015 32.858 170.015 31.5057C170.015 30.1534 170.271 28.9687 170.782 27.9517C171.299 26.9347 172.026 26.1449 172.964 25.5824C173.901 25.0199 175.009 24.7386 176.288 24.7386C177.566 24.7386 178.674 25.0199 179.612 25.5824C180.549 26.1449 181.273 26.9347 181.785 27.9517C182.302 28.9687 182.56 30.1534 182.56 31.5057C182.56 32.858 182.302 34.0398 181.785 35.0511C181.273 36.0625 180.549 36.8494 179.612 37.4119C178.674 37.9744 177.566 38.2557 176.288 38.2557ZM176.305 35.7841C176.998 35.7841 177.577 35.5937 178.043 35.2131C178.509 34.8267 178.856 34.3097 179.083 33.6619C179.316 33.0142 179.433 32.2926 179.433 31.4972C179.433 30.696 179.316 29.9716 179.083 29.3239C178.856 28.6705 178.509 28.1506 178.043 27.7642C177.577 27.3778 176.998 27.1847 176.305 27.1847C175.594 27.1847 175.004 27.3778 174.532 27.7642C174.066 28.1506 173.717 28.6705 173.484 29.3239C173.256 29.9716 173.143 30.696 173.143 31.4972C173.143 32.2926 173.256 33.0142 173.484 33.6619C173.717 34.3097 174.066 34.8267 174.532 35.2131C175.004 35.5937 175.594 35.7841 176.305 35.7841ZM191.81 24.9091V27.2955H184.071V24.9091H191.81ZM186.006 38V23.6733C186.006 22.7926 186.188 22.0597 186.551 21.4744C186.92 20.8892 187.415 20.4517 188.034 20.1619C188.653 19.8722 189.341 19.7273 190.097 19.7273C190.631 19.7273 191.105 19.7699 191.52 19.8551C191.935 19.9403 192.241 20.017 192.44 20.0852L191.827 22.4716C191.696 22.4318 191.531 22.392 191.332 22.3523C191.134 22.3068 190.912 22.2841 190.668 22.2841C190.094 22.2841 189.688 22.4233 189.449 22.7017C189.216 22.9744 189.099 23.3665 189.099 23.8778V38H186.006ZM51.3807 67.2557C50.0682 67.2557 48.9347 66.983 47.9801 66.4375C47.0313 65.8864 46.3011 65.108 45.7898 64.1023C45.2784 63.0909 45.0227 61.9006 45.0227 60.5312C45.0227 59.1847 45.2784 58.0028 45.7898 56.9858C46.3068 55.9631 47.0284 55.1676 47.9545 54.5994C48.8807 54.0256 49.9688 53.7386 51.2188 53.7386C52.0256 53.7386 52.7869 53.8693 53.5028 54.1307C54.2244 54.3864 54.8608 54.7841 55.4119 55.3239C55.9688 55.8636 56.4063 56.5511 56.7244 57.3864C57.0426 58.2159 57.2017 59.2045 57.2017 60.3523V61.2983H46.4716V59.2188H54.2443C54.2386 58.6278 54.1108 58.1023 53.8608 57.642C53.6108 57.1761 53.2614 56.8097 52.8125 56.5426C52.3693 56.2756 51.8523 56.142 51.2614 56.142C50.6307 56.142 50.0767 56.2955 49.5994 56.6023C49.1222 56.9034 48.75 57.3011 48.483 57.7955C48.2216 58.2841 48.0881 58.821 48.0824 59.4062V61.2216C48.0824 61.983 48.2216 62.6364 48.5 63.1818C48.7784 63.7216 49.1676 64.1364 49.6676 64.4261C50.1676 64.7102 50.7528 64.8523 51.4233 64.8523C51.8722 64.8523 52.2784 64.7898 52.642 64.6648C53.0057 64.5341 53.321 64.3438 53.5881 64.0938C53.8551 63.8438 54.0568 63.5341 54.1932 63.1648L57.0739 63.4886C56.892 64.25 56.5455 64.9148 56.0341 65.483C55.5284 66.0455 54.8807 66.483 54.0909 66.7955C53.3011 67.1023 52.3977 67.2557 51.3807 67.2557ZM71.13 53.9091L66.468 67H63.0589L58.397 53.9091H61.6868L64.6953 63.6335H64.8317L67.8487 53.9091H71.13ZM73.2649 67V53.9091H76.3501V67H73.2649ZM74.8161 52.0511C74.3274 52.0511 73.907 51.8892 73.5547 51.5653C73.2024 51.2358 73.0263 50.8409 73.0263 50.3807C73.0263 49.9148 73.2024 49.5199 73.5547 49.196C73.907 48.8665 74.3274 48.7017 74.8161 48.7017C75.3104 48.7017 75.7308 48.8665 76.0774 49.196C76.4297 49.5199 76.6058 49.9148 76.6058 50.3807C76.6058 50.8409 76.4297 51.2358 76.0774 51.5653C75.7308 51.8892 75.3104 52.0511 74.8161 52.0511ZM84.3807 67.2301C83.3523 67.2301 82.4318 66.9659 81.6193 66.4375C80.8068 65.9091 80.1648 65.142 79.6932 64.1364C79.2216 63.1307 78.9858 61.9091 78.9858 60.4716C78.9858 59.017 79.2244 57.7898 79.7017 56.7898C80.1847 55.7841 80.8352 55.0256 81.6534 54.5142C82.4716 53.9972 83.3835 53.7386 84.3892 53.7386C85.1563 53.7386 85.7869 53.8693 86.2812 54.1307C86.7756 54.3864 87.1676 54.696 87.4574 55.0597C87.7472 55.4176 87.9716 55.7557 88.1307 56.0739H88.2585V49.5455H91.3523V67H88.3182V64.9375H88.1307C87.9716 65.2557 87.7415 65.5937 87.4403 65.9517C87.1392 66.304 86.7415 66.6051 86.2472 66.8551C85.7528 67.1051 85.1307 67.2301 84.3807 67.2301ZM85.2415 64.6989C85.8949 64.6989 86.4517 64.5227 86.9119 64.1705C87.3722 63.8125 87.7216 63.3153 87.9602 62.679C88.1989 62.0426 88.3182 61.3011 88.3182 60.4545C88.3182 59.608 88.1989 58.8722 87.9602 58.2472C87.7273 57.6222 87.3807 57.1364 86.9205 56.7898C86.4659 56.4432 85.9063 56.2699 85.2415 56.2699C84.554 56.2699 83.9801 56.4489 83.5199 56.8068C83.0597 57.1648 82.7131 57.6591 82.4801 58.2898C82.2472 58.9205 82.1307 59.642 82.1307 60.4545C82.1307 61.2727 82.2472 62.0028 82.4801 62.6449C82.7188 63.2812 83.0682 63.7841 83.5284 64.1534C83.9943 64.517 84.5653 64.6989 85.2415 64.6989ZM100.435 67.2557C99.1229 67.2557 97.9893 66.983 97.0348 66.4375C96.0859 65.8864 95.3558 65.108 94.8445 64.1023C94.3331 63.0909 94.0774 61.9006 94.0774 60.5312C94.0774 59.1847 94.3331 58.0028 94.8445 56.9858C95.3615 55.9631 96.0831 55.1676 97.0092 54.5994C97.9354 54.0256 99.0234 53.7386 100.273 53.7386C101.08 53.7386 101.842 53.8693 102.558 54.1307C103.279 54.3864 103.915 54.7841 104.467 55.3239C105.023 55.8636 105.461 56.5511 105.779 57.3864C106.097 58.2159 106.256 59.2045 106.256 60.3523V61.2983H95.5263V59.2188H103.299C103.293 58.6278 103.165 58.1023 102.915 57.642C102.665 57.1761 102.316 56.8097 101.867 56.5426C101.424 56.2756 100.907 56.142 100.316 56.142C99.6854 56.142 99.1314 56.2955 98.6541 56.6023C98.1768 56.9034 97.8047 57.3011 97.5376 57.7955C97.2763 58.2841 97.1428 58.821 97.1371 59.4062V61.2216C97.1371 61.983 97.2763 62.6364 97.5547 63.1818C97.8331 63.7216 98.2223 64.1364 98.7223 64.4261C99.2223 64.7102 99.8075 64.8523 100.478 64.8523C100.927 64.8523 101.333 64.7898 101.697 64.6648C102.06 64.5341 102.376 64.3438 102.643 64.0938C102.91 63.8438 103.112 63.5341 103.248 63.1648L106.129 63.4886C105.947 64.25 105.6 64.9148 105.089 65.483C104.583 66.0455 103.935 66.483 103.146 66.7955C102.356 67.1023 101.452 67.2557 100.435 67.2557ZM111.952 59.3295V67H108.866V53.9091H111.815V56.1335H111.969C112.27 55.4006 112.75 54.8182 113.409 54.3864C114.074 53.9545 114.895 53.7386 115.872 53.7386C116.776 53.7386 117.563 53.9318 118.233 54.3182C118.909 54.7045 119.432 55.2642 119.801 55.9972C120.176 56.7301 120.361 57.6193 120.355 58.6648V67H117.27V59.142C117.27 58.267 117.043 57.5824 116.588 57.0881C116.139 56.5937 115.517 56.3466 114.722 56.3466C114.182 56.3466 113.702 56.4659 113.281 56.7045C112.866 56.9375 112.54 57.2756 112.301 57.7188C112.068 58.1619 111.952 58.6989 111.952 59.3295ZM129.202 67.2557C127.895 67.2557 126.773 66.9688 125.835 66.3949C124.903 65.821 124.185 65.0284 123.679 64.017C123.179 63 122.929 61.8295 122.929 60.5057C122.929 59.1761 123.185 58.0028 123.696 56.9858C124.207 55.9631 124.929 55.1676 125.861 54.5994C126.798 54.0256 127.906 53.7386 129.185 53.7386C130.247 53.7386 131.188 53.9347 132.006 54.3267C132.83 54.7131 133.486 55.2614 133.974 55.9716C134.463 56.6761 134.741 57.5 134.81 58.4432H131.861C131.741 57.8125 131.457 57.2869 131.009 56.8665C130.565 56.4403 129.972 56.2273 129.227 56.2273C128.597 56.2273 128.043 56.3977 127.565 56.7386C127.088 57.0739 126.716 57.5568 126.449 58.1875C126.188 58.8182 126.057 59.5739 126.057 60.4545C126.057 61.3466 126.188 62.1136 126.449 62.7557C126.71 63.392 127.077 63.8835 127.548 64.2301C128.026 64.571 128.585 64.7415 129.227 64.7415C129.682 64.7415 130.088 64.6562 130.446 64.4858C130.81 64.3097 131.114 64.0568 131.358 63.7273C131.602 63.3977 131.77 62.9972 131.861 62.5256H134.81C134.736 63.4517 134.463 64.2727 133.991 64.9886C133.52 65.6989 132.878 66.2557 132.065 66.6591C131.253 67.0568 130.298 67.2557 129.202 67.2557ZM143.138 67.2557C141.826 67.2557 140.692 66.983 139.738 66.4375C138.789 65.8864 138.059 65.108 137.548 64.1023C137.036 63.0909 136.781 61.9006 136.781 60.5312C136.781 59.1847 137.036 58.0028 137.548 56.9858C138.065 55.9631 138.786 55.1676 139.712 54.5994C140.638 54.0256 141.727 53.7386 142.977 53.7386C143.783 53.7386 144.545 53.8693 145.261 54.1307C145.982 54.3864 146.619 54.7841 147.17 55.3239C147.727 55.8636 148.164 56.5511 148.482 57.3864C148.8 58.2159 148.96 59.2045 148.96 60.3523V61.2983H138.229V59.2188H146.002C145.996 58.6278 145.869 58.1023 145.619 57.642C145.369 57.1761 145.019 56.8097 144.57 56.5426C144.127 56.2756 143.61 56.142 143.019 56.142C142.388 56.142 141.835 56.2955 141.357 56.6023C140.88 56.9034 140.508 57.3011 140.241 57.7955C139.979 58.2841 139.846 58.821 139.84 59.4062V61.2216C139.84 61.983 139.979 62.6364 140.258 63.1818C140.536 63.7216 140.925 64.1364 141.425 64.4261C141.925 64.7102 142.511 64.8523 143.181 64.8523C143.63 64.8523 144.036 64.7898 144.4 64.6648C144.763 64.5341 145.079 64.3438 145.346 64.0938C145.613 63.8438 145.815 63.5341 145.951 63.1648L148.832 63.4886C148.65 64.25 148.303 64.9148 147.792 65.483C147.286 66.0455 146.638 66.483 145.849 66.7955C145.059 67.1023 144.156 67.2557 143.138 67.2557Z" fill="white"/>
</g>
</g>
<defs>
<linearGradient id="paint0_linear_0_1" x1="720" y1="0" x2="720" y2="3686" gradientUnits="userSpaceOnUse">
<stop stop-color="#035C57"/>
<stop offset="1"/>
</linearGradient>
<clipPath id="clip0_0_1">
<rect width="1440" height="3686" fill="white" transform="translate(-194 -626)"/>
</clipPath>
</defs>
</svg>
