<svg width="11" height="11" viewBox="0 0 11 11" fill="none" xmlns="http://www.w3.org/2000/svg">
<path d="M5.4206 0.600098L10.4992 2.63152V3.30866H9.82202C9.82202 3.40036 9.78587 3.47971 9.71357 3.54672C9.64127 3.61373 9.55575 3.64723 9.457 3.64723H1.3842C1.28545 3.64723 1.19993 3.61373 1.12763 3.54672C1.05533 3.47971 1.01918 3.40036 1.01918 3.30866H0.342041V2.63152L5.4206 0.600098ZM1.69632 3.9858H3.05061V8.04865H3.72775V3.9858H5.08203V8.04865H5.75917V3.9858H7.11346V8.04865H7.7906V3.9858H9.14488V8.04865H9.457C9.55575 8.04865 9.64127 8.08216 9.71357 8.14917C9.78587 8.21617 9.82202 8.29553 9.82202 8.38722V8.72579H1.01918V8.38722C1.01918 8.29553 1.05533 8.21617 1.12763 8.14917C1.19993 8.08216 1.28545 8.04865 1.3842 8.04865H1.69632V3.9858ZM10.1341 9.06436C10.2329 9.06436 10.3184 9.09787 10.3907 9.16488C10.463 9.23189 10.4992 9.31124 10.4992 9.40294V10.0801H0.342041V9.40294C0.342041 9.31124 0.37819 9.23189 0.450489 9.16488C0.522788 9.09787 0.608313 9.06436 0.707063 9.06436H10.1341Z" fill="#E5A809"/>
</svg>
