<svg width="17" height="17" viewBox="0 0 17 17" fill="none" xmlns="http://www.w3.org/2000/svg">
<g clip-path="url(#clip0_487_361)">
<path d="M3.1302 8.14139H0.234863C0.235922 7.25766 0.587451 6.41043 1.21234 5.78553C1.83724 5.16064 2.68447 4.80911 3.5682 4.80805H7.5682V1.89872C7.56832 1.71521 7.61471 1.53469 7.70309 1.37386C7.79147 1.21303 7.91898 1.07708 8.07382 0.978593C8.22867 0.880104 8.40585 0.822252 8.58898 0.810389C8.77211 0.798525 8.95527 0.833033 9.12153 0.910721L11.2549 1.91072C11.3513 1.97051 11.4309 2.05394 11.4862 2.1531C11.5414 2.25227 11.5703 2.36389 11.5703 2.47739C11.5703 2.59089 11.5414 2.7025 11.4862 2.80167C11.4309 2.90084 11.3513 2.98427 11.2549 3.04405L8.90153 4.14139V4.80805H12.9015C13.7853 4.80911 14.6325 5.16064 15.2574 5.78553C15.8823 6.41043 16.2338 7.25766 16.2349 8.14139H13.3395C12.8187 8.14152 12.3183 7.93846 11.9449 7.57539L10.1209 5.58939C9.61106 5.09773 8.92938 4.82466 8.22113 4.82839C7.51288 4.83213 6.83411 5.11238 6.32953 5.60939L4.5442 7.55539C4.16851 7.92944 3.66034 8.14004 3.1302 8.14139ZM8.23486 13.4747C8.05805 13.4747 7.88848 13.545 7.76346 13.67C7.63843 13.795 7.5682 13.9646 7.5682 14.1414V16.8081H8.90153V14.1414C8.90153 13.9646 8.83129 13.795 8.70627 13.67C8.58124 13.545 8.41167 13.4747 8.23486 13.4747ZM13.3395 9.47472H16.2349V14.8081C16.2349 15.3385 16.0241 15.8472 15.6491 16.2223C15.274 16.5973 14.7653 16.8081 14.2349 16.8081H10.2349V14.1414C10.2349 13.611 10.0241 13.1022 9.64908 12.7272C9.274 12.3521 8.7653 12.1414 8.23486 12.1414C7.70443 12.1414 7.19572 12.3521 6.82065 12.7272C6.44558 13.1022 6.23486 13.611 6.23486 14.1414V16.8081H2.23486C1.70443 16.8081 1.19572 16.5973 0.82065 16.2223C0.445577 15.8472 0.234863 15.3385 0.234863 14.8081L0.234863 9.47472H3.1302C3.5727 9.47487 4.0108 9.38681 4.41888 9.21568C4.82696 9.04455 5.19683 8.79379 5.50686 8.47805L7.2922 6.53205C7.54429 6.29553 7.87598 6.16224 8.22164 6.15853C8.5673 6.15483 8.90176 6.28099 9.15886 6.51205L10.9842 8.49805C11.2928 8.80839 11.6598 9.05449 12.0641 9.22213C12.4684 9.38977 12.9019 9.47562 13.3395 9.47472ZM4.23486 14.8081C4.23486 14.6312 4.16463 14.4617 4.0396 14.3366C3.91458 14.2116 3.74501 14.1414 3.5682 14.1414H2.90153C2.72472 14.1414 2.55515 14.2116 2.43013 14.3366C2.3051 14.4617 2.23486 14.6312 2.23486 14.8081C2.23486 14.9849 2.3051 15.1544 2.43013 15.2795C2.55515 15.4045 2.72472 15.4747 2.90153 15.4747H3.5682C3.74501 15.4747 3.91458 15.4045 4.0396 15.2795C4.16463 15.1544 4.23486 14.9849 4.23486 14.8081ZM4.23486 12.1414C4.23486 11.9646 4.16463 11.795 4.0396 11.67C3.91458 11.545 3.74501 11.4747 3.5682 11.4747H2.90153C2.72472 11.4747 2.55515 11.545 2.43013 11.67C2.3051 11.795 2.23486 11.9646 2.23486 12.1414C2.23486 12.3182 2.3051 12.4878 2.43013 12.6128C2.55515 12.7378 2.72472 12.8081 2.90153 12.8081H3.5682C3.74501 12.8081 3.91458 12.7378 4.0396 12.6128C4.16463 12.4878 4.23486 12.3182 4.23486 12.1414ZM9.5682 9.47472C9.5682 9.21101 9.49 8.95323 9.34349 8.73396C9.19698 8.51469 8.98874 8.3438 8.74511 8.24288C8.50147 8.14196 8.23338 8.11556 7.97474 8.16701C7.7161 8.21845 7.47852 8.34544 7.29205 8.53191C7.10558 8.71838 6.9786 8.95596 6.92715 9.2146C6.8757 9.47324 6.90211 9.74133 7.00302 9.98496C7.10394 10.2286 7.27484 10.4368 7.4941 10.5833C7.71337 10.7299 7.97116 10.8081 8.23486 10.8081C8.58849 10.8081 8.92762 10.6676 9.17767 10.4175C9.42772 10.1675 9.5682 9.82834 9.5682 9.47472ZM14.2349 14.8081C14.2349 14.6312 14.1646 14.4617 14.0396 14.3366C13.9146 14.2116 13.745 14.1414 13.5682 14.1414H12.9015C12.7247 14.1414 12.5551 14.2116 12.4301 14.3366C12.3051 14.4617 12.2349 14.6312 12.2349 14.8081C12.2349 14.9849 12.3051 15.1544 12.4301 15.2795C12.5551 15.4045 12.7247 15.4747 12.9015 15.4747H13.5682C13.745 15.4747 13.9146 15.4045 14.0396 15.2795C14.1646 15.1544 14.2349 14.9849 14.2349 14.8081ZM13.5682 11.4747H12.9015C12.7247 11.4747 12.5551 11.545 12.4301 11.67C12.3051 11.795 12.2349 11.9646 12.2349 12.1414C12.2349 12.3182 12.3051 12.4878 12.4301 12.6128C12.5551 12.7378 12.7247 12.8081 12.9015 12.8081H13.5682C13.745 12.8081 13.9146 12.7378 14.0396 12.6128C14.1646 12.4878 14.2349 12.3182 14.2349 12.1414C14.2349 11.9646 14.1646 11.795 14.0396 11.67C13.9146 11.545 13.745 11.4747 13.5682 11.4747Z" fill="#031621"/>
</g>
<defs>
<clipPath id="clip0_487_361">
<rect width="16" height="16" fill="white" transform="translate(0.234863 0.808105)"/>
</clipPath>
</defs>
</svg>
