<svg width="222" height="31" viewBox="0 0 222 31" fill="none" xmlns="http://www.w3.org/2000/svg">
<path d="M19.3267 9.0483C19.3646 7.73201 18.9621 6.72348 18.1193 6.02273C17.286 5.32197 16.0881 4.97159 14.5256 4.97159C13.4271 4.97159 12.4564 5.13731 11.6136 5.46875C10.7803 5.79072 10.108 6.24053 9.59659 6.81818C9.08523 7.38636 8.76799 8.03504 8.64489 8.7642C8.54072 9.3608 8.5928 9.88163 8.80114 10.3267C9.00947 10.7718 9.3267 11.1506 9.75284 11.4631C10.1884 11.7756 10.6809 12.036 11.2301 12.2443C11.7888 12.4527 12.357 12.6278 12.9347 12.7699L15.5483 13.4517C16.59 13.7074 17.5843 14.053 18.5312 14.4886C19.4782 14.9148 20.2973 15.464 20.9886 16.1364C21.6894 16.7992 22.2008 17.5994 22.5227 18.5369C22.8447 19.4744 22.8968 20.5729 22.679 21.8324C22.3949 23.5369 21.7083 25.0379 20.6193 26.3352C19.5398 27.6231 18.1193 28.6316 16.358 29.3608C14.6061 30.0805 12.5653 30.4403 10.2358 30.4403C7.98201 30.4403 6.0786 30.09 4.52557 29.3892C2.97254 28.679 1.83617 27.6515 1.11648 26.3068C0.40625 24.9621 0.178977 23.3286 0.434659 21.4062H5.61932C5.51515 22.4195 5.68087 23.2623 6.11648 23.9347C6.56155 24.607 7.20076 25.1089 8.03409 25.4403C8.86742 25.7718 9.83333 25.9375 10.9318 25.9375C12.0777 25.9375 13.1146 25.767 14.0426 25.4261C14.9706 25.0758 15.7282 24.5928 16.3153 23.9773C16.9119 23.3523 17.2765 22.6231 17.4091 21.7898C17.5417 21.0417 17.4328 20.4167 17.0824 19.9148C16.732 19.4129 16.1875 18.9962 15.4489 18.6648C14.7197 18.3239 13.8485 18.0208 12.8352 17.7557L9.68182 16.9034C7.39962 16.2784 5.66667 15.3409 4.48295 14.0909C3.30871 12.8409 2.89205 11.1742 3.23295 9.09091C3.51705 7.36742 4.23201 5.86648 5.37784 4.58807C6.52367 3.30019 7.95833 2.30114 9.68182 1.59091C11.4053 0.871211 13.2898 0.511363 15.3352 0.511363C17.3996 0.511363 19.1468 0.871211 20.5767 1.59091C22.0161 2.3106 23.0672 3.31439 23.7301 4.60227C24.4025 5.88068 24.625 7.36269 24.3977 9.0483H19.3267ZM35.2607 30.4261C33.0826 30.4261 31.2929 29.9479 29.8913 28.9915C28.4898 28.035 27.5097 26.714 26.951 25.0284C26.4018 23.3333 26.3118 21.3826 26.6811 19.1761C27.041 16.9602 27.7843 15.0047 28.9112 13.3097C30.0476 11.6051 31.4775 10.2794 33.201 9.33239C34.9245 8.37595 36.8516 7.89773 38.9822 7.89773C40.7531 7.89773 42.2635 8.22443 43.5135 8.87784C44.773 9.52178 45.7105 10.4356 46.326 11.6193C46.951 12.7936 47.1925 14.1667 47.0504 15.7386H42.1214C42.1025 14.6875 41.7758 13.8116 41.1413 13.1108C40.5069 12.4006 39.5788 12.0455 38.3572 12.0455C37.2966 12.0455 36.3213 12.3295 35.4311 12.8977C34.541 13.4564 33.7881 14.2614 33.1726 15.3125C32.5571 16.3636 32.1309 17.6231 31.8942 19.0909C31.648 20.5777 31.6527 21.8561 31.9084 22.9261C32.1735 23.9867 32.6518 24.8059 33.343 25.3835C34.0438 25.9517 34.9292 26.2358 35.9993 26.2358C36.7569 26.2358 37.4624 26.0937 38.1158 25.8097C38.7692 25.5161 39.3421 25.0947 39.8345 24.5455C40.3364 23.9962 40.7294 23.3286 41.0135 22.5426H45.9283C45.54 24.0862 44.8487 25.4545 43.8544 26.6477C42.8696 27.8314 41.648 28.7595 40.1896 29.4318C38.7313 30.0947 37.0883 30.4261 35.2607 30.4261ZM48.8864 30L52.5227 8.18182H57.5085L56.8977 11.8182H57.125C57.7216 10.5587 58.5644 9.58807 59.6534 8.90625C60.7519 8.21496 61.9261 7.86932 63.1761 7.86932C63.4697 7.86932 63.7869 7.88352 64.1278 7.91193C64.4688 7.93087 64.7623 7.96401 65.0085 8.01136L64.2131 12.7415C63.9953 12.6657 63.6544 12.5994 63.1903 12.5426C62.7358 12.4763 62.286 12.4432 61.8409 12.4432C60.9034 12.4432 60.0322 12.6468 59.2273 13.054C58.4318 13.4517 57.7595 14.0057 57.2102 14.7159C56.661 15.4261 56.3059 16.2453 56.1449 17.1733L54.0284 30H48.8864ZM73.4886 30.4261C71.3011 30.4261 69.4924 29.9716 68.0625 29.0625C66.6326 28.1439 65.6288 26.8466 65.0511 25.1705C64.483 23.4848 64.3883 21.5009 64.767 19.2188C65.1364 16.9744 65.8892 15.0047 67.0256 13.3097C68.1619 11.6051 69.5824 10.2794 71.2869 9.33239C73.0009 8.37595 74.8949 7.89773 76.9688 7.89773C78.3134 7.89773 79.5492 8.11553 80.6761 8.55114C81.803 8.97727 82.7547 9.64015 83.5312 10.5398C84.3078 11.4394 84.8428 12.5852 85.1364 13.9773C85.4299 15.3598 85.4157 17.0076 85.0938 18.9205L84.8523 20.4972H66.9545L67.5085 17.0312H80.4631C80.6335 16.0464 80.5767 15.1705 80.2926 14.4034C80.0085 13.6269 79.535 13.0161 78.8722 12.571C78.2093 12.1259 77.3807 11.9034 76.3864 11.9034C75.3731 11.9034 74.4261 12.1638 73.5455 12.6847C72.6742 13.196 71.9403 13.8589 71.3438 14.6733C70.7472 15.4877 70.3684 16.3447 70.2074 17.2443L69.625 20.5682C69.4167 21.9318 69.464 23.0445 69.767 23.9062C70.0701 24.768 70.6004 25.4025 71.358 25.8097C72.1155 26.2169 73.072 26.4205 74.2273 26.4205C74.9848 26.4205 75.6856 26.3163 76.3295 26.108C76.9735 25.8996 77.5464 25.5871 78.0483 25.1705C78.5597 24.7443 78.9858 24.2235 79.3267 23.608L84.0284 24.1477C83.5076 25.4167 82.7453 26.5246 81.7415 27.4716C80.7377 28.4091 79.535 29.1383 78.1335 29.6591C76.7415 30.1705 75.1932 30.4261 73.4886 30.4261ZM97.2386 30.4261C95.0511 30.4261 93.2424 29.9716 91.8125 29.0625C90.3826 28.1439 89.3788 26.8466 88.8011 25.1705C88.233 23.4848 88.1383 21.5009 88.517 19.2188C88.8864 16.9744 89.6392 15.0047 90.7756 13.3097C91.9119 11.6051 93.3324 10.2794 95.0369 9.33239C96.7509 8.37595 98.6449 7.89773 100.719 7.89773C102.063 7.89773 103.299 8.11553 104.426 8.55114C105.553 8.97727 106.505 9.64015 107.281 10.5398C108.058 11.4394 108.593 12.5852 108.886 13.9773C109.18 15.3598 109.166 17.0076 108.844 18.9205L108.602 20.4972H90.7045L91.2585 17.0312H104.213C104.384 16.0464 104.327 15.1705 104.043 14.4034C103.759 13.6269 103.285 13.0161 102.622 12.571C101.959 12.1259 101.131 11.9034 100.136 11.9034C99.1231 11.9034 98.1761 12.1638 97.2955 12.6847C96.4242 13.196 95.6903 13.8589 95.0938 14.6733C94.4972 15.4877 94.1184 16.3447 93.9574 17.2443L93.375 20.5682C93.1667 21.9318 93.214 23.0445 93.517 23.9062C93.8201 24.768 94.3504 25.4025 95.108 25.8097C95.8655 26.2169 96.822 26.4205 97.9773 26.4205C98.7348 26.4205 99.4356 26.3163 100.08 26.108C100.723 25.8996 101.296 25.5871 101.798 25.1705C102.31 24.7443 102.736 24.2235 103.077 23.608L107.778 24.1477C107.258 25.4167 106.495 26.5246 105.491 27.4716C104.488 28.4091 103.285 29.1383 101.884 29.6591C100.491 30.1705 98.9432 30.4261 97.2386 30.4261ZM118.659 17.2159L116.557 30H111.401L115.037 8.18182H119.966L119.341 11.8892H119.611C120.293 10.6676 121.249 9.69697 122.48 8.97727C123.711 8.25758 125.146 7.89773 126.784 7.89773C128.271 7.89773 129.521 8.2197 130.534 8.86364C131.547 9.49811 132.267 10.4309 132.693 11.6619C133.119 12.8835 133.186 14.3655 132.892 16.108L130.562 30H125.42L127.594 16.9034C127.84 15.4545 127.655 14.3182 127.04 13.4943C126.434 12.661 125.458 12.2443 124.114 12.2443C123.214 12.2443 122.385 12.4432 121.628 12.8409C120.87 13.2292 120.231 13.7926 119.71 14.5312C119.199 15.2699 118.848 16.1648 118.659 17.2159ZM155.662 13.9489L150.932 14.4602C150.884 13.9773 150.738 13.5275 150.491 13.1108C150.245 12.6941 149.876 12.3627 149.384 12.1165C148.901 11.8608 148.276 11.733 147.509 11.733C146.391 11.733 145.411 11.9839 144.568 12.4858C143.725 12.9877 143.247 13.6316 143.134 14.4176C143.029 15.0047 143.171 15.483 143.56 15.8523C143.948 16.2216 144.668 16.5341 145.719 16.7898L149.327 17.5852C151.315 18.0303 152.745 18.75 153.616 19.7443C154.497 20.7386 154.805 22.0407 154.54 23.6506C154.313 24.9953 153.725 26.179 152.778 27.2017C151.831 28.215 150.619 29.0057 149.142 29.5739C147.674 30.142 146.045 30.4261 144.256 30.4261C141.538 30.4261 139.445 29.8627 137.977 28.7358C136.519 27.5994 135.795 26.0369 135.804 24.0483L140.861 23.5653C140.918 24.5502 141.263 25.2936 141.898 25.7955C142.532 26.2879 143.413 26.5388 144.54 26.5483C145.809 26.5578 146.879 26.2926 147.75 25.7528C148.631 25.2036 149.128 24.536 149.241 23.75C149.336 23.1629 149.189 22.6847 148.801 22.3153C148.422 21.946 147.745 21.6525 146.77 21.4347L143.19 20.6534C141.164 20.2083 139.72 19.4555 138.858 18.3949C138.006 17.3248 137.717 15.9754 137.991 14.3466C138.219 13.0208 138.773 11.8797 139.653 10.9233C140.544 9.95739 141.685 9.21401 143.077 8.69318C144.469 8.16288 146.027 7.89773 147.75 7.89773C150.345 7.89773 152.3 8.44223 153.616 9.53125C154.933 10.6203 155.615 12.0928 155.662 13.9489ZM164.987 17.2159L162.885 30H157.729L162.558 0.90909H167.601L165.783 11.8892H166.053C166.744 10.6487 167.686 9.6733 168.879 8.96307C170.082 8.25284 171.526 7.89773 173.212 7.89773C174.708 7.89773 175.967 8.21496 176.99 8.84943C178.013 9.4839 178.732 10.4119 179.149 11.6335C179.575 12.8551 179.646 14.3466 179.362 16.108L177.033 30H171.876L174.064 16.9034C174.301 15.4356 174.107 14.2945 173.482 13.4801C172.866 12.6562 171.891 12.2443 170.555 12.2443C169.637 12.2443 168.789 12.4432 168.013 12.8409C167.236 13.2292 166.583 13.7926 166.053 14.5312C165.532 15.2699 165.177 16.1648 164.987 17.2159ZM191.82 30.4261C189.67 30.4261 187.88 29.9527 186.45 29.0057C185.03 28.0587 184.031 26.7282 183.453 25.0142C182.875 23.3002 182.771 21.3116 183.141 19.0483C183.51 16.8134 184.249 14.858 185.357 13.1818C186.474 11.5057 187.88 10.2083 189.575 9.28977C191.28 8.36174 193.188 7.89773 195.3 7.89773C197.449 7.89773 199.234 8.37595 200.655 9.33239C202.075 10.2794 203.074 11.6098 203.652 13.3239C204.239 15.0379 204.348 17.036 203.979 19.3182C203.619 21.5436 202.875 23.4896 201.749 25.1562C200.631 26.8229 199.225 28.1203 197.53 29.0483C195.835 29.9669 193.931 30.4261 191.82 30.4261ZM192.246 26.3068C193.439 26.3068 194.485 25.9848 195.385 25.3409C196.294 24.6875 197.037 23.8116 197.615 22.7131C198.202 21.6051 198.609 20.3741 198.837 19.0199C199.045 17.7131 199.05 16.5294 198.851 15.4688C198.652 14.3987 198.226 13.5511 197.572 12.9261C196.929 12.2917 196.034 11.9744 194.888 11.9744C193.695 11.9744 192.639 12.3059 191.72 12.9688C190.811 13.6222 190.068 14.5028 189.49 15.6108C188.912 16.7093 188.515 17.9356 188.297 19.2898C188.079 20.5966 188.07 21.7803 188.268 22.8409C188.467 23.9015 188.893 24.7443 189.547 25.3693C190.2 25.9943 191.1 26.3068 192.246 26.3068ZM221.113 8.18182L220.445 12.1591H207.917L208.57 8.18182H221.113ZM212.519 2.95455H217.661L214.252 23.4375C214.148 24.1288 214.167 24.6591 214.309 25.0284C214.46 25.3883 214.702 25.6345 215.033 25.767C215.374 25.8996 215.758 25.9659 216.184 25.9659C216.496 25.9659 216.79 25.9422 217.065 25.8949C217.339 25.8381 217.557 25.7955 217.718 25.767L217.945 29.7869C217.633 29.8816 217.211 29.9858 216.681 30.0994C216.16 30.2131 215.535 30.2794 214.806 30.2983C213.499 30.3267 212.363 30.1278 211.397 29.7017C210.441 29.2661 209.74 28.5985 209.295 27.6989C208.859 26.7898 208.76 25.6534 208.996 24.2898L212.519 2.95455Z" fill="#0FA958"/>
</svg>
