<svg width="15" height="15" viewBox="0 0 15 15" fill="none" xmlns="http://www.w3.org/2000/svg">
<path d="M5.28278 2.40447C6.02583 0.117583 9.26117 0.117583 10.0042 2.40447C10.3365 3.42719 11.2896 4.11963 12.3649 4.11963C14.7695 4.11963 15.7693 7.19662 13.8239 8.60999C12.954 9.24207 12.5899 10.3625 12.9222 11.3852C13.6653 13.6721 11.0478 15.5738 9.1025 14.1604C8.23252 13.5283 7.05448 13.5283 6.18449 14.1604C4.23915 15.5738 1.62171 13.6721 2.36477 11.3852C2.69707 10.3625 2.33303 9.24207 1.46305 8.60999C-0.48229 7.19662 0.517484 4.11963 2.92206 4.11963C3.99742 4.11963 4.95047 3.42719 5.28278 2.40447Z" fill="white"/>
</svg>
