<svg width="71" height="63" viewBox="0 0 71 63" fill="none" xmlns="http://www.w3.org/2000/svg">
<path fill-rule="evenodd" clip-rule="evenodd" d="M60.2048 58.8696V58.8623L60.2692 58.7069L71 4.06618V3.89272C71 2.53031 70.4991 1.34137 69.4185 0.629452C68.4703 0.00426303 67.3789 -0.0391023 66.6132 0.0187186C65.9005 0.0843908 65.1973 0.229835 64.5164 0.452375C64.2258 0.546009 63.9393 0.652111 63.6577 0.77039L63.6112 0.788459L3.78475 24.4914L3.76686 24.4986C3.58357 24.5575 3.40528 24.6313 3.23372 24.7191C2.80847 24.9126 2.40029 25.1423 2.01357 25.4057C1.24428 25.9406 -0.219181 27.1982 0.0277101 29.193C0.231664 30.8481 1.35878 31.8961 2.12092 32.4418C2.56977 32.7618 3.05362 33.0286 3.56291 33.2368L3.67741 33.2874L3.71319 33.2983L3.73823 33.3091L14.2079 36.8687C14.1697 37.5336 14.2377 38.2022 14.4118 38.8744L19.6538 58.9635C19.9401 60.0586 20.5589 61.0355 21.4232 61.7572C22.2876 62.4788 23.354 62.9089 24.4727 62.9871C25.5915 63.0652 26.7064 62.7875 27.6608 62.1929C28.6152 61.5983 29.3613 60.7166 29.7942 59.6718L37.981 50.8325L52.0395 61.7172L52.2398 61.804C53.5172 62.3677 54.7088 62.5448 55.8001 62.3966C56.8914 62.2449 57.7573 61.7823 58.4086 61.2583C59.1619 60.6417 59.7623 59.8559 60.1618 58.9635L60.1905 58.9021L60.2012 58.8804L60.2048 58.8696ZM19.6001 37.4939C19.5421 37.271 19.5559 37.0352 19.6395 36.8208C19.7231 36.6063 19.8723 36.4244 20.0653 36.3013L55.5639 13.5344C55.5639 13.5344 57.6536 12.2515 57.5784 13.5344C57.5784 13.5344 57.9505 13.7584 56.8306 14.81C55.7715 15.8111 31.5296 39.449 29.075 41.8413C28.9418 41.9777 28.8467 42.1472 28.7995 42.3328L24.8421 57.583L19.6001 37.4939Z" fill="#2A9DB5"/>
</svg>
