<svg width="12" height="13" viewBox="0 0 12 13" fill="none" xmlns="http://www.w3.org/2000/svg">
<path d="M5.8706 11.4335C7.10168 11.4335 8.28234 10.9445 9.15284 10.074C10.0233 9.20348 10.5124 8.02282 10.5124 6.79174C10.5124 5.56066 10.0233 4.38 9.15284 3.5095C8.28234 2.63899 7.10168 2.14995 5.8706 2.14995C4.63952 2.14995 3.45886 2.63899 2.58836 3.5095C1.71785 4.38 1.22881 5.56066 1.22881 6.79174C1.22881 8.02282 1.71785 9.20348 2.58836 10.074C3.45886 10.9445 4.63952 11.4335 5.8706 11.4335ZM5.8706 0.989502C6.63256 0.989502 7.38706 1.13958 8.09102 1.43117C8.79498 1.72276 9.43461 2.15015 9.9734 2.68894C10.5122 3.22773 10.9396 3.86736 11.2312 4.57132C11.5228 5.27528 11.6728 6.02978 11.6728 6.79174C11.6728 8.33059 11.0615 9.80641 9.9734 10.8945C8.88527 11.9827 7.40945 12.594 5.8706 12.594C2.66196 12.594 0.0683594 9.98297 0.0683594 6.79174C0.0683594 5.25289 0.679665 3.77707 1.7678 2.68894C2.85593 1.60081 4.33175 0.989502 5.8706 0.989502ZM6.16071 3.89062V6.9368L8.77172 8.48599L8.33655 9.19967L5.29037 7.37196V3.89062H6.16071Z" fill="#777777"/>
</svg>
