<svg width="307" height="269" viewBox="0 0 307 269" fill="none" xmlns="http://www.w3.org/2000/svg">
<circle cx="189.5" cy="116.5" r="116.5" fill="#090A16"/>
<path d="M264.999 116.5C264.999 158.204 231.414 192 189.999 192C148.584 192 114.999 158.204 114.999 116.5C114.999 74.7963 148.584 41 189.999 41C231.414 41 264.999 74.7963 264.999 116.5Z" fill="#38B7EE" stroke="#38B7EE" stroke-width="2"/>
<path d="M242.999 116.5C242.999 146.056 219.261 170 189.999 170C160.737 170 136.999 146.056 136.999 116.5C136.999 86.9441 160.737 63 189.999 63C219.261 63 242.999 86.9441 242.999 116.5Z" fill="#090A16" stroke="#FB0A0A" stroke-width="2"/>
<circle cx="190.499" cy="116.5" r="32.5" fill="url(#paint0_linear_886_87)" stroke="#F5F95A" stroke-width="2"/>
<circle cx="96.5" cy="96.5" r="95.5" transform="matrix(1 0 0 -1 93.999 213)" stroke="black" stroke-width="2"/>
<circle cx="116.5" cy="116.5" r="115.5" transform="matrix(1 0 0 -1 73.999 233)" stroke="white" stroke-width="2"/>
<path d="M141.653 171.216C138.207 176.64 135.108 181.321 134.786 181.604C134.493 181.87 133.796 182.175 133.275 182.282C132.426 182.423 131.685 182.249 124.789 180.254C116.23 177.763 115.858 177.59 115.372 175.639C115.124 174.638 115.162 174.402 117.112 167.125C119.29 158.999 119.475 158.581 120.898 157.953C121.81 157.583 144.703 156.163 145.713 156.434C146.516 156.649 147.536 157.71 147.939 158.777C148.542 160.292 148.327 160.727 141.653 171.216Z" fill="white"/>
<path d="M113.311 188.841C112.459 189.818 111.098 190.216 109.858 189.884C108.595 189.545 108.175 189.187 107.154 187.486L106.365 186.118L55.7832 215.302C10.0566 241.702 5.13308 244.467 4.30953 244.419C2.364 244.242 0.717456 242.398 0.8697 240.544C1.00679 238.564 -1.37546 240.017 52.3326 208.989L102.722 179.877L101.884 178.324C100.911 176.537 100.794 175.227 101.465 174.102C102.574 172.259 105.309 171.786 106.83 173.178C107.636 173.935 114.136 185.396 114.215 186.204C114.307 187.237 114.017 188.045 113.311 188.841Z" fill="white"/>
<path d="M44.093 239.554C43.765 239.859 39.572 242.377 34.8046 245.11C27.3718 249.343 25.9992 250.058 25.2278 249.999C23.9955 249.915 23.0822 249.375 22.3793 248.325C21.7497 247.369 21.6604 246.509 22.0275 244.221L22.2588 242.807L34.332 235.856C45.1014 229.638 46.3928 228.95 46.3722 229.486C46.3082 230.552 45.3041 19078 45.0027 237.903C44.8244 238.569 44.4791 239.214 44.093 239.554Z" fill="white"/>
<path d="M23.72 217.339L11.5534 224.363L9.70954 223.623C7.24756 222.619 6.2999 221.381 6.49356 219.465C6.64251 217.807 7.52966 217.159 16.7212 211.872C24.2767 207.548 25.5036 206.918 26.321 206.989C27.0696 207.042 35.7017 209.995 35.8591 210.234C35.8697 210.286 30.4145 213.474 23.72 217.339Z" fill="white"/>
<defs>
<linearGradient id="paint0_linear_886_87" x1="190.499" y1="83" x2="191.559" y2="171.637" gradientUnits="userSpaceOnUse">
<stop stop-color="#1E2247"/>
<stop offset="1"/>
</linearGradient>
</defs>
</svg>
