<svg width="11" height="10" viewBox="0 0 11 10" fill="none" xmlns="http://www.w3.org/2000/svg">
<rect x="1.13687" y="0.359774" width="8.73851" height="8.73851" rx="4.36925" stroke="#A7A7A7" stroke-width="0.529606"/>
<g clip-path="url(#clip0_1504_1064)">
<path d="M7.21351 3.6719C7.16766 3.74431 7.11576 3.81008 7.05784 3.86921C6.99991 3.92834 6.93595 3.98325 6.86596 4.03394V4.12083C6.86596 4.35253 6.82252 4.58665 6.73563 4.82318C6.64874 5.05971 6.52022 5.27391 6.35006 5.46579C6.1799 5.65767 5.97053 5.81515 5.72193 5.93824C5.47574 6.05892 5.19094 6.11926 4.86752 6.11926C4.66961 6.11926 4.48075 6.09151 4.30094 6.03599C4.12113 5.98048 3.95278 5.90204 3.7959 5.80067C3.82486 5.80308 3.85262 5.8061 3.87917 5.80972C3.90572 5.81334 3.93347 5.81515 3.96243 5.81515C4.12414 5.81515 4.27922 5.788 4.42765 5.73369C4.57609 5.67939 4.71064 5.60517 4.83132 5.51104C4.67927 5.50863 4.5435 5.46156 4.42403 5.36985C4.30456 5.27813 4.2231 5.16349 4.17966 5.02592C4.20138 5.02833 4.2231 5.03135 4.24482 5.03497C4.26654 5.03859 4.28827 5.0404 4.30999 5.0404C4.34137 5.0404 4.37335 5.03738 4.40593 5.03135C4.43851 5.02531 4.46928 5.01867 4.49825 5.01143C4.33895 4.98006 4.205 4.90041 4.09639 4.77249C3.98778 4.64457 3.93347 4.49493 3.93347 4.32357V4.31633C3.97933 4.34046 4.02941 4.36098 4.08372 4.37787C4.13802 4.39477 4.19414 4.40321 4.25206 4.40321C4.15793 4.34287 4.08251 4.26081 4.02579 4.15703C3.96907 4.05325 3.94071 3.93981 3.94071 3.81672C3.94071 3.75155 3.94916 3.69 3.96606 3.63208C3.98295 3.57415 4.00588 3.51985 4.03484 3.46916C4.12173 3.57536 4.21827 3.6719 4.32447 3.75879C4.43067 3.84568 4.54531 3.9205 4.6684 3.98325C4.7915 4.04601 4.92062 4.09669 5.05578 4.13531C5.19094 4.17151 5.33093 4.19323 5.47574 4.20047C5.4685 4.17634 5.46428 4.151 5.46307 4.12445C5.46187 4.0979 5.46126 4.07014 5.46126 4.04118C5.46126 3.84568 5.52945 3.67975 5.66581 3.54338C5.80218 3.40701 5.96811 3.33883 6.16361 3.33883C6.26498 3.33883 6.35851 3.35874 6.44419 3.39856C6.52987 3.43839 6.60529 3.4933 6.67046 3.56329C6.75011 3.54881 6.82734 3.52648 6.90216 3.49631C6.97698 3.46614 7.04939 3.43054 7.11939 3.38951C7.09525 3.47158 7.05543 3.5464 6.99991 3.61398C6.9444 3.68156 6.88044 3.73707 6.80803 3.78051C6.88044 3.77327 6.95044 3.7606 7.01802 3.7425C7.0856 3.7244 7.15076 3.70086 7.21351 3.6719Z" fill="#A7A7A7"/>
</g>
<defs>
<clipPath id="clip0_1504_1064">
<rect width="3.41861" height="3.70724" fill="white" transform="matrix(1 0 0 -1 3.79541 6.58264)"/>
</clipPath>
</defs>
</svg>
