<svg width="77" height="29" viewBox="0 0 77 29" fill="none" xmlns="http://www.w3.org/2000/svg">
<path d="M67.6054 22.5738C65.714 22.5738 64.3049 22.0533 63.3779 21.0124C62.451 19.9715 61.9882 18.3798 61.9895 16.2374V7.07877H66.4999V16.2071C66.4999 17.1889 66.7038 17.9098 67.1118 18.3697C67.5198 18.8297 68.1217 19.0603 68.9176 19.0617C69.3341 19.0724 69.7481 18.9935 70.1318 18.8303C70.5155 18.6672 70.8602 18.4235 71.1427 18.1155C71.7299 17.4848 72.0235 16.6489 72.0235 15.608V7.07877H76.5338V22.2752H72.1198V19.3622H72.5973C72.1778 20.3336 71.488 21.1624 70.611 21.7487C69.7114 22.3144 68.6661 22.6014 67.6054 22.5738Z" fill="#025C57"/>
<path d="M59.8406 3.20151V7.51454L57.9827 6.43729V4.28077L59.8406 3.20151Z" fill="#025C57"/>
<path d="M57.9987 2.1545L56.1408 1.07725L54.2829 0L52.427 1.07725L50.571 2.1545L48.7131 3.23175L50.571 4.31102L52.427 5.38827L54.2829 6.46753L56.1408 5.38827L57.9987 4.31102L59.8566 3.23175L57.9987 2.1545ZM54.2829 4.31102L52.425 3.23175L54.2829 2.1545L56.1408 3.23175L54.2829 4.31102Z" fill="#025C57"/>
<path d="M57.8181 6.53211V22.9471L57.7519 22.9854L54.2828 24.9987L50.8138 22.9854L50.7476 22.9471V18.8438H50.7496L54.2828 20.8934V12.687L50.7476 10.6353V6.53009H50.7496L54.2828 8.58171L57.8181 6.53009V6.53211Z" fill="#025C57"/>
<path d="M0 22.2752V19.332L9.02876 9.39061L9.05886 10.4114H0V7.07877H13.0536V9.99178L3.94256 20.0784L3.91246 18.9063H13.3806V22.2712L0 22.2752Z" fill="#025C57"/>
<path d="M23.6573 22.5738C21.0289 22.5738 18.9777 21.8684 17.5037 20.4577C16.0296 19.0469 15.294 17.1096 15.2966 14.6458C15.2662 13.2174 15.5896 11.8039 16.2376 10.5324C16.8388 9.37803 17.7492 8.41579 18.866 7.75459C20.0694 7.06184 21.4383 6.71305 22.8246 6.74593C24.3374 6.74593 25.5868 7.06602 26.5726 7.70618C27.5699 8.36128 28.354 9.29629 28.8277 10.3953C29.368 11.6604 29.6328 13.0272 29.6042 14.4037V15.4547H18.9964V13.2357H26.3458L25.8362 13.6553C25.8362 12.3736 25.5774 11.4073 25.0597 10.7564C24.5421 10.1054 23.8064 9.78065 22.8527 9.782C21.7826 9.782 20.9614 10.172 20.3889 10.952C19.8164 11.7321 19.5321 12.8537 19.5362 14.3169V14.7668C19.5362 16.2677 19.9047 17.3786 20.6417 18.0994C21.3787 18.8203 22.424 19.1807 23.7777 19.1807C24.5703 19.1866 25.3598 19.0807 26.1231 18.866C26.8662 18.6479 27.568 18.307 28.1997 17.8573L29.4236 20.8611C28.6483 21.4305 27.7788 21.8574 26.8555 22.122C25.8171 22.4289 24.7396 22.5811 23.6573 22.5738Z" fill="#025C57"/>
<path d="M39.7264 28.999C38.4188 29.0136 37.1143 28.8673 35.842 28.5633C34.7605 28.305 33.7306 27.8637 32.7963 27.2581L33.6932 24.0142C34.2418 24.3813 34.8335 24.6788 35.4548 24.8998C36.0911 25.1299 36.7455 25.306 37.411 25.4263C38.0566 25.5438 38.7112 25.6039 39.3672 25.6059C40.7048 25.6059 41.7007 25.2858 42.3548 24.6456C43.0088 24.0055 43.3372 23.0842 43.3399 21.8819V18.7309H43.6087C43.2914 19.7112 42.6198 20.5362 41.7267 21.0427C40.7483 21.6151 39.6322 21.9061 38.5005 21.8839C37.2591 21.914 36.0339 21.597 34.9612 20.9681C33.942 20.3429 33.1272 19.4312 32.6177 18.3456C32.0659 17.0767 31.781 15.7068 31.781 14.322C31.781 12.9372 32.0659 11.5673 32.6177 10.2985C33.1272 9.21283 33.942 8.3011 34.9612 7.67594C36.0339 7.04705 37.2591 6.72999 38.5005 6.76008C39.6273 6.7372 40.7383 7.02836 41.7107 7.6013C42.59 8.10597 43.254 8.91798 43.5766 9.88289L43.3379 9.76387L43.6368 7.09092H47.9967C47.9191 7.73243 47.8596 8.38268 47.8181 9.04167C47.778 9.70335 47.758 10.363 47.758 11.0247V21.3554C47.758 23.8394 47.0711 25.7363 45.6974 27.0463C44.3237 28.3562 42.3333 29.0071 39.7264 28.999ZM39.8147 18.4888C40.87 18.4888 41.7114 18.1284 42.3387 17.4075C42.966 16.6866 43.2797 15.6558 43.2797 14.3149C43.2797 12.9701 42.966 11.9385 42.3387 11.2204C41.7114 10.5022 40.87 10.1418 39.8147 10.1391C38.7446 10.1391 37.8939 10.4995 37.2625 11.2204C36.6312 11.9412 36.3175 12.9728 36.3215 14.3149C36.3215 15.6598 36.6352 16.6907 37.2625 17.4075C37.8899 18.1243 38.7406 18.4854 39.8147 18.4908V18.4888Z" fill="#025C57"/>
</svg>
