<svg width="16" height="16" viewBox="0 0 16 16" fill="none" xmlns="http://www.w3.org/2000/svg">
<path d="M14.6487 13.1249C13.7918 11.621 12.4537 10.4491 10.8499 9.79805C11.6475 9.19988 12.2366 8.36594 12.5338 7.41434C12.8311 6.46275 12.8214 5.44175 12.5062 4.49597C12.1909 3.55018 11.586 2.72757 10.7773 2.14465C9.96852 1.56172 8.99685 1.24805 7.99991 1.24805C7.00296 1.24805 6.03129 1.56172 5.22253 2.14465C4.41377 2.72757 3.80892 3.55018 3.49366 4.49597C3.1784 5.44175 3.16871 6.46275 3.46597 7.41434C3.76322 8.36594 4.35235 9.19988 5.14991 9.79805C3.54611 10.4491 2.20806 11.621 1.35116 13.1249C1.29806 13.2103 1.26267 13.3055 1.24709 13.4048C1.23152 13.5041 1.23607 13.6056 1.26048 13.7031C1.28489 13.8006 1.32867 13.8923 1.3892 13.9725C1.44973 14.0528 1.52578 14.1201 1.61284 14.1704C1.6999 14.2207 1.79617 14.253 1.89596 14.2653C1.99574 14.2777 2.09698 14.2698 2.19367 14.2423C2.29036 14.2147 2.38051 14.168 2.45878 14.1049C2.53705 14.0418 2.60184 13.9636 2.64928 13.8749C3.78178 11.9174 5.78178 10.7499 7.99991 10.7499C10.218 10.7499 12.218 11.918 13.3505 13.8749C13.4534 14.0403 13.6164 14.1591 13.8053 14.2064C13.9942 14.2537 14.194 14.2256 14.3626 14.1282C14.5312 14.0308 14.6553 13.8717 14.7087 13.6845C14.7621 13.4972 14.7405 13.2966 14.6487 13.1249ZM4.74991 5.99992C4.74991 5.35713 4.94051 4.72878 5.29763 4.19432C5.65474 3.65986 6.16232 3.2433 6.75618 2.99731C7.35004 2.75133 8.00351 2.68697 8.63395 2.81237C9.26439 2.93777 9.84348 3.2473 10.298 3.70182C10.7525 4.15635 11.0621 4.73544 11.1875 5.36588C11.3129 5.99632 11.2485 6.64978 11.0025 7.24364C10.7565 7.8375 10.34 8.34508 9.80551 8.7022C9.27105 9.05931 8.64269 9.24992 7.99991 9.24992C7.13826 9.24893 6.31218 8.9062 5.7029 8.29692C5.09363 7.68764 4.7509 6.86157 4.74991 5.99992Z" fill="#031621"/>
</svg>
