<svg width="10" height="10" viewBox="0 0 10 10" fill="none" xmlns="http://www.w3.org/2000/svg">
<rect x="0.513827" y="0.359774" width="8.73851" height="8.73851" rx="4.36925" stroke="#A7A7A7" stroke-width="0.529606"/>
<g clip-path="url(#clip0_1504_1073)">
<path d="M7.23853 3.73319C7.24784 3.90076 7.25482 4.06678 7.25948 4.23124C7.26413 4.39571 7.26646 4.56173 7.26646 4.7293C7.26646 4.89687 7.26413 5.06289 7.25948 5.22736C7.25482 5.39183 7.24784 5.55785 7.23853 5.72542C7.23853 5.93333 7.17181 6.11099 7.03837 6.25839C6.90494 6.40579 6.74202 6.47949 6.54963 6.47949C6.41619 6.48569 6.27965 6.4919 6.14001 6.4981C6.00347 6.50121 5.86538 6.50431 5.72574 6.50741C5.5861 6.51052 5.44645 6.51362 5.30681 6.51672C5.16717 6.51672 5.02597 6.51672 4.88323 6.51672C4.74048 6.51672 4.59929 6.51672 4.45965 6.51672C4.32 6.51362 4.18036 6.51052 4.04072 6.50741C3.90108 6.50431 3.76299 6.50121 3.62645 6.4981C3.48991 6.4919 3.35337 6.48569 3.21683 6.47949C3.02754 6.47949 2.8654 6.40656 2.73041 6.26071C2.59542 6.11486 2.52793 5.93643 2.52793 5.72542C2.51862 5.55785 2.51164 5.39183 2.50698 5.22736C2.50233 5.06289 2.5 4.89687 2.5 4.7293C2.5 4.56173 2.50388 4.39571 2.51164 4.23124C2.51939 4.06678 2.52793 3.90076 2.53724 3.73319C2.53724 3.52527 2.6024 3.34762 2.73274 3.20022C2.86307 3.05282 3.02443 2.97912 3.21683 2.97912C3.34406 2.97291 3.47284 2.96671 3.60317 2.9605C3.73351 2.9574 3.86462 2.95429 3.9965 2.95119C4.12838 2.94809 4.26104 2.94498 4.39448 2.94188C4.52792 2.94188 4.6629 2.94188 4.79944 2.94188H4.96701C5.10045 2.94188 5.23544 2.94188 5.37198 2.94188C5.50541 2.94498 5.63807 2.94809 5.76996 2.95119C5.90184 2.95429 6.03295 2.9574 6.16328 2.9605C6.29362 2.96671 6.4224 2.97291 6.54963 2.97912C6.73892 2.97912 6.90106 3.05204 7.03605 3.19789C7.17104 3.34374 7.23853 3.52217 7.23853 3.73319ZM4.42706 5.64163L5.77694 4.7293L4.42706 3.80766V5.64163Z" fill="#A7A7A7"/>
</g>
<defs>
<clipPath id="clip0_1504_1073">
<rect width="4.76646" height="4.76646" fill="white" transform="matrix(1 0 0 -1 2.5 7.1123)"/>
</clipPath>
</defs>
</svg>
