<svg width="22" height="9" viewBox="0 0 22 9" fill="none" xmlns="http://www.w3.org/2000/svg">
<path d="M18.6493 7.06844C18.1276 7.06844 17.7388 6.92486 17.4831 6.6377C17.2274 6.35055 17.0997 5.91147 17.1001 5.32046V2.79395H18.3443V5.31212C18.3443 5.58295 18.4006 5.78181 18.5131 5.90869C18.6257 6.03557 18.7917 6.0992 19.0113 6.09957C19.1262 6.10252 19.2404 6.08077 19.3462 6.03576C19.4521 5.99074 19.5472 5.92351 19.6251 5.83857C19.7871 5.66457 19.8681 5.43399 19.8681 5.14684V2.79395H21.1123V6.98608H19.8947V6.18249H20.0264C19.9107 6.45045 19.7204 6.67907 19.4784 6.84083C19.2303 6.99688 18.9419 7.07604 18.6493 7.06844Z" fill="#262A2E"/>
<path d="M16.5076 1.72461V2.91441L15.9951 2.61724V2.02234L16.5076 1.72461Z" fill="#262A2E"/>
<path d="M15.999 1.43565L15.4865 1.13848L14.974 0.841309L14.462 1.13848L13.95 1.43565L13.4375 1.73283L13.95 2.03055L14.462 2.32773L14.974 2.62545L15.4865 2.32773L15.999 2.03055L16.5116 1.73283L15.999 1.43565ZM14.974 2.03055L14.4615 1.73283L14.974 1.43565L15.4865 1.73283L14.974 2.03055Z" fill="#262A2E"/>
<path d="M15.9495 2.64313V7.17139L15.9312 7.18197L14.9743 7.73736L14.0173 7.18197L13.999 7.17139V6.03947H13.9996L14.9743 6.60487V4.34102L13.999 3.77506V2.64258H13.9996L14.9743 3.20854L15.9495 2.64258V2.64313Z" fill="#262A2E"/>
<path d="M0 6.98607V6.17414L2.49069 3.43169L2.49899 3.71328H0V2.79395H3.60099V3.59753L1.0876 6.38005L1.0793 6.05672H3.6912V6.98496L0 6.98607Z" fill="#262A2E"/>
<path d="M6.52616 7.06857C5.80109 7.06857 5.23525 6.87397 4.82862 6.48479C4.42199 6.09561 4.21904 5.56118 4.21978 4.88151C4.21138 4.48748 4.30059 4.09754 4.47937 3.7468C4.6452 3.42834 4.89636 3.1629 5.20443 2.9805C5.53641 2.7894 5.91403 2.69318 6.29646 2.70225C6.71379 2.70225 7.05843 2.79055 7.33038 2.96714C7.6055 3.14786 7.82181 3.40579 7.9525 3.70896C8.10154 4.05796 8.17458 4.435 8.1667 4.81473V5.10467H5.24041V4.49251H7.26783L7.12725 4.60827C7.12725 4.2547 7.05585 3.98814 6.91305 3.80857C6.77025 3.62901 6.5673 3.53941 6.30421 3.53978C6.00902 3.53978 5.78246 3.64737 5.62453 3.86255C5.4666 4.07773 5.38819 4.38715 5.3893 4.7908V4.9149C5.3893 5.32894 5.49096 5.63538 5.69427 5.83424C5.89758 6.0331 6.18595 6.13253 6.55937 6.13253C6.77802 6.13415 6.99582 6.10493 7.2064 6.04571C7.41138 5.98555 7.60497 5.89152 7.77926 5.76746L8.11688 6.59609C7.903 6.75317 7.66314 6.87093 7.40842 6.94391C7.12197 7.02857 6.82472 7.07057 6.52616 7.06857Z" fill="#262A2E"/>
<path d="M10.9589 8.84099C10.5982 8.845 10.2383 8.80464 9.88736 8.72079C9.58902 8.64954 9.3049 8.52778 9.04717 8.36073L9.29458 7.46587C9.44593 7.56714 9.60915 7.6492 9.78054 7.71018C9.95608 7.77364 10.1366 7.82222 10.3202 7.85542C10.4983 7.88783 10.6789 7.90441 10.8598 7.90495C11.2288 7.90495 11.5035 7.81665 11.684 7.64006C11.8644 7.46346 11.955 7.20932 11.9557 6.87765V6.00839H12.0299C11.9424 6.27883 11.7571 6.50641 11.5107 6.64614C11.2408 6.80405 10.9329 6.88432 10.6207 6.8782C10.2783 6.8865 9.94029 6.79904 9.64438 6.62555C9.36321 6.45309 9.13847 6.20158 8.99791 5.9021C8.84568 5.55208 8.76709 5.17418 8.76709 4.79215C8.76709 4.41013 8.84568 4.03223 8.99791 3.68221C9.13847 3.38273 9.36321 3.13122 9.64438 2.95876C9.94029 2.78527 10.2783 2.69781 10.6207 2.70611C10.9316 2.6998 11.2381 2.78012 11.5063 2.93817C11.7489 3.07739 11.9321 3.30139 12.0211 3.56757L11.9552 3.53474L12.0377 2.79737H13.2404C13.219 2.97434 13.2026 3.15372 13.1911 3.33551C13.1801 3.51804 13.1745 3.70002 13.1745 3.88255V6.7324C13.1745 7.41764 12.985 7.94094 12.6061 8.30229C12.2271 8.66365 11.6781 8.84321 10.9589 8.84099ZM10.9833 5.94161C11.2744 5.94161 11.5065 5.84218 11.6796 5.64332C11.8526 5.44447 11.9391 5.1601 11.9391 4.79021C11.9391 4.41921 11.8526 4.13465 11.6796 3.93653C11.5065 3.73842 11.2744 3.63899 10.9833 3.63825C10.6881 3.63825 10.4534 3.73768 10.2792 3.93653C10.1051 4.13539 10.0185 4.41995 10.0196 4.79021C10.0196 5.16121 10.1062 5.44558 10.2792 5.64332C10.4523 5.84107 10.687 5.94068 10.9833 5.94217V5.94161Z" fill="#262A2E"/>
</svg>
