<svg width="266" height="233" viewBox="0 0 266 233" fill="none" xmlns="http://www.w3.org/2000/svg">
<circle cx="148.5" cy="116.5" r="116.5" fill="#090A16"/>
<path d="M201.999 116.5C201.999 146.056 178.261 170 148.999 170C119.737 170 95.999 146.056 95.999 116.5C95.999 86.9441 119.737 63 148.999 63C178.261 63 201.999 86.9441 201.999 116.5Z" stroke="#FB0A0A" stroke-width="2"/>
<circle cx="149.499" cy="116.5" r="32.5" fill="#F5F95A" stroke="#F5F95A" stroke-width="2"/>
<path d="M223.999 116.5C223.999 158.204 190.414 192 148.999 192C107.584 192 73.999 158.204 73.999 116.5C73.999 74.7963 107.584 41 148.999 41C190.414 41 223.999 74.7963 223.999 116.5Z" stroke="#38B7EE" stroke-width="2"/>
<circle cx="96.5" cy="96.5" r="95.5" transform="matrix(1 0 0 -1 52.999 213)" stroke="black" stroke-width="2"/>
<circle cx="116.5" cy="116.5" r="115.5" transform="matrix(1 0 0 -1 32.999 233)" stroke="white" stroke-width="2"/>
<path d="M141.653 133.216C138.207 138.64 135.108 143.321 134.786 143.604C134.493 143.87 133.796 144.175 133.275 144.282C132.426 144.423 131.685 144.249 124.789 142.254C116.23 139.763 115.858 139.59 115.372 137.639C115.124 136.638 115.162 136.402 117.112 129.125C119.29 120.999 119.475 120.581 120.898 119.953C121.81 119.583 144.703 118.163 145.713 118.434C146.516 118.649 147.536 119.71 147.939 120.777C148.542 122.292 148.327 122.727 141.653 133.216Z" fill="white"/>
<path d="M113.311 150.84C112.459 151.818 111.098 152.216 109.858 151.883C108.595 151.545 108.175 151.186 107.154 149.486L106.365 148.118L55.7832 177.302C10.0566 203.702 5.13308 206.467 4.30953 206.418C2.364 206.242 0.717456 204.398 0.8697 202.544C1.00679 200.563 -1.37546 202.016 52.3326 170.989L102.722 141.877L101.884 140.323C100.911 138.537 100.794 137.227 101.465 136.102C102.574 134.259 105.309 133.786 106.83 135.178C107.636 135.935 114.136 147.395 114.215 148.204C114.307 149.237 114.017 150.045 113.311 150.84Z" fill="white"/>
<path d="M44.093 201.553C43.765 201.859 39.572 204.377 34.8046 207.11C27.3718 211.343 25.9992 212.058 25.2278 211.999C23.9955 211.915 23.0822 211.375 22.3793 210.325C21.7497 209.369 21.6604 208.509 22.0275 206.221L22.2588 204.806L34.332 197.855C45.1014 191.638 46.3928 190.95 46.3722 191.486C46.3082 192.551 45.3041 198.778 45.0027 199.903C44.8244 200.568 44.4791 201.214 44.093 201.553Z" fill="white"/>
<path d="M23.72 179.339L11.5534 186.363L9.70954 185.623C7.24756 184.619 6.2999 183.381 6.49356 181.465C6.64251 179.807 7.52966 179.159 16.7212 173.872C24.2767 169.548 25.5036 168.917 26.321 168.989C27.0696 169.042 35.7017 171.994 35.8591 172.233C35.8697 172.285 30.4145 175.474 23.72 179.339Z" fill="white"/>
</svg>
