<svg width="40" height="40" viewBox="0 0 40 40" fill="none" xmlns="http://www.w3.org/2000/svg">
<circle cx="20" cy="20" r="19" transform="matrix(1 0 0 -1 0 40)" fill="#0E97D8" stroke="white" stroke-width="2"/>
<path d="M10 26.0672V29.4445C10 29.7556 10.2444 30 10.5555 30H13.9328C14.0772 30 14.2216 29.9445 14.3216 29.8334L26.4533 17.7128L22.2872 13.5467L10.1666 25.6673C10.0555 25.7784 10 25.9117 10 26.0672ZM29.6751 14.491C29.7781 14.3882 29.8598 14.2661 29.9156 14.1317C29.9713 13.9973 30 13.8533 30 13.7078C30 13.5623 29.9713 13.4182 29.9156 13.2838C29.8598 13.1494 29.7781 13.0273 29.6751 12.9245L27.0755 10.3249C26.9727 10.2219 26.8506 10.1402 26.7162 10.0844C26.5818 10.0287 26.4377 10 26.2922 10C26.1467 10 26.0027 10.0287 25.8683 10.0844C25.7339 10.1402 25.6118 10.2219 25.509 10.3249L23.4759 12.358L27.642 16.5241L29.6751 14.491Z" fill="white"/>
</svg>
