<svg width="40" height="39" viewBox="0 0 40 39" fill="none" xmlns="http://www.w3.org/2000/svg">
<path d="M38.4477 25.063C38.3579 24.8604 38.2232 24.7028 38.111 24.5227C37.9763 24.3426 37.8417 24.185 37.6846 24.0499C37.5275 23.9148 37.3479 23.8247 37.1235 23.7347C36.9439 23.6896 36.7195 23.6671 36.495 23.6896C36.0686 23.7347 35.6422 23.8923 35.2606 24.0724C34.4751 24.4551 33.7344 24.9505 33.0162 25.4683C32.298 25.9861 31.6022 26.5265 30.9064 27.0669L29.0211 28.5303C28.3927 29.0256 27.7418 29.4759 27.1134 29.9487C26.4625 30.399 25.8116 30.8718 25.1383 31.2771L24.1283 31.9075L23.0734 32.4704C22.3776 32.8757 21.6145 33.1683 20.8739 33.5061L19.1906 34.114L18.5846 34.2716L17.395 34.5643C16.991 34.6543 16.5871 34.6993 16.1831 34.7894C15.3751 34.947 14.5671 34.992 13.7591 35.0596C12.9511 35.0821 12.1431 35.1271 11.3351 35.1046L10.1231 35.0821L8.91116 34.992C8.79893 34.992 8.70916 34.9695 8.59694 34.9695C13.2653 38.3467 19.3926 39.6751 25.4076 38.0315C31.8715 36.2754 36.697 31.5248 38.7619 25.6934C38.6721 25.5133 38.5599 25.2882 38.4477 25.063Z" fill="#21205F"/>
<path d="M39.2332 15.6743C39.0985 15.6743 38.8741 15.6968 38.6721 15.7644C38.2681 15.877 37.8417 16.0796 37.4152 16.3047C36.5624 16.755 35.7544 17.3404 34.9464 17.9033L32.5 19.6594C31.6695 20.2448 30.8391 20.8077 30.0087 21.3706C29.5822 21.6407 29.1558 21.8884 28.7294 22.1586C28.3029 22.4288 27.854 22.6539 27.4051 22.9016C26.9787 23.1493 26.5074 23.3744 26.0585 23.5996C25.6096 23.8247 25.1607 24.0499 24.6894 24.2075C24.2181 24.3876 23.7692 24.6127 23.2754 24.7478L21.8165 25.1981L20.3352 25.5359C19.8415 25.6484 19.3477 25.6935 18.8539 25.761C18.3601 25.8511 17.8439 25.8736 17.3502 25.8961C16.8339 25.9411 16.3402 25.9636 15.8464 25.9411C15.3302 25.9411 14.8364 25.9636 14.3426 25.9411C13.8264 25.9186 13.3327 25.9186 12.8389 25.8736C11.8289 25.806 10.8414 25.7385 9.83136 25.6259L6.84629 25.3107C5.85875 25.2206 4.84876 25.1306 3.86122 25.1531C3.36745 25.1531 2.87368 25.1981 2.4248 25.3107C2.20035 25.3557 2.0208 25.4233 1.84125 25.5359C2.64924 27.9449 3.90611 30.0838 5.4772 31.9075C5.56698 31.93 5.63431 31.93 5.72409 31.93C6.8014 32.0876 7.87872 32.2227 8.95604 32.3353C10.0334 32.4479 11.1107 32.5379 12.188 32.5604C12.7267 32.5604 13.2653 32.583 13.804 32.5604C14.3426 32.5379 14.8813 32.5154 15.3975 32.4704C15.9137 32.4028 16.4524 32.3353 16.9686 32.2678L18.5397 31.93L20.0659 31.4572C20.5597 31.2771 21.0534 31.052 21.5472 30.8493C22.041 30.6242 22.5123 30.3765 22.9837 30.1514C23.455 29.9037 23.9263 29.611 24.3976 29.3634C25.3178 28.8005 26.2156 28.2151 27.0909 27.5847C27.9663 26.9543 28.8416 26.3014 29.6945 25.6484C30.5698 24.9955 31.4451 24.3426 32.3653 23.7122C33.2855 23.1043 34.2506 22.5188 35.3504 22.2036C35.889 22.0685 36.495 22.001 37.0786 22.1135C37.6397 22.2261 38.2008 22.4963 38.6048 22.9016C38.8068 23.1043 39.0088 23.3069 39.1883 23.532C39.7494 21.0328 39.7943 18.3761 39.2557 15.7194C39.2332 15.6743 39.2332 15.6743 39.2332 15.6743Z" fill="#21205F"/>
<path d="M8.28272 23.3969C9.38248 23.532 10.4822 23.6446 11.5596 23.7572C12.6593 23.8472 13.7366 23.9148 14.8364 23.9373C15.3751 23.9373 15.9362 23.9373 16.4748 23.9148C17.0135 23.8698 17.5521 23.8472 18.0908 23.8022C18.6295 23.7122 19.1681 23.6671 19.6843 23.5546L21.233 23.1943L22.8041 22.6764C23.2979 22.4738 23.7692 22.2486 24.263 22.046C24.7567 21.8209 25.2281 21.5507 25.6994 21.303C26.1707 21.0553 26.6421 20.7401 27.0909 20.47C28.0111 19.8846 28.8865 19.2767 29.7618 18.6238C30.4351 18.1284 31.086 17.6106 31.7593 17.0928C30.8391 17.3854 29.9413 17.6331 29.0885 17.8808L28.9762 17.9033C28.7518 17.9483 28.5498 17.9933 28.3254 18.0609C27.8765 18.1735 27.4276 18.286 26.9338 18.3761L26.844 18.3986C26.6421 18.4211 26.4176 18.4662 26.2156 18.5112C25.7667 18.6012 25.3178 18.6688 24.8241 18.7588L24.6894 18.7814C24.465 18.8039 24.2405 18.8264 24.0161 18.8489C23.5896 18.8939 23.1632 18.939 22.7143 18.984L22.4899 19.0065L20.3128 19.0515L18.0459 18.8939C17.597 18.8489 17.1482 18.7814 16.6993 18.7138C16.4748 18.6913 16.2728 18.6463 16.0484 18.6238L15.9137 18.6012C15.4424 18.5112 15.016 18.4211 14.5895 18.3311C14.3651 18.286 14.1406 18.241 13.9162 18.196L13.8264 18.1735C13.3551 18.0609 12.9062 17.9258 12.4798 17.8132C12.2553 17.7457 12.0533 17.6781 11.8289 17.6331L11.7167 17.6106C10.4598 17.2278 9.15804 16.7775 7.78895 16.2597C6.4423 15.7419 5.14054 15.2015 4.01833 14.7512C3.70411 14.6161 3.16545 14.391 2.49213 14.0983C2.15547 13.9632 1.79636 13.8056 1.39237 13.648C0.404829 16.755 0.225275 20.1548 0.965932 23.532C1.14548 23.4645 1.32504 23.3969 1.50459 23.3519C2.67169 23.0592 3.81633 23.0817 4.93854 23.1493C6.08319 23.1493 7.18296 23.2619 8.28272 23.3969Z" fill="#F7923A"/>
<path d="M15.1731 3.8766C17.395 6.10556 22.0859 9.79798 34.4975 6.39825C30.9289 2.57075 25.8116 0.184186 20.1332 0.206701C17.8439 0.206701 15.6444 0.611964 13.6244 1.35495C13.8938 2.188 14.3651 3.06607 15.1731 3.8766Z" fill="#F7923A"/>
<path d="M37.7295 11.1038C37.4377 10.5185 37.1235 9.95558 36.7868 9.39271C32.9713 10.0682 29.5373 10.4284 26.5074 10.4284C20.1781 10.4509 15.5771 9.03248 12.7716 6.15059C11.6943 5.04737 11.0209 3.85409 10.5945 2.72835C7.22787 4.61959 4.48968 7.50148 2.78393 10.9687C6.5321 13.3103 20.223 20.2448 37.7295 11.1038Z" fill="#F7923A"/>
</svg>
